<?xml version="1.0" encoding="utf-8"?>
<!-- Generator: Adobe Illustrator 25.1.0, SVG Export Plug-In . SVG Version: 6.00 Build 0)  -->
<svg version="1.1" id="Layer_1" xmlns="http://www.w3.org/2000/svg" xmlns:xlink="http://www.w3.org/1999/xlink" x="0px" y="0px"
	 viewBox="0 0 53 58" style="enable-background:new 0 0 53 58;" xml:space="preserve">
<style type="text/css">
	.st0{fill:#1A335A;}
</style>
<path id="sack-dollar-solid" class="st0" d="M33.09,12.52H19.91l-4.88-7.33c-0.51-0.76-0.3-1.78,0.46-2.29
	c0.27-0.18,0.59-0.28,0.92-0.28h20.21c0.91,0,1.65,0.74,1.65,1.65c0,0.33-0.1,0.64-0.28,0.92L33.09,12.52z M19.91,15.81h13.19
	c0.39,0.26,0.83,0.55,1.25,0.86c5.93,3.74,18.53,11.79,18.53,28.8c0,5.46-4.43,9.89-9.89,9.89H10.02c-5.46,0-9.89-4.43-9.89-9.89
	l0,0c0-17.01,12.6-25.06,18.44-28.8C19.07,16.36,19.51,16.07,19.91,15.81z M28.57,25.7c-0.01-1.16-0.96-2.08-2.12-2.07
	c-0.02,0-0.03,0-0.05,0c-1.11,0.04-1.99,0.96-1.98,2.07v0.62c-0.57,0.11-1.12,0.28-1.64,0.53c-1.65,0.68-2.85,2.14-3.2,3.88
	c-0.2,1.01-0.08,2.05,0.35,2.99c0.4,0.82,1.02,1.51,1.78,2.01c1.24,0.74,2.58,1.3,3.98,1.65l0.23,0.06
	c1.06,0.25,2.08,0.66,3.02,1.21c0.17,0.1,0.3,0.25,0.38,0.42c0.08,0.22,0.09,0.46,0.03,0.68c-0.08,0.43-0.4,0.79-0.82,0.91
	c-0.95,0.33-1.98,0.4-2.97,0.2c-0.91-0.21-1.82-0.47-2.7-0.79c-0.23-0.08-0.45-0.16-0.66-0.23c-1.08-0.36-2.24,0.23-2.6,1.31
	c0,0,0,0.01,0,0.01c-0.36,1,0.16,2.11,1.16,2.47c0.05,0.02,0.1,0.03,0.15,0.05c0.13,0.12,0.28,0.21,0.45,0.25
	c1,0.36,2.02,0.67,3.05,0.91v0.66c-0.01,1.11,0.87,2.03,1.98,2.07c1.16,0.04,2.12-0.87,2.16-2.02c0-0.02,0-0.03,0-0.05v-0.57
	c0.55-0.1,1.08-0.35,1.58-0.47c2.75-1.12,4.07-4.26,2.95-7.01c0-0.01,0-0.01-0.01-0.02c-0.38-0.85-0.98-1.58-1.74-2.11
	c-1.28-0.82-2.69-1.43-4.16-1.79l-0.17-0.02c-1.04-0.27-2.05-0.66-2.99-1.18c-0.15-0.09-0.28-0.21-0.37-0.36
	c-0.07-0.17-0.07-0.35-0.02-0.53c0.04-0.21,0.2-0.55,0.84-0.83c0.94-0.36,1.95-0.49,2.95-0.36c0.45,0.16,1.85,0.43,2.25,0.53
	c1.1,0.29,2.22-0.36,2.52-1.46c0.29-1.1-0.36-2.22-1.46-2.52c-0.45-0.12-1.48-0.33-2.16-0.45L28.57,25.7z"/>
</svg>
