<svg xmlns="http://www.w3.org/2000/svg" width="24.521" height="25.105" viewBox="0 0.004 24.521 25.105"><g data-name="Group 4774" transform="translate(0 .004)" clip-path="url(&quot;#a&quot;)"><path d="M24.356 10.26s.165 1.756.165 2.337c0 .614-.165 2.443-.165 2.443l-.002.008c-.386 2.742-1.466 5.21-3.438 6.986l-4.051-3.05c.308-.204.6-.428.875-.673.977-.87 1.45-1.993 1.67-3.263H12.57V10.26h11.785Z" fill="#4386f7" fill-rule="evenodd" data-name="Path 2330"/><path d="m20.973 3.283-3.604 3.548c-1.3-1.084-2.889-1.879-4.707-1.879a7.644 7.644 0 0 0-7.22 5.135L1.33 6.989C3.4 2.861 7.675 0 12.57 0c3.204 0 6.182 1.293 8.394 3.276l.008.007" fill="#ee4131" fill-rule="evenodd" data-name="Path 2331"/><path d="m20.916 22.034-.04.036c-2.208 1.966-5.186 3.035-8.374 3.035-4.9 0-9.14-2.82-11.19-6.926l4.12-3.102a7.644 7.644 0 0 0 11.433 3.907l4.051 3.05Z" fill="#33a951" fill-rule="evenodd" data-name="Path 2332"/><path d="m5.432 15.076-4.12 3.103A12.461 12.461 0 0 1 0 12.597c0-2.009.48-3.915 1.329-5.608l4.114 3.098a7.633 7.633 0 0 0-.422 2.51c0 .868.145 1.702.411 2.48Z" fill="#ffbe00" fill-rule="evenodd" data-name="Path 2333"/></g><defs><clipPath id="a"><path d="M0 0h24.52v25.105H0V0z" data-name="Rectangle 1369"/></clipPath></defs></svg>