<?xml version="1.0" encoding="utf-8"?>
<!-- Generator: Adobe Illustrator 25.1.0, SVG Export Plug-In . SVG Version: 6.00 Build 0)  -->
<svg version="1.1" id="Layer_1" xmlns="http://www.w3.org/2000/svg" xmlns:xlink="http://www.w3.org/1999/xlink" x="0px" y="0px"
	 viewBox="0 0 53 58" style="enable-background:new 0 0 53 58;" xml:space="preserve">
<style type="text/css">
	.st0{fill:#1A335A;}
</style>
<path id="volleyball-solid" class="st0" d="M20.93,14.02c-1.67-2.88-3.79-5.47-6.28-7.67C4.17,11.79-1.19,23.72,1.71,35.17
	C4.79,25.69,11.79,17.98,20.93,14.02z M39.04,31.51c0.16-1.25,0.24-2.5,0.23-3.76c-0.03-9.3-4.08-18.14-11.12-24.22
	c-0.55-0.04-1.1-0.08-1.66-0.08c-2.95,0.01-5.88,0.52-8.65,1.53c6.35,6.05,10.04,14.37,10.26,23.13
	C31.5,29.95,35.21,31.1,39.04,31.51L39.04,31.51z M24.9,28.05c-0.14-3.85-0.99-7.64-2.52-11.17C12.61,21.06,5.56,29.85,3.6,40.3
	c1.55,3.15,3.73,5.94,6.41,8.21C12.07,39.99,17.43,32.63,24.9,28.05z M33.53,4.44c5.76,6.42,8.94,14.74,8.95,23.36
	c0,1.29-0.07,2.58-0.23,3.85h0.05c3.3,0,6.58-0.54,9.71-1.6c0.02-0.36,0.06-0.71,0.06-1.07C52.06,17.59,44.5,7.58,33.53,4.44z
	 M26.46,30.85c-3.29,2.01-6.15,4.65-8.42,7.77c5.45,4.11,12.09,6.32,18.91,6.32c3.67-0.02,7.31-0.61,10.79-1.77
	c1.94-2.91,3.25-6.19,3.86-9.63c-3.03,0.89-6.16,1.34-9.31,1.35C36.76,34.9,31.31,33.51,26.46,30.85z M16.22,41.31
	c-1.66,2.87-2.84,6-3.5,9.26c4.12,2.6,8.9,3.98,13.77,3.99c6.62,0.01,12.97-2.57,17.72-7.17c-2.38,0.49-4.8,0.75-7.23,0.77
	C29.52,48.08,22.26,45.69,16.22,41.31z"/>
</svg>
