<?xml version="1.0" encoding="utf-8"?>
<!-- Generator: Adobe Illustrator 25.1.0, SVG Export Plug-In . SVG Version: 6.00 Build 0)  -->
<svg version="1.1" id="Layer_1" xmlns="http://www.w3.org/2000/svg" xmlns:xlink="http://www.w3.org/1999/xlink" x="0px" y="0px"
	 viewBox="0 0 53 58" style="enable-background:new 0 0 53 58;" xml:space="preserve">
<style type="text/css">
	.st0{fill:#1C3459;}
</style>
<path id="earth-americas-solid" class="st0" d="M52.54,29c0,14.38-11.66,26.04-26.04,26.04S0.46,43.38,0.46,29S12.12,2.96,26.5,2.96
	S52.54,14.62,52.54,29z M6.33,22.49l0.95,1.76c0.84,1.48,2.23,2.57,3.87,3.04l5.8,1.68c1.79,0.46,3.04,2.06,3.04,3.91v4.06
	c-0.02,1.1,0.62,2.1,1.63,2.54c0.99,0.56,1.61,1.59,1.63,2.73v3.98c0,1.31,1.06,2.38,2.38,2.38c0.22,0,0.45-0.03,0.66-0.09
	c1.63-0.49,2.89-1.79,3.34-3.43l0.28-1.14c0.43-1.72,1.54-3.19,3.08-4.08l0.82-0.47c1.52-0.87,2.47-2.49,2.46-4.24v-0.83
	c0-1.3-0.52-2.54-1.44-3.46l-0.39-0.39c-0.91-0.94-2.15-1.49-3.46-1.53H26.5c-1.09,0.02-2.17-0.25-3.12-0.77l-3.52-2.01
	c-0.44-0.25-0.77-0.65-0.92-1.13c-0.33-0.98,0.11-2.05,1.03-2.52l0.61-0.29c0.64-0.34,1.4-0.4,2.08-0.15l2.45,0.78
	c1.02,0.34,2.12-0.22,2.46-1.23c0.21-0.64,0.08-1.34-0.35-1.86l-1.38-1.65c-1.01-1.21-1-2.98,0.02-4.19l1.6-1.87
	c0.9-1.04,1.04-2.54,0.36-3.73l-0.24-0.42c-0.44-0.02-0.7-0.03-1.06-0.03C17.31,7.84,9.17,13.76,6.33,22.49z M44.97,18.68l-2.6,1.04
	c-1.6,0.64-2.42,2.41-1.88,4.05l1.72,5.16c0.35,1.06,1.22,1.86,2.3,2.14l2.97,0.73C48.07,27.26,47.19,22.66,44.97,18.68L44.97,18.68
	z"/>
</svg>
