<svg xmlns="http://www.w3.org/2000/svg" width="29.137" height="19.668" viewBox="25.668 652 29.137 19.668"><path d="M25.668 669.926v-16.184c0-.019.028-.197.084-.534l9.525 8.148-9.497 9.132c-.075-.262-.112-.45-.112-.562Zm1.264-17.842a1.21 1.21 0 0 1 .478-.084h25.653c.168 0 .337.028.505.084l-9.553 8.177-1.264 1.011-2.5 2.051-2.501-2.051-1.265-1.011-9.553-8.177Zm.028 19.5 9.581-9.188 3.71 3.006 3.708-3.006 9.581 9.188a1.35 1.35 0 0 1-.477.084H27.41c-.15 0-.3-.028-.45-.084Zm18.263-10.228 9.497-8.148c.057.169.085.347.085.534v16.184c0 .169-.028.356-.085.562l-9.497-9.132Z" fill="#1c345a" fill-rule="evenodd" data-name="Icon zocial-email"/></svg>