<?xml version="1.0" encoding="utf-8"?>
<!-- Generator: Adobe Illustrator 25.1.0, SVG Export Plug-In . SVG Version: 6.00 Build 0)  -->
<svg version="1.1" id="Layer_1" xmlns="http://www.w3.org/2000/svg" xmlns:xlink="http://www.w3.org/1999/xlink" x="0px" y="0px"
	 viewBox="0 0 53 58" style="enable-background:new 0 0 53 58;" xml:space="preserve">
<style type="text/css">
	.st0{fill:#1C3459;}
</style>
<path id="Icon_metro-profile" class="st0" d="M49.1,14.87h-3.69V9.34L37.8,9.22l0.04,5.65H14.96l0.16-5.65L7.66,9.34v5.65
	l-3.77-0.12c-2.08,0-3.77,1.69-3.76,3.77c0,0,0,0,0,0v26.37c0,2.08,1.69,3.77,3.77,3.77h45.2c2.08,0,3.77-1.69,3.77-3.77l0,0V18.64
	C52.87,16.56,51.19,14.87,49.1,14.87C49.1,14.87,49.1,14.87,49.1,14.87z M39.69,11.1h3.77v7.54h-3.77V11.1z M15.2,23.93
	c2.61,0.4,4.43,2.8,4.12,5.41c0.31,2.62-1.51,5.01-4.12,5.41c-2.61-0.4-4.43-2.79-4.12-5.41C10.77,26.73,12.59,24.34,15.2,23.93z
	 M9.54,11.1h3.77v7.54H9.54V11.1z M7.03,41.14c0,0,0.44-3.58,1.46-4.26c1.25-0.56,2.58-0.94,3.94-1.13c0,0,1.89,2.02,2.7,2.02
	c0.81,0,2.7-2.02,2.7-2.02c1.36,0.19,2.69,0.57,3.94,1.13c1.19,0.8,1.49,4.26,1.49,4.26H7.03z M45.33,39.36H28.38v-1.88h16.95V39.36
	z M45.33,35.59H28.38v-1.88h16.95V35.59z M45.33,31.82H28.38v-1.88h16.95V31.82z M45.33,28.06H28.38v-1.88h16.95V28.06z"/>
</svg>
