<?xml version="1.0" encoding="utf-8"?>
<!-- Generator: Adobe Illustrator 25.1.0, SVG Export Plug-In . SVG Version: 6.00 Build 0)  -->
<svg version="1.1" id="Layer_1" xmlns="http://www.w3.org/2000/svg" xmlns:xlink="http://www.w3.org/1999/xlink" x="0px" y="0px"
	 viewBox="0 0 53 58" style="enable-background:new 0 0 53 58;" xml:space="preserve">
<style type="text/css">
	.st0{fill:#1C3459;}
</style>
<path id="Icon_awesome-id-card-alt" class="st0" d="M48.44,11.45H35.28v8.78H17.72v-8.78H4.56c-2.42,0-4.39,1.96-4.39,4.39v32.18
	c0,2.42,1.96,4.39,4.39,4.39l0,0h43.88c2.42,0,4.39-1.96,4.39-4.39l0,0V15.84C52.83,13.41,50.86,11.45,48.44,11.45z M26.5,26.07
	c3.23,0,5.85,2.62,5.85,5.85s-2.62,5.85-5.85,5.85s-5.85-2.62-5.85-5.85S23.27,26.07,26.5,26.07z M35.03,46.55H17.97
	c-0.8,0.01-1.45-0.63-1.46-1.42c0-0.13,0.01-0.26,0.05-0.38c0.78-2.41,3.03-4.04,5.56-4.04h0.76c2.32,0.97,4.93,0.97,7.26,0h0.75
	c2.54,0,4.79,1.63,5.57,4.04c0.2,0.77-0.26,1.56-1.03,1.76C35.29,46.54,35.15,46.56,35.03,46.55L35.03,46.55z M32.35,8.52
	c0-1.61-1.31-2.92-2.92-2.93c0,0,0,0,0,0h-5.85c-1.61,0-2.92,1.31-2.93,2.92c0,0,0,0,0,0v8.78h11.7V8.52z"/>
</svg>
