<?xml version="1.0" encoding="utf-8"?>
<!-- Generator: Adobe Illustrator 25.1.0, SVG Export Plug-In . SVG Version: 6.00 Build 0)  -->
<svg version="1.1" id="Layer_1" xmlns="http://www.w3.org/2000/svg" xmlns:xlink="http://www.w3.org/1999/xlink" x="0px" y="0px"
	 viewBox="0 0 53 58" style="enable-background:new 0 0 53 58;" xml:space="preserve">
<style type="text/css">
	.st0{fill:#1A335A;}
</style>
<path id="camera-solid" class="st0" d="M20.18,5.93h12.65c2.13,0,4.01,1.36,4.68,3.38l1.07,3.21h7.7c3.64,0,6.59,2.95,6.59,6.59
	v26.37c0,3.64-2.95,6.59-6.59,6.59H6.72c-3.64,0-6.59-2.95-6.59-6.59V19.11c0-3.64,2.95-6.59,6.59-6.59h7.7l1.07-3.21
	C16.16,7.29,18.05,5.92,20.18,5.93z M26.5,42.18c5.46,0.08,9.96-4.28,10.04-9.74c0.08-5.46-4.28-9.96-9.74-10.04c-0.1,0-0.2,0-0.3,0
	c-5.46-0.08-9.96,4.28-10.04,9.74c-0.08,5.46,4.28,9.96,9.74,10.04C26.3,42.19,26.4,42.19,26.5,42.18z"/>
</svg>
