<?xml version="1.0" encoding="utf-8"?>
<!-- Generator: Adobe Illustrator 25.1.0, SVG Export Plug-In . SVG Version: 6.00 Build 0)  -->
<svg version="1.1" id="Layer_1" xmlns="http://www.w3.org/2000/svg" xmlns:xlink="http://www.w3.org/1999/xlink" x="0px" y="0px"
	 viewBox="0 0 53 58" style="enable-background:new 0 0 53 58;" xml:space="preserve">
<style type="text/css">
	.st0{fill:#1C3459;}
</style>
<path id="Icon_awesome-school" class="st0" d="M0.13,26.36v22.41c0,0.73,0.59,1.32,1.32,1.32h6.59V23.73H2.77
	C1.31,23.73,0.13,24.91,0.13,26.36z M29.8,22.41h-1.98v-3.3c0-0.36-0.29-0.66-0.66-0.66c0,0,0,0,0,0h-1.32
	c-0.36,0-0.66,0.29-0.66,0.66l0,0v5.27c0,0.36,0.29,0.66,0.66,0.66c0,0,0,0,0,0h3.96c0.36,0,0.66-0.29,0.66-0.66c0,0,0,0,0,0v-1.32
	C30.46,22.7,30.16,22.41,29.8,22.41C29.8,22.41,29.8,22.41,29.8,22.41z M41.15,17.13L27.96,8.35c-0.89-0.59-2.04-0.59-2.93,0
	l-13.18,8.79c-0.73,0.49-1.17,1.31-1.18,2.19V50.1h10.55V38.23c0-0.73,0.59-1.32,1.32-1.32h7.91c0.73,0,1.32,0.59,1.32,1.32V50.1
	h10.55V19.33C42.32,18.45,41.88,17.63,41.15,17.13L41.15,17.13z M26.5,29c-3.64,0-6.59-2.95-6.59-6.59s2.95-6.59,6.59-6.59
	s6.59,2.95,6.59,6.59S30.14,29,26.5,29L26.5,29z M50.23,23.73h-5.27V50.1h6.59c0.73,0,1.32-0.59,1.32-1.32V26.36
	C52.87,24.91,51.69,23.73,50.23,23.73z"/>
</svg>
