<?xml version="1.0" encoding="utf-8"?>
<!-- Generator: Adobe Illustrator 25.1.0, SVG Export Plug-In . SVG Version: 6.00 Build 0)  -->
<svg version="1.1" id="Layer_1" xmlns="http://www.w3.org/2000/svg" xmlns:xlink="http://www.w3.org/1999/xlink" x="0px" y="0px"
	 viewBox="0 0 53 58" style="enable-background:new 0 0 53 58;" xml:space="preserve">
<style type="text/css">
	.st0{fill:#1A335A;}
</style>
<path id="building-columns-solid" class="st0" d="M25.2,3.27c0.82-0.35,1.74-0.35,2.56,0l22.75,9.75c1.42,0.61,2.21,2.13,1.9,3.64
	c-0.35,1.52-1.71,2.6-3.27,2.6v0.81c0.03,1.31-1,2.4-2.31,2.44c-0.04,0-0.08,0-0.12,0H6.09c-1.33-0.03-2.41-1.1-2.44-2.44v-0.81
	c-1.5-0.07-2.76-1.14-3.09-2.6c-0.31-1.51,0.49-3.03,1.9-3.64L25.2,3.27z M26.5,16c1.79,0,3.25-1.45,3.25-3.25S28.3,9.5,26.5,9.5
	s-3.25,1.45-3.25,3.25C23.25,14.55,24.71,16,26.5,16C26.5,16,26.5,16,26.5,16z M13.4,45.25h4.06v-19.5h6.5v19.5h4.97v-19.5h6.5v19.5
	h4.07v-19.5H46v19.93c0.06,0.03,0.12-0.02,0.18,0.11l4.87,3.25c1.49,1,1.89,3.02,0.89,4.51C51.35,54.46,50.33,55,49.24,55H3.66
	c-1.79-0.05-3.21-1.55-3.15-3.34c0.03-1.05,0.57-2.02,1.44-2.61l4.87-3.25c0.06-0.13,0.12-0.08,0.09-0.11V25.75h6.5V45.25z"/>
</svg>
