<svg xmlns="http://www.w3.org/2000/svg" width="93.148" height="93.148"><g data-name="Group 4780" clip-path="url(&quot;#a&quot;)"><path d="M89.488 28.445a46.423 46.423 0 0 0-9.98-14.804 46.423 46.423 0 0 0-14.805-9.98A46.292 46.292 0 0 0 46.574 0a46.292 46.292 0 0 0-18.129 3.66 46.423 46.423 0 0 0-14.804 9.981 46.423 46.423 0 0 0-9.98 14.804A46.292 46.292 0 0 0 0 46.575a46.292 46.292 0 0 0 3.66 18.128 46.423 46.423 0 0 0 9.981 14.804 46.423 46.423 0 0 0 14.804 9.981 46.292 46.292 0 0 0 18.13 3.66 46.292 46.292 0 0 0 18.128-3.66 46.423 46.423 0 0 0 14.804-9.98 46.423 46.423 0 0 0 9.981-14.805 46.292 46.292 0 0 0 3.66-18.129 46.292 46.292 0 0 0-3.66-18.129M46.574 17.302c9.667 0 17.504 7.836 17.504 17.503 0 9.666-7.837 17.503-17.504 17.503-9.667 0-17.503-7.837-17.503-17.503 0-9.667 7.836-17.503 17.503-17.503m0 69.23c-13.182 0-24.893-6.418-32.176-16.292A34.26 34.26 0 0 1 30.91 51.364a22.71 22.71 0 0 0 6.79 4.442 22.664 22.664 0 0 0 8.874 1.794c3.074 0 6.062-.604 8.875-1.794a22.71 22.71 0 0 0 6.79-4.442A34.265 34.265 0 0 1 78.75 70.24c-7.283 9.874-18.994 16.292-32.177 16.292" fill="#1c345a" fill-rule="evenodd" data-name="Path 2334"/></g><defs><clipPath id="a"><path d="M0 0h93v93H0V0z" data-name="Rectangle 1370" transform="translate(0 .148)"/></clipPath></defs></svg>