<svg xmlns="http://www.w3.org/2000/svg" width="18.646" height="24.861" viewBox="32 383.139 18.646 24.861"><path d="M49.48 383.139H33.165c-.643 0-1.165.522-1.165 1.165v.777c0 .644.522 1.166 1.165 1.166 0 4.417 2.478 8.144 5.868 9.322-3.39 1.179-5.868 4.906-5.868 9.323-.643 0-1.165.522-1.165 1.166v.777c0 .643.522 1.165 1.165 1.165H49.48c.644 0 1.166-.522 1.166-1.165v-.777c0-.644-.522-1.166-1.166-1.166 0-4.417-2.477-8.144-5.867-9.323 3.39-1.178 5.867-4.905 5.867-9.322.644 0 1.166-.522 1.166-1.166v-.777c0-.643-.522-1.165-1.166-1.165Zm-3.645 18.646H36.81c.828-2.273 2.53-3.885 4.512-3.885 1.982 0 3.684 1.612 4.512 3.885Zm0-12.43h-9.024a9.11 9.11 0 0 1-.538-3.108h10.1a9.11 9.11 0 0 1-.537 3.107Z" fill="#1c345a" fill-rule="evenodd" data-name="Icon awesome-hourglass-half"/></svg>