<svg xmlns="http://www.w3.org/2000/svg" width="21.535" height="24.612" viewBox="31 308.139 21.535 24.612"><path d="M31 330.443a2.308 2.308 0 0 0 2.307 2.308h16.92a2.308 2.308 0 0 0 2.308-2.308v-13.075H31v13.075Zm3.076-9.23c0-.422.347-.768.77-.768h4.614c.423 0 .77.346.77.769v4.615c0 .423-.347.769-.77.769h-4.614a.771.771 0 0 1-.77-.77v-4.614Zm16.152-9.998H47.92v-2.307a.771.771 0 0 0-.769-.77h-1.538a.771.771 0 0 0-.769.77v2.307h-6.153v-2.307a.771.771 0 0 0-.769-.77h-1.538a.771.771 0 0 0-.77.77v2.307h-2.307A2.308 2.308 0 0 0 31 313.523v2.307h21.535v-2.307a2.308 2.308 0 0 0-2.307-2.308Z" fill="#1c345a" fill-rule="evenodd" data-name="Icon awesome-calendar-day"/></svg>