<svg xmlns="http://www.w3.org/2000/svg" width="25.648" height="25.648" viewBox="26 403 25.648 25.648"><path d="M38.824 417.427a7.215 7.215 0 0 0 7.214-7.213A7.215 7.215 0 0 0 38.824 403a7.215 7.215 0 0 0-7.213 7.214 7.215 7.215 0 0 0 7.213 7.213Zm6.412 1.603h-2.76a8.73 8.73 0 0 1-7.304 0h-2.76A6.412 6.412 0 0 0 26 425.442v.802a2.405 2.405 0 0 0 2.405 2.404h20.839a2.405 2.405 0 0 0 2.404-2.404v-.802a6.412 6.412 0 0 0-6.412-6.412Z" fill="#1c345a" fill-rule="evenodd" data-name="Icon awesome-user-alt"/></svg>