<svg xmlns="http://www.w3.org/2000/svg" width="28.215" height="19.75" viewBox="27 234 28.215 19.75"><path d="M53.804 234H28.411A1.41 1.41 0 0 0 27 235.41v16.93c0 .779.632 1.41 1.41 1.41h25.394a1.41 1.41 0 0 0 1.41-1.41v-16.93a1.41 1.41 0 0 0-1.41-1.41ZM34.76 247.044v.71a.353.353 0 0 1-.353.353h-.705a.353.353 0 0 1-.353-.352v-.718a2.524 2.524 0 0 1-1.383-.5.353.353 0 0 1-.025-.536l.518-.494a.362.362 0 0 1 .447-.032c.17.106.364.164.565.164h1.24c.286 0 .52-.261.52-.582 0-.262-.16-.493-.387-.561l-1.984-.595c-.82-.246-1.392-1.033-1.392-1.913 0-1.081.84-1.96 1.88-1.987v-.71c0-.196.159-.353.354-.353h.705c.195 0 .353.157.353.352v.718a2.52 2.52 0 0 1 1.383.5c.172.13.18.387.025.536l-.518.494a.362.362 0 0 1-.447.032 1.058 1.058 0 0 0-.565-.164h-1.24c-.286 0-.52.261-.52.582 0 .262.16.493.387.561l1.984.595c.82.246 1.392 1.033 1.392 1.913 0 1.082-.84 1.96-1.88 1.987Zm10.58-.7a.353.353 0 0 1-.352.353h-4.938a.353.353 0 0 1-.352-.353v-.705c0-.195.158-.353.352-.353h4.938c.195 0 .353.158.353.353v.705Zm7.054 0a.353.353 0 0 1-.352.353h-3.527a.353.353 0 0 1-.353-.353v-.705c0-.195.158-.353.353-.353h3.527c.195 0 .352.158.352.353v.705Zm0-4.232a.353.353 0 0 1-.352.352H40.049a.353.353 0 0 1-.352-.352v-.706c0-.194.158-.352.352-.352h11.992c.195 0 .352.158.352.352v.706Z" fill="#1c345a" fill-rule="evenodd" data-name="Icon awesome-money-check-alt"/></svg>