<svg xmlns="http://www.w3.org/2000/svg" width="319.148" height="317.561" viewBox="0 -0.001 319.148 317.561"><g data-name="Group 4765" clip-path="url(&quot;#a&quot;)"><path d="M120.7 78.34 49.291 317.56h228.411l-71.41-239.22-42.796-7.183L120.7 78.34Z" fill="#ccebf9" fill-rule="evenodd" data-name="Path 2268"/><g data-name="Group 4750"><g data-name="Group 4749" clip-path="url(&quot;#b&quot;)"><g data-name="Group 4745"><g data-name="Group 4744"><g data-name="Group 4743" transform="translate(97.012 71.157)" clip-path="url(&quot;#c&quot;)"><path d="M132.97 246.403 91.397 7.183 66.484 0 41.571 7.183 0 246.403h132.968Z" fill="#ccebf9" fill-rule="evenodd" data-name="Path 2269"/></g></g></g><g data-name="Group 4748"><g data-name="Group 4747"><g data-name="Group 4746" transform="translate(118.055 71.157)" clip-path="url(&quot;#d&quot;)"><path d="M3.604 19.115c3.9 2.498 1.172.959.119.102-.04-.034-.079-.07-.119-.102l-.406-.26c.732.467 1.41 1.058 2.115 1.57 5.502 4 11.313 7.564 17.315 10.76a177.134 177.134 0 0 0 9.878 4.864c.602.274 1.208.541 1.813.81 1.489.566 2.956 1.232 4.436 1.805 13.475 5.213 27.447 9.041 41.593 11.928 6.857 1.4 13.754 2.537 20.678 3.543l1.274.156L88.237 7.183 45.44 0 2.645 7.183 0 16.045a117.25 117.25 0 0 0 3.605 3.07" fill="#4570b3" fill-rule="evenodd" data-name="Path 2270"/></g></g></g></g></g><path d="m56.627 57.405 61.923-15.489h46.578v15.49H56.627Z" fill="#68a7dd" fill-rule="evenodd" data-name="Path 2271"/><path d="m269.718 57.405-61.924-15.489h-46.578v15.49h108.502Z" fill="#68a7dd" fill-rule="evenodd" data-name="Path 2272"/><path d="m56.627 66.706 61.923 15.49h46.578v-15.49H56.627Z" fill="#68a7dd" fill-rule="evenodd" data-name="Path 2273"/><path d="m269.718 66.706-61.924 15.49h-46.578v-15.49h108.502Z" fill="#68a7dd" fill-rule="evenodd" data-name="Path 2274"/><g data-name="Group 4764"><g data-name="Group 4763" clip-path="url(&quot;#e&quot;)"><path d="M267.566 69.29H57.474c-3.765 0-6.846-3.082-6.846-6.847 0-3.766 3.081-6.847 6.846-6.847h210.092c3.766 0 6.846 3.081 6.846 6.847 0 3.765-3.08 6.847-6.846 6.847" fill="#fff" fill-rule="evenodd" data-name="Path 2275"/><path d="M243.394 24.58h-52.226a3.07 3.07 0 0 1 0-6.14h52.226a3.07 3.07 0 0 1 0 6.14" fill="#fff" fill-rule="evenodd" data-name="Path 2276"/><path d="M183.722 33.792h43.455" fill="#fff" fill-rule="evenodd" data-name="Line 77"/><path d="M227.177 36.862h-43.455a3.07 3.07 0 0 1 0-6.14h43.455a3.07 3.07 0 0 1 0 6.14" fill="#fff" fill-rule="evenodd" data-name="Path 2277"/><path d="M178.302 9.23h36.437" fill="#fff" fill-rule="evenodd" data-name="Line 78"/><path d="M214.739 12.3h-36.437a3.07 3.07 0 1 1 0-6.14h36.437a3.07 3.07 0 0 1 0 6.14" fill="#fff" fill-rule="evenodd" data-name="Path 2278"/><path d="M183.722 30.72a3.07 3.07 0 0 1 0-6.14h19.656a44.35 44.35 0 0 0-3.744-6.14h-28.778a3.07 3.07 0 0 1 0-6.14h23.378C186.19 4.68 175.289 0 163.28 0c-23.908 0-43.439 18.552-44.73 41.916h89.462a43.853 43.853 0 0 0-2.098-11.195h-22.193Z" fill="#fff" fill-rule="evenodd" data-name="Path 2279"/><path d="M63.683 62.443a3.528 3.528 0 1 1-7.057 0 3.528 3.528 0 0 1 7.057 0" fill="#009cdf" fill-rule="evenodd" data-name="Path 2280"/><path d="M61.714 62.443a1.56 1.56 0 1 1-3.12 0 1.56 1.56 0 0 1 3.12 0" fill="#20105b" fill-rule="evenodd" data-name="Path 2281"/><path d="M86.51 62.443a3.528 3.528 0 1 1-7.056 0 3.528 3.528 0 0 1 7.056 0" fill="#009cdf" fill-rule="evenodd" data-name="Path 2282"/><path d="M84.543 62.443a1.56 1.56 0 1 1-3.12.001 1.56 1.56 0 0 1 3.12 0" fill="#20105b" fill-rule="evenodd" data-name="Path 2283"/><path d="M109.339 62.443a3.528 3.528 0 1 1-7.057 0 3.528 3.528 0 0 1 7.057 0" fill="#009cdf" fill-rule="evenodd" data-name="Path 2284"/><path d="M107.37 62.443a1.56 1.56 0 1 1-3.119.001 1.56 1.56 0 0 1 3.12 0" fill="#20105b" fill-rule="evenodd" data-name="Path 2285"/><path d="M132.166 62.443a3.528 3.528 0 1 1-7.056 0 3.528 3.528 0 0 1 7.056 0" fill="#009cdf" fill-rule="evenodd" data-name="Path 2286"/><path d="M130.199 62.443a1.56 1.56 0 1 1-3.12 0 1.56 1.56 0 0 1 3.12 0" fill="#20105b" fill-rule="evenodd" data-name="Path 2287"/><path d="M154.995 62.443a3.528 3.528 0 1 1-7.056 0 3.528 3.528 0 0 1 7.056 0" fill="#009cdf" fill-rule="evenodd" data-name="Path 2288"/><path d="M153.027 62.443a1.56 1.56 0 1 1-3.12.001 1.56 1.56 0 0 1 3.12 0" fill="#20105b" fill-rule="evenodd" data-name="Path 2289"/><path d="M177.822 62.443a3.528 3.528 0 1 1-7.056 0 3.528 3.528 0 0 1 7.056 0" fill="#009cdf" fill-rule="evenodd" data-name="Path 2290"/><path d="M175.855 62.443a1.56 1.56 0 1 1-3.12 0 1.56 1.56 0 0 1 3.12 0" fill="#20105b" fill-rule="evenodd" data-name="Path 2291"/><path d="M200.65 62.443a3.528 3.528 0 1 1-7.055 0 3.528 3.528 0 0 1 7.056 0" fill="#009cdf" fill-rule="evenodd" data-name="Path 2292"/><path d="M198.683 62.443a1.56 1.56 0 1 1-3.12.001 1.56 1.56 0 0 1 3.12 0" fill="#20105b" fill-rule="evenodd" data-name="Path 2293"/><path d="M223.479 62.443a3.528 3.528 0 1 1-7.057 0 3.528 3.528 0 0 1 7.057 0" fill="#009cdf" fill-rule="evenodd" data-name="Path 2294"/><path d="M221.511 62.443a1.56 1.56 0 1 1-3.119.001 1.56 1.56 0 0 1 3.12 0" fill="#20105b" fill-rule="evenodd" data-name="Path 2295"/><path d="M246.307 62.443a3.528 3.528 0 1 1-7.056 0 3.528 3.528 0 0 1 7.056 0" fill="#009cdf" fill-rule="evenodd" data-name="Path 2296"/><path d="M244.339 62.443a1.56 1.56 0 1 1-3.12 0 1.56 1.56 0 0 1 3.12 0" fill="#20105b" fill-rule="evenodd" data-name="Path 2297"/><path d="M269.135 62.443a3.528 3.528 0 1 1-7.056 0 3.528 3.528 0 0 1 7.056 0" fill="#009cdf" fill-rule="evenodd" data-name="Path 2298"/><path d="M267.167 62.443a1.56 1.56 0 1 1-3.12 0 1.56 1.56 0 0 1 3.12 0" fill="#20105b" fill-rule="evenodd" data-name="Path 2299"/><path d="M149.208 194.952a3.13 3.13 0 1 1-6.26-.001 3.13 3.13 0 0 1 6.26 0" fill="#fff" fill-rule="evenodd" data-name="Path 2300"/><path d="M185.304 194.952a3.13 3.13 0 1 1-6.26-.001 3.13 3.13 0 0 1 6.26 0" fill="#fff" fill-rule="evenodd" data-name="Path 2301"/><path d="M182.174 190.959c0 10.041-8.14 18.182-18.183 18.182-10.041 0-18.182-8.14-18.182-18.182 0-10.042 8.14-18.183 18.182-18.183 10.042 0 18.183 8.14 18.183 18.183" fill="#fff" fill-rule="evenodd" data-name="Path 2302"/><path d="M145.878 189.417s-3.395-16.64 0-19.187c4.483-3.363 6.108 1.334 7.976 0 1.87-1.336 1.315-19.76 10.137-19.76 8.823 0 6.802 19.69 10.006 20.244 3.204.553 5.66-3.957 8.177-2.375 3.777 2.375 3.45 13.403 0 22.62 0 0-3.347-8.371-8.66-8.371-4.57 0-6.062 4.73-9.523 4.998-3.46.266-5.57-5.341-9.602-5.341-7.356 0-8.51 7.172-8.51 7.172" fill="#1c345a" fill-rule="evenodd" data-name="Path 2303"/><path d="M159.515 203.926h9.143v15.74h-9.143v-15.74z" fill="#fff" fill-rule="evenodd" data-name="Rectangle 1360"/><path d="m121.602 224.73-.506-2.84s4.24-.36 3.575-2.13-3.183.187-3.923-1.778c-.74-1.966 1.581-2.39 2.555-2.757 1.053-.396.43-2.323-1.383-1.675-2.175.777-4.408 1.497-4.233 4.348 0 0 .77-7.932-1.395-7.715-2.001.201-.658 7.926-.658 7.926s-.54-8.055-2.81-7.472c-2.019.518 1.499 11.444 4.218 14.798l4.56-.705Z" fill="#fff" fill-rule="evenodd" data-name="Path 2304"/><path d="M152.66 220.039c.465 9.437-6.81 17.465-16.247 17.929-9.437.465-17.464-6.809-17.93-16.246" stroke-linejoin="round" stroke-linecap="round" stroke-width="9" stroke="#1c345a" fill="transparent" data-name="Path 2305"/><path d="m206.592 224.73.506-2.84s-4.24-.36-3.575-2.13 3.184.187 3.923-1.778c.74-1.966-1.581-2.39-2.554-2.757-1.055-.396-.43-2.323 1.382-1.675 2.174.777 4.408 1.497 4.233 4.348 0 0-.77-7.932 1.395-7.715 2.001.201.658 7.926.658 7.926s.54-8.055 2.81-7.472c2.018.518-1.498 11.444-4.218 14.798l-4.56-.705Z" fill="#fff" fill-rule="evenodd" data-name="Path 2306"/><path d="M175.534 220.039c-.465 9.437 6.808 17.465 16.246 17.929 9.438.465 17.465-6.809 17.93-16.246" stroke-linejoin="round" stroke-linecap="round" stroke-width="9" stroke="#1c345a" fill="transparent" data-name="Path 2307"/><path d="M180.197 247.643H148.49c-.11 0-.2-.09-.2-.202v-25.22c0-5.127 4.194-9.322 9.321-9.322h13.465c5.127 0 9.322 4.195 9.322 9.322v25.22c0 .111-.09.202-.201.202" fill="#1c345a" fill-rule="evenodd" data-name="Path 2308"/><path d="M149.208 247.644h30.473v8.426h-30.473v-8.426z" fill="#00aeef" fill-rule="evenodd" data-name="Rectangle 1361"/><path d="m162.523 263.562 30.281 4.078c1.557.21 3.126-1.802 3.486-4.47.359-2.669-.621-5.023-2.178-5.233l-30.282-4.08-1.307 9.705Z" fill="#00aeef" fill-rule="evenodd" data-name="Path 2309"/><path d="m173.53 252.446-45.439-6.12c-2.336-.314-4.69 2.705-5.228 6.709-.54 4.004.93 7.538 3.267 7.853l45.438 6.12 1.961-14.562Z" fill="#1c345a" fill-rule="evenodd" data-name="Path 2310"/><path d="m178.06 258.848-.664 5.208" stroke-linejoin="round" stroke-linecap="round" stroke-width=".75" stroke="#fff" fill="transparent" data-name="Line 79"/><path d="m181.87 259.2-.663 5.209" stroke-linejoin="round" stroke-linecap="round" stroke-width=".75" stroke="#fff" fill="transparent" data-name="Line 80"/><path d="m185.682 259.554-.663 5.208" stroke-linejoin="round" stroke-linecap="round" stroke-width=".75" stroke="#fff" fill="transparent" data-name="Line 81"/><path d="m165.095 263.562-30.282 4.078c-1.557.21-3.126-1.802-3.486-4.47-.36-2.669.622-5.023 2.178-5.233l30.282-4.08 1.308 9.705Z" fill="#00aeef" fill-rule="evenodd" data-name="Path 2311"/><path d="m154.088 252.446 45.438-6.12c2.337-.314 4.69 2.705 5.229 6.709.54 4.004-.931 7.538-3.268 7.853l-45.437 6.12-1.962-14.562Z" fill="#1c345a" fill-rule="evenodd" data-name="Path 2312"/><path d="m149.558 258.848.663 5.208" stroke-linejoin="round" stroke-linecap="round" stroke-width=".75" stroke="#fff" fill="transparent" data-name="Line 82"/><path d="m145.747 259.2.663 5.209" stroke-linejoin="round" stroke-linecap="round" stroke-width=".75" stroke="#fff" fill="transparent" data-name="Line 83"/><path d="m141.935 259.554.664 5.208" stroke-linejoin="round" stroke-linecap="round" stroke-width=".75" stroke="#fff" fill="transparent" data-name="Line 84"/><path d="M143.492 191.609h40.516" stroke-linejoin="round" stroke-linecap="round" stroke-width=".75" stroke="#1c345a" fill="transparent" data-name="Line 85"/><path d="M162.465 191.887a6.23 6.23 0 1 1-12.46 0 6.23 6.23 0 0 1 12.46 0" fill="#c3dcf1" fill-rule="evenodd" data-name="Path 2313"/><path d="M177.222 191.887a6.23 6.23 0 1 1-12.46 0 6.23 6.23 0 0 1 12.46 0" fill="#c3dcf1" fill-rule="evenodd" data-name="Path 2314"/><path d="M161.613 201.148c-.005.058-.018.114-.018.173a2.154 2.154 0 1 0 4.31 0c0-.059-.013-.115-.018-.173h-4.274Z" fill="#1c345a" fill-rule="evenodd" data-name="Path 2315"/><g data-name="Group 4753"><g data-name="Group 4752"><g data-name="Group 4751" transform="translate(153.204 189.157)" clip-path="url(&quot;#f&quot;)"><path d="M.2 4.086 4.087.2" stroke-linejoin="round" stroke-linecap="round" stroke-width=".75" stroke="#00aeef" fill="transparent" data-name="Line 86"/></g></g></g><g data-name="Group 4756"><g data-name="Group 4755"><g data-name="Group 4754" transform="translate(154.667 190.62)" clip-path="url(&quot;#g&quot;)"><path d="M.2 4.087 4.087.2" stroke-linejoin="round" stroke-linecap="round" stroke-width=".75" stroke="#00aeef" fill="transparent" data-name="Line 87"/></g></g></g><g data-name="Group 4759"><g data-name="Group 4758"><g data-name="Group 4757" transform="translate(168.117 188.734)" clip-path="url(&quot;#h&quot;)"><path d="M.2 4.086 4.086.2" stroke-linejoin="round" stroke-linecap="round" stroke-width=".75" stroke="#00aeef" fill="transparent" data-name="Line 88"/></g></g></g><g data-name="Group 4762"><g data-name="Group 4761"><g data-name="Group 4760" transform="translate(169.581 190.197)" clip-path="url(&quot;#i&quot;)"><path d="M.2 4.087 4.086.2" stroke-linejoin="round" stroke-linecap="round" stroke-width=".75" stroke="#00aeef" fill="transparent" data-name="Line 89"/></g></g></g><path d="m145.36 140.705 1.173 2.144 2.144 1.173-2.144 1.172-1.173 2.145-1.173-2.145-2.144-1.172 2.144-1.173 1.173-2.144Z" fill="#fff" fill-rule="evenodd" data-name="Path 2316"/><path d="m180.652 125.762 1.733 3.168 3.169 1.733-3.17 1.733-1.732 3.168-1.733-3.168-3.169-1.733 3.17-1.733 1.732-3.168Z" fill="#fff" fill-rule="evenodd" data-name="Path 2317"/><path d="m163.021 288.734 1.382 2.527 2.526 1.381-2.526 1.382-1.382 2.526-1.382-2.526-2.526-1.382 2.526-1.381 1.382-2.527Z" fill="#fff" fill-rule="evenodd" data-name="Path 2318"/><path d="m201.27 195.623 1.647 3.01 3.01 1.647-3.01 1.647-1.647 3.01-1.646-3.01-3.01-1.647 3.01-1.647 1.646-3.01Z" fill="#fff" fill-rule="evenodd" data-name="Path 2319"/><path d="m220.452 263.984.935 1.71 1.71.935-1.71.935-.935 1.71-.935-1.71-1.71-.935 1.71-.935.935-1.71Z" fill="#00aeef" fill-rule="evenodd" data-name="Path 2320"/><path d="m109.69 263.164 1.6 2.927 2.927 1.6-2.927 1.601-1.6 2.927-1.601-2.927-2.927-1.6 2.927-1.601 1.6-2.927Z" fill="#fff" fill-rule="evenodd" data-name="Path 2321"/><path d="m124.59 186.953 1.778 3.25 3.25 1.777-3.25 1.777-1.778 3.25-1.777-3.25-3.25-1.777 3.25-1.777 1.777-3.25Z" fill="#00aeef" fill-rule="evenodd" data-name="Path 2322"/><path d="m61.715 13.319 3.996 7.307 7.307 3.996-7.307 3.996-3.996 7.308-3.997-7.308-7.307-3.996 7.307-3.996 3.997-7.307Z" fill="#fff" fill-rule="evenodd" data-name="Path 2323"/><path d="m287.954 81.866 3.997 7.307 7.307 3.997-7.307 3.996-3.997 7.308-3.997-7.308-7.307-3.996 7.307-3.997 3.997-7.307Z" fill="#fff" fill-rule="evenodd" data-name="Path 2324"/><path d="m308.897 103.439 1.996 3.648 3.647 1.995-3.647 1.995-1.996 3.648-1.995-3.648-3.648-1.995 3.648-1.995 1.995-3.648Z" fill="#fff" fill-rule="evenodd" data-name="Path 2325"/><path d="m30.564 68.373 2.705 4.945 4.945 2.705-4.945 2.705-2.705 4.945-2.705-4.945-4.945-2.705 4.945-2.705 2.705-4.945Z" fill="#fff" fill-rule="evenodd" data-name="Path 2326"/><path d="m295.604 17.736 2.705 4.946 4.945 2.705-4.945 2.704-2.705 4.945-2.705-4.945-4.945-2.704 4.945-2.705 2.705-4.946Z" fill="#fff" fill-rule="evenodd" data-name="Path 2327"/><path d="m4.608 29.225 1.63 2.978 2.978 1.63-2.978 1.63-1.63 2.979-1.63-2.98L0 33.832l2.979-1.629 1.63-2.978Z" fill="#fff" fill-rule="evenodd" data-name="Path 2328"/><path d="m314.54 51.126 1.63 2.979 2.978 1.629-2.978 1.63-1.63 2.978-1.629-2.979-2.979-1.63 2.979-1.628 1.63-2.98Z" fill="#fff" fill-rule="evenodd" data-name="Path 2329"/><path d="M290.126 182.381h19.916" fill="#fff" fill-rule="evenodd" data-name="Line 90"/><path d="M290.126 182.381h19.916" stroke-linejoin="round" stroke-linecap="round" stroke-width="3" stroke="#fff" fill="transparent" data-name="Line 91"/><path d="M296.467 189.016h19.916" fill="#fff" fill-rule="evenodd" data-name="Line 92"/><path d="M296.467 189.016h19.916" stroke-linejoin="round" stroke-linecap="round" stroke-width="3" stroke="#fff" fill="transparent" data-name="Line 93"/><path d="M4.608 188.025h19.916" fill="#fff" fill-rule="evenodd" data-name="Line 94"/><path d="M4.608 188.025h19.916" stroke-linejoin="round" stroke-linecap="round" stroke-width="3" stroke="#fff" fill="transparent" data-name="Line 95"/><path d="M10.95 194.659h19.915" fill="#fff" fill-rule="evenodd" data-name="Line 96"/><path d="M10.95 194.659h19.915" stroke-linejoin="round" stroke-linecap="round" stroke-width="3" stroke="#fff" fill="transparent" data-name="Line 97"/></g></g></g><defs><clipPath id="c"><path d="M0 0h132.97v246.403H0V0z" data-name="Rectangle 1357"/></clipPath><clipPath id="d"><path d="M0 0h102.3v54.291H0V0z" data-name="Rectangle 1358"/></clipPath><clipPath id="b"><path d="M0 0h319.148v317.56H0V0z" data-name="Rectangle 1359"/></clipPath><clipPath id="f"><path d="M0 0h4.287v4.287H0V0z" data-name="Rectangle 1362"/></clipPath><clipPath id="g"><path d="M0 0h4.287v4.287H0V0z" data-name="Rectangle 1363"/></clipPath><clipPath id="h"><path d="M0 0h4.287v4.287H0V0z" data-name="Rectangle 1364"/></clipPath><clipPath id="i"><path d="M0 0h4.286v4.287H0V0z" data-name="Rectangle 1365"/></clipPath><clipPath id="e"><path d="M0 0h319.148v317.56H0V0z" data-name="Rectangle 1366"/></clipPath><clipPath id="a"><path d="M0 0h319.148v317.56H0V0z" data-name="Rectangle 1367"/></clipPath></defs></svg>