<svg xmlns="http://www.w3.org/2000/svg" width="24.743" height="27.407" viewBox="25 613.796 24.743 27.407"><g data-name="Group 5219"><path d="M43.312 619.354c-.206-3.086-2.82-5.558-5.941-5.558-3.12 0-5.735 2.472-5.942 5.558 1.809-.35 3.837-.534 5.942-.534s4.132.185 5.941.534" fill="#1c345a" fill-rule="evenodd" data-name="Path 2524"/><path d="M46.192 620.534a19.34 19.34 0 0 0-2.684-.74h-.001l-.05-.01c-1.838-.373-3.919-.57-6.086-.57-2.166 0-4.248.197-6.085.57l-.05.01h-.002c-.97.2-1.873.447-2.683.74-2.257.817-3.551 1.921-3.551 3.03 0 1.11 1.294 2.215 3.55 3.031 1.084.393 2.333.704 3.69.925l1.132-3.486c.02-.063.07-.111.134-.13a14.162 14.162 0 0 1 7.731 0 .197.197 0 0 1 .134.13l1.131 3.486c1.358-.221 2.606-.532 3.69-.925 2.257-.816 3.55-1.92 3.55-3.03 0-1.11-1.293-2.214-3.55-3.031" fill="#1c345a" fill-rule="evenodd" data-name="Path 2525"/><path d="m42.108 627.58-1.08-3.324a13.79 13.79 0 0 0-7.314 0l-1.08 3.325-.123.38-3.91 12.045a32.729 32.729 0 0 0 17.54 0l-3.91-12.045-.123-.38Z" fill="#1c345a" fill-rule="evenodd" data-name="Path 2526"/></g></svg>