<svg xmlns="http://www.w3.org/2000/svg" width="24.743" height="27.407" viewBox="40 1235 24.743 27.407"><g data-name="Group 5217"><g data-name="Group 5216" transform="translate(40 1235)" clip-path="url(&quot;#a&quot;)"><path d="M18.313 5.557C18.107 2.471 15.492 0 12.37 0 9.251 0 6.636 2.471 6.43 5.557c1.808-.348 3.836-.534 5.941-.534s4.133.186 5.942.534" fill="#fff" fill-rule="evenodd" data-name="Path 2524"/><path d="M21.192 6.738a19.34 19.34 0 0 0-2.684-.74h-.001l-.05-.01c-1.838-.373-3.919-.57-6.086-.57-2.166 0-4.248.197-6.085.57l-.05.01h-.002c-.97.199-1.873.446-2.683.74C1.294 7.555 0 8.658 0 9.768c0 1.11 1.294 2.215 3.55 3.031 1.084.392 2.333.703 3.69.924l1.132-3.486c.02-.062.07-.11.134-.128a14.162 14.162 0 0 1 7.731 0 .197.197 0 0 1 .134.128l1.131 3.486c1.358-.22 2.606-.532 3.69-.924 2.257-.816 3.55-1.921 3.55-3.03 0-1.11-1.293-2.214-3.55-3.031" fill="#fff" fill-rule="evenodd" data-name="Path 2525"/><path d="m17.108 13.785-1.08-3.326a13.79 13.79 0 0 0-7.314 0l-1.08 3.326-.123.38-3.91 12.045a32.729 32.729 0 0 0 17.54 0l-3.91-12.046-.123-.38Z" fill="#fff" fill-rule="evenodd" data-name="Path 2526"/></g></g><defs><clipPath id="a"><path d="M0 0h24.743v27.407H0V0z" data-name="Rectangle 1398"/></clipPath></defs></svg>