<svg xmlns="http://www.w3.org/2000/svg" width="21.002" height="24.502" viewBox="28 892 21.002 24.502"><path d="M36.942 906.74c-.009.027-.066.025-.17-.007a5.736 5.736 0 0 1-.431-.157l-.274-.123a8.192 8.192 0 0 1-1.19-.67 27.08 27.08 0 0 1-.56-.431 8.053 8.053 0 0 0-.52-.39 23.293 23.293 0 0 1-1.831 2.475c-.739.866-1.217 1.367-1.436 1.504a1.084 1.084 0 0 1-.267.055c-.141.018-.225.018-.253 0 .055-.037.429-.456 1.121-1.258.192-.219.582-.743 1.17-1.572.587-.83.945-1.368 1.073-1.614.155-.273.387-.722.697-1.347.31-.624.474-.977.492-1.06-.073-.008-.574.142-1.504.452-.073.018-.198.052-.376.102-.177.05-.335.094-.471.13-.137.037-.215.06-.233.069-.018.018-.027.066-.027.143 0 .078-.005.121-.014.13-.045.091-.187.16-.424.205-.21.064-.424.064-.642 0a.577.577 0 0 1-.383-.287c-.037-.055-.06-.16-.069-.314.055-.019.167-.041.335-.069.17-.027.304-.054.404-.082a25.632 25.632 0 0 0 1.435-.437 46.982 46.982 0 0 1 1.395-.479c.091-.018.287-.107.588-.267.3-.159.501-.257.602-.293.082-.028.18-.064.294-.11.114-.045.18-.07.198-.075a.183.183 0 0 1 .082.007c.018.11.014.26-.014.451 0 .018-.057.141-.17.37-.115.227-.235.47-.363.73s-.205.413-.232.459c-.228.455-.58 1.053-1.053 1.79l.875.384c.11.054.449.2 1.018.437l.923.383c.037.01.085.125.144.349.06.223.08.362.061.417Zm-2.803-6.645a.555.555 0 0 1-.054.383c-.11.21-.337.382-.684.52-.273.109-.547.163-.82.163-.237-.027-.46-.146-.67-.355-.128-.137-.21-.324-.246-.56l.013-.042c.028.027.117.05.267.068.15.019.271.019.362 0 .091-.018.356-.09.793-.218.328-.11.58-.173.752-.192.155 0 .251.078.287.233Zm9.544 1.764.862 3.103-1.901-.574 1.04-2.53Zm-15.15 10.938 9.49-3.172v-14.11l-9.49 3.185v14.097Zm16.969-4.334 1.394.423-2.474-8.983-1.368-.424-2.953 7.33 1.395.423.615-1.504 2.885.889.506 1.846Zm-6.878-13.154 7.835 2.516v-5.196l-7.835 2.68Zm4.252 18.09 2.16.177-.738 2.188-.546-.902a10.136 10.136 0 0 1-3.774 1.476c-.529.11-.944.164-1.244.164h-1.149c-.72 0-1.63-.177-2.728-.533-1.098-.355-1.934-.743-2.509-1.162a.285.285 0 0 1-.109-.219c0-.073.023-.134.068-.185a.229.229 0 0 1 .178-.075c.037 0 .119.034.246.103l.417.225c.15.082.244.133.28.15.666.338 1.393.618 2.181.842.789.223 1.507.335 2.154.335.866 0 1.627-.066 2.283-.199a11.269 11.269 0 0 0 2.147-.69c.137-.064.276-.134.417-.212a36.142 36.142 0 0 0 .855-.485l-.589-.999Zm6.126-14.754v14.753l-10.583-3.363c-.128.055-1.837.636-5.127 1.743-3.29 1.108-4.968 1.661-5.032 1.662-.118 0-.2-.06-.246-.178a.105.105 0 0 0-.014-.041v-14.74a.61.61 0 0 1 .055-.136c.046-.055.137-.105.274-.15.966-.32 1.645-.548 2.037-.684v-5.25l7.63 2.706c.018 0 .749-.25 2.194-.752 1.445-.501 2.885-.996 4.32-1.483 1.436-.488 2.172-.732 2.209-.732.182 0 .273.096.273.287v5.716l2.01.642Z" fill="#1c345a" fill-rule="evenodd" data-name="Icon metro-language"/></svg>