<svg xmlns="http://www.w3.org/2000/svg" width="24.398" height="24.404" viewBox="14.426 544 24.398 24.404"><path d="M34.601 547.343c.053-1.583.012-3.284.006-3.343h-16c0 .059-.046 1.76.006 3.343h-4.187c0 3.988.58 6 1.231 7.431.651 1.431 1.549 2.657 3.443 4.123 1.766 1.367 5.601 3.144 6.117 3.378v1.66c-.27.587-1.378 1.654-4.885 1.654h-1.214v2.815h15.014v-2.815h-1.507c-3.56 0-4.399-1.12-4.592-1.654v-1.66c.545-.27 4.744-2.363 6.123-3.372 1.478-1.08 2.985-3.02 3.442-4.123.458-1.103 1.226-3.8 1.226-7.437h-4.223Zm-16.562 6.27c-.516-1.068-.821-2.223-.921-3.63H18.8c.041.351.082.662.135.955.387 2.3.868 4.118 1.507 5.66a8.413 8.413 0 0 1-2.404-2.985Zm17.172 0a8.472 8.472 0 0 1-2.44 3.009c.646-1.537 1.115-3.332 1.514-5.684.047-.293.094-.604.135-.956h1.718c-.106 1.408-.405 2.563-.927 3.63Z" fill="#1c345a" fill-rule="evenodd" data-name="Icon ionic-md-trophy"/></svg>