<?xml version="1.0" encoding="utf-8"?>
<!-- Generator: Adobe Illustrator 25.1.0, SVG Export Plug-In . SVG Version: 6.00 Build 0)  -->
<svg version="1.1" id="Layer_1" xmlns="http://www.w3.org/2000/svg" xmlns:xlink="http://www.w3.org/1999/xlink" x="0px" y="0px"
	 viewBox="0 0 256.24 371.05" style="enable-background:new 0 0 256.24 371.05;" xml:space="preserve">
<style type="text/css">
	.st0{fill:#203456;}
	.st1{enable-background:new    ;}
	.st2{fill:#203456;stroke:#203456;}
</style>
<g id="Group_4506" transform="translate(-58.874 -137.005)">
	<g id="Group_4242" transform="translate(0 -92)">
		<g id="Group_4241" transform="translate(33 201.998)">
			<g id="Group_4486" transform="translate(0 0.002)">
				<path id="Path_1829" class="st0" d="M33.28,89.6c-3.37,0.06-6.16-2.63-6.22-6.01c0-0.04,0-0.09,0-0.13v-0.14
					c0-0.04,0-0.08,0-0.12c-0.09-4.34-0.06-8.73-0.03-12.98c0.01-2.1,0.03-4.28,0.03-6.41V42.38c0-0.14,0-0.28,0-0.42
					c0-0.39-0.01-0.84,0.01-1.31c0.2-4.71,2.7-9.01,6.7-11.51c3.35-2.08,6.9-2.08,9.49-2.08h40.19c3.43,0.04,6.18,2.86,6.14,6.29
					c-0.04,3.37-2.76,6.09-6.14,6.14h-0.21c-1.9,0.04-3.96,0.07-6.32,0.07c-2.09,0-4.2-0.02-6.25-0.03
					c-2.03-0.02-4.13-0.03-6.18-0.03H42.84h-1.11c-0.16,0-0.33,0-0.49,0c-0.67-0.02-1.29,0.35-1.59,0.95
					c-0.21,0.91-0.27,1.86-0.18,2.79c0.01,0.4,0.02,0.81,0.02,1.23v39.01c0.03,1.78-0.74,3.47-2.08,4.63
					C36.26,89.07,34.79,89.61,33.28,89.6z"/>
				<path id="Path_1830" class="st0" d="M275.9,89.6c-3.37,0.06-6.16-2.63-6.22-6.01c0-0.04,0-0.09,0-0.13v-0.23
					c-0.1-4.2-0.07-8.44-0.03-12.55c0.02-2.03,0.03-4.13,0.03-6.18V42.84c0-0.19,0-0.38,0-0.57c0-0.34,0-0.68,0-1.03
					c0.02-0.67-0.35-1.29-0.94-1.59c-0.54-0.18-1.12-0.25-1.69-0.2c-0.35,0-0.72,0.01-1.1,0.02s-0.81,0.02-1.23,0.02h-39.01
					c-3.43-0.04-6.18-2.86-6.14-6.29c0.04-3.37,2.76-6.09,6.14-6.14h0.27c1.95-0.04,4.08-0.06,6.51-0.06c2.16,0,4.35,0.01,6.47,0.03
					s4.28,0.03,6.41,0.03h21.43h0.42h0.49c0.31,0,0.57,0,0.81,0.02c4.71,0.2,9.01,2.7,11.51,6.7c2.08,3.36,2.08,6.77,2.08,9.77
					v39.91c0.03,1.78-0.73,3.47-2.08,4.63C278.88,89.08,277.42,89.61,275.9,89.6L275.9,89.6z"/>
				<path id="Path_1831" class="st0" d="M76.68,282.18c-2.16,0-4.35-0.01-6.47-0.03s-4.28-0.03-6.41-0.03H42.38h-0.42
					c-0.16,0-0.33,0-0.49,0c-0.31,0-0.57-0.01-0.81-0.02c-4.71-0.19-9.01-2.7-11.51-6.7c-2.09-3.36-2.08-6.77-2.08-9.77v-39.91
					c0-3.43,2.79-6.21,6.22-6.21c3.43,0,6.2,2.78,6.21,6.21v0.23c0.1,4.2,0.07,8.44,0.03,12.55c-0.02,2.03-0.03,4.13-0.03,6.18
					v21.66c0,0.19,0,0.38,0,0.57c0,0.34,0,0.69,0,1.03c-0.02,0.67,0.35,1.29,0.95,1.59c0.54,0.18,1.12,0.25,1.69,0.2
					c0.35,0,0.72-0.01,1.1-0.02s0.81-0.02,1.23-0.02h39.01c3.43,0,6.22,2.78,6.22,6.22c0,3.43-2.78,6.21-6.22,6.21H83.2
					C81.24,282.16,79.11,282.18,76.68,282.18"/>
				<path id="Path_1832" class="st0" d="M225.72,282.12c-3.43,0-6.22-2.78-6.22-6.22c0-3.43,2.78-6.21,6.22-6.21l0,0h0.21
					c1.9-0.05,3.96-0.07,6.32-0.07c2.09,0,4.2,0.02,6.25,0.03c2.03,0.02,4.13,0.03,6.18,0.03h21.66h1.11c0.17,0,0.33,0,0.49,0
					c0.67,0.02,1.29-0.35,1.59-0.95c0.21-0.91,0.27-1.86,0.18-2.79c-0.01-0.4-0.02-0.81-0.02-1.23v-39.01
					c0-3.43,2.78-6.21,6.22-6.21c3.43,0,6.21,2.78,6.21,6.21v0.14c0,0.04,0,0.08,0,0.13c0.09,4.34,0.06,8.73,0.03,12.98
					c-0.01,2.1-0.03,4.28-0.03,6.41v21.43c0,0.14,0,0.28,0,0.42c0,0.39,0.01,0.84-0.01,1.31c-0.2,4.71-2.7,9.01-6.7,11.51
					c-3.34,2.08-6.89,2.08-9.48,2.08L225.72,282.12"/>
				<path id="Path_1833" class="st0" d="M123.22,333.07c0.94,1.57,2.97,2.11,4.56,1.19l23.81-16.57l1.69-1.18l22.13,15.4l3.38,2.35
					c1.59,0.91,3.62,0.38,4.56-1.19c0.89-1.59,0.36-3.6-1.2-4.56l-23.81-16.57l-3.38-2.35c-1.03-0.63-2.33-0.63-3.36,0l-23.81,16.57
					l-3.38,2.35C122.87,329.47,122.34,331.47,123.22,333.07"/>
				<path id="Path_1834" class="st0" d="M137.68,310.2l15.6-10.86l15.6,10.86c1.59,0.91,3.62,0.38,4.56-1.19
					c0.89-1.59,0.36-3.6-1.2-4.56l-17.29-12.03c-1.03-0.63-2.33-0.63-3.36,0l-17.29,12.03c-1.55,0.96-2.07,2.96-1.2,4.56
					C134.06,310.58,136.09,311.11,137.68,310.2"/>
				<path id="Path_1835" class="st0" d="M42.1,322.69H105c2.15,0,3.89,1.74,3.89,3.89s-1.74,3.89-3.89,3.89H42.1
					c-4.67,0-8.45,3.79-8.45,8.45v42.92c0,4.67,3.78,8.45,8.45,8.45h222.38c4.67,0,8.45-3.78,8.45-8.45v-42.93
					c0-4.67-3.79-8.45-8.45-8.45h-57.35c-2.15,0-3.89-1.74-3.89-3.89s1.74-3.89,3.89-3.89l0,0h57.35c8.96,0,16.23,7.26,16.23,16.22
					v42.92c0,8.96-7.26,16.22-16.23,16.22H42.1c-8.96,0-16.22-7.26-16.22-16.22v-42.92C25.87,329.95,33.14,322.68,42.1,322.69"/>
			</g>
		</g>
		<g class="st1">
			<path class="st0" d="M160.6,572.91c0,1.18-0.22,2.24-0.65,3.16c-0.44,0.92-1.04,1.71-1.82,2.35c-0.77,0.64-1.69,1.13-2.73,1.46
				c-1.05,0.33-2.18,0.49-3.39,0.49c-0.85,0-1.63-0.07-2.35-0.21s-1.37-0.32-1.93-0.53s-1.04-0.42-1.43-0.64
				c-0.38-0.22-0.65-0.41-0.8-0.57c-0.15-0.16-0.26-0.35-0.33-0.6c-0.07-0.24-0.11-0.56-0.11-0.97c0-0.29,0.01-0.52,0.04-0.71
				c0.03-0.19,0.06-0.34,0.12-0.46c0.05-0.12,0.12-0.2,0.2-0.24s0.17-0.07,0.27-0.07c0.18,0,0.44,0.11,0.77,0.33
				s0.76,0.46,1.28,0.72c0.52,0.26,1.15,0.5,1.88,0.73c0.74,0.23,1.58,0.34,2.55,0.34c0.73,0,1.4-0.1,2-0.29s1.13-0.47,1.56-0.83
				c0.44-0.36,0.77-0.8,1.01-1.32s0.35-1.11,0.35-1.78c0-0.72-0.16-1.33-0.49-1.84c-0.33-0.51-0.76-0.95-1.29-1.34
				c-0.53-0.38-1.14-0.74-1.83-1.05s-1.38-0.64-2.1-0.98c-0.72-0.33-1.41-0.7-2.09-1.1c-0.68-0.4-1.28-0.88-1.82-1.43
				c-0.53-0.55-0.97-1.19-1.3-1.92s-0.5-1.62-0.5-2.65c0-1.05,0.19-2,0.58-2.82c0.38-0.83,0.92-1.52,1.6-2.08s1.5-0.99,2.44-1.28
				c0.94-0.29,1.96-0.44,3.06-0.44c0.56,0,1.12,0.05,1.69,0.15s1.1,0.23,1.6,0.39c0.5,0.16,0.95,0.34,1.34,0.55s0.65,0.36,0.77,0.49
				c0.12,0.12,0.21,0.22,0.24,0.29s0.07,0.16,0.1,0.27c0.03,0.11,0.05,0.24,0.06,0.4c0.01,0.16,0.02,0.36,0.02,0.61
				c0,0.23-0.01,0.44-0.03,0.62s-0.05,0.33-0.09,0.46s-0.09,0.21-0.17,0.27c-0.07,0.06-0.15,0.09-0.24,0.09
				c-0.14,0-0.37-0.09-0.67-0.27c-0.31-0.18-0.68-0.39-1.12-0.62c-0.44-0.23-0.97-0.44-1.57-0.62s-1.29-0.28-2.04-0.28
				c-0.7,0-1.32,0.09-1.84,0.28c-0.52,0.19-0.95,0.44-1.29,0.75c-0.34,0.31-0.59,0.68-0.76,1.11c-0.17,0.43-0.25,0.89-0.25,1.37
				c0,0.7,0.16,1.31,0.49,1.82c0.33,0.51,0.76,0.96,1.3,1.35c0.54,0.39,1.16,0.75,1.85,1.07c0.69,0.33,1.39,0.65,2.11,0.99
				c0.72,0.33,1.42,0.7,2.11,1.09c0.69,0.4,1.31,0.87,1.85,1.41c0.54,0.54,0.98,1.18,1.31,1.91S160.6,571.91,160.6,572.91z"/>
			<path class="st0" d="M182.28,576.43c0,0.21-0.01,0.39-0.02,0.55c-0.01,0.16-0.04,0.29-0.07,0.41c-0.03,0.12-0.08,0.22-0.13,0.31
				c-0.05,0.09-0.14,0.2-0.27,0.33c-0.13,0.13-0.4,0.33-0.82,0.6c-0.42,0.27-0.93,0.53-1.55,0.78c-0.62,0.25-1.33,0.47-2.13,0.64
				s-1.68,0.26-2.63,0.26c-1.64,0-3.12-0.27-4.44-0.82c-1.32-0.55-2.45-1.35-3.38-2.42c-0.93-1.07-1.65-2.39-2.15-3.96
				c-0.5-1.57-0.75-3.38-0.75-5.42c0-2.1,0.27-3.96,0.81-5.61c0.54-1.64,1.3-3.03,2.28-4.17s2.15-2.01,3.51-2.61
				c1.36-0.6,2.87-0.9,4.52-0.9c0.73,0,1.44,0.07,2.13,0.21c0.69,0.14,1.33,0.31,1.91,0.52s1.11,0.45,1.56,0.72
				c0.46,0.27,0.77,0.5,0.95,0.67s0.29,0.31,0.34,0.4c0.05,0.09,0.09,0.2,0.13,0.32c0.03,0.12,0.06,0.27,0.08,0.44
				s0.03,0.37,0.03,0.61c0,0.26-0.01,0.48-0.04,0.66c-0.03,0.18-0.06,0.33-0.12,0.46c-0.05,0.12-0.11,0.21-0.19,0.27
				c-0.07,0.06-0.16,0.09-0.27,0.09c-0.18,0-0.44-0.13-0.77-0.38c-0.33-0.25-0.75-0.53-1.27-0.84c-0.52-0.31-1.15-0.59-1.88-0.84
				c-0.74-0.25-1.63-0.38-2.66-0.38c-1.13,0-2.15,0.22-3.07,0.67s-1.71,1.11-2.37,1.98s-1.16,1.94-1.52,3.19
				c-0.36,1.26-0.54,2.69-0.54,4.31c0,1.6,0.17,3.02,0.52,4.25c0.35,1.23,0.84,2.26,1.49,3.09c0.65,0.83,1.44,1.45,2.39,1.88
				s2.01,0.63,3.2,0.63c1.01,0,1.89-0.12,2.64-0.37c0.75-0.25,1.39-0.52,1.92-0.83c0.53-0.31,0.97-0.58,1.31-0.83
				c0.34-0.25,0.61-0.37,0.8-0.37c0.09,0,0.17,0.02,0.24,0.06s0.12,0.11,0.16,0.22c0.04,0.11,0.07,0.26,0.09,0.46
				S182.28,576.13,182.28,576.43z"/>
			<path class="st0" d="M205.66,578.81c0.1,0.29,0.16,0.52,0.17,0.69s-0.04,0.31-0.15,0.4s-0.28,0.15-0.52,0.18
				s-0.56,0.04-0.97,0.04s-0.73-0.01-0.97-0.03s-0.42-0.05-0.55-0.1s-0.21-0.11-0.27-0.19s-0.11-0.18-0.17-0.29l-2.17-6.15h-10.51
				l-2.07,6.07c-0.04,0.12-0.09,0.22-0.16,0.3c-0.07,0.08-0.16,0.16-0.28,0.21c-0.12,0.06-0.3,0.1-0.53,0.13
				c-0.23,0.03-0.52,0.04-0.89,0.04c-0.38,0-0.69-0.02-0.93-0.05c-0.24-0.03-0.41-0.09-0.51-0.19s-0.14-0.22-0.14-0.4
				c0.01-0.18,0.06-0.41,0.17-0.69l8.48-23.48c0.05-0.14,0.12-0.26,0.21-0.35s0.21-0.16,0.37-0.21s0.37-0.09,0.62-0.11
				s0.58-0.03,0.97-0.03c0.42,0,0.76,0.01,1.04,0.03s0.5,0.06,0.66,0.11s0.3,0.13,0.39,0.22s0.16,0.22,0.21,0.36L205.66,578.81z
				 M194.78,558.09h-0.02l-4.36,12.6h8.79L194.78,558.09z"/>
			<path class="st0" d="M228.98,578.62c0,0.26-0.04,0.48-0.13,0.66c-0.09,0.18-0.2,0.33-0.34,0.45s-0.3,0.2-0.47,0.25
				s-0.35,0.08-0.53,0.08h-1.11c-0.35,0-0.66-0.04-0.92-0.11s-0.51-0.2-0.75-0.39s-0.47-0.45-0.71-0.77s-0.49-0.74-0.75-1.25
				l-7.71-14.38c-0.4-0.74-0.81-1.52-1.22-2.33c-0.41-0.81-0.79-1.6-1.14-2.37h-0.04c0.03,0.94,0.05,1.89,0.06,2.87
				s0.02,1.95,0.02,2.91v15.25c0,0.09-0.03,0.18-0.08,0.26s-0.15,0.15-0.28,0.2s-0.3,0.08-0.52,0.12s-0.48,0.05-0.81,0.05
				c-0.33,0-0.6-0.02-0.81-0.05s-0.38-0.07-0.5-0.12s-0.21-0.11-0.27-0.2c-0.06-0.08-0.08-0.17-0.08-0.26v-23.32
				c0-0.52,0.15-0.89,0.44-1.11s0.62-0.33,0.97-0.33h1.65c0.39,0,0.72,0.03,0.98,0.1s0.5,0.17,0.71,0.32
				c0.21,0.15,0.41,0.36,0.61,0.62c0.19,0.27,0.4,0.6,0.61,1.01l5.93,11.09c0.37,0.68,0.72,1.34,1.06,1.98s0.67,1.28,0.98,1.9
				s0.63,1.24,0.93,1.85c0.31,0.61,0.61,1.21,0.92,1.83h0.02c-0.03-1.03-0.04-2.1-0.05-3.21s-0.01-2.18-0.01-3.21V555.3
				c0-0.09,0.03-0.18,0.08-0.25c0.05-0.08,0.15-0.15,0.28-0.21c0.13-0.06,0.3-0.1,0.52-0.13s0.49-0.04,0.83-0.04
				c0.3,0,0.56,0.01,0.78,0.04s0.39,0.07,0.51,0.13c0.12,0.06,0.21,0.13,0.27,0.21s0.08,0.16,0.08,0.25V578.62z"/>
		</g>
	</g>
	<g id="Group_4284" transform="translate(65.547 269.497)">
		<path id="Path_1584" class="st2" d="M14.45-111.7h7.39v14.77h-7.39V-111.7z"/>
		<path id="Path_1585" class="st2" d="M14.45-96.92h7.39v14.77h-7.39V-96.92z"/>
		<path id="Path_1586" class="st2" d="M14.45-82.16h7.39V-60h-7.39V-82.16z"/>
		<path id="Path_1587" class="st2" d="M14.45-52.61h7.39v7.39h-7.39V-52.61z"/>
		<path id="Path_1588" class="st2" d="M14.45-37.84h7.39v29.54h-7.39V-37.84z"/>
		<path id="Path_1589" class="st2" d="M14.45-0.9h7.39v7.39h-7.39V-0.9z"/>
		<path id="Path_1590" class="st2" d="M14.45,21.26h7.39v7.39h-7.39V21.26z"/>
		<path id="Path_1591" class="st2" d="M14.45,50.8h7.39v51.7h-7.39V50.8z"/>
		<path id="Path_1592" class="st2" d="M21.84-111.7h7.39v7.39h-7.39V-111.7z"/>
		<path id="Path_1593" class="st2" d="M21.84-67.38h7.39v7.39h-7.39V-67.38z"/>
		<path id="Path_1594" class="st2" d="M21.84-37.84h7.39v22.16h-7.39V-37.84z"/>
		<path id="Path_1595" class="st2" d="M21.84-8.29h7.39v7.39h-7.39V-8.29z"/>
		<path id="Path_1596" class="st2" d="M21.84,6.48h7.39v14.77h-7.39V6.48z"/>
		<path id="Path_1597" class="st2" d="M21.84,36.03h7.39v7.38h-7.39V36.03z"/>
		<path id="Path_1598" class="st2" d="M21.84,50.8h7.39v7.39h-7.39V50.8z"/>
		<path id="Path_1599" class="st2" d="M21.84,95.12h7.39v7.39h-7.39V95.12z"/>
		<path id="Path_1600" class="st2" d="M29.22-111.7h7.39v7.39h-7.39V-111.7z"/>
		<path id="Path_1601" class="st2" d="M29.22-96.92h7.39v14.77h-7.39V-96.92z"/>
		<path id="Path_1602" class="st2" d="M29.22-82.16h7.39v7.39h-7.39V-82.16z"/>
		<path id="Path_1603" class="st2" d="M29.22-67.38h7.39v7.39h-7.39V-67.38z"/>
		<path id="Path_1604" class="st2" d="M29.22-52.61h7.39v14.77h-7.39V-52.61z"/>
		<path id="Path_1605" class="st2" d="M29.22-23.06h7.39V-0.9h-7.39V-23.06z"/>
		<path id="Path_1606" class="st2" d="M29.22,13.87h7.39v14.77h-7.39V13.87z"/>
		<path id="Path_1607" class="st2" d="M29.22,36.03h7.39v7.38h-7.39V36.03z"/>
		<path id="Path_1608" class="st2" d="M29.22,50.8h7.39v7.39h-7.39V50.8z"/>
		<path id="Path_1609" class="st2" d="M29.22,65.57h7.39v22.16h-7.39V65.57z"/>
		<path id="Path_1610" class="st2" d="M29.22,95.12h7.39v7.39h-7.39V95.12z"/>
		<path id="Path_1611" class="st2" d="M36.61-111.7H44v7.39h-7.39V-111.7z"/>
		<path id="Path_1612" class="st2" d="M36.61-96.92H44v14.77h-7.39V-96.92z"/>
		<path id="Path_1613" class="st2" d="M36.61-82.16H44v7.39h-7.39V-82.16z"/>
		<path id="Path_1614" class="st2" d="M36.61-67.38H44v7.39h-7.39V-67.38z"/>
		<path id="Path_1615" class="st2" d="M36.61-52.61H44v7.39h-7.39V-52.61z"/>
		<path id="Path_1616" class="st2" d="M36.61-37.84H44v14.77h-7.39V-37.84z"/>
		<path id="Path_1617" class="st2" d="M36.61-8.29H44V6.48h-7.39V-8.29z"/>
		<path id="Path_1618" class="st2" d="M36.61,21.26H44v14.77h-7.39V21.26z"/>
		<path id="Path_1619" class="st2" d="M36.61,50.8H44v7.39h-7.39V50.8z"/>
		<path id="Path_1620" class="st2" d="M36.61,65.57H44v22.16h-7.39V65.57z"/>
		<path id="Path_1621" class="st2" d="M36.61,95.12H44v7.39h-7.39V95.12z"/>
		<path id="Path_1622" class="st2" d="M44-111.7h7.39v7.39H44V-111.7z"/>
		<path id="Path_1623" class="st2" d="M44-96.92h7.39v14.77H44V-96.92z"/>
		<path id="Path_1624" class="st2" d="M44-82.16h7.39v7.39H44V-82.16z"/>
		<path id="Path_1625" class="st2" d="M44-67.38h7.39v7.39H44V-67.38z"/>
		<path id="Path_1626" class="st2" d="M44-30.45h7.39v7.39H44V-30.45z"/>
		<path id="Path_1627" class="st2" d="M44-15.68h7.39v29.54H44V-15.68z"/>
		<path id="Path_1628" class="st2" d="M44,21.26h7.39v14.77H44V21.26z"/>
		<path id="Path_1629" class="st2" d="M44,50.8h7.39v7.39H44V50.8z"/>
		<path id="Path_1630" class="st2" d="M44,65.57h7.39v22.16H44V65.57z"/>
		<path id="Path_1631" class="st2" d="M44,95.12h7.39v7.39H44V95.12z"/>
		<path id="Path_1632" class="st2" d="M51.38-111.7h7.39v7.39h-7.39V-111.7z"/>
		<path id="Path_1633" class="st2" d="M51.38-67.38h7.39v7.39h-7.39V-67.38z"/>
		<path id="Path_1634" class="st2" d="M51.38-52.61h7.39v51.7h-7.39V-52.61z"/>
		<path id="Path_1635" class="st2" d="M51.38,36.03h7.39v7.38h-7.39V36.03z"/>
		<path id="Path_1636" class="st2" d="M51.38,50.8h7.39v7.39h-7.39V50.8z"/>
		<path id="Path_1637" class="st2" d="M51.38,95.12h7.39v7.39h-7.39V95.12z"/>
		<path id="Path_1638" class="st2" d="M58.77-111.7h7.39v14.77h-7.39V-111.7z"/>
		<path id="Path_1639" class="st2" d="M58.77-96.92h7.39v14.77h-7.39V-96.92z"/>
		<path id="Path_1640" class="st2" d="M58.77-82.16h7.39V-60h-7.39V-82.16z"/>
		<path id="Path_1641" class="st2" d="M58.77-52.61h7.39v7.39h-7.39V-52.61z"/>
		<path id="Path_1642" class="st2" d="M58.77-37.84h7.39v7.39h-7.39V-37.84z"/>
		<path id="Path_1643" class="st2" d="M58.77-23.06h7.39v7.39h-7.39V-23.06z"/>
		<path id="Path_1644" class="st2" d="M58.77-8.29h7.39v7.39h-7.39V-8.29z"/>
		<path id="Path_1645" class="st2" d="M58.77,6.48h7.39v7.39h-7.39V6.48z"/>
		<path id="Path_1646" class="st2" d="M58.77,21.26h7.39v7.39h-7.39V21.26z"/>
		<path id="Path_1647" class="st2" d="M58.77,36.03h7.39v7.38h-7.39V36.03z"/>
		<path id="Path_1648" class="st2" d="M58.77,50.8h7.39v51.7h-7.39V50.8z"/>
		<path id="Path_1649" class="st2" d="M66.15-52.61h7.39v7.39h-7.39V-52.61z"/>
		<path id="Path_1650" class="st2" d="M66.15,6.48h7.39v7.39h-7.39V6.48z"/>
		<path id="Path_1651" class="st2" d="M66.15,36.03h7.39v7.38h-7.39V36.03z"/>
		<path id="Path_1652" class="st2" d="M73.54-111.7h7.39v14.77h-7.39V-111.7z"/>
		<path id="Path_1653" class="st2" d="M73.54-89.54h7.39v7.39h-7.39V-89.54z"/>
		<path id="Path_1654" class="st2" d="M73.54-67.38h7.39v14.77h-7.39V-67.38z"/>
		<path id="Path_1655" class="st2" d="M73.54-37.84h7.39v7.39h-7.39V-37.84z"/>
		<path id="Path_1656" class="st2" d="M73.54-23.06h7.39v14.77h-7.39V-23.06z"/>
		<path id="Path_1657" class="st2" d="M73.54-0.9h7.39v7.39h-7.39V-0.9z"/>
		<path id="Path_1658" class="st2" d="M73.54,13.87h7.39v14.77h-7.39V13.87z"/>
		<path id="Path_1659" class="st2" d="M73.54,36.03h7.39v29.54h-7.39V36.03z"/>
		<path id="Path_1660" class="st2" d="M73.54,72.96h7.39v14.77h-7.39V72.96z"/>
		<path id="Path_1661" class="st2" d="M73.54,95.12h7.39v7.39h-7.39V95.12z"/>
		<path id="Path_1662" class="st2" d="M80.93-111.7h7.39v7.39h-7.39V-111.7z"/>
		<path id="Path_1663" class="st2" d="M80.93-82.16h7.39v7.39h-7.39V-82.16z"/>
		<path id="Path_1664" class="st2" d="M80.93-59.99h7.39v14.77h-7.39V-59.99z"/>
		<path id="Path_1665" class="st2" d="M80.93-37.84h7.39v29.54h-7.39V-37.84z"/>
		<path id="Path_1666" class="st2" d="M80.93-0.9h7.39v14.77h-7.39V-0.9z"/>
		<path id="Path_1667" class="st2" d="M80.93,28.64h7.39v7.39h-7.39V28.64z"/>
		<path id="Path_1668" class="st2" d="M80.93,43.41h7.39v7.39h-7.39V43.41z"/>
		<path id="Path_1669" class="st2" d="M80.93,58.19h7.39v14.77h-7.39V58.19z"/>
		<path id="Path_1670" class="st2" d="M80.93,87.73h7.39v14.77h-7.39V87.73z"/>
		<path id="Path_1671" class="st2" d="M88.31-111.7h7.39v14.77h-7.39V-111.7z"/>
		<path id="Path_1672" class="st2" d="M88.31-96.92h7.39v14.77h-7.39V-96.92z"/>
		<path id="Path_1673" class="st2" d="M88.31-82.16h7.39v7.39h-7.39V-82.16z"/>
		<path id="Path_1674" class="st2" d="M88.31-67.38h7.39v7.39h-7.39V-67.38z"/>
		<path id="Path_1675" class="st2" d="M88.31-52.61h7.39v22.16h-7.39V-52.61z"/>
		<path id="Path_1676" class="st2" d="M88.31-15.68h7.39v14.77h-7.39V-15.68z"/>
		<path id="Path_1677" class="st2" d="M88.31,28.64h7.39v36.93h-7.39V28.64z"/>
		<path id="Path_1678" class="st2" d="M88.31,80.34h7.39v7.39h-7.39V80.34z"/>
		<path id="Path_1679" class="st2" d="M88.31,95.12h7.39v7.39h-7.39V95.12z"/>
		<path id="Path_1680" class="st2" d="M95.7-104.31h7.39v7.39H95.7V-104.31z"/>
		<path id="Path_1681" class="st2" d="M95.7-89.54h7.39v7.39H95.7V-89.54z"/>
		<path id="Path_1682" class="st2" d="M95.7-82.16h7.39v14.77H95.7V-82.16z"/>
		<path id="Path_1683" class="st2" d="M95.7-52.61h7.39v14.77H95.7V-52.61z"/>
		<path id="Path_1684" class="st2" d="M95.7-23.06h7.39v7.39H95.7V-23.06z"/>
		<path id="Path_1685" class="st2" d="M95.7-8.29h7.39v7.39H95.7V-8.29z"/>
		<path id="Path_1686" class="st2" d="M95.7,28.64h7.39v7.39H95.7V28.64z"/>
		<path id="Path_1687" class="st2" d="M95.7,43.41h7.39v7.39H95.7V43.41z"/>
		<path id="Path_1688" class="st2" d="M95.7,72.96h7.39v7.39H95.7V72.96z"/>
		<path id="Path_1689" class="st2" d="M95.7,95.12h7.39v7.39H95.7V95.12z"/>
		<path id="Path_1690" class="st2" d="M103.09-104.31h7.39v7.39h-7.39V-104.31z"/>
		<path id="Path_1691" class="st2" d="M103.09-67.38h7.39v14.77h-7.39V-67.38z"/>
		<path id="Path_1692" class="st2" d="M103.09-37.84h7.39v29.54h-7.39V-37.84z"/>
		<path id="Path_1693" class="st2" d="M103.09-0.9h7.39v14.77h-7.39V-0.9z"/>
		<path id="Path_1694" class="st2" d="M103.09,21.26h7.39v36.94h-7.39V21.26z"/>
		<path id="Path_1695" class="st2" d="M103.09,65.57h7.39v14.77h-7.39V65.57z"/>
		<path id="Path_1696" class="st2" d="M103.09,87.73h7.39v7.39h-7.39V87.73z"/>
		<path id="Path_1697" class="st2" d="M110.47-96.92h7.39v7.39h-7.39V-96.92z"/>
		<path id="Path_1698" class="st2" d="M110.47-82.16h7.39v7.39h-7.39V-82.16z"/>
		<path id="Path_1699" class="st2" d="M110.47-59.99h7.39v14.77h-7.39V-59.99z"/>
		<path id="Path_1700" class="st2" d="M110.47-30.45h7.39v7.39h-7.39V-30.45z"/>
		<path id="Path_1701" class="st2" d="M110.47-15.68h7.39v7.39h-7.39V-15.68z"/>
		<path id="Path_1702" class="st2" d="M110.47-0.9h7.39v7.39h-7.39V-0.9z"/>
		<path id="Path_1703" class="st2" d="M110.47,13.87h7.39v7.39h-7.39V13.87z"/>
		<path id="Path_1704" class="st2" d="M110.47,36.03h7.39v22.16h-7.39V36.03z"/>
		<path id="Path_1705" class="st2" d="M110.47,80.34h7.39v7.39h-7.39V80.34z"/>
		<path id="Path_1706" class="st2" d="M110.47,95.12h7.39v7.39h-7.39V95.12z"/>
		<path id="Path_1707" class="st2" d="M117.86-104.31h7.39v7.39h-7.39V-104.31z"/>
		<path id="Path_1708" class="st2" d="M117.86-96.92h7.39v7.39h-7.39V-96.92z"/>
		<path id="Path_1709" class="st2" d="M117.86-74.77h7.39v29.54h-7.39V-74.77z"/>
		<path id="Path_1710" class="st2" d="M117.86-37.84h7.39v14.77h-7.39V-37.84z"/>
		<path id="Path_1711" class="st2" d="M117.86-8.29h7.39v7.39h-7.39V-8.29z"/>
		<path id="Path_1712" class="st2" d="M117.86,43.41h7.39v7.39h-7.39V43.41z"/>
		<path id="Path_1713" class="st2" d="M117.86,65.57h7.39v36.93h-7.39V65.57z"/>
		<path id="Path_1714" class="st2" d="M125.24-111.7h7.39v14.77h-7.39V-111.7z"/>
		<path id="Path_1715" class="st2" d="M125.24-96.92h7.39v7.39h-7.39V-96.92z"/>
		<path id="Path_1716" class="st2" d="M125.24-45.22h7.39v22.16h-7.39V-45.22z"/>
		<path id="Path_1717" class="st2" d="M125.24-0.9h7.39v7.39h-7.39V-0.9z"/>
		<path id="Path_1718" class="st2" d="M125.24,28.64h7.39V50.8h-7.39V28.64z"/>
		<path id="Path_1719" class="st2" d="M125.24,65.57h7.39v7.39h-7.39V65.57z"/>
		<path id="Path_1720" class="st2" d="M125.24,80.34h7.39v7.39h-7.39V80.34z"/>
		<path id="Path_1721" class="st2" d="M125.24,95.12h7.39v7.39h-7.39V95.12z"/>
		<path id="Path_1722" class="st2" d="M132.63-111.7h7.39v7.39h-7.39V-111.7z"/>
		<path id="Path_1723" class="st2" d="M132.63-89.54h7.39v7.39h-7.39V-89.54z"/>
		<path id="Path_1724" class="st2" d="M132.63-67.38h7.39v7.39h-7.39V-67.38z"/>
		<path id="Path_1725" class="st2" d="M132.63-52.61h7.39v14.77h-7.39V-52.61z"/>
		<path id="Path_1726" class="st2" d="M132.63-23.06h7.39v7.39h-7.39V-23.06z"/>
		<path id="Path_1727" class="st2" d="M132.63,28.64h7.39v7.39h-7.39V28.64z"/>
		<path id="Path_1728" class="st2" d="M132.63,50.8h7.39v14.77h-7.39V50.8z"/>
		<path id="Path_1729" class="st2" d="M132.63,72.96h7.39v22.16h-7.39V72.96z"/>
		<path id="Path_1730" class="st2" d="M140.02-104.31h7.39v7.39h-7.39V-104.31z"/>
		<path id="Path_1731" class="st2" d="M140.02-89.54h7.39v7.39h-7.39V-89.54z"/>
		<path id="Path_1732" class="st2" d="M140.02-82.16h7.39v7.39h-7.39V-82.16z"/>
		<path id="Path_1733" class="st2" d="M140.02-59.99h7.39v14.77h-7.39V-59.99z"/>
		<path id="Path_1734" class="st2" d="M140.02-23.06h7.39v7.39h-7.39V-23.06z"/>
		<path id="Path_1735" class="st2" d="M140.02-8.29h7.39v7.39h-7.39V-8.29z"/>
		<path id="Path_1736" class="st2" d="M140.02,21.26h7.39V50.8h-7.39V21.26z"/>
		<path id="Path_1737" class="st2" d="M140.02,65.57h7.39v7.39h-7.39V65.57z"/>
		<path id="Path_1738" class="st2" d="M140.02,95.12h7.39v7.39h-7.39V95.12z"/>
		<path id="Path_1739" class="st2" d="M147.4-104.31h7.39v7.39h-7.39V-104.31z"/>
		<path id="Path_1740" class="st2" d="M147.4-74.77h7.39v29.54h-7.39V-74.77z"/>
		<path id="Path_1741" class="st2" d="M147.4-23.06h7.39v7.39h-7.39V-23.06z"/>
		<path id="Path_1742" class="st2" d="M147.4-8.29h7.39v22.16h-7.39V-8.29z"/>
		<path id="Path_1743" class="st2" d="M147.4,21.26h7.39v44.32h-7.39V21.26z"/>
		<path id="Path_1744" class="st2" d="M147.4,80.34h7.39v7.39h-7.39V80.34z"/>
		<path id="Path_1745" class="st2" d="M154.79-111.7h7.39v7.39h-7.39V-111.7z"/>
		<path id="Path_1746" class="st2" d="M154.79-82.16h7.39v14.77h-7.39V-82.16z"/>
		<path id="Path_1747" class="st2" d="M154.79-52.61h7.39v14.77h-7.39V-52.61z"/>
		<path id="Path_1748" class="st2" d="M154.79-30.45h7.39V6.48h-7.39V-30.45z"/>
		<path id="Path_1749" class="st2" d="M154.79,50.8h7.39v7.39h-7.39V50.8z"/>
		<path id="Path_1750" class="st2" d="M154.79,72.96h7.39v7.39h-7.39V72.96z"/>
		<path id="Path_1751" class="st2" d="M154.79,95.12h7.39v7.39h-7.39V95.12z"/>
		<path id="Path_1752" class="st2" d="M162.18-111.7h7.39v7.39h-7.39V-111.7z"/>
		<path id="Path_1753" class="st2" d="M162.18-89.54h7.39v7.39h-7.39V-89.54z"/>
		<path id="Path_1754" class="st2" d="M162.18-74.77h7.39v22.16h-7.39V-74.77z"/>
		<path id="Path_1755" class="st2" d="M162.18-45.22h7.39v7.39h-7.39V-45.22z"/>
		<path id="Path_1756" class="st2" d="M162.18-30.45h7.39v7.39h-7.39V-30.45z"/>
		<path id="Path_1757" class="st2" d="M162.18-8.29h7.39v7.39h-7.39V-8.29z"/>
		<path id="Path_1758" class="st2" d="M162.18,13.87h7.39v7.39h-7.39V13.87z"/>
		<path id="Path_1759" class="st2" d="M162.18,36.03h7.39v36.93h-7.39V36.03z"/>
		<path id="Path_1760" class="st2" d="M162.18,80.34h7.39v22.16h-7.39V80.34z"/>
		<path id="Path_1761" class="st2" d="M169.56-30.45h7.39v7.39h-7.39V-30.45z"/>
		<path id="Path_1762" class="st2" d="M169.56,6.48h7.39v7.39h-7.39V6.48z"/>
		<path id="Path_1763" class="st2" d="M169.56,21.26h7.39v7.39h-7.39V21.26z"/>
		<path id="Path_1764" class="st2" d="M169.56,36.03h7.39v7.38h-7.39V36.03z"/>
		<path id="Path_1765" class="st2" d="M169.56,65.57h7.39v14.77h-7.39V65.57z"/>
		<path id="Path_1766" class="st2" d="M169.56,95.12h7.39v7.39h-7.39V95.12z"/>
		<path id="Path_1767" class="st2" d="M176.95-111.7h7.38v14.77h-7.38V-111.7z"/>
		<path id="Path_1768" class="st2" d="M176.95-96.92h7.38v14.77h-7.38V-96.92z"/>
		<path id="Path_1769" class="st2" d="M176.95-82.16h7.38V-60h-7.38V-82.16z"/>
		<path id="Path_1770" class="st2" d="M176.95-52.61h7.38v14.77h-7.38V-52.61z"/>
		<path id="Path_1771" class="st2" d="M176.95-15.68h7.38V6.48h-7.38V-15.68z"/>
		<path id="Path_1772" class="st2" d="M176.95,21.26h7.38v7.39h-7.38V21.26z"/>
		<path id="Path_1773" class="st2" d="M176.95,36.03h7.38v7.38h-7.38V36.03z"/>
		<path id="Path_1774" class="st2" d="M176.95,50.8h7.38v7.39h-7.38V50.8z"/>
		<path id="Path_1775" class="st2" d="M176.95,65.57h7.38v7.39h-7.38V65.57z"/>
		<path id="Path_1776" class="st2" d="M176.95,87.73h7.38v14.77h-7.38V87.73z"/>
		<path id="Path_1777" class="st2" d="M184.33-111.7h7.39v7.39h-7.39V-111.7z"/>
		<path id="Path_1778" class="st2" d="M184.33-67.38h7.39v7.39h-7.39V-67.38z"/>
		<path id="Path_1779" class="st2" d="M184.33-45.22h7.39v22.16h-7.39V-45.22z"/>
		<path id="Path_1780" class="st2" d="M184.33-15.68h7.39V6.48h-7.39V-15.68z"/>
		<path id="Path_1781" class="st2" d="M184.33,13.87h7.39v14.77h-7.39V13.87z"/>
		<path id="Path_1782" class="st2" d="M184.33,36.03h7.39v7.38h-7.39V36.03z"/>
		<path id="Path_1783" class="st2" d="M184.33,65.57h7.39v7.39h-7.39V65.57z"/>
		<path id="Path_1784" class="st2" d="M184.33,80.34h7.39v14.77h-7.39V80.34z"/>
		<path id="Path_1785" class="st2" d="M191.72-111.7h7.39v7.39h-7.39V-111.7z"/>
		<path id="Path_1786" class="st2" d="M191.72-96.92h7.39v14.77h-7.39V-96.92z"/>
		<path id="Path_1787" class="st2" d="M191.72-82.16h7.39v7.39h-7.39V-82.16z"/>
		<path id="Path_1788" class="st2" d="M191.72-67.38h7.39v7.39h-7.39V-67.38z"/>
		<path id="Path_1789" class="st2" d="M191.72-45.22h7.39v22.16h-7.39V-45.22z"/>
		<path id="Path_1790" class="st2" d="M191.72-8.29h7.39v22.16h-7.39V-8.29z"/>
		<path id="Path_1791" class="st2" d="M191.72,36.03h7.39v44.32h-7.39V36.03z"/>
		<path id="Path_1792" class="st2" d="M199.11-111.7h7.39v7.39h-7.39V-111.7z"/>
		<path id="Path_1793" class="st2" d="M199.11-96.92h7.39v14.77h-7.39V-96.92z"/>
		<path id="Path_1794" class="st2" d="M199.11-82.16h7.39v7.39h-7.39V-82.16z"/>
		<path id="Path_1795" class="st2" d="M199.11-67.38h7.39v7.39h-7.39V-67.38z"/>
		<path id="Path_1796" class="st2" d="M199.11-52.61h7.39v7.39h-7.39V-52.61z"/>
		<path id="Path_1797" class="st2" d="M199.11-23.06h7.39v7.39h-7.39V-23.06z"/>
		<path id="Path_1798" class="st2" d="M199.11,6.48h7.39v14.77h-7.39V6.48z"/>
		<path id="Path_1799" class="st2" d="M199.11,36.03h7.39v29.54h-7.39V36.03z"/>
		<path id="Path_1800" class="st2" d="M199.11,72.96h7.39v7.39h-7.39V72.96z"/>
		<path id="Path_1801" class="st2" d="M199.11,87.73h7.39v14.77h-7.39V87.73z"/>
		<path id="Path_1802" class="st2" d="M206.49-111.7h7.39v7.39h-7.39V-111.7z"/>
		<path id="Path_1803" class="st2" d="M206.49-96.92h7.39v14.77h-7.39V-96.92z"/>
		<path id="Path_1804" class="st2" d="M206.49-82.16h7.39v7.39h-7.39V-82.16z"/>
		<path id="Path_1805" class="st2" d="M206.49-67.38h7.39v7.39h-7.39V-67.38z"/>
		<path id="Path_1806" class="st2" d="M206.49-37.84h7.39v7.39h-7.39V-37.84z"/>
		<path id="Path_1807" class="st2" d="M206.49-23.06h7.39V-0.9h-7.39V-23.06z"/>
		<path id="Path_1808" class="st2" d="M206.49,13.87h7.39V50.8h-7.39V13.87z"/>
		<path id="Path_1809" class="st2" d="M206.49,65.57h7.39v7.39h-7.39V65.57z"/>
		<path id="Path_1810" class="st2" d="M206.49,80.34h7.39v7.39h-7.39V80.34z"/>
		<path id="Path_1811" class="st2" d="M213.88-111.7h7.39v7.39h-7.39V-111.7z"/>
		<path id="Path_1812" class="st2" d="M213.88-67.38h7.39v7.39h-7.39V-67.38z"/>
		<path id="Path_1813" class="st2" d="M213.88-52.61h7.39v7.39h-7.39V-52.61z"/>
		<path id="Path_1814" class="st2" d="M213.88-37.84h7.39v7.39h-7.39V-37.84z"/>
		<path id="Path_1815" class="st2" d="M213.88-15.68h7.39v36.93h-7.39V-15.68z"/>
		<path id="Path_1816" class="st2" d="M213.88,43.41h7.39v22.16h-7.39V43.41z"/>
		<path id="Path_1817" class="st2" d="M213.88,72.96h7.39v7.39h-7.39V72.96z"/>
		<path id="Path_1818" class="st2" d="M213.88,87.73h7.39v14.77h-7.39V87.73z"/>
		<path id="Path_1819" class="st2" d="M221.27-111.7h7.39v14.77h-7.39V-111.7z"/>
		<path id="Path_1820" class="st2" d="M221.27-96.92h7.39v14.77h-7.39V-96.92z"/>
		<path id="Path_1821" class="st2" d="M221.27-82.16h7.39V-60h-7.39V-82.16z"/>
		<path id="Path_1822" class="st2" d="M221.27-52.61h7.39v14.77h-7.39V-52.61z"/>
		<path id="Path_1823" class="st2" d="M221.27-30.45h7.39v7.39h-7.39V-30.45z"/>
		<path id="Path_1824" class="st2" d="M221.27-15.68h7.39v14.77h-7.39V-15.68z"/>
		<path id="Path_1825" class="st2" d="M221.27,43.41h7.39v7.39h-7.39V43.41z"/>
		<path id="Path_1826" class="st2" d="M221.27,58.19h7.39v14.77h-7.39V58.19z"/>
		<path id="Path_1827" class="st2" d="M221.27,80.34h7.39v7.39h-7.39V80.34z"/>
	</g>
</g>
</svg>
