<svg xmlns="http://www.w3.org/2000/svg" width="269.879" height="269.878" viewBox="53.001 136.12 269.879 269.878"><g data-name="Group 4723" transform="rotate(45 -40.07 368.004)" clip-path="url(&quot;#a&quot;)"><path d="M59.966 139.241c.074.46.153.909.221 1.373.926 6.25 1.385 12.911.773 19.11a10.989 10.989 0 0 1-.53 2.38c-1.703 11.828-6.36 38.044-7.536 44.618-.172.972-.275 1.541-.275 1.541s-.103-.57-.275-1.541c-1.175-6.574-5.834-32.795-7.536-44.62-.25-.763-.449-1.556-.53-2.378-.611-6.196-.152-12.856.771-19.105.069-.462.147-.911.22-1.37-7.248 2.926-12.383 10.022-12.383 18.31v.707c.13 2.15.866 9.516 1.703 17.892.857 8.596 1.9 19.06 2.818 29.037.072.778.143 1.549.212 2.32.07.773.14 1.539.208 2.305.231 2.59.45 5.123.65 7.548.21 2.545.396 4.958.56 7.224l.091 1.245.116-.769.92-6.056.177-1.153 1.131-7.443.337-2.21.258-1.7.301 1.772.39 2.302.472 2.78c.255 1.5.51 3.006.761 4.518l.1.61c.104.62.204 1.241.307 1.862l.472 2.885.321 1.998a1729.758 1729.758 0 0 1 2.222 14.247 2271.57 2271.57 0 0 1 5.28 36.973c1.222-8.133 3.3-21.744 5.766-37.005.24-1.5.489-3.017.739-4.544.469-2.874.95-5.79 1.438-8.726.143-.854.288-1.709.43-2.565.196-1.169.395-2.34.594-3.51.108-.644.216-1.287.327-1.93l1.313-7.7.015-.091.01.088.832 7.357.247 2.194.256 2.246.162 1.444.12 1.048 1.073 9.483.5 4.447.219 1.918c.066-.644.13-1.306.196-1.97.145-1.48.29-3.004.432-4.567a908.846 908.846 0 0 0 .857-10.018c.38-4.752.746-9.679 1.09-14.606.056-.775.108-1.551.162-2.327.054-.78.108-1.56.16-2.341 1.37-20.308 2.366-39.669 2.663-45.648l.002-.027c.05-.631.079-1.157.079-1.544 0-8.295-5.148-15.399-12.409-18.318" fill="#fff" fill-rule="evenodd" data-name="Path 2188"/><path d="M14.652 135.088c.025.435.04.869.057 1.301l16.82-11.039c-.185-.319-.364-.638-.538-.967-1.709-3.262-2.722-6.944-2.779-10.847-.064-4.318-.034-8.526.069-12.63.017-.628.042-1.24.064-1.865l-15.978 19.831c.032.152.066.295.096.447 1.016 4.887 1.858 10.317 2.19 15.77" fill="#fff" fill-rule="evenodd" data-name="Path 2189"/><path d="m73.7 125.36 16.803 11.03c.02-.435.034-.87.059-1.304.331-5.452 1.173-10.882 2.187-15.767.032-.152.066-.295.098-.447L76.892 99.068c.02.623.046 1.232.063 1.86.104 4.097.13 8.3.07 12.608a24.018 24.018 0 0 1-2.787 10.857c-.172.329-.351.648-.538.967" fill="#fff" fill-rule="evenodd" data-name="Path 2190"/><path d="M74.562 96.173c-.027-.643-.066-1.266-.096-1.902-.032-.638-.061-1.274-.095-1.905-.693-12.91-2.143-24.645-4.002-35.11-.144-.81-.292-1.61-.441-2.408-.15-.802-.3-1.605-.455-2.393-.154-.795-.316-1.571-.476-2.35-.154-.75-.307-1.514-.464-2.25-.346.16-.694.334-1.038.48-1.63.7-3.226 1.265-4.782 1.712-.474.137-.94.25-1.406.366-.81.2-1.608.373-2.391.515-2.298.415-4.49.599-6.54.599-2.33 0-4.472-.228-6.406-.572a38.117 38.117 0 0 1-2.08-.432c-.488-.118-.957-.24-1.409-.368a34.197 34.197 0 0 1-4.76-1.718c-.397-.18-.75-.35-1.055-.501-.157.741-.31 1.502-.464 2.258-.154.749-.31 1.495-.459 2.26-.152.789-.302 1.592-.452 2.394-.15.798-.297 1.598-.439 2.408-1.853 10.45-3.299 22.176-3.986 35.086-.035.633-.064 1.266-.096 1.904-.03.636-.069 1.26-.093 1.903-.025.611-.037 1.24-.06 1.856a312.316 312.316 0 0 0-.164 15.496 21.85 21.85 0 0 0 2.823 10.425c.04.07.084.13.123.2a23.584 23.584 0 0 0 1.217 1.877c2.816 3.913 6.861 6.868 11.547 8.268.077-.376.15-.752.229-1.122 2.108-10.082 4.882-17.785 5.088-18.352l1.14-3.115 1.138 3.115c.207.567 2.98 8.27 5.091 18.352.077.37.153.746.229 1.124 4.68-1.4 8.724-4.352 11.537-8.26a19.8 19.8 0 0 0 .63-.925c.204-.312.403-.629.59-.953.037-.066.083-.13.12-.196a21.842 21.842 0 0 0 2.83-10.438c.079-5.324.01-10.474-.164-15.472-.022-.616-.034-1.244-.059-1.856m-33.661-28.01c-.965 6.026-1.834 12.07-2.445 17.757-.209 1.824-.413 3.589-.6 5.322-.102.97-.21 1.942-.294 2.877l-.228 2.295c-.177 1.76-.344 3.473-.435 5.069l-.041.523c-.16 2.074-.307 4.003-.44 5.712l-.24 4.816-.24 4.2s-.033-1.53-.087-4.207c-.061-2.678-.098-6.508.103-11.098.032-1.603.133-3.321.243-5.089.05-.768.096-1.524.143-2.32.068-1.276.152-2.584.257-3.92.11-1.418.243-2.864.41-4.335.03-.302.074-.623.103-.927.54-5.452 1.28-11.192 2.134-16.933a392.62 392.62 0 0 1 2.1-11.928c.148-.778.295-1.551.445-2.317l.258-1.313c.464.128.942.25 1.44.368l-.137.746c-.142.769-.28 1.535-.42 2.313-.719 4.04-1.42 8.203-2.03 12.389M61.87 53.46c-.052-.282-.103-.562-.157-.844.476-.115.955-.236 1.438-.37.09.47.184.937.277 1.413.15.766.297 1.54.445 2.315a378.088 378.088 0 0 1 2.101 11.93c.854 5.741 1.596 11.478 2.133 16.933.03.304.076.625.103.927.167 1.47.3 2.917.413 4.335.103 1.333.189 2.644.255 3.92.047.796.093 1.552.142 2.32.11 1.768.211 3.486.243 5.089.202 4.59.165 8.42.106 11.098l-.088 4.207s-.089-1.527-.241-4.2l-.24-4.816c-.13-1.709-.28-3.64-.44-5.715l-.042-.52c-.09-1.596-.255-3.309-.432-5.069-.078-.761-.152-1.507-.23-2.295-.084-.935-.192-1.908-.295-2.877a658.574 658.574 0 0 0-.599-5.322c-.609-5.688-1.478-11.731-2.445-17.757a389.592 389.592 0 0 0-2.03-12.39c-.14-.777-.277-1.543-.417-2.312M56.18 80.736l-3.562-1.873-3.561 1.873.68-3.967-2.882-2.808 3.984-.58 1.78-3.608L54.4 73.38l3.982.58-2.882 2.808.68 3.967Z" fill="#fff" fill-rule="evenodd" data-name="Path 2191"/><path d="M12.313 136.752c-.226-5.238-.992-10.54-1.944-15.398-.094-.479-.187-.96-.283-1.431-.08-.383-.162-.751-.243-1.127l-.06-.282a156.462 156.462 0 0 0-3.592-13.509C3.844 112.441-1.2 130.608.263 145.442c.164 1.696.8 3.262 1.787 4.414 2.233 2.619 6.048 2.621 8.282.002.99-1.154 1.622-2.72 1.79-4.416.154-1.576.223-3.196.242-4.833.005-.447.01-.894.008-1.343-.005-.44-.017-.879-.03-1.32-.01-.398-.012-.794-.03-1.194" fill="#fff" fill-rule="evenodd" data-name="Path 2192"/><path d="M94.882 149.856c2.236 2.619 6.051 2.611 8.282.002.987-1.154 1.623-2.72 1.787-4.416 1.466-14.831-3.576-33.001-5.928-40.439a156.814 156.814 0 0 0-3.65 13.79c-.08.379-.164.747-.243 1.13-.098.471-.189.952-.285 1.43-.95 4.856-1.715 10.159-1.944 15.397-.017.4-.017.795-.03 1.195a79.4 79.4 0 0 0-.029 1.319c-.002.451.003.898.008 1.345.02 1.635.088 3.255.243 4.833.167 1.696.802 3.262 1.79 4.414" fill="#fff" fill-rule="evenodd" data-name="Path 2193"/><path d="M38.21 46.173c.062.027.14.06.204.091a33.288 33.288 0 0 0 4.55 1.635c.44.123.885.243 1.363.358 4.267 1.019 10.013 1.517 16.545-.09.454-.111.901-.2 1.362-.334 1.407-.405 2.853-.948 4.318-1.569.15-.064.3-.135.45-.201.343-.152.684-.295 1.03-.46-.166-.745-.333-1.494-.503-2.223a249.282 249.282 0 0 0-2.69-10.523 234.61 234.61 0 0 0-1.64-5.592 234.087 234.087 0 0 0-1.458-4.6C57.914 11.05 54.306 3.342 52.62 0c-1.693 3.338-5.314 11.041-9.146 22.664a237.076 237.076 0 0 0-4.266 14.544 257.446 257.446 0 0 0-1.542 6.247l-.01.045c-.164.707-.324 1.441-.486 2.165.265.14.616.312 1.041.508m10.8-21.942c.222-.742.413-1.358.583-1.903.424-1.348.685-2.11.685-2.11s-.182.753-.499 2.105c-.26 1.112-.609 2.637-1.028 4.505a638.794 638.794 0 0 0-1.797 8.306c-.096.435-.192.906-.287 1.353a425.14 425.14 0 0 0-1.206 5.894l-.012.064c-.23 1.195-.466 2.425-.71 3.674-.458-.11-.888-.23-1.308-.353.305-1.363.612-2.69.916-3.984.432-1.82.857-3.542 1.271-5.194.14-.555.283-1.135.418-1.667a216.18 216.18 0 0 1 2.209-8.081c.28-.953.543-1.844.766-2.61m5.926-4.013s.262.763.684 2.111c.172.545.364 1.161.585 1.903.223.765.486 1.656.763 2.609a211.074 211.074 0 0 1 2.212 8.08c.135.533.277 1.11.417 1.665.147.594.295 1.164.444 1.78.253 1.021.509 2.089.766 3.171.138.585.275 1.181.415 1.78.18.773.359 1.544.538 2.34-.447.132-.874.218-1.311.328l-.383-1.976a34.154 34.154 0 0 1-.093-.488 382.713 382.713 0 0 0-1.27-6.294c-.053-.253-.105-.501-.159-.749-.093-.444-.189-.913-.282-1.343a596.819 596.819 0 0 0-2.828-12.81c-.314-1.353-.498-2.107-.498-2.107" fill="#fff" fill-rule="evenodd" data-name="Path 2194"/><path d="M57.35 138.407c-.07-.405-.14-.81-.214-1.213l-.03-.167c-.063-.346-.125-.687-.19-1.028l-.013-.069c-.071-.37-.145-.734-.219-1.1l-.005-.03a155.19 155.19 0 0 0-4.062-15.756 155.521 155.521 0 0 0-4.036 15.641l-.03.143c-.073.368-.146.731-.218 1.102l-.012.074c-.066.338-.128.68-.191 1.02a177.724 177.724 0 0 0-.243 1.387c-.052.3-.108.595-.157.897-.614 3.748-1.073 7.668-1.238 11.547-.122 2.93-.078 5.84.197 8.628.164 1.694.8 3.262 1.787 4.416 1.12 1.306 2.59 2.028 4.14 2.028h.003c1.552 0 3.025-.722 4.141-2.028.987-1.156 1.623-2.725 1.787-4.416.275-2.788.32-5.697.197-8.626-.162-3.864-.621-7.769-1.23-11.503-.051-.319-.11-.63-.164-.947" fill="#fff" fill-rule="evenodd" data-name="Path 2195"/></g><defs><clipPath id="a"><path d="M0 0h105.217v276.453H0V0z" data-name="Rectangle 1353"/></clipPath></defs></svg>