<svg xmlns="http://www.w3.org/2000/svg" width="346.477" height="17.442" viewBox="15 44 346.477 17.442"><g data-name="Group 4536"><g data-name="Group 4432"><path d="M137.327 46.2c-.302.116-.626.232-.626.927v7.343c0 5.235-4.401 6.486-7.296 6.486-3.174 0-7.506-.37-7.506-5.861v-7.62c0-.51-.277-1.043-.671-1.205L120 45.783c0-.208.023-1.158.092-1.412h8.039c.069.347.069 1.227.046 1.528l-1.552.278c-.463.093-.602.301-.602.741v7.552c0 3.613 2.478 4.17 4.308 4.17 1.691 0 3.474-.789 3.474-4.726V47.66c0-.556-.231-1.274-1.297-1.576l-.996-.3c0-.21-.046-1.159.024-1.413h6.856c.07.347.116 1.158.092 1.459l-1.157.37Z" fill="#fff" fill-rule="evenodd" data-name="Path 1705"/><path d="M157.06 46.177c-.51.278-.95.927-.95 1.599v12.74l-3.034.926-8.895-12.045h-.162l.093 1.853v3.174l.07 3.497c0 .556.045.742.555.88l1.969.557c0 .208-.023 1.134-.116 1.39h-6.972a7.002 7.002 0 0 1-.092-1.368l1.111-.3c.718-.186 1.089-1.32 1.112-2.063l.046-2.593v-6.927c0-.51-.3-.972-.672-1.181l-1.413-.718c0-.208-.023-.973.047-1.227h5.374l8.64 11.396h.162l-.14-2.432v-5.536c0-.58-.393-1.25-.856-1.483l-1.46-.718c0-.208 0-.973.093-1.227h6.532c.047.347.093.88.093 1.18l-1.135.626Z" fill="#fff" fill-rule="evenodd" data-name="Path 1706"/><path d="M167.157 60.747h-7.736c-.14-.556-.07-.903-.07-1.413l.834-.232c.463-.162 1.089-.556 1.112-1.297l.07-3.567v-6.74c0-.765-.742-1.159-1.182-1.344l-.834-.37c0-.51-.07-.834.07-1.413h7.829c.046.602.023 1.134-.07 1.575l-1.019.254c-.671.186-.834.81-.834 1.251v6.787l.047 3.915c.023.44.116.556.533.695l1.412.324c0 .556 0 .973-.162 1.575Z" fill="#fff" fill-rule="evenodd" data-name="Path 1707"/><path d="M186.36 61.303c-2.04.186-4.054 0-6-1.645-1.367-1.135-2.571-3.22-3.544-5.42l-.487.023h-1.83l.07 3.66c0 .463.093.695.487.81l1.436.488c0 .208 0 1.273-.093 1.528h-7.876c-.046-.347-.092-1.135-.07-1.436l1.113-.255c.532-.116.88-.81.903-1.436l.07-3.196v-7.088c0-.371-.186-.765-.556-.927l-1.506-.603c-.023-.185 0-1.134.116-1.435h9.08c3.266 0 6.254 1.274 6.254 4.702 0 1.621-.973 3.335-2.849 4.33.51 1.067 1.228 2.457 2.154 3.661.903 1.181 1.969 2.155 3.243 2.41l-.116 1.83Zm-6.81-11.836c0-2.108-1.46-3.058-4.054-3.058h-1.02v5.953l1.691-.023c2.455-.023 3.359-.857 3.359-2.872h.023Z" fill="#fff" fill-rule="evenodd" data-name="Path 1708"/><path d="M203.313 60.747h-7.32c-.185-.486-.208-.856-.208-1.505l1.228-.44c.532-.186.764-.533.764-.996 0-.302-.07-.533-.185-.858l-.788-2.409h-5.165l-.834 2.201a2.74 2.74 0 0 0-.163.88c0 .788.487 1.02.858 1.135l1.668.487c0 .44 0 1.042-.14 1.505h-6.323c-.116-.394-.116-.88-.116-1.39.533-.509.81-.74 1.112-1.412l5.698-13.18 3.637-.765 5.397 13.99c.232.556.649.974 1.042 1.39 0 .557-.023.904-.162 1.367Zm-8.27-11.582-.555-1.992h-.14l-.648 1.923-1.32 3.52h3.799l-1.135-3.45Z" fill="#fff" fill-rule="evenodd" data-name="Path 1709"/><path d="M222.306 46.177c-.51.278-.95.927-.95 1.599v12.74l-3.034.926-8.895-12.045h-.162l.092 1.853v3.174l.07 3.497c0 .556.046.742.556.88l1.969.557c0 .208-.023 1.134-.116 1.39h-6.972a7.033 7.033 0 0 1-.093-1.368l1.112-.3c.718-.186 1.088-1.32 1.112-2.063l.046-2.593v-6.927c0-.51-.3-.972-.672-1.181l-1.413-.718c0-.208-.023-.973.047-1.227h5.373l8.64 11.396h.163l-.14-2.432v-5.536c0-.58-.393-1.25-.856-1.483l-1.46-.718c0-.208 0-.973.093-1.227h6.532a11 11 0 0 1 .093 1.18l-1.135.626Z" fill="#fff" fill-rule="evenodd" data-name="Path 1710"/><path d="M241.414 61.025c-1.02 0-4.147-.185-5.907-2.177l-4.934-5.583v.973l.046 3.915c.023.44.093.602.533.695l1.413.324c0 .556 0 .973-.162 1.575h-7.736c-.093-.51-.07-.903-.07-1.413l.834-.232c.463-.162 1.088-.556 1.111-1.297l.07-3.567v-6.74c0-.765-.74-1.159-1.181-1.344l-.834-.37c0-.51-.023-.881.092-1.413h7.807c.046.602.023 1.134-.07 1.575l-1.02.254c-.67.163-.833.81-.833 1.251v4.818l4.587-4.378c.231-.208.347-.486.347-.74 0-.441-.186-.835-.463-.974l-.649-.347c0-.533-.023-.88.116-1.46h6.555v1.135l-7.134 6.209 3.359 3.428c1.413 1.459 2.872 2.895 4.516 4.03l-.393 1.853Z" fill="#fff" fill-rule="evenodd" data-name="Path 1711"/><path d="M248.616 61.002c-1.877 0-4.378-.394-6-1.39l.44-4.192h1.668c.185 2.27 2.085 3.474 4.239 3.474.903 0 2.71-.348 2.71-1.552 0-.926-1.366-1.528-3.011-2.27-2.386-1.065-5.328-2.385-5.328-5.42 0-2.988 3.243-5.443 6.093-5.443 1.922 0 4.007.417 5.582 1.181v3.59h-1.506c-.463-1.853-2.247-2.57-4.007-2.57-1.251 0-2.479.393-2.479 1.852 0 .996 1.737 1.645 3.66 2.479 2.41 1.042 5.096 2.34 5.096 4.98 0 3.776-3.938 5.281-7.157 5.281Z" fill="#fff" fill-rule="evenodd" data-name="Path 1712"/></g><g data-name="Group 4534"><g data-name="Group 4529"><path d="m277.104 60.405-5.005-3.702-5.006 3.702 1.975-5.904L264 50.884l6.226.054L272.099 45l1.873 5.938 6.226-.054-5.068 3.617 1.974 5.904Z" fill="#fff" fill-rule="evenodd" data-name="Path 1750"/></g><g data-name="Group 4530"><path d="m292.417 45 1.873 5.937 6.226-.053-5.068 3.616 1.974 5.905-5.005-3.703-5.006 3.703 1.975-5.905-5.068-3.616 6.225.053L292.417 45Z" fill="#b1b1b1" fill-rule="evenodd" data-name="Path 1756"/></g><g data-name="Group 4531"><path d="m317.744 60.405-5.006-3.702-5.005 3.702 1.974-5.904-5.068-3.617 6.226.054L312.738 45l1.874 5.938 6.225-.054-5.067 3.617 1.974 5.904Z" fill="#fff" fill-rule="evenodd" data-name="Path 1750"/></g><g data-name="Group 4532"><path d="m333.056 45 1.874 5.937 6.225-.053-5.068 3.616 1.975 5.905-5.006-3.703-5.005 3.703 1.974-5.905-5.068-3.616 6.226.053L333.056 45Z" fill="#b1b1b1" fill-rule="evenodd" data-name="Path 1756"/></g><g data-name="Group 4533"><path d="m358.383 60.405-5.005-3.702-5.006 3.702 1.975-5.904-5.068-3.617 6.226.054L353.378 45l1.873 5.938 6.226-.054-5.068 3.617 1.974 5.904Z" fill="#fff" fill-rule="evenodd" data-name="Path 1750"/></g></g><g data-name="Group 4535"><g data-name="Group 4529"><path d="M28.104 60.405 23.1 56.703l-5.006 3.702 1.975-5.904L15 50.884l6.226.054L23.099 45l1.873 5.938 6.226-.054-5.068 3.617 1.974 5.904Z" fill="#fff" fill-rule="evenodd" data-name="Path 1750"/></g><g data-name="Group 4530"><path d="m43.417 45 1.873 5.937 6.226-.053-5.068 3.616 1.974 5.905-5.005-3.703-5.006 3.703 1.975-5.905-5.068-3.616 6.225.053L43.417 45Z" fill="#b1b1b1" fill-rule="evenodd" data-name="Path 1756"/></g><g data-name="Group 4531"><path d="m68.744 60.405-5.006-3.702-5.005 3.702 1.974-5.904-5.068-3.617 6.226.054L63.738 45l1.874 5.938 6.225-.054-5.067 3.617 1.974 5.904Z" fill="#fff" fill-rule="evenodd" data-name="Path 1750"/></g><g data-name="Group 4532"><path d="m84.056 45 1.874 5.937 6.225-.053-5.068 3.616 1.975 5.905-5.006-3.703-5.005 3.703 1.974-5.905-5.068-3.616 6.226.053L84.056 45Z" fill="#b1b1b1" fill-rule="evenodd" data-name="Path 1756"/></g><g data-name="Group 4533"><path d="m109.383 60.405-5.005-3.702-5.006 3.702 1.975-5.904-5.068-3.617 6.226.054L104.378 45l1.873 5.938 6.226-.054-5.068 3.617 1.974 5.904Z" fill="#fff" fill-rule="evenodd" data-name="Path 1750"/></g></g></g></svg>