<svg xmlns="http://www.w3.org/2000/svg" width="33.5" height="33.5" viewBox="310 505 33.5 33.5"><path d="M326.75 505c-9.251 0-16.75 7.499-16.75 16.75 0 9.251 7.499 16.75 16.75 16.75 9.251 0 16.75-7.499 16.75-16.75 0-9.251-7.499-16.75-16.75-16.75Zm5.558 24.152c-.264.262-.54.537-.764.762a1.614 1.614 0 0 0-.417.724c-.102.382-.184.768-.322 1.139l-1.174 3.164c-.93.203-1.892.317-2.881.317v-1.85c.114-.852-.516-2.448-1.528-3.46a2.161 2.161 0 0 1-.633-1.53v-2.161c0-.786-.424-1.509-1.112-1.89-.97-.536-2.351-1.286-3.297-1.763a9.736 9.736 0 0 1-2.137-1.469l-.054-.048a7.753 7.753 0 0 1-1.22-1.401 1119.1 1119.1 0 0 1-2.336-3.454 13.581 13.581 0 0 1 6.97-6.882l1.621.811a1.08 1.08 0 0 0 1.565-.966v-.763c.54-.087 1.088-.143 1.647-.164l1.911 1.912a1.08 1.08 0 0 1 0 1.528l-.316.316-.699.699a.54.54 0 0 0 0 .763l.317.317a.54.54 0 0 1 0 .764l-.54.54a.54.54 0 0 1-.383.158h-.607a.54.54 0 0 0-.377.154l-.67.652a.54.54 0 0 0-.106.628l1.053 2.107a.54.54 0 0 1-.483.782h-.381a.54.54 0 0 1-.354-.132l-.627-.545a1.082 1.082 0 0 0-1.05-.21l-2.105.703a.807.807 0 0 0-.106 1.488l.749.374a4.574 4.574 0 0 0 2.047.483c.71 0 1.525 1.844 2.161 2.162h4.508c.574 0 1.123.227 1.529.632l.924.925c.387.387.604.91.604 1.457 0 .836-.334 1.638-.927 2.227Zm5.856-6.17a1.621 1.621 0 0 1-.955-.673l-1.215-1.821a1.619 1.619 0 0 1 0-1.798l1.323-1.985a1.62 1.62 0 0 1 .624-.55l.877-.438a13.402 13.402 0 0 1 1.44 6.033c0 .586-.05 1.159-.123 1.725l-1.97-.492Z" fill="#1c345a" fill-rule="evenodd" data-name="Icon awesome-globe-americas"/></svg>