<svg xmlns="http://www.w3.org/2000/svg" width="19" height="21.111" viewBox="-12570 -23674.133 19 21.111"><path d="m-12555.718-23663.514-1.12-1.119-5.15 5.151-2.238-2.237-1.119 1.118 3.357 3.357 6.27-6.27Zm2.607-8.508h-1.056v-2.11h-2.11v2.11h-8.445v-2.11h-2.111v2.11h-1.056c-1.172 0-2.1.95-2.1 2.111l-.011 14.778a2.11 2.11 0 0 0 2.111 2.111h14.778c1.161 0 2.111-.95 2.111-2.11v-14.779c0-1.16-.95-2.11-2.111-2.11Zm0 16.89h-14.778v-11.612h14.778v11.611Z" fill="#1c345a" fill-rule="evenodd" data-name="Icon material-event-available"/></svg>