<svg xmlns="http://www.w3.org/2000/svg" width="160.472" height="235.194" viewBox="0 -0.004 160.472 235.194"><g data-name="Group 4741" transform="translate(0 -.004)" clip-path="url(&quot;#a&quot;)"><path d="M80.235 235.194c-22.498 0-25.449-10.372-28.052-19.524-1.487-5.227-3.025-10.632-8.83-16.19-16.843-15.048-20.571-29.605-21.315-36.741-24.99-22.457-21.552-52.717-20.55-58.836-3.402-23.708.075-42.058.226-42.835C13.43 1.713 72.684 0 79.401 0c.4 0 .697.005.881.01l.722-.008c6.725 0 66.038 1.713 77.747 61.047.154.785 3.638 19.115.232 42.854 1.002 6.12 4.44 36.381-20.549 58.837-.75 7.14-4.503 21.72-21.494 36.905-5.625 5.39-7.162 10.794-8.65 16.02-2.607 9.159-5.559 19.529-28.055 19.529" fill="#fff" fill-rule="evenodd" data-name="Path 2233"/><path d="M80.236 7.123s60.123-2.536 71.539 55.303c0 0 3.551 18.266 0 41.605 0 0 7.61 32.471-20.295 55.303 0 0 1.015 16.87-19.28 35.008-17.885 17.124-3.298 33.74-31.964 33.74-28.667 0-14.08-16.616-31.964-33.74-20.295-18.138-19.28-35.008-19.28-35.008-27.906-22.832-20.295-55.303-20.295-55.303-3.552-23.34 0-41.605 0-41.605C20.112 4.586 80.236 7.123 80.236 7.123" fill="#fff" fill-rule="evenodd" data-name="Path 2234"/><path d="M154.388 61.91C142.902 3.715 83.237 4.387 80.236 4.46c-3.002-.087-62.668-.738-74.154 57.459-.148.759-3.554 18.748-.09 42.047-.834 4.412-5.429 34.706 20.345 56.624.197 4.627 2.28 19.759 20.092 35.677 6.678 6.393 8.46 12.659 10.033 18.187 2.487 8.743 4.635 16.292 23.774 16.292 19.138 0 21.285-7.55 23.774-16.292 1.572-5.528 3.355-11.794 9.965-18.125 17.87-15.97 19.96-31.11 20.16-35.74 25.773-21.917 21.177-52.21 20.344-56.623 3.463-23.3.057-41.287-.091-42.055m-3.746 24.258c-4.228-17.422-7.563-24.832-11.507-30.21 5.497 21.604 4.52 23.434 8.985 42.445-18.73-9.3-43.852-6.573-59.366 12.73 0 0 .913-.61 2.438-1.721 18.452-13.778 37.932-14.3 53.23-6.316 3.333 1.74 5.436 5.187 5.573 8.944.302 8.312-.99 22.335-10.669 35.303-9.029 9.509-18.186 14.55-35.325 11.427 1.963 1.46 6.984 3.436 13.532 3.474a47.853 47.853 0 0 0 4.893-.416c-7.888 6-15.187 13.86-17.592 20.544 0 0 .454-.405 1.178-1.136 13.798-13.111 17.817-15.33 22.388-17.622-1.075 5.81-4.85 17.012-18.042 28.806-7.722 7.391-9.802 14.702-11.472 20.575-2.28 8.01-3.535 12.423-18.65 12.423-15.116 0-16.371-4.413-18.65-12.423-1.671-5.873-3.751-13.184-11.54-20.638-13.145-11.75-16.906-22.936-17.976-28.739 4.61 2.311 8.541 4.46 22.39 17.618a29.483 29.483 0 0 0 1.177 1.136c-2.42-6.724-9.743-14.58-17.61-20.557 1.54.22 3.165.368 4.912.43 6.57-.039 11.376-1.87 13.531-3.475-17.464 3.182-26.548-2.096-35.564-11.683-9.647-12.987-10.857-26.855-10.493-35.088.165-3.728 2.264-7.136 5.571-8.866 15.286-7.992 34.846-7.496 53.295 6.279a81.22 81.22 0 0 0 2.438 1.722C56.08 91.676 30.977 89.149 12.351 98.402c4.494-19.125 3.475-20.788 8.985-42.444-4.539 6.189-7.945 15.505-11.508 30.185-.308-13.693 1.458-23.078 1.482-23.201 10.023-50.784 58.422-53.18 67.443-53.18.724 0 1.197.015 1.373.022l.112.005.11-.005c.584-.024 57.965-1.806 68.812 53.15.025.129 1.793 9.527 1.482 23.234" fill="#1c345a" fill-rule="evenodd" data-name="Path 2235"/><path d="M96.598 190.098c-8.716 7.291-23.633 7.31-32.345 0 5.407.235 10.744 1.016 16.172 1.023 5.43.007 10.766-.81 16.173-1.023" fill="#1c345a" fill-rule="evenodd" data-name="Path 2236"/><path d="M91.305 196.24c-5.864 6.88-15.898 6.897-21.758 0 3.637.222 7.228.96 10.879.966 3.653.006 7.242-.765 10.879-.966" fill="#1c345a" fill-rule="evenodd" data-name="Path 2237"/><path d="M83.567 179.764c-.76-5.757.693-11.053 3.367-15 1.537-2.192 3.837-1.602 4.672.189.869 1.787.413 3.748-1.16 4.943-2.972 2.135-5.515 5.521-6.879 9.868" fill="#1c345a" fill-rule="evenodd" data-name="Path 2238"/><path d="M76.904 179.764c.76-5.757-.693-11.053-3.367-15-1.536-2.192-3.837-1.602-4.672.189-.869 1.787-.413 3.748 1.16 4.943 2.973 2.135 5.516 5.521 6.88 9.868" fill="#1c345a" fill-rule="evenodd" data-name="Path 2239"/><path d="M90.863 162c.008-.427 2.264.172 2.462.264.908.423 1.622 1.161 2.112 2.025a6.057 6.057 0 0 1 .178 5.624c-1.116 2.31-3.522 3.285-5.442 4.796-1.618 1.275-2.823 2.825-3.755 4.656a9.816 9.816 0 0 1 1.98-4.635c1.426-1.819 3.637-2.85 5.018-4.652 2.08-2.712.836-7.175-2.553-8.077" fill="#1c345a" fill-rule="evenodd" data-name="Path 2240"/><path d="M69.608 162c-3.406.872-4.617 5.388-2.553 8.078 1.331 1.736 3.459 2.748 4.863 4.464a9.91 9.91 0 0 1 2.135 4.823c-.933-1.834-2.135-3.38-3.755-4.656-1.918-1.51-4.327-2.487-5.442-4.796a6.05 6.05 0 0 1 .178-5.624c.494-.862 1.203-1.6 2.112-2.025.198-.092 2.454-.69 2.462-.263" fill="#1c345a" fill-rule="evenodd" data-name="Path 2241"/><path d="M68.384 217.743c6.07-5.733 17.644-5.788 23.703 0-3.942.074-7.902-.454-11.851-.455-3.946-.002-7.915.556-11.852.455" fill="#1c345a" fill-rule="evenodd" data-name="Path 2242"/><path d="M93.753 147.15c-5.807-1.466-6.049-1.934-7.02-3.019a56.816 56.816 0 0 1-1.491-5.116c-1.884-7.749-1.928-16.279-.546-24.125-3.427 7.631-3.802 17.114-1.956 25.18 1.88 8.207 6.325 15.166 13.23 20.025-1.042-1.51-2.267-2.89-3.275-4.42-1.304-1.979-2.506-4.064-3.644-6.176 9.805 4.12 27.337 6.693 36.518 2.698 8.514-3.474 17.17-16.107 19.473-23.19-16.302 18.305-17.555 26.256-51.289 18.144" fill="#1c345a" fill-rule="evenodd" data-name="Path 2243"/><path d="M75.229 139.015a54.479 54.479 0 0 1-1.523 5.157c-.937 1.048-1.296 1.54-6.988 2.979-33.626 8.086-34.839.327-51.288-18.143 1.841 5.664 7.463 14.235 13.466 19.368 11.643 10.1 33.895 4.71 42.5 1.143-2.037 3.876-4.281 6.786-6.894 10.576 6.9-4.871 11.348-11.809 13.23-20.026 1.842-8.049 1.486-17.566-1.957-25.179 1.38 7.847 1.339 16.375-.546 24.125" fill="#1c345a" fill-rule="evenodd" data-name="Path 2244"/><path d="M87.682 130.047c.242 2.585-.28 5.194.882 7.627 1.312 2.747 3.825 4.435 6.526 5.626-3.244.359-6.48-1.599-7.962-4.454-1.49-2.871-.713-6.001.554-8.799" fill="#1c345a" fill-rule="evenodd" data-name="Path 2245"/><path d="M72.789 130.047c1.265 2.787 2.054 5.94.554 8.8-1.502 2.861-4.7 4.796-7.962 4.453 2.709-1.194 5.2-2.88 6.526-5.626 1.171-2.425.642-5.047.882-7.627" fill="#1c345a" fill-rule="evenodd" data-name="Path 2246"/><path d="M88.754 111.134c2.497-7.404 8.56-14.141 14.976-18.407 7.02-4.666 15.338-7.007 23.763-6.416 4.314.302 8.479 1.398 12.463 3.049-4.61-.295-9.136-.646-13.758-.264a46.512 46.512 0 0 0-14.653 3.666c-8.945 3.877-16.9 10.637-22.79 18.372" fill="#1c345a" fill-rule="evenodd" data-name="Path 2247"/><path d="M71.717 111.134c-5.89-7.735-13.846-14.495-22.79-18.372a46.511 46.511 0 0 0-14.653-3.666c-4.622-.382-9.149-.03-13.759.264 7.39-3.063 15.64-4.078 23.483-2.207 8.443 2.014 15.98 6.882 21.513 13.544 2.546 3.066 4.923 6.63 6.206 10.437" fill="#1c345a" fill-rule="evenodd" data-name="Path 2248"/><path d="M136.173 42.83C108.094 5.442 57.655 3.09 27.984 39.122c1.531-1.177 9.495-8.152 19.427-12.951 9.85-4.76 20.413-7.316 31.204-7.457a440.54 440.54 0 0 1 1.637 28.116c.276 10.734-.364 21.478-.016 32.205.82-4.018 1.361-8.085 1.801-12.16 1.724-15.963 2.224-32.013 1.677-48.048 15.487.894 31.283 6.795 45.982 18.403 2.235 1.765 4.294 3.766 6.477 5.598" fill="#1c345a" fill-rule="evenodd" data-name="Path 2249"/><path d="M97.936 178.613c4.62 8.786 3.983 21.223-2.594 28.794 1.977-4.78 3.23-9.461 3.489-14.655.233-4.708-.205-9.483-.895-14.139" fill="#1c345a" fill-rule="evenodd" data-name="Path 2250"/><path d="M62.535 178.613c-.69 4.656-1.128 9.431-.894 14.14.258 5.193 1.511 9.875 3.488 14.654-6.577-7.57-7.214-20.008-2.594-28.794" fill="#1c345a" fill-rule="evenodd" data-name="Path 2251"/><path d="M146.193 112.612a5.166 5.166 0 0 0-2.943-2.844c-7.775-2.906-24.82-6.262-32.613-2.84-5.27 2.127-11.219 9.233-15.615 15.994.271-1.586.652-3.14 1.155-4.612 1.741-5.1 5.014-9.113 8.805-12.827-4.851 3.283-9.09 7.078-11.829 12.36-2.784 5.37-4.343 11.22-3.723 17.186l.023-.003c.283 2.08 1.633 3.567 3.294 4.187 5.44 2.031 15.41 4.281 23.58 4.281 3.508 0 6.686-.415 9.027-1.442 7.944-3.208 17.465-17.748 20.82-25.34a5.166 5.166 0 0 0 .02-4.1" fill="#1c345a" fill-rule="evenodd" data-name="Path 2252"/><path d="M141.998 114.866c-1.62 4.354-3.822 8.46-6.416 12.31-2.812 4.174-6.296 8.888-10.886 11.224-4.743 2.413-11.096 1.53-16.125.611-3.375-.616-6.78-1.465-9.979-2.728 4.02.665 8.048 1.253 12.115 1.55 4.564.333 10.07.793 14.115-1.76 4.228-2.67 7.544-7.032 10.493-10.988 2.433-3.264 4.721-6.65 6.683-10.219" fill="#fff" fill-rule="evenodd" data-name="Path 2253"/><path d="M95.306 129.209c-.044-.25-.385-.302-.509-.08a54.442 54.442 0 0 0-2.196 4.37 2.123 2.123 0 0 0 .002 1.686c.234.555.664.972 1.209 1.176.753.281 1.595.565 2.507.846.193.059.388-.107.353-.306l-1.366-7.692Z" fill="#fff" fill-rule="evenodd" data-name="Path 2254"/><path d="M115.277 115.074c-1.132-1.771-4.49-1.647-7.5.277s-4.534 4.919-3.402 6.69c1.132 1.77 4.49 1.646 7.5-.277 3.01-1.924 4.534-4.92 3.402-6.69" fill="#fff" fill-rule="evenodd" data-name="Path 2255"/><path d="M122.143 117.99c-.493-.773-1.958-.719-3.27.12-1.313.84-1.978 2.145-1.484 2.917.494.773 1.957.719 3.27-.12 1.313-.84 1.977-2.145 1.484-2.918" fill="#fff" fill-rule="evenodd" data-name="Path 2256"/><path d="M116.257 123.967a1.24 1.24 0 1 0 0 2.48 1.24 1.24 0 0 0 0-2.48" fill="#fff" fill-rule="evenodd" data-name="Path 2257"/><path d="M14.278 112.612a5.163 5.163 0 0 1 2.943-2.844c7.775-2.906 24.82-6.262 32.613-2.84 5.27 2.127 11.22 9.233 15.615 15.994a29.896 29.896 0 0 0-1.155-4.612c-1.741-5.1-5.014-9.113-8.805-12.827 4.852 3.283 9.09 7.078 11.83 12.36 2.783 5.37 4.343 11.22 3.722 17.186l-.023-.003c-.283 2.08-1.633 3.567-3.293 4.187-5.44 2.031-15.412 4.281-23.58 4.281-3.509 0-6.687-.415-9.028-1.442-7.944-3.208-17.465-17.748-20.82-25.34a5.163 5.163 0 0 1-.019-4.1" fill="#1c345a" fill-rule="evenodd" data-name="Path 2258"/><path d="M18.473 114.866c1.62 4.354 3.822 8.46 6.416 12.31 2.812 4.174 6.296 8.888 10.886 11.224 4.743 2.413 11.096 1.53 16.125.611 3.376-.616 6.78-1.465 9.98-2.728-4.02.665-8.05 1.253-12.116 1.55-4.564.333-10.07.793-14.115-1.76-4.228-2.67-7.544-7.032-10.493-10.988-2.433-3.264-4.721-6.65-6.683-10.219" fill="#fff" fill-rule="evenodd" data-name="Path 2259"/><path d="M65.165 129.209c.044-.25.385-.302.509-.08a54.456 54.456 0 0 1 2.197 4.37c.232.522.23 1.136-.003 1.686a2.108 2.108 0 0 1-1.209 1.176c-.753.281-1.595.565-2.507.846-.193.059-.388-.107-.353-.306l1.366-7.692Z" fill="#fff" fill-rule="evenodd" data-name="Path 2260"/><path d="M43.392 115.074c-1.132-1.771-4.49-1.647-7.5.277s-4.534 4.919-3.402 6.69c1.131 1.77 4.49 1.646 7.5-.277 3.01-1.924 4.533-4.92 3.402-6.69" fill="#fff" fill-rule="evenodd" data-name="Path 2261"/><path d="M50.258 117.99c-.493-.773-1.958-.719-3.27.12-1.313.84-1.978 2.145-1.484 2.917.494.773 1.958.719 3.27-.12 1.313-.84 1.977-2.145 1.484-2.918" fill="#fff" fill-rule="evenodd" data-name="Path 2262"/><path d="M44.372 123.967a1.24 1.24 0 1 0 0 2.48 1.24 1.24 0 0 0 0-2.48" fill="#fff" fill-rule="evenodd" data-name="Path 2263"/><path d="M135.89 77.938c-8.46-1.087-18.325-1.372-25.53 3.856-4.23 3.068-8.467 6.149-13.103 8.588-3.806 2.001-8.097 3.9-12.48 3.198 4.374-.747 8.154-3.52 11.67-6.077 4.204-3.057 8.19-6.578 12.571-9.373 7.817-4.987 18.781-4.377 26.871-.192" fill="#1c345a" fill-rule="evenodd" data-name="Path 2264"/><path d="M128.018 64.573c-6.267.359-13.127 1.243-17.847 5.741-2.663 2.537-5.329 5.079-8.35 7.194-2.616 1.832-5.68 3.687-8.988 3.459 3.13-1.118 5.597-3.743 7.889-6.052 2.609-2.628 5.082-5.518 7.912-7.91 5.137-4.342 13.252-4.89 19.384-2.432" fill="#1c345a" fill-rule="evenodd" data-name="Path 2265"/><path d="M24.581 77.938c8.09-4.185 19.054-4.795 26.871.192 4.38 2.794 8.373 6.31 12.572 9.373 3.51 2.56 7.3 5.33 11.669 6.077-4.382.701-8.673-1.196-12.48-3.198-4.636-2.439-8.874-5.52-13.103-8.588-7.205-5.228-17.07-4.943-25.529-3.856" fill="#1c345a" fill-rule="evenodd" data-name="Path 2266"/><path d="M32.452 64.573c6.135-2.455 14.246-1.912 19.385 2.433 2.76 2.333 5.172 5.15 7.718 7.714 2.35 2.368 4.869 5.103 8.083 6.247-3.22.218-6.196-1.531-8.76-3.301-3.112-2.147-5.851-4.749-8.578-7.352-4.717-4.503-11.583-5.379-17.848-5.741" fill="#1c345a" fill-rule="evenodd" data-name="Path 2267"/></g><defs><clipPath id="a"><path d="M0 0h160.472v235.194H0V0z" data-name="Rectangle 1356"/></clipPath></defs></svg>