<svg xmlns="http://www.w3.org/2000/svg" width="248.469" height="207.416" viewBox="0 0.004 248.469 207.416"><g data-name="Group 4729" transform="translate(0 .004)" clip-path="url(&quot;#a&quot;)"><path d="M104.757 96.527a1.784 1.784 0 0 1-1.192-3.114 16.608 16.608 0 0 1 11.096-4.243c1.654 0 3-1.346 3-2.998v-2.114a1.785 1.785 0 0 1 3.569 0v2.114a6.575 6.575 0 0 1-6.57 6.567c-3.22 0-6.315 1.183-8.71 3.332a1.786 1.786 0 0 1-1.193.456m38.946-.008c-.426 0-.851-.15-1.19-.455a13.029 13.029 0 0 0-8.704-3.325 6.575 6.575 0 0 1-6.57-6.567v-2.391a1.785 1.785 0 0 1 3.57 0v2.391a3.002 3.002 0 0 0 3 2.998 16.58 16.58 0 0 1 11.083 4.236 1.784 1.784 0 0 1-1.19 3.113M124.235 80.7c-16.13 0-27.452-25.79-27.452-39.753 0-15.137 12.316-27.452 27.452-27.452 15.137 0 27.453 12.315 27.453 27.452 0 13.963-11.322 39.754-27.453 39.754m0-63.637c-13.168 0-23.883 10.714-23.883 23.883 0 13.633 11.163 36.185 23.883 36.185 12.72 0 23.884-22.552 23.884-36.185 0-13.169-10.715-23.883-23.884-23.883m0 55.92a10.58 10.58 0 0 1-7.508-3.105 1.784 1.784 0 1 1 2.524-2.523c2.747 2.747 7.218 2.747 9.969 0a1.784 1.784 0 1 1 2.524 2.523 10.582 10.582 0 0 1-7.509 3.105m0-8.602h-.002a4.576 4.576 0 0 1-3.262-1.355 1.784 1.784 0 1 1 2.528-2.519c.195.195.458.304.734.304h.002c.28 0 .542-.11.74-.306a1.784 1.784 0 1 1 2.523 2.523 4.586 4.586 0 0 1-3.263 1.353m10.691-5.882c-.59 0-1.182-.046-1.775-.14-2.474-.39-4.505-1.577-5.428-3.176-1.807-3.13-.067-9.178 4.803-11.99 4.87-2.807 10.978-1.297 12.785 1.836.926 1.6.94 3.952.036 6.292-.928 2.408-2.647 4.432-4.838 5.698a11.171 11.171 0 0 1-5.583 1.48m3.175-13.206c-1.22 0-2.556.277-3.79.99-3.237 1.871-4.231 5.842-3.497 7.116.3.518 1.334 1.19 2.893 1.433 1.724.272 3.553-.055 5.017-.904 1.466-.845 2.665-2.265 3.293-3.892.569-1.473.504-2.702.204-3.223-.455-.788-2.138-1.52-4.12-1.52M113.543 58.5c-1.964 0-3.897-.507-5.581-1.48-2.192-1.266-3.911-3.29-4.838-5.698-.904-2.34-.89-4.691.035-6.292 1.807-3.135 7.911-4.65 12.785-1.836 4.87 2.812 6.61 8.86 4.802 11.99-.922 1.599-2.953 2.786-5.428 3.177-.592.093-1.185.14-1.775.14m-3.174-13.207c-1.985 0-3.664.732-4.12 1.52-.3.52-.365 1.75.205 3.223.627 1.627 1.826 3.047 3.292 3.892 1.464.849 3.29 1.176 5.017.904 1.56-.244 2.593-.915 2.893-1.433.734-1.274-.26-5.245-3.497-7.115-1.234-.714-2.57-.99-3.79-.99" fill="#fff" fill-rule="evenodd" data-name="Path 2196"/><path d="M124.235 122.736c-4.16 0-7.543-3.384-7.543-7.543 0-4.159 3.383-7.543 7.543-7.543 4.159 0 7.542 3.384 7.542 7.543 0 4.16-3.383 7.543-7.542 7.543m0-11.517a3.98 3.98 0 0 0-3.974 3.974 3.98 3.98 0 0 0 3.974 3.974 3.98 3.98 0 0 0 3.973-3.974 3.98 3.98 0 0 0-3.973-3.974m61.596.893c-2.76 0-5.4-1.803-6.436-4.661-1.304-3.602.42-7.543 3.843-8.789 3.42-1.243 7.278.688 8.582 4.285.646 1.785.568 3.765-.214 5.438-.742 1.58-2.029 2.77-3.632 3.35a6.277 6.277 0 0 1-2.143.377m-.439-10.257c-.313 0-.63.051-.939.163-1.573.571-2.337 2.463-1.703 4.215.636 1.756 2.43 2.723 4.01 2.147.705-.256 1.276-.79 1.61-1.506.387-.823.421-1.812.094-2.71-.511-1.412-1.775-2.309-3.072-2.309M62.638 112.112a6.282 6.282 0 0 1-2.143-.377c-1.603-.58-2.89-1.77-3.632-3.35-.783-1.673-.86-3.653-.213-5.438 1.303-3.597 5.16-5.533 8.579-4.285h.002c3.423 1.246 5.147 5.187 3.843 8.789-1.036 2.858-3.676 4.66-6.436 4.66m.439-10.256c-1.297 0-2.561.897-3.072 2.31-.328.897-.293 1.886.093 2.709.335.716.906 1.25 1.61 1.506 1.587.576 3.376-.39 4.01-2.147.635-1.752-.129-3.644-1.705-4.215a2.732 2.732 0 0 0-.936-.163" fill="#fff" fill-rule="evenodd" data-name="Path 2197"/><path d="M158.363 118.799c-4.097 0-7.43-3.332-7.43-7.426 0-4.095 3.333-7.427 7.43-7.427 4.094 0 7.426 3.332 7.426 7.427 0 4.094-3.332 7.426-7.426 7.426m0-11.283a3.862 3.862 0 0 0-3.86 3.857 3.862 3.862 0 0 0 3.86 3.858 3.862 3.862 0 0 0 3.857-3.858 3.862 3.862 0 0 0-3.857-3.857m-68.257 11.283c-4.094 0-7.427-3.332-7.427-7.426 0-4.095 3.333-7.427 7.427-7.427 4.097 0 7.429 3.332 7.429 7.427 0 4.094-3.332 7.426-7.429 7.426m0-11.283a3.861 3.861 0 0 0-3.857 3.857 3.861 3.861 0 0 0 3.857 3.858 3.862 3.862 0 0 0 3.86-3.858 3.862 3.862 0 0 0-3.86-3.857m113.908-5.2c-.337 0-.68-.033-1.027-.099-1.438-.264-2.816-1.064-3.88-2.249-1.065-1.185-1.716-2.637-1.831-4.096-.128-1.61.424-3.098 1.517-4.081 2.145-1.929 5.783-1.404 8.1 1.171 2.357 2.62 2.494 6.211.311 8.177-.855.772-1.98 1.176-3.19 1.176m-2.042-8.126c-.325 0-.602.086-.792.255-.354.321-.37.856-.347 1.146.054.67.39 1.395.928 1.99v.002c.534.595 1.219 1.006 1.879 1.131.293.06.825.093 1.178-.227.584-.525.493-1.945-.578-3.135-.704-.783-1.59-1.162-2.268-1.162m-157.54 8.117c-1.177 0-2.294-.381-3.165-1.162-2.185-1.97-2.048-5.563.309-8.182 2.316-2.575 5.953-3.107 8.095-1.171h.003c1.09.983 1.645 2.47 1.517 4.08-.114 1.457-.764 2.912-1.829 4.097-1.375 1.529-3.216 2.338-4.93 2.338m2.049-8.124c-.67 0-1.534.372-2.252 1.169-1.07 1.19-1.161 2.61-.576 3.14.59.524 1.99.278 3.056-.912.536-.594.873-1.317.924-1.986.024-.29.007-.828-.348-1.149-.193-.174-.474-.262-.804-.262m149.78-14.38a1.784 1.784 0 0 1-1.767-1.568c-.093-.745-9.84-74.665-70.26-74.665-60.418 0-70.155 73.92-70.248 74.665a1.784 1.784 0 0 1-3.541-.432C50.538 77.024 60.642 0 124.235 0c63.592 0 73.707 77.024 73.8 77.802a1.783 1.783 0 0 1-1.773 2m-7.828-.399c-.888 0-1.66-.664-1.769-1.568-.013-.102-1.31-10.387-6.076-22.703a1.782 1.782 0 1 1 3.327-1.287c4.936 12.755 6.24 23.123 6.291 23.558a1.782 1.782 0 0 1-1.773 2M64.008 62.526a1.785 1.785 0 0 1-1.698-2.329c3.99-12.475 9.597-23.039 16.666-31.392a1.784 1.784 0 1 1 2.723 2.305c-8.426 9.96-13.345 21.905-15.99 30.175a1.789 1.789 0 0 1-1.7 1.241M177.05 44.945c-.635 0-1.248-.34-1.571-.934a82.61 82.61 0 0 0-3.003-5.11 1.78 1.78 0 0 1 .545-2.463 1.777 1.777 0 0 1 2.463.544 84.386 84.386 0 0 1 3.132 5.328 1.783 1.783 0 0 1-1.566 2.635M89.262 23.088a1.78 1.78 0 0 1-1.405-.683 1.782 1.782 0 0 1 .302-2.505 55.869 55.869 0 0 1 10.917-6.715 1.775 1.775 0 0 1 2.37.864 1.783 1.783 0 0 1-.864 2.37 52.448 52.448 0 0 0-10.22 6.288c-.328.258-.716.381-1.1.381" fill="#fff" fill-rule="evenodd" data-name="Path 2198"/><path d="M124.627 207.416c-4.566 0-8.33-3.667-8.425-8.254a8.342 8.342 0 0 1 2.937-6.543l-2.989-25.338a1.781 1.781 0 0 1 1.564-1.98c1-.134 1.866.586 1.982 1.562l3.107 26.356a1.781 1.781 0 0 1-.804 1.705c-1.429.93-2.263 2.486-2.228 4.164a4.866 4.866 0 0 0 4.856 4.759h.1a4.865 4.865 0 0 0 4.76-4.96c-.035-1.677-.933-3.196-2.403-4.07a1.785 1.785 0 0 1-.87-1.668l1.998-26.226c.075-.985.933-1.784 1.916-1.645.982.075 1.719.934 1.645 1.915l-1.922 25.203a8.35 8.35 0 0 1 3.204 6.418c.094 4.647-3.608 8.51-8.253 8.602h-.175Zm90.302-11.678a8.318 8.318 0 0 1-1.848-.206 8.362 8.362 0 0 1-5.28-3.703 8.35 8.35 0 0 1-.89-7.12l-17.733-22.74a1.786 1.786 0 0 1 .31-2.505 1.781 1.781 0 0 1 2.506.311l18.364 23.55c.416.534.495 1.259.2 1.872-.743 1.538-.648 3.3.255 4.717a4.806 4.806 0 0 0 3.045 2.133 4.798 4.798 0 0 0 3.662-.641 4.838 4.838 0 0 0 2.135-3.044 4.832 4.832 0 0 0-.643-3.662c-.9-1.413-2.445-2.16-4.162-2.23-.77.19-1.306-.373-1.615-.977l-11.702-23.042a1.784 1.784 0 0 1 .783-2.398c.88-.46 1.951-.093 2.4.781l11.238 22.126a8.334 8.334 0 0 1 6.07 3.825 8.378 8.378 0 0 1 1.117 6.353 8.384 8.384 0 0 1-3.706 5.279 8.37 8.37 0 0 1-4.506 1.32m-181.389 0c-1.584 0-3.139-.45-4.508-1.32a8.372 8.372 0 0 1-3.704-5.279 8.377 8.377 0 0 1 1.118-6.353 8.335 8.335 0 0 1 6.07-3.825l11.34-22.33a1.781 1.781 0 0 1 2.4-.78 1.783 1.783 0 0 1 .783 2.397l-11.805 23.246c-.309.604-.918.985-1.615.976-1.61.037-3.262.814-4.161 2.231a4.864 4.864 0 0 0 1.49 6.706 4.806 4.806 0 0 0 3.664.641 4.805 4.805 0 0 0 3.044-2.133c.903-1.418.999-3.18.255-4.717a1.787 1.787 0 0 1 .205-1.878l18.24-23.264a1.772 1.772 0 0 1 2.506-.302c.776.608.91 1.728.302 2.504l-17.607 22.457a8.336 8.336 0 0 1-.89 7.115 8.364 8.364 0 0 1-5.28 3.703 8.318 8.318 0 0 1-1.847.206m90.695-32.25C54.57 163.489 0 143.116 0 117.104c0-6.744 8.788-13.547 27.659-21.413a1.797 1.797 0 0 1 2.335.96 1.784 1.784 0 0 1-.96 2.333c-21.047 8.774-25.465 14.7-25.465 18.12 0 23.21 55.258 42.816 120.666 42.816 65.408 0 120.665-19.607 120.665-42.816 0-5.186-9.725-12.283-26.016-18.987a1.782 1.782 0 0 1-.972-2.328 1.794 1.794 0 0 1 2.33-.972c12.876 5.296 28.227 13.466 28.227 22.287 0 26.012-54.57 46.386-124.234 46.386m-31.398-10.145c-.21 0-.423-.038-.63-.117a1.782 1.782 0 0 1-1.041-2.296l6.632-17.594a1.79 1.79 0 0 1 2.3-1.042 1.782 1.782 0 0 1 1.041 2.296l-6.632 17.595a1.787 1.787 0 0 1-1.67 1.158m74.433-.73a1.788 1.788 0 0 1-1.578-.944l-10.345-19.407a1.786 1.786 0 0 1 .736-2.417 1.792 1.792 0 0 1 2.415.734l10.345 19.409a1.787 1.787 0 0 1-1.573 2.625m-136.123-17.66a1.783 1.783 0 0 1-.999-3.262l17.627-11.88a1.784 1.784 0 1 1 1.994 2.956l-17.628 11.879a1.752 1.752 0 0 1-.994.307m190.406-4.085c-.345 0-.697-.103-1.006-.312l-15.485-10.614a1.785 1.785 0 0 1 2.017-2.947l15.485 10.615a1.785 1.785 0 0 1-1.01 3.258m-97.41-1.543c-48.826 0-91.656-14.393-91.656-30.799 0-6.067 5.567-11.532 16.547-16.25.769-.33 1.661-.08 2.152.598 6.127 8.502 43.68 17.497 73.055 17.497 29.376 0 66.925-8.995 73.053-17.497a1.782 1.782 0 0 1 2.148-.598c10.983 4.692 16.55 10.16 16.55 16.25 0 16.406-42.92 30.799-91.85 30.799M49.236 86.09c-8.512 3.86-13.178 8.251-13.178 12.436 0 12.59 38.478 27.23 88.087 27.23 49.718 0 88.28-14.64 88.28-27.23 0-4.203-4.666-8.597-13.178-12.438-9.508 9.985-47.814 17.852-75.004 17.852-27.188 0-65.492-7.865-75.007-17.85" fill="#fff" fill-rule="evenodd" data-name="Path 2199"/><path d="M52.216 78.732a.715.715 0 0 1-.709-.8c.093-.769 10.073-76.861 72.728-76.861 62.653 0 72.645 76.092 72.738 76.861a.714.714 0 0 1-.622.795c-.388.03-.746-.232-.795-.623-.093-.755-9.936-75.606-71.321-75.606-61.386 0-71.217 74.851-71.31 75.606a.714.714 0 0 1-.71.628" fill="#fff" fill-rule="evenodd" data-name="Path 2200"/><path d="M188.436 78.332a.716.716 0 0 1-.709-.627c-.011-.103-1.32-10.503-6.14-22.959a.717.717 0 0 1 .408-.925.71.71 0 0 1 .924.41c4.887 12.631 6.212 23.197 6.225 23.302a.714.714 0 0 1-.708.8" fill="#fff" fill-rule="evenodd" data-name="Path 2201"/><path d="M177.048 43.874a.71.71 0 0 1-.628-.374 82.779 82.779 0 0 0-3.042-5.175.715.715 0 0 1 .219-.985.707.707 0 0 1 .985.218 85.058 85.058 0 0 1 3.093 5.263.712.712 0 0 1-.627 1.053" fill="#fff" fill-rule="evenodd" data-name="Path 2202"/><path d="M89.26 22.017a.715.715 0 0 1-.562-.272.719.719 0 0 1 .12-1.004 55.004 55.004 0 0 1 10.708-6.587.722.722 0 0 1 .951.346.72.72 0 0 1-.347.95 53.417 53.417 0 0 0-10.428 6.416.715.715 0 0 1-.442.15" fill="#fff" fill-rule="evenodd" data-name="Path 2203"/><path d="M64.008 61.455a.723.723 0 0 1-.218-.033.718.718 0 0 1-.462-.899c3.892-12.167 9.585-22.897 16.463-31.026a.72.72 0 0 1 1.007-.086.715.715 0 0 1 .085 1.006c-8.54 10.095-13.521 22.18-16.194 30.543a.716.716 0 0 1-.68.495" fill="#fff" fill-rule="evenodd" data-name="Path 2204"/><path d="M90.106 117.73c-3.504 0-6.355-2.854-6.355-6.357a6.364 6.364 0 0 1 6.355-6.357 6.365 6.365 0 0 1 6.358 6.357 6.366 6.366 0 0 1-6.358 6.358m0-11.284a4.932 4.932 0 0 0-4.928 4.926 4.932 4.932 0 0 0 4.928 4.926 4.933 4.933 0 0 0 4.931-4.926 4.933 4.933 0 0 0-4.93-4.926" fill="#fff" fill-rule="evenodd" data-name="Path 2205"/><path d="M44.436 101.241c-.918 0-1.782-.292-2.454-.896-1.708-1.539-1.534-4.53.39-6.665 1.918-2.14 4.871-2.63 6.584-1.094.855.771 1.27 1.907 1.169 3.202-.096 1.224-.649 2.454-1.56 3.465-1.166 1.296-2.711 1.988-4.129 1.988m2.052-8.132c-1.01 0-2.166.536-3.056 1.526-1.394 1.55-1.617 3.637-.495 4.65 1.12 1.013 3.175.562 4.569-.988v-.002c.7-.776 1.124-1.705 1.194-2.619.067-.843-.181-1.561-.7-2.028-.406-.365-.936-.54-1.512-.54" fill="#fff" fill-rule="evenodd" data-name="Path 2206"/><path d="M158.363 117.73a6.366 6.366 0 0 1-6.358-6.357 6.365 6.365 0 0 1 6.358-6.357c3.504 0 6.355 2.853 6.355 6.357 0 3.503-2.851 6.358-6.355 6.358m0-11.284a4.933 4.933 0 0 0-4.93 4.926 4.933 4.933 0 0 0 4.93 4.926 4.932 4.932 0 0 0 4.929-4.926 4.932 4.932 0 0 0-4.93-4.926" fill="#fff" fill-rule="evenodd" data-name="Path 2207"/><path d="M204.036 101.246c-.28 0-.563-.023-.853-.079-1.207-.223-2.373-.906-3.28-1.914-.91-1.011-1.463-2.24-1.559-3.465-.102-1.295.312-2.43 1.164-3.2 1.713-1.531 4.667-1.043 6.588 1.09 1.925 2.138 2.099 5.128.393 6.667-.662.595-1.513.901-2.453.901m-2.057-8.137c-.577 0-1.106.174-1.515.541-.516.462-.765 1.183-.698 2.026.073.911.497 1.843 1.197 2.619 0 .002 0 .002.003.002.697.779 1.577 1.3 2.479 1.467.83.158 1.573-.019 2.09-.48 1.119-1.012.896-3.099-.498-4.651-.89-.987-2.047-1.524-3.058-1.524" fill="#fff" fill-rule="evenodd" data-name="Path 2208"/><path d="M124.235 121.667a6.48 6.48 0 0 1-6.472-6.474 6.48 6.48 0 0 1 6.472-6.474 6.48 6.48 0 0 1 6.471 6.474 6.48 6.48 0 0 1-6.471 6.474m0-11.517a5.05 5.05 0 0 0-5.045 5.043 5.05 5.05 0 0 0 5.045 5.042 5.05 5.05 0 0 0 5.044-5.042 5.05 5.05 0 0 0-5.044-5.043" fill="#fff" fill-rule="evenodd" data-name="Path 2209"/><path d="M62.64 111.043a5.211 5.211 0 0 1-1.782-.316c-1.332-.48-2.405-1.473-3.023-2.793-.665-1.422-.73-3.105-.18-4.62 1.102-3.044 4.336-4.684 7.211-3.643 2.87 1.04 4.306 4.368 3.202 7.412-.878 2.426-3.107 3.96-5.428 3.96m.44-10.262c-1.734 0-3.412 1.172-4.081 3.016-.423 1.167-.377 2.455.127 3.532.458.972 1.246 1.707 2.22 2.06 2.126.766 4.54-.483 5.38-2.79.836-2.308-.217-4.814-2.348-5.59a3.825 3.825 0 0 0-1.299-.228" fill="#fff" fill-rule="evenodd" data-name="Path 2210"/><path d="M185.829 111.043c-2.321 0-4.55-1.534-5.428-3.96-1.104-3.044.332-6.371 3.202-7.412 2.877-1.041 6.108.599 7.21 3.643.551 1.515.486 3.198-.179 4.62-.618 1.32-1.691 2.314-3.022 2.793a5.215 5.215 0 0 1-1.783.316m-.44-10.262a3.82 3.82 0 0 0-1.298.228c-2.13.776-3.184 3.282-2.347 5.59.839 2.307 3.254 3.556 5.38 2.79.973-.353 1.761-1.088 2.218-2.06.505-1.077.551-2.365.128-3.532-.669-1.844-2.347-3.016-4.08-3.016" fill="#fff" fill-rule="evenodd" data-name="Path 2211"/><path d="M124.235 79.629c-14.308 0-26.381-23.76-26.381-38.683 0-14.546 11.834-26.38 26.38-26.38 14.547 0 26.381 11.834 26.381 26.38 0 14.923-12.074 38.683-26.38 38.683m0-63.637c-13.76 0-24.955 11.195-24.955 24.954 0 14.372 11.421 37.256 24.955 37.256 13.533 0 24.954-22.884 24.954-37.256 0-13.759-11.196-24.954-24.954-24.954" fill="#fff" fill-rule="evenodd" data-name="Path 2212"/><path d="M124.235 63.31h-.003a3.51 3.51 0 0 1-2.502-1.04.712.712 0 0 1 0-1.008.706.706 0 0 1 1.008 0c.4.4.93.62 1.494.62h.003c.564 0 1.096-.22 1.496-.62a.713.713 0 1 1 1.009 1.009 3.523 3.523 0 0 1-2.505 1.038" fill="#fff" fill-rule="evenodd" data-name="Path 2213"/><path d="M124.234 71.912a9.51 9.51 0 0 1-6.75-2.791.712.712 0 1 1 1.009-1.009c3.164 3.165 8.314 3.165 11.483 0a.713.713 0 0 1 1.009 1.009 9.516 9.516 0 0 1-6.75 2.79" fill="#fff" fill-rule="evenodd" data-name="Path 2214"/><path d="M113.54 57.428c-1.774 0-3.522-.458-5.044-1.336-1.98-1.143-3.534-2.975-4.375-5.156-.786-2.04-.8-4.048-.035-5.373 1.552-2.695 7.08-3.892 11.323-1.443 4.236 2.447 5.965 7.833 4.41 10.529-.761 1.322-2.507 2.312-4.668 2.654-.537.083-1.073.125-1.61.125m-3.18-13.203c-2.325 0-4.365.887-5.04 2.054-.54.939-.492 2.526.133 4.143.723 1.877 2.059 3.453 3.758 4.434 1.694.98 3.708 1.343 5.718 1.036 1.71-.27 3.112-1.02 3.653-1.96 1.083-1.874-.23-6.461-3.89-8.575-1.385-.802-2.911-1.132-4.331-1.132" fill="#fff" fill-rule="evenodd" data-name="Path 2215"/><path d="M134.928 57.428a10.42 10.42 0 0 1-1.61-.125c-2.161-.342-3.906-1.332-4.669-2.654-1.554-2.696.175-8.082 4.41-10.529 4.244-2.45 9.772-1.25 11.324 1.443.765 1.325.75 3.332-.034 5.373-.841 2.181-2.396 4.013-4.376 5.156a10.109 10.109 0 0 1-5.045 1.336m3.179-13.203c-1.42 0-2.946.33-4.331 1.132-3.66 2.114-4.973 6.7-3.89 8.576.541.939 1.942 1.69 3.652 1.96 2 .306 4.02-.056 5.72-1.037 1.698-.98 3.034-2.556 3.757-4.434.625-1.617.673-3.204.132-4.143-.673-1.167-2.714-2.054-5.04-2.054" fill="#fff" fill-rule="evenodd" data-name="Path 2216"/><path d="M143.703 95.448c-.17 0-.34-.06-.477-.18a14.09 14.09 0 0 0-9.418-3.6 5.503 5.503 0 0 1-5.498-5.496v-2.391c0-.395.319-.713.713-.713.396 0 .714.318.714.713v2.391a4.075 4.075 0 0 0 4.071 4.069c3.834 0 7.518 1.406 10.371 3.962a.713.713 0 0 1-.476 1.245" fill="#fff" fill-rule="evenodd" data-name="Path 2217"/><path d="M104.757 95.455a.712.712 0 0 1-.532-.236.716.716 0 0 1 .056-1.01 15.535 15.535 0 0 1 10.38-3.968 4.075 4.075 0 0 0 4.071-4.069v-2.114a.712.712 0 1 1 1.427 0v2.114a5.502 5.502 0 0 1-5.498 5.496c-3.486 0-6.834 1.28-9.427 3.606a.719.719 0 0 1-.477.181" fill="#fff" fill-rule="evenodd" data-name="Path 2218"/><path d="M124.235 162.42c-67.913 0-123.164-20.333-123.164-45.317 0-6.256 8.58-12.743 27.001-20.425a.718.718 0 0 1 .935.385.716.716 0 0 1-.386.935c-17.577 7.328-26.123 13.574-26.123 19.105 0 24.2 54.611 43.886 121.737 43.886 67.124 0 121.736-19.687 121.736-43.886 0-5.721-9.724-13.004-26.681-19.977a.712.712 0 0 1-.388-.931.706.706 0 0 1 .932-.389c12.573 5.175 27.564 13.067 27.564 21.297 0 24.984-55.251 45.317-123.163 45.317" fill="#fff" fill-rule="evenodd" data-name="Path 2219"/><path d="M124.144 128.257c-47.409 0-90.585-14.17-90.585-29.73 0-5.518 5.498-10.798 15.899-15.264a.713.713 0 0 1 .86.237c6.843 9.495 47.038 17.941 73.923 17.941 26.885 0 67.082-8.446 73.923-17.94a.72.72 0 0 1 .859-.238c10.401 4.445 15.899 9.722 15.899 15.264 0 15.56-43.268 29.73-90.778 29.73m-74.63-43.463c-9.507 4.172-14.528 8.914-14.528 13.733 0 13.357 38.13 28.298 89.158 28.298 51.14 0 89.352-14.94 89.352-28.298 0-4.84-5.02-9.583-14.529-13.733-8.063 9.783-47.366 18.079-74.726 18.079-27.359 0-66.66-8.293-74.728-18.079" fill="#fff" fill-rule="evenodd" data-name="Path 2220"/><path d="M33.54 194.669a7.33 7.33 0 0 1-3.934-1.153 7.337 7.337 0 0 1-3.232-4.61 7.307 7.307 0 0 1 .976-5.544 7.277 7.277 0 0 1 5.851-3.384l11.61-22.865a.729.729 0 0 1 .959-.312c.35.177.493.61.314.962L34.279 181.01a.718.718 0 0 1-.636.391c-.029-.009-.059-.005-.086-.005-2.05 0-3.916 1.018-5.003 2.728a5.892 5.892 0 0 0-.786 4.471 5.894 5.894 0 0 0 2.605 3.714 5.869 5.869 0 0 0 4.47.785 5.9 5.9 0 0 0 3.716-2.602c1.104-1.734 1.223-3.885.316-5.758a.72.72 0 0 1 .082-.754l18.24-23.265a.729.729 0 0 1 1.005-.12c.309.24.362.692.12 1.003l-17.976 22.927a7.292 7.292 0 0 1-.583 6.733 7.315 7.315 0 0 1-4.61 3.23 7.292 7.292 0 0 1-1.613.182" fill="#fff" fill-rule="evenodd" data-name="Path 2221"/><path d="M124.627 206.347c-3.985 0-7.271-3.201-7.354-7.208a7.297 7.297 0 0 1 2.997-6.055l-3.056-25.928a.718.718 0 0 1 .626-.795c.379.014.748.237.792.627l3.107 26.356a.716.716 0 0 1-.321.683c-1.745 1.13-2.76 3.03-2.719 5.085a5.942 5.942 0 0 0 5.928 5.808c.042 0 .082 0 .123-.004 3.268-.065 5.872-2.78 5.807-6.05-.041-2.05-1.136-3.904-2.927-4.969a.714.714 0 0 1-.347-.67l1.998-26.225c.03-.386.31-.674.765-.655a.711.711 0 0 1 .658.766l-1.966 25.799a7.292 7.292 0 0 1 3.246 5.926c.084 4.056-3.15 7.425-7.206 7.51h-.15Z" fill="#fff" fill-rule="evenodd" data-name="Path 2222"/><path d="M214.927 194.669c-.535 0-1.077-.06-1.613-.182a7.309 7.309 0 0 1-4.608-3.234 7.285 7.285 0 0 1-.584-6.73l-18.099-23.214a.709.709 0 0 1 .123-.999.714.714 0 0 1 1.002.125l18.364 23.549a.715.715 0 0 1 .081.749c-.905 1.873-.787 4.024.317 5.753a5.889 5.889 0 0 0 3.715 2.607 5.847 5.847 0 0 0 4.469-.786 5.89 5.89 0 0 0 2.607-3.713 5.892 5.892 0 0 0-.785-4.47c-1.102-1.734-3.056-2.743-5.08-2.724-.338-.037-.523-.153-.646-.39l-11.702-23.042a.715.715 0 0 1 .313-.962.723.723 0 0 1 .96.311l11.507 22.66a7.277 7.277 0 0 1 5.851 3.385 7.306 7.306 0 0 1 .976 5.544 7.322 7.322 0 0 1-3.235 4.61 7.332 7.332 0 0 1-3.933 1.153" fill="#fff" fill-rule="evenodd" data-name="Path 2223"/><path d="M31.145 133.885a.718.718 0 0 1-.593-.316.712.712 0 0 1 .193-.99L48.372 120.7a.714.714 0 1 1 .8 1.181L31.544 133.76a.712.712 0 0 1-.4.126" fill="#fff" fill-rule="evenodd" data-name="Path 2224"/><path d="M92.837 152.275a.714.714 0 0 1-.667-.966l6.632-17.596c.14-.372.555-.535.917-.419.37.14.556.554.416.92l-6.631 17.596a.711.711 0 0 1-.667.465" fill="#fff" fill-rule="evenodd" data-name="Path 2225"/><path d="M167.267 151.545a.713.713 0 0 1-.63-.38l-10.345-19.408a.716.716 0 0 1 .295-.968.718.718 0 0 1 .965.298l10.345 19.408a.713.713 0 0 1-.63 1.05" fill="#fff" fill-rule="evenodd" data-name="Path 2226"/><path d="M221.556 129.8a.727.727 0 0 1-.404-.125l-15.485-10.615a.716.716 0 0 1 .809-1.181l15.485 10.615a.716.716 0 0 1-.405 1.306" fill="#fff" fill-rule="evenodd" data-name="Path 2227"/></g><defs><clipPath id="a"><path d="M0 0h248.469v207.416H0V0z" data-name="Rectangle 1354"/></clipPath></defs></svg>