<svg xmlns="http://www.w3.org/2000/svg" width="300.737" height="313.037" viewBox="37 258.001 300.737 313.037"><g data-name="Group 4952"><g data-name="Group 4286"><g data-name="Group 4282"><path d="M42.533 319.21H37V258h60.455v5.534H42.533v55.677Z" fill="#1a335a" fill-rule="evenodd" data-name="Path 1572"/></g><g data-name="Group 4283"><path d="M337.737 319.21h-5.533v-55.676h-55.475V258h61.008v61.21Z" fill="#1a335a" fill-rule="evenodd" data-name="Path 1573"/></g><g data-name="Group 4284"><path d="M97.455 571.038H37v-62.594h5.533v57.06h54.922v5.534Z" fill="#1a335a" fill-rule="evenodd" data-name="Path 1574"/></g><g data-name="Group 4285"><path d="M337.737 571.038H276.73v-5.533h55.475v-57.06h5.533v62.593Z" fill="#1a335a" fill-rule="evenodd" data-name="Path 1575"/></g></g><g data-name="Group 4290"><path d="M62.01 388.403h10.446v10.446H62.01v-10.446z" fill="#1a335a" fill-rule="evenodd" data-name="Rectangle 1071"/><path d="M62.01 398.85h10.446v10.446H62.01V398.85z" fill="#1a335a" fill-rule="evenodd" data-name="Rectangle 1072"/><path d="M62.01 409.296h10.446v10.447H62.01v-10.447z" fill="#1a335a" fill-rule="evenodd" data-name="Rectangle 1073"/><path d="M62.01 419.743h10.446v10.446H62.01v-10.446z" fill="#1a335a" fill-rule="evenodd" data-name="Rectangle 1074"/><path d="M62.01 430.19h10.446v10.446H62.01v-10.447z" fill="#1a335a" fill-rule="evenodd" data-name="Rectangle 1075"/><path d="M72.456 388.403h10.447v10.446H72.456v-10.446z" fill="#1a335a" fill-rule="evenodd" data-name="Rectangle 1076"/><path d="M72.456 430.19h10.447v10.446H72.456v-10.447z" fill="#1a335a" fill-rule="evenodd" data-name="Rectangle 1077"/><path d="M72.456 440.636h10.447v10.446H72.456v-10.446z" fill="#1a335a" fill-rule="evenodd" data-name="Rectangle 1078"/><path d="M82.903 367.51h10.446v10.446H82.903V367.51z" fill="#1a335a" fill-rule="evenodd" data-name="Rectangle 1079"/><path d="M82.903 377.956h10.446v10.447H82.903v-10.447z" fill="#1a335a" fill-rule="evenodd" data-name="Rectangle 1080"/><path d="M82.903 409.296h10.446v10.447H82.903v-10.447z" fill="#1a335a" fill-rule="evenodd" data-name="Rectangle 1081"/><path d="M82.903 440.636h10.446v10.446H82.903v-10.446z" fill="#1a335a" fill-rule="evenodd" data-name="Rectangle 1082"/><path d="M82.903 451.082h10.446v10.447H82.903v-10.447z" fill="#1a335a" fill-rule="evenodd" data-name="Rectangle 1083"/><path d="M93.35 367.51h10.446v10.446H93.349V367.51z" fill="#1a335a" fill-rule="evenodd" data-name="Rectangle 1084"/><path d="M93.35 377.956h10.446v10.447H93.349v-10.447z" fill="#1a335a" fill-rule="evenodd" data-name="Rectangle 1085"/><path d="M93.35 388.403h10.446v10.446H93.349v-10.446z" fill="#1a335a" fill-rule="evenodd" data-name="Rectangle 1086"/><path d="M93.35 398.85h10.446v10.446H93.349V398.85z" fill="#1a335a" fill-rule="evenodd" data-name="Rectangle 1087"/><path d="M93.35 430.19h10.446v10.446H93.349v-10.447z" fill="#1a335a" fill-rule="evenodd" data-name="Rectangle 1088"/><path d="M103.796 388.403h10.446v10.446h-10.446v-10.446z" fill="#1a335a" fill-rule="evenodd" data-name="Rectangle 1089"/><path d="M103.796 398.85h10.446v10.446h-10.446V398.85z" fill="#1a335a" fill-rule="evenodd" data-name="Rectangle 1090"/><path d="M103.796 409.296h10.446v10.447h-10.446v-10.447z" fill="#1a335a" fill-rule="evenodd" data-name="Rectangle 1091"/><path d="M103.796 430.19h10.446v10.446h-10.446v-10.447z" fill="#1a335a" fill-rule="evenodd" data-name="Rectangle 1092"/><path d="M114.242 367.51h10.447v10.446h-10.447V367.51z" fill="#1a335a" fill-rule="evenodd" data-name="Rectangle 1093"/><path d="M114.242 377.956h10.447v10.447h-10.447v-10.447z" fill="#1a335a" fill-rule="evenodd" data-name="Rectangle 1094"/><path d="M114.242 398.85h10.447v10.446h-10.447V398.85z" fill="#1a335a" fill-rule="evenodd" data-name="Rectangle 1095"/><path d="M114.242 409.296h10.447v10.447h-10.447v-10.447z" fill="#1a335a" fill-rule="evenodd" data-name="Rectangle 1096"/><path d="M114.242 451.082h10.447v10.447h-10.447v-10.447z" fill="#1a335a" fill-rule="evenodd" data-name="Rectangle 1097"/><path d="M124.689 367.51h10.447v10.446h-10.447V367.51z" fill="#1a335a" fill-rule="evenodd" data-name="Rectangle 1098"/><path d="M124.689 388.403h10.447v10.446h-10.447v-10.446z" fill="#1a335a" fill-rule="evenodd" data-name="Rectangle 1099"/><path d="M124.689 419.743h10.447v10.446h-10.447v-10.446z" fill="#1a335a" fill-rule="evenodd" data-name="Rectangle 1100"/><path d="M124.689 430.19h10.447v10.446h-10.447v-10.447z" fill="#1a335a" fill-rule="evenodd" data-name="Rectangle 1101"/><path d="M124.689 440.636h10.447v10.446h-10.447v-10.446z" fill="#1a335a" fill-rule="evenodd" data-name="Rectangle 1102"/><path d="M135.136 377.956h10.446v10.447h-10.446v-10.447z" fill="#1a335a" fill-rule="evenodd" data-name="Rectangle 1103"/><path d="M135.136 409.296h10.446v10.447h-10.446v-10.447z" fill="#1a335a" fill-rule="evenodd" data-name="Rectangle 1104"/><path d="M135.136 430.19h10.446v10.446h-10.446v-10.447z" fill="#1a335a" fill-rule="evenodd" data-name="Rectangle 1105"/><path d="M135.136 440.636h10.446v10.446h-10.446v-10.446z" fill="#1a335a" fill-rule="evenodd" data-name="Rectangle 1106"/><path d="M145.582 283.937h10.447v10.447h-10.447v-10.447z" fill="#1a335a" fill-rule="evenodd" data-name="Rectangle 1107"/><path d="M145.582 294.384h10.447v10.446h-10.447v-10.446z" fill="#1a335a" fill-rule="evenodd" data-name="Rectangle 1108"/><path d="M145.582 315.277h10.447v10.446h-10.447v-10.446z" fill="#1a335a" fill-rule="evenodd" data-name="Rectangle 1109"/><path d="M145.582 357.063h10.447v10.447h-10.447v-10.447z" fill="#1a335a" fill-rule="evenodd" data-name="Rectangle 1110"/><path d="M145.582 367.51h10.447v10.446h-10.447V367.51z" fill="#1a335a" fill-rule="evenodd" data-name="Rectangle 1111"/><path d="M145.582 388.403h10.447v10.446h-10.447v-10.446z" fill="#1a335a" fill-rule="evenodd" data-name="Rectangle 1112"/><path d="M145.582 398.85h10.447v10.446h-10.447V398.85z" fill="#1a335a" fill-rule="evenodd" data-name="Rectangle 1113"/><path d="M145.582 409.296h10.447v10.447h-10.447v-10.447z" fill="#1a335a" fill-rule="evenodd" data-name="Rectangle 1114"/><path d="M145.582 451.082h10.447v10.447h-10.447v-10.447z" fill="#1a335a" fill-rule="evenodd" data-name="Rectangle 1115"/><path d="M145.582 482.422h10.447v10.447h-10.447v-10.447z" fill="#1a335a" fill-rule="evenodd" data-name="Rectangle 1116"/><path d="M145.582 503.315h10.447v10.447h-10.447v-10.447z" fill="#1a335a" fill-rule="evenodd" data-name="Rectangle 1117"/><path d="M145.582 513.762h10.447v10.446h-10.447v-10.446z" fill="#1a335a" fill-rule="evenodd" data-name="Rectangle 1118"/><path d="M145.582 524.208h10.447v10.447h-10.447v-10.447z" fill="#1a335a" fill-rule="evenodd" data-name="Rectangle 1119"/><path d="M145.582 534.655h10.447V545.1h-10.447v-10.446z" fill="#1a335a" fill-rule="evenodd" data-name="Rectangle 1120"/><path d="M156.029 294.384h10.446v10.446H156.03v-10.446z" fill="#1a335a" fill-rule="evenodd" data-name="Rectangle 1121"/><path d="M156.029 304.83h10.446v10.447H156.03V304.83z" fill="#1a335a" fill-rule="evenodd" data-name="Rectangle 1122"/><path d="M156.029 315.277h10.446v10.446H156.03v-10.446z" fill="#1a335a" fill-rule="evenodd" data-name="Rectangle 1123"/><path d="M156.029 325.723h10.446v10.447H156.03v-10.447z" fill="#1a335a" fill-rule="evenodd" data-name="Rectangle 1124"/><path d="M156.029 346.617h10.446v10.446H156.03v-10.446z" fill="#1a335a" fill-rule="evenodd" data-name="Rectangle 1125"/><path d="M156.029 377.956h10.446v10.447H156.03v-10.447z" fill="#1a335a" fill-rule="evenodd" data-name="Rectangle 1126"/><path d="M156.029 388.403h10.446v10.446H156.03v-10.446z" fill="#1a335a" fill-rule="evenodd" data-name="Rectangle 1127"/><path d="M156.029 409.296h10.446v10.447H156.03v-10.447z" fill="#1a335a" fill-rule="evenodd" data-name="Rectangle 1128"/><path d="M156.029 419.743h10.446v10.446H156.03v-10.446z" fill="#1a335a" fill-rule="evenodd" data-name="Rectangle 1129"/><path d="M156.029 430.19h10.446v10.446H156.03v-10.447z" fill="#1a335a" fill-rule="evenodd" data-name="Rectangle 1130"/><path d="M156.029 440.636h10.446v10.446H156.03v-10.446z" fill="#1a335a" fill-rule="evenodd" data-name="Rectangle 1131"/><path d="M156.029 451.082h10.446v10.447H156.03v-10.447z" fill="#1a335a" fill-rule="evenodd" data-name="Rectangle 1132"/><path d="M156.029 503.315h10.446v10.447H156.03v-10.447z" fill="#1a335a" fill-rule="evenodd" data-name="Rectangle 1133"/><path d="M156.029 513.762h10.446v10.446H156.03v-10.446z" fill="#1a335a" fill-rule="evenodd" data-name="Rectangle 1134"/><path d="M156.029 524.208h10.446v10.447H156.03v-10.447z" fill="#1a335a" fill-rule="evenodd" data-name="Rectangle 1135"/><path d="M166.475 283.937h10.447v10.447h-10.447v-10.447z" fill="#1a335a" fill-rule="evenodd" data-name="Rectangle 1136"/><path d="M166.475 294.384h10.447v10.446h-10.447v-10.446z" fill="#1a335a" fill-rule="evenodd" data-name="Rectangle 1137"/><path d="M166.475 325.723h10.447v10.447h-10.447v-10.447z" fill="#1a335a" fill-rule="evenodd" data-name="Rectangle 1138"/><path d="M166.475 336.17h10.447v10.447h-10.447V336.17z" fill="#1a335a" fill-rule="evenodd" data-name="Rectangle 1139"/><path d="M166.475 398.85h10.447v10.446h-10.447V398.85z" fill="#1a335a" fill-rule="evenodd" data-name="Rectangle 1140"/><path d="M166.475 419.743h10.447v10.446h-10.447v-10.446z" fill="#1a335a" fill-rule="evenodd" data-name="Rectangle 1141"/><path d="M166.475 430.19h10.447v10.446h-10.447v-10.447z" fill="#1a335a" fill-rule="evenodd" data-name="Rectangle 1142"/><path d="M166.475 440.636h10.447v10.446h-10.447v-10.446z" fill="#1a335a" fill-rule="evenodd" data-name="Rectangle 1143"/><path d="M166.475 451.082h10.447v10.447h-10.447v-10.447z" fill="#1a335a" fill-rule="evenodd" data-name="Rectangle 1144"/><path d="M166.475 482.422h10.447v10.447h-10.447v-10.447z" fill="#1a335a" fill-rule="evenodd" data-name="Rectangle 1145"/><path d="M166.475 513.762h10.447v10.446h-10.447v-10.446z" fill="#1a335a" fill-rule="evenodd" data-name="Rectangle 1146"/><path d="M176.922 294.384h10.446v10.446h-10.446v-10.446z" fill="#1a335a" fill-rule="evenodd" data-name="Rectangle 1147"/><path d="M176.922 346.617h10.446v10.446h-10.446v-10.446z" fill="#1a335a" fill-rule="evenodd" data-name="Rectangle 1148"/><path d="M176.922 357.063h10.446v10.447h-10.446v-10.447z" fill="#1a335a" fill-rule="evenodd" data-name="Rectangle 1149"/><path d="M176.922 367.51h10.446v10.446h-10.446V367.51z" fill="#1a335a" fill-rule="evenodd" data-name="Rectangle 1150"/><path d="M176.922 377.956h10.446v10.447h-10.446v-10.447z" fill="#1a335a" fill-rule="evenodd" data-name="Rectangle 1151"/><path d="M176.922 409.296h10.446v10.447h-10.446v-10.447z" fill="#1a335a" fill-rule="evenodd" data-name="Rectangle 1152"/><path d="M176.922 419.743h10.446v10.446h-10.446v-10.446z" fill="#1a335a" fill-rule="evenodd" data-name="Rectangle 1153"/><path d="M176.922 430.19h10.446v10.446h-10.446v-10.447z" fill="#1a335a" fill-rule="evenodd" data-name="Rectangle 1154"/><path d="M176.922 440.636h10.446v10.446h-10.446v-10.446z" fill="#1a335a" fill-rule="evenodd" data-name="Rectangle 1155"/><path d="M176.922 451.082h10.446v10.447h-10.446v-10.447z" fill="#1a335a" fill-rule="evenodd" data-name="Rectangle 1156"/><path d="M176.922 461.529h10.446v10.447h-10.446v-10.447z" fill="#1a335a" fill-rule="evenodd" data-name="Rectangle 1157"/><path d="M176.922 471.975h10.446v10.447h-10.446v-10.447z" fill="#1a335a" fill-rule="evenodd" data-name="Rectangle 1158"/><path d="M176.922 503.315h10.446v10.447h-10.446v-10.447z" fill="#1a335a" fill-rule="evenodd" data-name="Rectangle 1159"/><path d="M176.922 513.762h10.446v10.446h-10.446v-10.446z" fill="#1a335a" fill-rule="evenodd" data-name="Rectangle 1160"/><path d="M176.922 524.208h10.446v10.447h-10.446v-10.447z" fill="#1a335a" fill-rule="evenodd" data-name="Rectangle 1161"/><path d="M176.922 534.655h10.446V545.1h-10.446v-10.446z" fill="#1a335a" fill-rule="evenodd" data-name="Rectangle 1162"/><path d="M187.368 283.937h10.447v10.447h-10.447v-10.447z" fill="#1a335a" fill-rule="evenodd" data-name="Rectangle 1163"/><path d="M187.368 294.384h10.447v10.446h-10.447v-10.446z" fill="#1a335a" fill-rule="evenodd" data-name="Rectangle 1164"/><path d="M187.368 304.83h10.447v10.447h-10.447V304.83z" fill="#1a335a" fill-rule="evenodd" data-name="Rectangle 1165"/><path d="M187.368 346.617h10.447v10.446h-10.447v-10.446z" fill="#1a335a" fill-rule="evenodd" data-name="Rectangle 1166"/><path d="M187.368 357.063h10.447v10.447h-10.447v-10.447z" fill="#1a335a" fill-rule="evenodd" data-name="Rectangle 1167"/><path d="M187.368 377.956h10.447v10.447h-10.447v-10.447z" fill="#1a335a" fill-rule="evenodd" data-name="Rectangle 1168"/><path d="M187.368 419.743h10.447v10.446h-10.447v-10.446z" fill="#1a335a" fill-rule="evenodd" data-name="Rectangle 1169"/><path d="M187.368 430.19h10.447v10.446h-10.447v-10.447z" fill="#1a335a" fill-rule="evenodd" data-name="Rectangle 1170"/><path d="M187.368 471.975h10.447v10.447h-10.447v-10.447z" fill="#1a335a" fill-rule="evenodd" data-name="Rectangle 1171"/><path d="M187.368 482.422h10.447v10.447h-10.447v-10.447z" fill="#1a335a" fill-rule="evenodd" data-name="Rectangle 1172"/><path d="M187.368 503.315h10.447v10.447h-10.447v-10.447z" fill="#1a335a" fill-rule="evenodd" data-name="Rectangle 1173"/><path d="M187.368 534.655h10.447V545.1h-10.447v-10.446z" fill="#1a335a" fill-rule="evenodd" data-name="Rectangle 1174"/><path d="M197.815 283.937h10.447v10.447h-10.447v-10.447z" fill="#1a335a" fill-rule="evenodd" data-name="Rectangle 1175"/><path d="M197.815 325.723h10.447v10.447h-10.447v-10.447z" fill="#1a335a" fill-rule="evenodd" data-name="Rectangle 1176"/><path d="M197.815 336.17h10.447v10.447h-10.447V336.17z" fill="#1a335a" fill-rule="evenodd" data-name="Rectangle 1177"/><path d="M197.815 346.617h10.447v10.446h-10.447v-10.446z" fill="#1a335a" fill-rule="evenodd" data-name="Rectangle 1178"/><path d="M197.815 357.063h10.447v10.447h-10.447v-10.447z" fill="#1a335a" fill-rule="evenodd" data-name="Rectangle 1179"/><path d="M197.815 367.51h10.447v10.446h-10.447V367.51z" fill="#1a335a" fill-rule="evenodd" data-name="Rectangle 1180"/><path d="M197.815 377.956h10.447v10.447h-10.447v-10.447z" fill="#1a335a" fill-rule="evenodd" data-name="Rectangle 1181"/><path d="M197.815 398.85h10.447v10.446h-10.447V398.85z" fill="#1a335a" fill-rule="evenodd" data-name="Rectangle 1182"/><path d="M197.815 409.296h10.447v10.447h-10.447v-10.447z" fill="#1a335a" fill-rule="evenodd" data-name="Rectangle 1183"/><path d="M197.815 461.529h10.447v10.447h-10.447v-10.447z" fill="#1a335a" fill-rule="evenodd" data-name="Rectangle 1184"/><path d="M197.815 482.422h10.447v10.447h-10.447v-10.447z" fill="#1a335a" fill-rule="evenodd" data-name="Rectangle 1185"/><path d="M197.815 524.208h10.447v10.447h-10.447v-10.447z" fill="#1a335a" fill-rule="evenodd" data-name="Rectangle 1186"/><path d="M208.262 315.277h10.446v10.446h-10.446v-10.446z" fill="#1a335a" fill-rule="evenodd" data-name="Rectangle 1187"/><path d="M208.262 325.723h10.446v10.447h-10.446v-10.447z" fill="#1a335a" fill-rule="evenodd" data-name="Rectangle 1188"/><path d="M208.262 346.617h10.446v10.446h-10.446v-10.446z" fill="#1a335a" fill-rule="evenodd" data-name="Rectangle 1189"/><path d="M208.262 367.51h10.446v10.446h-10.446V367.51z" fill="#1a335a" fill-rule="evenodd" data-name="Rectangle 1190"/><path d="M208.262 377.956h10.446v10.447h-10.446v-10.447z" fill="#1a335a" fill-rule="evenodd" data-name="Rectangle 1191"/><path d="M208.262 388.403h10.446v10.446h-10.446v-10.446z" fill="#1a335a" fill-rule="evenodd" data-name="Rectangle 1192"/><path d="M208.262 398.85h10.446v10.446h-10.446V398.85z" fill="#1a335a" fill-rule="evenodd" data-name="Rectangle 1193"/><path d="M208.262 419.743h10.446v10.446h-10.446v-10.446z" fill="#1a335a" fill-rule="evenodd" data-name="Rectangle 1194"/><path d="M208.262 430.19h10.446v10.446h-10.446v-10.447z" fill="#1a335a" fill-rule="evenodd" data-name="Rectangle 1195"/><path d="M208.262 461.529h10.446v10.447h-10.446v-10.447z" fill="#1a335a" fill-rule="evenodd" data-name="Rectangle 1196"/><path d="M208.262 503.315h10.446v10.447h-10.446v-10.447z" fill="#1a335a" fill-rule="evenodd" data-name="Rectangle 1197"/><path d="M208.262 524.208h10.446v10.447h-10.446v-10.447z" fill="#1a335a" fill-rule="evenodd" data-name="Rectangle 1198"/><path d="M208.262 534.655h10.446V545.1h-10.446v-10.446z" fill="#1a335a" fill-rule="evenodd" data-name="Rectangle 1199"/><path d="M218.708 283.937h10.447v10.447h-10.447v-10.447z" fill="#1a335a" fill-rule="evenodd" data-name="Rectangle 1200"/><path d="M218.708 325.723h10.447v10.447h-10.447v-10.447z" fill="#1a335a" fill-rule="evenodd" data-name="Rectangle 1201"/><path d="M218.708 346.617h10.447v10.446h-10.447v-10.446z" fill="#1a335a" fill-rule="evenodd" data-name="Rectangle 1202"/><path d="M218.708 357.063h10.447v10.447h-10.447v-10.447z" fill="#1a335a" fill-rule="evenodd" data-name="Rectangle 1203"/><path d="M218.708 367.51h10.447v10.446h-10.447V367.51z" fill="#1a335a" fill-rule="evenodd" data-name="Rectangle 1204"/><path d="M218.708 377.956h10.447v10.447h-10.447v-10.447z" fill="#1a335a" fill-rule="evenodd" data-name="Rectangle 1205"/><path d="M218.708 398.85h10.447v10.446h-10.447V398.85z" fill="#1a335a" fill-rule="evenodd" data-name="Rectangle 1206"/><path d="M218.708 492.869h10.447v10.446h-10.447V492.87z" fill="#1a335a" fill-rule="evenodd" data-name="Rectangle 1207"/><path d="M218.708 503.315h10.447v10.447h-10.447v-10.447z" fill="#1a335a" fill-rule="evenodd" data-name="Rectangle 1208"/><path d="M229.155 388.403H239.6v10.446h-10.446v-10.446z" fill="#1a335a" fill-rule="evenodd" data-name="Rectangle 1209"/><path d="M229.155 430.19H239.6v10.446h-10.446v-10.447z" fill="#1a335a" fill-rule="evenodd" data-name="Rectangle 1210"/><path d="M229.155 440.636H239.6v10.446h-10.446v-10.446z" fill="#1a335a" fill-rule="evenodd" data-name="Rectangle 1211"/><path d="M229.155 461.529H239.6v10.447h-10.446v-10.447z" fill="#1a335a" fill-rule="evenodd" data-name="Rectangle 1212"/><path d="M229.155 492.869H239.6v10.446h-10.446V492.87z" fill="#1a335a" fill-rule="evenodd" data-name="Rectangle 1213"/><path d="M229.155 503.315H239.6v10.447h-10.446v-10.447z" fill="#1a335a" fill-rule="evenodd" data-name="Rectangle 1214"/><path d="M229.155 513.762H239.6v10.446h-10.446v-10.446z" fill="#1a335a" fill-rule="evenodd" data-name="Rectangle 1215"/><path d="M239.601 388.403h10.447v10.446H239.6v-10.446z" fill="#1a335a" fill-rule="evenodd" data-name="Rectangle 1216"/><path d="M239.601 409.296h10.447v10.447H239.6v-10.447z" fill="#1a335a" fill-rule="evenodd" data-name="Rectangle 1217"/><path d="M239.601 430.19h10.447v10.446H239.6v-10.447z" fill="#1a335a" fill-rule="evenodd" data-name="Rectangle 1218"/><path d="M239.601 440.636h10.447v10.446H239.6v-10.446z" fill="#1a335a" fill-rule="evenodd" data-name="Rectangle 1219"/><path d="M239.601 482.422h10.447v10.447H239.6v-10.447z" fill="#1a335a" fill-rule="evenodd" data-name="Rectangle 1220"/><path d="M239.601 492.869h10.447v10.446H239.6V492.87z" fill="#1a335a" fill-rule="evenodd" data-name="Rectangle 1221"/><path d="M239.601 513.762h10.447v10.446H239.6v-10.446z" fill="#1a335a" fill-rule="evenodd" data-name="Rectangle 1222"/><path d="M250.048 367.51h10.446v10.446h-10.446V367.51z" fill="#1a335a" fill-rule="evenodd" data-name="Rectangle 1223"/><path d="M250.048 377.956h10.446v10.447h-10.446v-10.447z" fill="#1a335a" fill-rule="evenodd" data-name="Rectangle 1224"/><path d="M250.048 388.403h10.446v10.446h-10.446v-10.446z" fill="#1a335a" fill-rule="evenodd" data-name="Rectangle 1225"/><path d="M250.048 398.85h10.446v10.446h-10.446V398.85z" fill="#1a335a" fill-rule="evenodd" data-name="Rectangle 1226"/><path d="M250.048 430.19h10.446v10.446h-10.446v-10.447z" fill="#1a335a" fill-rule="evenodd" data-name="Rectangle 1227"/><path d="M250.048 461.529h10.446v10.447h-10.446v-10.447z" fill="#1a335a" fill-rule="evenodd" data-name="Rectangle 1228"/><path d="M250.048 534.655h10.446V545.1h-10.446v-10.446z" fill="#1a335a" fill-rule="evenodd" data-name="Rectangle 1229"/><path d="M260.494 388.403h10.447v10.446h-10.447v-10.446z" fill="#1a335a" fill-rule="evenodd" data-name="Rectangle 1230"/><path d="M260.494 398.85h10.447v10.446h-10.447V398.85z" fill="#1a335a" fill-rule="evenodd" data-name="Rectangle 1231"/><path d="M260.494 430.19h10.447v10.446h-10.447v-10.447z" fill="#1a335a" fill-rule="evenodd" data-name="Rectangle 1232"/><path d="M260.494 440.636h10.447v10.446h-10.447v-10.446z" fill="#1a335a" fill-rule="evenodd" data-name="Rectangle 1233"/><path d="M260.494 451.082h10.447v10.447h-10.447v-10.447z" fill="#1a335a" fill-rule="evenodd" data-name="Rectangle 1234"/><path d="M260.494 471.975h10.447v10.447h-10.447v-10.447z" fill="#1a335a" fill-rule="evenodd" data-name="Rectangle 1235"/><path d="M260.494 482.422h10.447v10.447h-10.447v-10.447z" fill="#1a335a" fill-rule="evenodd" data-name="Rectangle 1236"/><path d="M260.494 492.869h10.447v10.446h-10.447V492.87z" fill="#1a335a" fill-rule="evenodd" data-name="Rectangle 1237"/><path d="M260.494 503.315h10.447v10.447h-10.447v-10.447z" fill="#1a335a" fill-rule="evenodd" data-name="Rectangle 1238"/><path d="M260.494 513.762h10.447v10.446h-10.447v-10.446z" fill="#1a335a" fill-rule="evenodd" data-name="Rectangle 1239"/><path d="M260.494 534.655h10.447V545.1h-10.447v-10.446z" fill="#1a335a" fill-rule="evenodd" data-name="Rectangle 1240"/><path d="M270.941 388.403h10.447v10.446H270.94v-10.446z" fill="#1a335a" fill-rule="evenodd" data-name="Rectangle 1241"/><path d="M270.941 419.743h10.447v10.446H270.94v-10.446z" fill="#1a335a" fill-rule="evenodd" data-name="Rectangle 1242"/><path d="M270.941 430.19h10.447v10.446H270.94v-10.447z" fill="#1a335a" fill-rule="evenodd" data-name="Rectangle 1243"/><path d="M270.941 451.082h10.447v10.447H270.94v-10.447z" fill="#1a335a" fill-rule="evenodd" data-name="Rectangle 1244"/><path d="M270.941 461.529h10.447v10.447H270.94v-10.447z" fill="#1a335a" fill-rule="evenodd" data-name="Rectangle 1245"/><path d="M270.941 482.422h10.447v10.447H270.94v-10.447z" fill="#1a335a" fill-rule="evenodd" data-name="Rectangle 1246"/><path d="M270.941 534.655h10.447V545.1H270.94v-10.446z" fill="#1a335a" fill-rule="evenodd" data-name="Rectangle 1247"/><path d="M281.388 388.403h10.446v10.446h-10.446v-10.446z" fill="#1a335a" fill-rule="evenodd" data-name="Rectangle 1248"/><path d="M281.388 409.296h10.446v10.447h-10.446v-10.447z" fill="#1a335a" fill-rule="evenodd" data-name="Rectangle 1249"/><path d="M281.388 430.19h10.446v10.446h-10.446v-10.447z" fill="#1a335a" fill-rule="evenodd" data-name="Rectangle 1250"/><path d="M281.388 440.636h10.446v10.446h-10.446v-10.446z" fill="#1a335a" fill-rule="evenodd" data-name="Rectangle 1251"/><path d="M281.388 451.082h10.446v10.447h-10.446v-10.447z" fill="#1a335a" fill-rule="evenodd" data-name="Rectangle 1252"/><path d="M281.388 482.422h10.446v10.447h-10.446v-10.447z" fill="#1a335a" fill-rule="evenodd" data-name="Rectangle 1253"/><path d="M281.388 503.315h10.446v10.447h-10.446v-10.447z" fill="#1a335a" fill-rule="evenodd" data-name="Rectangle 1254"/><path d="M281.388 524.208h10.446v10.447h-10.446v-10.447z" fill="#1a335a" fill-rule="evenodd" data-name="Rectangle 1255"/><path d="M281.388 534.655h10.446V545.1h-10.446v-10.446z" fill="#1a335a" fill-rule="evenodd" data-name="Rectangle 1256"/><path d="M291.834 377.956h10.447v10.447h-10.447v-10.447z" fill="#1a335a" fill-rule="evenodd" data-name="Rectangle 1257"/><path d="M291.834 388.403h10.447v10.446h-10.447v-10.446z" fill="#1a335a" fill-rule="evenodd" data-name="Rectangle 1258"/><path d="M291.834 398.85h10.447v10.446h-10.447V398.85z" fill="#1a335a" fill-rule="evenodd" data-name="Rectangle 1259"/><path d="M291.834 430.19h10.447v10.446h-10.447v-10.447z" fill="#1a335a" fill-rule="evenodd" data-name="Rectangle 1260"/><path d="M291.834 440.636h10.447v10.446h-10.447v-10.446z" fill="#1a335a" fill-rule="evenodd" data-name="Rectangle 1261"/><path d="M291.834 461.529h10.447v10.447h-10.447v-10.447z" fill="#1a335a" fill-rule="evenodd" data-name="Rectangle 1262"/><path d="M291.834 471.975h10.447v10.447h-10.447v-10.447z" fill="#1a335a" fill-rule="evenodd" data-name="Rectangle 1263"/><path d="M291.834 492.869h10.447v10.446h-10.447V492.87z" fill="#1a335a" fill-rule="evenodd" data-name="Rectangle 1264"/><path d="M291.834 513.762h10.447v10.446h-10.447v-10.446z" fill="#1a335a" fill-rule="evenodd" data-name="Rectangle 1265"/><path d="M291.834 534.655h10.447V545.1h-10.447v-10.446z" fill="#1a335a" fill-rule="evenodd" data-name="Rectangle 1266"/><path d="M302.28 398.85h10.447v10.446h-10.446V398.85z" fill="#1a335a" fill-rule="evenodd" data-name="Rectangle 1267"/><path d="M302.28 409.296h10.447v10.447h-10.446v-10.447z" fill="#1a335a" fill-rule="evenodd" data-name="Rectangle 1268"/><path d="M302.28 430.19h10.447v10.446h-10.446v-10.447z" fill="#1a335a" fill-rule="evenodd" data-name="Rectangle 1269"/><path d="M302.28 440.636h10.447v10.446h-10.446v-10.446z" fill="#1a335a" fill-rule="evenodd" data-name="Rectangle 1270"/><path d="M302.28 451.082h10.447v10.447h-10.446v-10.447z" fill="#1a335a" fill-rule="evenodd" data-name="Rectangle 1271"/><path d="M302.28 471.975h10.447v10.447h-10.446v-10.447z" fill="#1a335a" fill-rule="evenodd" data-name="Rectangle 1272"/><path d="M302.28 503.315h10.447v10.447h-10.446v-10.447z" fill="#1a335a" fill-rule="evenodd" data-name="Rectangle 1273"/><path d="M302.28 524.208h10.447v10.447h-10.446v-10.447z" fill="#1a335a" fill-rule="evenodd" data-name="Rectangle 1274"/><g data-name="Group 4287"><path d="M62.01 283.938v73.125h73.126v-73.125H62.009Zm67.902 67.902h-62.68v-62.68h62.68v62.68Z" fill="#1a335a" fill-rule="evenodd" data-name="Path 1576"/><path d="M67.233 289.16v62.68h62.68v-62.68h-62.68Zm58.203 58.203H71.71v-53.725h53.726v53.725Z" fill="#1a335a" fill-rule="evenodd" data-name="Path 1577"/><path d="M82.903 304.83h31.34v31.34h-31.34v-31.34z" fill="#1a335a" fill-rule="evenodd" data-name="Rectangle 1275"/></g><g data-name="Group 4288"><path d="M62.01 471.975v73.127h73.126v-73.127H62.009Zm67.902 67.903h-62.68v-62.68h62.68v62.68Z" fill="#1a335a" fill-rule="evenodd" data-name="Path 1578"/><path d="M67.233 477.199v62.68h62.68v-62.68h-62.68Zm58.203 58.202H71.71v-53.725h53.726V535.4Z" fill="#1a335a" fill-rule="evenodd" data-name="Path 1579"/><path d="M82.903 492.869h31.34v31.34h-31.34v-31.34z" fill="#1a335a" fill-rule="evenodd" data-name="Rectangle 1276"/></g><g data-name="Group 4289"><path d="M239.601 283.938v73.125h73.126v-73.125h-73.126Zm67.903 67.902h-62.68v-62.68h62.68v62.68Z" fill="#1a335a" fill-rule="evenodd" data-name="Path 1580"/><path d="M244.825 289.16v62.68h62.68v-62.68h-62.68Zm58.201 58.203h-53.724v-53.725h53.724v53.725Z" fill="#1a335a" fill-rule="evenodd" data-name="Path 1581"/><path d="M260.494 304.83h31.34v31.34h-31.34v-31.34z" fill="#1a335a" fill-rule="evenodd" data-name="Rectangle 1277"/></g></g></g></svg>