<svg xmlns="http://www.w3.org/2000/svg" width="25" height="14.838" viewBox="-17874 -6174 25 14.838"><g data-name="student-hat"><path d="M-17855.475-6170.484a83.237 83.237 0 0 0-12.05 0l-.634.05-2.03 9.275c2.394-.969 6.388.346 8.698 1.997 2.31-1.651 6.303-2.966 8.698-1.997l-2.03-9.274-.652-.05Zm.837 7.733a.336.336 0 0 1-.406-.253l-1.227-5.585a.342.342 0 0 1 .669-.143l1.21 5.585a.319.319 0 0 1-.246.396Z" fill="#1c345a" fill-rule="evenodd" data-name="Path 1915"/><path d="M-17853.808-6172.83a25.73 25.73 0 0 0-7.685-1.17c-2.291 0-4.49.295-6.544.842a21.537 21.537 0 0 0-5.765 2.41c-.144.075-.229.21-.186.345.042.194.287.312.532.27a81.351 81.351 0 0 1 5.952-.666 83.277 83.277 0 0 1 12.039 0c.963.076 1.91.16 2.857.27-.228-.843-.541-1.567-.955-2.022l-.245-.278Z" fill="#1c345a" fill-rule="evenodd" data-name="Path 1916"/><path d="M-17849.171-6170.732a21.622 21.622 0 0 0-2.527-1.305c.059.118.118.244.151.37.144.388.253.843.32 1.298.565.075 1.12.151 1.685.235.16.017.329-.016.438-.126.16-.143.135-.354-.067-.472Z" fill="#1c345a" fill-rule="evenodd" data-name="Path 1917"/><path d="M-17851.47-6165.576c.075 0 .134.016.193.033.059-2.384-.059-4.793-.522-6.031-.438-1.213-1.154-1.34-1.575-1.163 1.145 1.272 1.499 4.078 1.693 7.203a.625.625 0 0 1 .21-.042Z" fill="#1c345a" fill-rule="evenodd" data-name="Path 1918"/><path d="M-17851.47-6164.254a.619.619 0 0 1-.456-.202c-.084.21-.126.447-.126.69 0 .565.236 1.054.581 1.273.337-.228.582-.716.582-1.272 0-.244-.043-.48-.135-.69a.574.574 0 0 1-.447.201Z" fill="#1c345a" fill-rule="evenodd" data-name="Path 1919"/><path d="M-17851.883-6164.9c0 .228.176.413.412.413a.419.419 0 0 0 .413-.412.413.413 0 0 0-.413-.413.408.408 0 0 0-.412.413Z" fill="#1c345a" fill-rule="evenodd" data-name="Path 1920"/></g></svg>