<svg xmlns="http://www.w3.org/2000/svg" width="146.461" height="17.443" viewBox="172.176 547 146.461 17.443"><g data-name="Group 4706"><g data-name="Group 4703"><path d="M189.502 549.2c-.301.116-.625.232-.625.927v7.343c0 5.235-4.401 6.486-7.297 6.486-3.173 0-7.505-.37-7.505-5.861v-7.62c0-.51-.278-1.043-.672-1.205l-1.227-.487c0-.208.023-1.158.092-1.412h8.038c.07.347.07 1.227.047 1.528l-1.553.278c-.463.093-.602.301-.602.741v7.552c0 3.613 2.479 4.17 4.309 4.17 1.69 0 3.474-.789 3.474-4.726v-6.254c0-.556-.231-1.274-1.297-1.576l-.996-.3c0-.21-.046-1.159.023-1.413h6.857c.07.347.115 1.158.092 1.459l-1.158.37Z" fill="#1c345a" fill-rule="evenodd" data-name="Path 1705"/><path d="M209.236 549.177c-.51.278-.95.927-.95 1.599v12.74l-3.034.926-8.895-12.045h-.162l.093 1.853v3.174l.07 3.497c0 .556.045.742.555.88l1.969.557c0 .208-.023 1.134-.116 1.39h-6.972a7.002 7.002 0 0 1-.093-1.368l1.112-.3c.718-.186 1.089-1.32 1.112-2.063l.046-2.593v-6.927c0-.51-.301-.972-.672-1.181l-1.413-.718c0-.208-.023-.973.047-1.227h5.374l8.64 11.396h.162l-.14-2.432v-5.536c0-.58-.393-1.25-.856-1.483l-1.46-.718c0-.208 0-.973.093-1.227h6.532c.047.347.093.88.093 1.18l-1.135.626Z" fill="#1c345a" fill-rule="evenodd" data-name="Path 1706"/><path d="M219.333 563.747h-7.736c-.14-.556-.07-.903-.07-1.413l.834-.232c.463-.162 1.089-.556 1.112-1.297l.07-3.567v-6.74c0-.765-.742-1.159-1.182-1.344l-.834-.37c0-.51-.07-.834.07-1.413h7.829c.046.602.023 1.134-.07 1.575l-1.019.254c-.672.186-.834.81-.834 1.251v6.787l.047 3.915c.023.44.115.556.533.695l1.412.324c0 .556 0 .973-.162 1.575Z" fill="#1c345a" fill-rule="evenodd" data-name="Path 1707"/><path d="M238.535 564.303c-2.038.186-4.053 0-6-1.645-1.366-1.135-2.57-3.22-3.543-5.42l-.487.023h-1.83l.07 3.66c0 .463.092.695.486.81l1.436.488c0 .208 0 1.273-.092 1.528h-7.876c-.046-.347-.093-1.135-.07-1.436l1.112-.255c.533-.116.88-.81.904-1.436l.07-3.196v-7.088c0-.371-.186-.765-.557-.927l-1.505-.603c-.024-.185 0-1.134.116-1.435h9.08c3.266 0 6.254 1.274 6.254 4.702 0 1.621-.973 3.335-2.85 4.33.51 1.067 1.229 2.457 2.155 3.661.903 1.181 1.969 2.155 3.243 2.41l-.116 1.83Zm-6.81-11.836c0-2.108-1.46-3.058-4.053-3.058h-1.02v5.953l1.691-.023c2.455-.023 3.359-.857 3.359-2.872h.023Z" fill="#1c345a" fill-rule="evenodd" data-name="Path 1708"/><path d="M255.489 563.747h-7.32c-.185-.486-.208-.856-.208-1.505l1.227-.44c.533-.186.765-.533.765-.996 0-.302-.07-.533-.185-.858l-.788-2.409h-5.165l-.834 2.201a2.74 2.74 0 0 0-.163.88c0 .788.487 1.02.858 1.135l1.668.487c0 .44 0 1.042-.14 1.505h-6.324c-.115-.394-.115-.88-.115-1.39.532-.509.81-.74 1.112-1.412l5.698-13.18 3.637-.765 5.397 13.99c.232.556.648.974 1.042 1.39 0 .557-.023.904-.162 1.367Zm-8.27-11.582-.556-1.992h-.138l-.649 1.923-1.32 3.52h3.799l-1.135-3.45Z" fill="#1c345a" fill-rule="evenodd" data-name="Path 1709"/><path d="M274.481 549.177c-.51.278-.949.927-.949 1.599v12.74l-3.035.926-8.894-12.045h-.162l.092 1.853v3.174l.07 3.497c0 .556.046.742.556.88l1.969.557c0 .208-.024 1.134-.116 1.39h-6.972a7.033 7.033 0 0 1-.093-1.368l1.112-.3c.718-.186 1.088-1.32 1.112-2.063l.046-2.593v-6.927c0-.51-.301-.972-.672-1.181l-1.413-.718c0-.208-.023-.973.047-1.227h5.373l8.64 11.396h.163l-.14-2.432v-5.536c0-.58-.393-1.25-.856-1.483l-1.46-.718c0-.208 0-.973.093-1.227h6.532a11 11 0 0 1 .093 1.18l-1.136.626Z" fill="#1c345a" fill-rule="evenodd" data-name="Path 1710"/><path d="M293.59 564.025c-1.02 0-4.147-.185-5.908-2.177l-4.933-5.583v.973l.046 3.915c.023.44.093.602.533.695l1.413.324c0 .556 0 .973-.162 1.575h-7.737c-.093-.51-.07-.903-.07-1.413l.835-.232c.463-.162 1.088-.556 1.111-1.297l.07-3.567v-6.74c0-.765-.741-1.159-1.181-1.344l-.835-.37c0-.51-.023-.881.093-1.413h7.806c.047.602.024 1.134-.069 1.575l-1.02.254c-.67.163-.833.81-.833 1.251v4.818l4.586-4.378c.232-.208.347-.486.347-.74 0-.441-.185-.835-.462-.974l-.65-.347c0-.533-.023-.88.117-1.46h6.555v1.135l-7.134 6.209 3.358 3.428c1.413 1.459 2.873 2.895 4.517 4.03l-.393 1.853Z" fill="#1c345a" fill-rule="evenodd" data-name="Path 1711"/><path d="M300.792 564.002c-1.877 0-4.378-.394-6-1.39l.44-4.192h1.668c.185 2.27 2.085 3.474 4.239 3.474.903 0 2.71-.348 2.71-1.552 0-.926-1.367-1.528-3.011-2.27-2.386-1.065-5.328-2.385-5.328-5.42 0-2.988 3.243-5.443 6.092-5.443 1.923 0 4.007.417 5.583 1.181v3.59h-1.506c-.463-1.853-2.247-2.57-4.007-2.57-1.251 0-2.479.393-2.479 1.852 0 .996 1.737 1.645 3.66 2.479 2.41 1.042 5.096 2.34 5.096 4.98 0 3.776-3.938 5.281-7.157 5.281Z" fill="#1c345a" fill-rule="evenodd" data-name="Path 1712"/></g><g data-name="Group 4705"><g data-name="Group 4704" transform="translate(309.95 547)" clip-path="url(&quot;#a&quot;)"><path d="M8.688 4.341c0 .614-.114 1.187-.34 1.718a4.347 4.347 0 0 1-.925 1.39c-.39.395-.851.707-1.385.932a4.352 4.352 0 0 1-1.718.34c-.635 0-1.218-.11-1.745-.328a4.08 4.08 0 0 1-1.363-.908 4.206 4.206 0 0 1-.89-1.379A4.64 4.64 0 0 1 0 4.365a4.366 4.366 0 0 1 1.265-3.103A4.342 4.342 0 0 1 4.367 0c.636 0 1.218.108 1.746.326.53.22.984.522 1.369.908.382.388.678.845.89 1.375.21.527.316 1.106.316 1.733m-.851.069a4.14 4.14 0 0 0-.263-1.504 3.46 3.46 0 0 0-.73-1.161 3.185 3.185 0 0 0-1.104-.741 3.616 3.616 0 0 0-1.373-.26c-.53 0-1.01.097-1.441.289-.433.192-.804.45-1.11.775a3.514 3.514 0 0 0-.712 1.133 3.696 3.696 0 0 0-.253 1.367c0 .551.088 1.053.265 1.504.176.453.42.84.73 1.161.31.322.674.569 1.096.741a3.61 3.61 0 0 0 1.378.26 3.55 3.55 0 0 0 1.455-.289c.432-.19.803-.449 1.108-.775.306-.325.542-.702.706-1.131.165-.43.248-.885.248-1.369M6.366 6.56a.322.322 0 0 1-.01.08c-.008.023-.031.041-.07.053-.038.01-.093.02-.167.027a2.988 2.988 0 0 1-.304.012c-.108 0-.196-.004-.27-.012a.697.697 0 0 1-.177-.039.31.31 0 0 1-.11-.075.323.323 0 0 1-.063-.127l-.253-.816c-.1-.306-.222-.52-.369-.643-.145-.122-.363-.184-.655-.184h-.321v1.7c0 .07-.026.12-.08.15-.054.03-.183.046-.391.046-.214 0-.353-.016-.414-.045a.158.158 0 0 1-.092-.151v-4.24c0-.145.037-.26.11-.35.072-.087.186-.132.34-.132h1.229c.321 0 .598.03.833.092.234.06.426.15.579.27.155.118.266.265.339.438.073.17.11.364.11.578 0 .377-.102.665-.304.869a1.722 1.722 0 0 1-.81.431c.182.061.355.165.516.316.16.15.304.373.425.67l.298.783c.055.161.08.261.08.298M5.092 3.308a.796.796 0 0 0-.041-.259.475.475 0 0 0-.143-.212.712.712 0 0 0-.28-.143 1.636 1.636 0 0 0-.456-.053h-.574v1.402h.553c.359 0 .606-.066.739-.202.135-.133.202-.312.202-.533" fill="#1c345a" fill-rule="evenodd" data-name="Path 2025"/></g></g></g><defs><clipPath id="a"><path d="M0 0h8.688v8.721H0V0z" data-name="Rectangle 1345"/></clipPath></defs></svg>