<svg xmlns="http://www.w3.org/2000/svg" width="25" height="18.853" viewBox="15 161 25 18.853"><g data-name="university"><path d="M20.633 168.084v-.825c0-.09-.099-.173-.23-.173h-2.649c-.123 0-.23.074-.23.173v.825c0 .09.099.173.23.173h.132l-.165 7.902h-.173v.429h3.01v-.429h-.131l-.165-7.902h.132c.132 0 .24-.074.24-.173Z" fill="#1c345a" fill-rule="evenodd" data-name="Path 1911"/><path d="M29.19 168.084v-.825c0-.09-.1-.173-.231-.173H26.31c-.123 0-.23.074-.23.173v.825c0 .09.098.173.23.173h.132l-.165 7.902h-.173v.429h3.01v-.429h-.131l-.165-7.902h.132c.14 0 .239-.074.239-.173Z" fill="#1c345a" fill-rule="evenodd" data-name="Path 1912"/><path d="M37.748 168.084v-.825c0-.09-.107-.173-.231-.173h-2.648c-.123 0-.23.074-.23.173v.825c0 .09.098.173.23.173h.132l-.165 7.902h-.173v.429h3.01v-.429h-.131l-.165-7.902h.132c.132 0 .239-.074.239-.173Z" fill="#1c345a" fill-rule="evenodd" data-name="Path 1913"/><path d="M16.723 176.736H38.49v.833H16.723v-.833z" fill="#1c345a" fill-rule="evenodd" data-name="Rectangle 1298"/><path d="M16.608 165.565h21.767v.833H16.608v-.833z" fill="#1c345a" fill-rule="evenodd" data-name="Rectangle 1299"/><path d="M15.85 177.866H39.2v.833H15.85v-.833z" fill="#1c345a" fill-rule="evenodd" data-name="Rectangle 1300"/><path d="M15 179.02h25v.833H15v-.833z" fill="#1c345a" fill-rule="evenodd" data-name="Rectangle 1301"/><path d="m36.149 163.99-6.795-2.705c-.963-.38-2.527-.38-3.482 0l-6.803 2.705h-3.22v.915H39.2v-.915h-3.05Zm-8.51-.231a.838.838 0 0 1-.846-.825c0-.453.38-.825.845-.825.465 0 .846.372.846.825 0 .454-.38.825-.846.825Z" fill="#1c345a" fill-rule="evenodd" data-name="Path 1914"/></g></svg>