<svg xmlns="http://www.w3.org/2000/svg" width="50.848" height="32.58" viewBox="301 439 50.848 32.58"><g data-name="Group 6684"><g data-name="Group 4708"><g data-name="Group 4707" transform="translate(301 448.557)" clip-path="url(&quot;#a&quot;)"><path d="M23.478 2.48c-.408.157-.848.314-.848 1.255v9.95c0 7.093-5.963 8.788-9.887 8.788-4.3 0-10.17-.502-10.17-7.94V4.205c0-.69-.376-1.412-.91-1.632L0 1.914C0 1.633.031.346.125 0h10.892c.094.47.094 1.663.063 2.072l-2.103.376c-.628.126-.816.408-.816 1.005v10.232c0 4.896 3.358 5.65 5.838 5.65 2.291 0 4.708-1.068 4.708-6.403V4.457c0-.753-.314-1.726-1.758-2.134l-1.35-.408c0-.283-.062-1.57.032-1.915h9.29c.095.47.157 1.57.126 1.977l-1.57.503Z" fill="#1c345a" fill-rule="evenodd" data-name="Path 2026"/><path d="M50.691 22.944c-2.762.251-5.493 0-8.13-2.228-1.851-1.538-3.483-4.363-4.802-7.345l-.659.031h-2.48l.095 4.96c0 .627.125.941.66 1.098l1.945.66c0 .282 0 1.725-.125 2.07H26.523c-.063-.47-.126-1.537-.094-1.945l1.506-.345c.722-.157 1.193-1.1 1.224-1.947l.095-4.331V4.017c0-.502-.252-1.035-.754-1.255l-2.04-.816c-.031-.251 0-1.538.157-1.946h12.304c4.426 0 8.475 1.726 8.475 6.372 0 2.197-1.319 4.52-3.861 5.869.69 1.444 1.663 3.327 2.919 4.96 1.224 1.6 2.668 2.918 4.394 3.264l-.157 2.48ZM41.463 6.905c0-2.856-1.977-4.143-5.493-4.143h-1.38v8.067l2.29-.032c3.328-.031 4.552-1.161 4.552-3.892h.031Z" fill="#1c345a" fill-rule="evenodd" data-name="Path 2027"/></g></g><g data-name="Group 4709"><g data-name="Group 4529"><path d="m307.836 447.036-2.611-1.932-2.611 1.932 1.03-3.08-2.644-1.887 3.248.028.977-3.097.977 3.097 3.248-.028-2.644 1.887 1.03 3.08Z" fill="#1c345a" fill-rule="evenodd" data-name="Path 1750"/></g><g data-name="Group 4530"><path d="m315.823 439 .978 3.097 3.247-.028-2.644 1.886 1.03 3.08-2.61-1.931-2.612 1.931 1.03-3.08-2.643-1.886 3.247.028.977-3.097Z" fill="#1c345a" fill-rule="evenodd" data-name="Path 1756"/></g><g data-name="Group 4531"><path d="m329.035 447.036-2.611-1.932-2.611 1.932 1.03-3.08-2.644-1.887 3.248.028.977-3.097.977 3.097 3.248-.028-2.644 1.887 1.03 3.08Z" fill="#1c345a" fill-rule="evenodd" data-name="Path 1750"/></g><g data-name="Group 4532"><path d="m337.023 439 .977 3.097 3.247-.028-2.643 1.886 1.03 3.08-2.611-1.931-2.611 1.931 1.03-3.08-2.644-1.886 3.247.028.978-3.097Z" fill="#1c345a" fill-rule="evenodd" data-name="Path 1756"/></g><g data-name="Group 4533"><path d="m350.234 447.036-2.61-1.932-2.612 1.932 1.03-3.08-2.644-1.887 3.248.028.977-3.097.977 3.097 3.248-.028-2.644 1.887 1.03 3.08Z" fill="#1c345a" fill-rule="evenodd" data-name="Path 1750"/></g></g></g><defs><clipPath id="a"><path d="M0 0h50.848v23.023H0V0z" data-name="Rectangle 1346"/></clipPath></defs></svg>