<svg xmlns="http://www.w3.org/2000/svg" width="43.087" height="43.087" viewBox="0 -0.023 43.087 43.087"><g data-name="Group 4780" transform="translate(0 -.281)" clip-path="url(&quot;#a&quot;)"><path d="M41.394 13.416a21.473 21.473 0 0 0-4.617-6.848A21.473 21.473 0 0 0 21.543.258 21.473 21.473 0 0 0 6.31 6.568 21.473 21.473 0 0 0 0 21.8a21.473 21.473 0 0 0 6.31 15.233 21.473 21.473 0 0 0 15.233 6.31 21.473 21.473 0 0 0 15.233-6.31 21.473 21.473 0 0 0 6.31-15.233c0-2.908-.57-5.73-1.692-8.385M21.544 8.26a8.096 8.096 0 1 1 0 16.193 8.097 8.097 0 0 1 0-16.193m0 32.023c-6.098 0-11.515-2.969-14.884-7.536a15.847 15.847 0 0 1 7.638-8.73 10.504 10.504 0 0 0 7.245 2.883 10.504 10.504 0 0 0 7.246-2.884 15.85 15.85 0 0 1 7.638 8.731c-3.369 4.567-8.786 7.536-14.884 7.536" fill="#1c345a" fill-rule="evenodd" data-name="Path 2334"/></g><defs><clipPath id="a"><path d="M0 0h43v43H0V0z" data-name="Rectangle 1370" transform="translate(0 .345)"/></clipPath></defs></svg>