<?xml version="1.0" encoding="utf-8"?>
<!-- Generator: Adobe Illustrator 27.3.1, SVG Export Plug-In . SVG Version: 6.00 Build 0)  -->
<svg version="1.1" id="Layer_1" xmlns="http://www.w3.org/2000/svg" xmlns:xlink="http://www.w3.org/1999/xlink" x="0px" y="0px"
	 viewBox="0 0 816.36 595.28" style="enable-background:new 0 0 816.36 595.28;" xml:space="preserve">
<style type="text/css">
	.st0{clip-path:url(#SVGID_00000037661601625561696810000016824337992798522787_);}
	.st1{fill:#FFFFFF;}
</style>
<g>
	<defs>
		<rect id="SVGID_1_" x="5.36" y="5.23" width="805.63" height="584.82"/>
	</defs>
	<clipPath id="SVGID_00000102517496690663135870000015715737720860575155_">
		<use xlink:href="#SVGID_1_"  style="overflow:visible;"/>
	</clipPath>
	<g id="Group_6181" style="clip-path:url(#SVGID_00000102517496690663135870000015715737720860575155_);">
		<path id="Path_2858" class="st1" d="M107.98,147.65c0.19,9.83-4.36,19.16-12.22,25.05c-7.88,5.92-19.76,8.88-35.65,8.89
			c-9.09,0.29-18.14-1.33-26.57-4.75c-6.5-2.75-12.27-6.97-16.87-12.33c-4.11-4.92-7.11-10.68-8.79-16.87
			c-1.66-5.99-2.5-12.17-2.52-18.38c0.02-3.95,0.29-7.9,0.81-11.82c0.54-4.26,1.35-8.47,2.42-12.63c1-3.97,2.31-7.85,3.92-11.61
			c1.27-3.11,3.01-6.01,5.15-8.59h1.21l5.05,5.05c1.61,1.52,1.94,3.96,0.81,5.86c-2.36,5.37-3.93,11.05-4.65,16.87
			c-0.77,5.59-1.17,11.22-1.21,16.87c-0.59,11.49,3.16,22.77,10.51,31.62c7,7.88,17.23,11.82,30.7,11.82
			c6.49,0.19,12.97-0.46,19.29-1.92c3.87-0.89,7.48-2.7,10.51-5.27c2.26-2.05,3.78-4.78,4.34-7.78c0.56-3.2,0.83-6.45,0.81-9.7V5.23
			h13.13v129.09c-0.26,5.54,4.01,10.24,9.55,10.51c0.32,0.02,0.64,0.02,0.95,0h8.28v9.09h-5.44c-2.44-0.03-4.85-0.58-7.07-1.61
			C112,151.2,109.8,149.62,107.98,147.65"/>
		<path id="Path_2859" class="st1" d="M125.36,153.91c-0.82,0-1.64-0.14-2.42-0.4c-0.81-0.27-1.21-0.75-1.21-1.42v-5.45
			c0-0.67,0.44-1.14,1.31-1.41c0.75-0.25,1.53-0.38,2.32-0.4h27.48c5.45-0.06,9.85-4.46,9.9-9.9V53.11h13.33v81.21
			c-0.26,5.54,4.02,10.24,9.55,10.5c0.32,0.01,0.64,0.01,0.95,0h8.28v9.09h-5.65c-3.35-0.07-6.62-1.01-9.5-2.73
			c-3.35-1.95-6.03-4.87-7.68-8.38c-1.53,3.34-3.9,6.23-6.87,8.38c-2.48,1.75-5.44,2.7-8.48,2.73L125.36,153.91z M169.41,192.69
			c-2.43,0.05-4.77-0.9-6.46-2.64c-1.71-1.63-2.66-3.9-2.64-6.26c-0.06-4.95,3.9-9.02,8.85-9.09c0.08,0,0.16,0,0.23,0
			c2.3,0,4.49,0.96,6.06,2.64c1.73,1.7,2.69,4.04,2.64,6.46c0.02,2.36-0.93,4.63-2.64,6.26c-1.57,1.68-3.76,2.63-6.06,2.64"/>
		<path id="Path_2860" class="st1" d="M337.68,153.91H193.04c-0.79-0.02-1.57-0.16-2.32-0.4c-0.88-0.27-1.31-0.74-1.31-1.41
			l0.2-5.45c0-0.67,0.4-1.14,1.21-1.41c0.72-0.25,1.47-0.39,2.22-0.4h47.68c-2.82-2.15-5.28-4.74-7.27-7.68
			c-2.2-3.18-4.03-6.6-5.45-10.2c-1.52-3.82-2.67-7.78-3.43-11.82c-0.8-4.13-1.21-8.32-1.21-12.52c-0.07-6.96,0.98-13.88,3.13-20.51
			c1.92-5.96,5.05-11.46,9.19-16.16c4.15-4.59,9.25-8.21,14.95-10.6c6.54-2.67,13.55-3.98,20.61-3.84
			c6.98-0.13,13.92,1.14,20.4,3.73c5.73,2.35,10.87,5.94,15.06,10.5c4.21,4.68,7.42,10.19,9.41,16.16
			c2.23,6.74,3.32,13.81,3.23,20.91v42.01h18.38L337.68,153.91z M305.56,144.82v-42.03c0.02-5.43-0.52-10.84-1.62-16.16
			c-0.95-4.8-2.83-9.37-5.55-13.43c-2.69-3.88-6.3-7.04-10.51-9.19c-5.13-2.45-10.78-3.63-16.47-3.43
			c-5.64-0.18-11.24,0.97-16.36,3.33c-4.24,2.05-7.89,5.14-10.61,8.99c-2.74,4.03-4.65,8.56-5.65,13.33
			c-2.29,10.79-2.29,21.94,0,32.73c1.01,4.82,2.97,9.38,5.76,13.44c2.72,3.86,6.37,6.99,10.6,9.09c5.15,2.39,10.79,3.53,16.47,3.33
			H305.56z M256.27,26.24c-2.43,0.05-4.77-0.9-6.47-2.64c-1.71-1.63-2.66-3.9-2.64-6.26c-0.07-4.95,3.89-9.02,8.83-9.08
			c0.09,0,0.18,0,0.27,0c2.3,0.01,4.49,0.96,6.06,2.64c1.73,1.7,2.69,4.04,2.64,6.47c0.03,2.36-0.93,4.63-2.64,6.26
			c-1.57,1.68-3.76,2.63-6.06,2.64 M286.57,26.26c-2.43,0.05-4.77-0.9-6.47-2.64c-1.71-1.63-2.66-3.9-2.64-6.26
			c-0.08-4.95,3.87-9.02,8.81-9.1c0.1,0,0.19,0,0.29,0c2.3,0.01,4.49,0.96,6.06,2.64c1.73,1.7,2.69,4.04,2.64,6.47
			c0.03,2.36-0.93,4.63-2.64,6.26C291.06,25.3,288.87,26.26,286.57,26.26"/>
		<path id="Path_2861" class="st1" d="M335.85,153.91c-0.79-0.02-1.57-0.16-2.32-0.41c-0.87-0.26-1.31-0.75-1.31-1.41v-5.46
			c0-0.67,0.44-1.13,1.31-1.41c0.75-0.25,1.53-0.39,2.32-0.41h27.48c2.65,0.02,5.2-1.04,7.07-2.93c1.94-1.79,3.04-4.32,3.01-6.97
			V53.09h13.33v81.22c-0.26,5.54,4.01,10.24,9.55,10.5c0.32,0.02,0.64,0.02,0.96,0h8.08v9.09h-5.45c-3.35-0.07-6.62-1.01-9.5-2.73
			c-3.35-1.95-6.03-4.87-7.68-8.39c-1.54,3.36-3.95,6.26-6.97,8.39c-2.53,1.74-5.52,2.69-8.59,2.73H335.85z M364.53,26.04
			c-2.43,0.05-4.77-0.9-6.46-2.64c-1.71-1.63-2.66-3.9-2.64-6.26c-0.06-4.95,3.91-9.02,8.86-9.08c0.08,0,0.16,0,0.24,0
			c2.3,0.01,4.49,0.96,6.06,2.64c1.73,1.7,2.68,4.04,2.64,6.46c0.02,2.36-0.93,4.63-2.64,6.26c-1.57,1.68-3.77,2.63-6.06,2.64
			 M394.65,26.06c-2.36,0.03-4.63-0.93-6.26-2.64c-1.71-1.63-2.66-3.9-2.64-6.26c-0.05-2.43,0.9-4.77,2.64-6.46
			c3.4-3.46,8.96-3.51,12.42-0.11c0.04,0.04,0.07,0.07,0.11,0.11c1.73,1.7,2.69,4.04,2.64,6.46c0.02,2.36-0.93,4.63-2.64,6.26
			C399.27,25.13,397.01,26.08,394.65,26.06"/>
		<path id="Path_2862" class="st1" d="M545.55,85.43c0.19-7.91-1.32-15.76-4.44-23.03c-0.68-1.62-1.21-3.03-1.62-4.24
			c-0.39-1.29,0.1-2.67,1.21-3.43l5.86-5.45c3.92,4.74,6.97,10.15,8.99,15.96c2.18,6.51,3.24,13.34,3.13,20.2v48.89
			c-0.26,5.54,4.02,10.24,9.55,10.5c0.32,0.02,0.64,0.01,0.95,0h8.28v9.09h-5.65c-2.99-0.08-5.93-0.84-8.59-2.22
			c-3.11-1.55-5.73-3.93-7.57-6.87c-1.64,2.72-3.93,4.98-6.67,6.57c-2.87,1.69-6.16,2.57-9.49,2.52h-19.8
			c-3.09-0.06-6.13-0.83-8.88-2.22c-3.15-1.53-5.81-3.91-7.68-6.87c-1.62,2.69-3.87,4.95-6.57,6.57c-2.77,1.68-5.95,2.56-9.19,2.52
			h-18.79c-3.3-0.04-6.56-0.73-9.6-2.02c-3.34-1.38-6.09-3.88-7.78-7.07c-1.54,3.01-3.93,5.51-6.87,7.17
			c-2.84,1.34-5.95,2-9.09,1.92h-31.52c-0.79-0.02-1.57-0.16-2.32-0.41c-0.88-0.27-1.31-0.74-1.31-1.41l0.2-5.45
			c0-0.67,0.4-1.13,1.21-1.41c0.72-0.25,1.47-0.39,2.22-0.41h27.48c2.66,0.02,5.21-1.04,7.07-2.93c1.94-1.79,3.04-4.32,3.01-6.97
			v-71.1h13.13v70.71c-0.08,2.75,0.98,5.42,2.93,7.37c2.01,1.98,4.76,3.04,7.58,2.93h18.38c2.66,0.02,5.21-1.04,7.07-2.93
			c1.95-1.79,3.05-4.32,3.03-6.97V63.81h12.93v70.71c-0.08,2.77,1.01,5.45,3.01,7.37c2.06,1.97,4.83,3.03,7.68,2.93h18.38
			c2.66,0.02,5.21-1.04,7.07-2.93c1.94-1.79,3.04-4.32,3.01-6.97L545.55,85.43z"/>
		<path id="Path_2863" class="st1" d="M659.87,153.91c-6.26,0.02-12.48-0.93-18.45-2.83c-6.24-2.13-11.84-5.82-16.26-10.71
			c-1.37,4.23-4.15,7.87-7.88,10.3c-3.13,2.04-6.77,3.17-10.5,3.23h-31.11c-0.79-0.02-1.58-0.16-2.33-0.41
			c-0.88-0.26-1.31-0.75-1.31-1.41l0.2-5.45c0-0.67,0.4-1.13,1.21-1.41c0.72-0.25,1.47-0.39,2.22-0.41h26.46
			c5.45-0.05,9.85-4.45,9.9-9.9V102.6c-0.07-6.96,0.99-13.88,3.13-20.5c1.91-5.96,5.04-11.47,9.19-16.16
			c4.17-4.61,9.32-8.23,15.06-10.6c6.5-2.66,13.48-3.96,20.5-3.84c6.95-0.11,13.85,1.16,20.31,3.73
			c5.76,2.34,10.94,5.93,15.15,10.51c4.21,4.69,7.4,10.19,9.39,16.16c2.23,6.74,3.32,13.81,3.23,20.91v31.71
			c-0.26,5.54,4.02,10.24,9.55,10.5c0.32,0.01,0.63,0.01,0.95,0h7.88v9.09h-5.27c-6.51-0.17-12.53-3.48-16.16-8.89
			c-5.39,5.93-10.71,8.82-15.96,8.69L659.87,153.91z M659.67,60.58c-5.5-0.17-10.96,0.93-15.96,3.23c-4.18,2.05-7.79,5.1-10.51,8.89
			c-2.8,4.01-4.76,8.55-5.76,13.33c-1.18,5.44-1.75,11-1.72,16.56v4.24c-0.05,5.15,0.6,10.28,1.92,15.26
			c1.15,4.39,3.21,8.49,6.06,12.02c2.85,3.44,6.49,6.14,10.6,7.88c4.93,2.01,10.23,2.97,15.55,2.83h25.05
			c4.73,0.39,8.89-3.13,9.28-7.86c0.03-0.41,0.04-0.82,0.01-1.22v-33.13c0.02-5.43-0.55-10.85-1.72-16.16
			c-1.01-4.81-2.97-9.38-5.76-13.43c-2.73-3.86-6.37-6.99-10.6-9.09c-5.15-2.38-10.79-3.52-16.46-3.33"/>
		<path id="Path_2864" class="st1" d="M745.74,144.82c2.66,0.02,5.2-1.04,7.07-2.93c1.94-1.79,3.04-4.32,3.01-6.97V5.23h13.14
			v129.69c0.01,2.54-0.5,5.05-1.51,7.37c-0.95,2.26-2.32,4.32-4.04,6.06c-1.72,1.71-3.74,3.08-5.96,4.04
			c-2.36,1.02-4.9,1.54-7.47,1.51h-25.07c-0.82,0-1.64-0.14-2.42-0.41c-0.81-0.27-1.21-0.75-1.21-1.41v-5.44
			c0-0.67,0.4-1.13,1.21-1.41c0.78-0.27,1.6-0.4,2.42-0.41L745.74,144.82z"/>
		<rect id="Rectangle_1493" x="797.87" y="5.23" class="st1" width="13.13" height="148.68"/>
		<path id="Path_2865" class="st1" d="M31.72,323.8c-3.98,0.08-7.92-0.79-11.49-2.54c-3.21-1.62-6.02-3.93-8.22-6.78
			c-2.25-2.97-3.93-6.33-4.95-9.91c-1.14-3.89-1.71-7.92-1.69-11.97c-0.07-4.4,0.6-8.77,2-12.94c1.04-3.29,2.8-6.31,5.16-8.82h1.09
			l2.79,2.9c0.48,0.66,0.66,1.5,0.48,2.3c-0.13,0.8-0.38,1.57-0.73,2.3c-1.82,4.53-2.72,9.38-2.66,14.26c0,3.15,0.34,6.3,1.02,9.37
			c0.62,2.95,1.79,5.76,3.45,8.28c1.61,2.42,3.76,4.43,6.29,5.87c2.93,1.58,6.23,2.35,9.55,2.24h55.36
			c3.26-0.03,5.89-2.67,5.93-5.93V234.8h7.98v77.63c0,1.52-0.31,3.02-0.91,4.42c-1.8,4.24-5.98,6.99-10.59,6.95H31.72z
			 M44.78,281.72v-2.9c0-0.88,0.56-1.33,1.69-1.33h1.21c-1.43-2.05-2.16-4.52-2.06-7.02c-0.07-2.95,0.92-5.82,2.79-8.1
			c2.1-2.37,5.19-3.62,8.35-3.39c1.47-0.01,2.93,0.28,4.29,0.85c1.34,0.57,2.58,1.34,3.69,2.29l-1.21,1.45
			c-0.51,1.03-1.75,1.46-2.78,0.97c-0.58-0.3-1.19-0.54-1.81-0.73c-0.71-0.18-1.44-0.26-2.18-0.24c-1.61,0-3.13,0.71-4.17,1.94
			c-1.07,1.42-1.61,3.18-1.51,4.96c-0.09,1.75,0.33,3.5,1.21,5.02c1.14,1.41,2.92,2.12,4.72,1.88h8.6v4.84H47.45
			c-0.9-0.06-1.8-0.22-2.66-0.49"/>
		<path id="Path_2866" class="st1" d="M116.38,320.41c0.16-1.37,1.04-2.06,2.66-2.06h30.47c2.21,0.13,4.38-0.61,6.05-2.06
			c1.56-1.66,2.35-3.9,2.18-6.17c0.01-2.63-0.19-5.26-0.6-7.86c-0.4-2.41-0.85-4.99-1.33-7.74c-0.83-6.21-3.55-12.02-7.8-16.63
			c-4.5-4.45-10.35-7.27-16.63-8.04c-0.52-0.14-1-0.41-1.39-0.78c-0.37-0.41-0.49-0.99-0.3-1.51c0.08-0.48,0.16-0.94,0.24-1.39
			c0.08-0.44,0.16-0.87,0.24-1.27c0.16-0.39,0.29-0.8,0.38-1.21c8.24,0.63,16.07,3.89,22.32,9.3c5.62,5.69,9.18,13.1,10.1,21.04
			c0.18,0.78,0.31,1.57,0.41,2.36c0.2,1.33,0.44,2.83,0.73,4.48s0.56,3.31,0.84,4.96c0.28,1.65,0.46,3.01,0.55,4.05
			c0.18,2.2,0.91,4.32,2.12,6.17c1.05,1.52,2.81,2.38,4.65,2.3h3.63v5.44h-2.9c-1.87-0.05-3.69-0.54-5.32-1.45
			c-1.9-1.01-3.49-2.51-4.59-4.36c-0.99,1.79-2.45,3.28-4.23,4.3c-1.85,1.02-3.94,1.54-6.05,1.51H121.7c-0.91,0-1.82-0.08-2.72-0.24
			c-0.93-0.16-1.88-0.38-2.84-0.61L116.38,320.41z"/>
		<path id="Path_2867" class="st1" d="M241.9,323.8h-67.12c-0.47-0.01-0.94-0.09-1.39-0.24c-0.52-0.16-0.78-0.44-0.78-0.84
			l0.12-3.27c0-0.4,0.24-0.69,0.73-0.84c0.43-0.15,0.88-0.23,1.33-0.24h26c-3.17-3.79-5.6-8.14-7.15-12.82
			c-2.66-7.83-2.74-16.3-0.24-24.18c1.11-3.6,2.92-6.95,5.32-9.85c2.42-2.84,5.46-5.1,8.89-6.59c3.92-1.68,8.15-2.5,12.41-2.41
			c6.85-0.09,13.49,2.37,18.62,6.89l-1.94,2.79c-0.49,0.48-0.81,0.73-0.97,0.73c-0.55,0.01-1.07-0.21-1.45-0.61
			c-4.05-2.81-8.86-4.32-13.79-4.35c-3.32-0.1-6.62,0.6-9.61,2.06c-2.54,1.3-4.73,3.19-6.4,5.5c-1.69,2.38-2.93,5.07-3.63,7.91
			c-0.78,3.08-1.17,6.25-1.15,9.43c-0.01,3.22,0.38,6.43,1.15,9.55c0.69,2.91,1.9,5.67,3.56,8.15c1.6,2.38,3.76,4.33,6.29,5.68
			c2.87,1.48,6.08,2.21,9.31,2.12h21.89V323.8z"/>
		<path id="Path_2868" class="st1" d="M275.04,323.8h-7.74c-1.52,0-3.02-0.31-4.42-0.91c-2.74-1.13-4.92-3.31-6.05-6.05
			c-0.6-1.4-0.91-2.9-0.91-4.42V234.8h7.86v77.63c-0.01,1.59,0.65,3.1,1.81,4.17c1.12,1.13,2.64,1.77,4.23,1.75h5.2L275.04,323.8z"
			/>
		<path id="Path_2869" class="st1" d="M357.39,282.81c0.12-4.73-0.79-9.44-2.66-13.79c-0.4-0.97-0.73-1.81-0.97-2.54
			c-0.23-0.77,0.06-1.6,0.73-2.06l3.51-3.27c2.35,2.84,4.17,6.08,5.38,9.55c1.31,3.9,1.94,7.98,1.88,12.09v29.27
			c-0.15,3.32,2.42,6.14,5.74,6.29c0.18,0.01,0.36,0.01,0.55,0h4.94v5.44h-3.39c-1.79-0.04-3.55-0.5-5.14-1.33
			c-1.85-0.93-3.42-2.35-4.52-4.11c-0.98,1.62-2.35,2.97-3.99,3.93c-1.72,1.01-3.69,1.53-5.69,1.51h-11.86
			c-1.85-0.04-3.67-0.49-5.32-1.33c-1.89-0.91-3.48-2.34-4.6-4.11c-0.97,1.61-2.32,2.96-3.93,3.93c-1.66,1.01-3.56,1.53-5.5,1.51
			h-11.24c-1.98-0.02-3.93-0.43-5.74-1.21c-2-0.82-3.64-2.32-4.65-4.23c-0.92,1.8-2.35,3.29-4.11,4.29
			c-1.7,0.79-3.56,1.18-5.44,1.13H272.5c-0.47-0.01-0.94-0.09-1.39-0.24c-0.52-0.14-0.78-0.42-0.78-0.82l0.12-3.26
			c0-0.4,0.24-0.69,0.73-0.85c0.43-0.15,0.88-0.23,1.33-0.24h16.45c1.59,0.01,3.11-0.62,4.23-1.75c1.17-1.07,1.83-2.59,1.81-4.18
			v-42.57h7.86v42.31c-0.05,1.65,0.59,3.25,1.75,4.41c1.2,1.18,2.83,1.81,4.52,1.75h11c1.59,0.01,3.11-0.62,4.23-1.75
			c1.17-1.07,1.83-2.59,1.81-4.17v-42.55h7.74v42.31c-0.05,1.66,0.61,3.26,1.81,4.41c1.23,1.18,2.89,1.81,4.6,1.75h11.02
			c1.59,0.01,3.12-0.62,4.24-1.75c1.17-1.07,1.82-2.59,1.81-4.17V282.81z"/>
		<path id="Path_2870" class="st1" d="M375.41,323.8c-0.47-0.01-0.94-0.09-1.39-0.24c-0.52-0.17-0.78-0.44-0.78-0.85v-3.26
			c0.1-0.42,0.42-0.75,0.84-0.85c0.43-0.15,0.88-0.23,1.33-0.24h16.33c1.61,0.03,3.16-0.6,4.29-1.75c1.14-1.09,1.77-2.6,1.75-4.17
			v-48.97h7.86v48.98c0.05,3.01-1.13,5.92-3.26,8.05c-2.12,2.19-5.06,3.39-8.1,3.32L375.41,323.8z M401.65,247.26
			c-1.45,0.03-2.85-0.54-3.87-1.57c-1.02-0.98-1.59-2.35-1.57-3.76c-0.04-2.96,2.33-5.4,5.29-5.44c0.05,0,0.1,0,0.15,0
			c1.37,0,2.69,0.57,3.63,1.57c1.03,1.02,1.6,2.42,1.57,3.87c0.02,1.42-0.55,2.78-1.57,3.76
			C404.34,246.69,403.02,247.25,401.65,247.26"/>
		<path id="Path_2871" class="st1" d="M470.34,323.8h-7.74c-1.52,0-3.02-0.31-4.42-0.91c-2.74-1.13-4.92-3.31-6.05-6.05
			c-0.6-1.4-0.91-2.9-0.91-4.42V234.8h7.87v77.63c-0.01,1.59,0.65,3.1,1.81,4.17c1.12,1.13,2.64,1.77,4.23,1.75h5.2L470.34,323.8z"
			/>
		<path id="Path_2872" class="st1" d="M467.8,323.8c-0.47-0.01-0.94-0.09-1.39-0.24c-0.52-0.17-0.79-0.44-0.79-0.85v-3.26
			c0-0.4,0.26-0.69,0.79-0.85c0.45-0.15,0.92-0.23,1.39-0.24h16.43c3.26-0.04,5.89-2.67,5.93-5.93v-48.97h7.98v48.61
			c-0.15,3.32,2.42,6.14,5.74,6.29c0.18,0.01,0.36,0.01,0.55,0h4.96v5.44H506c-2-0.04-3.96-0.6-5.68-1.63
			c-2.01-1.17-3.61-2.92-4.6-5.02c-0.91,2-2.33,3.73-4.11,5.02c-1.49,1.05-3.26,1.62-5.08,1.63H467.8z M494.15,247.26
			c-1.45,0.03-2.85-0.54-3.87-1.57c-1.02-0.98-1.59-2.35-1.57-3.76c-0.04-2.96,2.33-5.4,5.29-5.44c0.05,0,0.1,0,0.15,0
			c1.37,0,2.69,0.57,3.63,1.57c1.03,1.02,1.6,2.42,1.57,3.87c0.02,1.42-0.55,2.78-1.57,3.76
			C496.84,246.69,495.52,247.26,494.15,247.26"/>
		<path id="Path_2873" class="st1" d="M575.43,323.8h-67.12c-0.47-0.01-0.94-0.09-1.39-0.24c-0.52-0.16-0.78-0.44-0.78-0.84
			l0.12-3.27c0-0.4,0.24-0.69,0.73-0.84c0.43-0.15,0.88-0.23,1.33-0.24h26c-3.16-3.79-5.58-8.14-7.12-12.83
			c-2.66-7.83-2.74-16.3-0.24-24.18c1.11-3.6,2.92-6.95,5.32-9.85c2.42-2.84,5.46-5.1,8.89-6.59c3.91-1.67,8.13-2.49,12.39-2.41
			c6.85-0.09,13.49,2.37,18.62,6.89l-1.94,2.79c-0.49,0.48-0.81,0.73-0.97,0.73c-0.55,0.01-1.07-0.21-1.45-0.61
			c-4.05-2.81-8.86-4.32-13.79-4.35c-3.32-0.1-6.62,0.6-9.61,2.06c-2.54,1.3-4.73,3.19-6.4,5.5c-1.69,2.38-2.93,5.07-3.63,7.91
			c-0.78,3.08-1.17,6.25-1.15,9.43c-0.01,3.22,0.38,6.43,1.15,9.55c0.7,2.91,1.9,5.68,3.57,8.17c1.6,2.38,3.76,4.33,6.29,5.68
			c2.87,1.48,6.08,2.21,9.31,2.12h21.89L575.43,323.8z"/>
		<path id="Path_2874" class="st1" d="M590.66,323.8c-0.91,0-1.82-0.08-2.72-0.24c-0.93-0.16-1.84-0.38-2.72-0.61l0.12-2.54
			c0.16-1.37,1.05-2.06,2.66-2.06h30.49c2.24,0.12,4.44-0.62,6.17-2.06c1.63-1.62,2.47-3.87,2.3-6.17c0.01-2.51-0.2-5.02-0.6-7.5
			c-0.41-2.42-0.85-5-1.33-7.74c-0.83-6.23-3.56-12.05-7.8-16.69c-4.48-4.48-10.34-7.33-16.63-8.1c-0.52-0.06-1.01-0.29-1.39-0.66
			c-0.37-0.41-0.49-0.99-0.3-1.51l0.24-1.45c0.08-0.49,0.16-0.93,0.24-1.33c0.16-0.39,0.29-0.8,0.38-1.21
			c8.24,0.63,16.06,3.9,22.31,9.32c5.62,5.69,9.18,13.09,10.1,21.04c0.08,0.77,0.21,1.54,0.38,2.3c0.25,1.3,0.49,2.75,0.73,4.36
			c0.23,1.61,0.45,3.24,0.66,4.89c0.18,1.34,0.28,2.7,0.3,4.05c0.24,3.76-1.02,7.45-3.5,10.28c-2.34,2.42-5.59,3.74-8.95,3.63
			L590.66,323.8z"/>
		<path id="Path_2875" class="st1" d="M785.48,323.8h-3.39c-1.77-0.04-3.51-0.5-5.07-1.33c-1.81-0.92-3.35-2.3-4.48-3.99
			c-2.27,3.13-5.82,5.08-9.67,5.32H707c-10.08,0-17.65-2.66-22.73-7.98c-5.46-6.41-8.2-14.7-7.62-23.1
			c-0.02-4.15,0.62-8.27,1.88-12.22c1.1-3.6,2.93-6.93,5.38-9.79h0.61l3.01,3.01c0.39,0.38,0.63,0.9,0.66,1.45
			c0.04,0.59-0.02,1.18-0.18,1.75c-0.17,0.62-0.39,1.23-0.66,1.81c-0.25,0.53-0.48,1.08-0.67,1.63c-0.65,1.89-1.14,3.83-1.45,5.81
			c-0.33,2.12-0.49,4.26-0.49,6.4c0,3.15,0.34,6.3,1.02,9.37c0.62,2.94,1.77,5.75,3.39,8.28c1.58,2.42,3.71,4.44,6.23,5.87
			c2.93,1.58,6.23,2.35,9.55,2.24h55.51c3.26-0.03,5.89-2.67,5.93-5.93V234.8h7.86v77.27c-0.15,3.32,2.42,6.14,5.74,6.29
			c0.18,0.01,0.36,0.01,0.54,0h4.96L785.48,323.8z M716.07,281.72v-2.9c0-0.88,0.56-1.33,1.69-1.33h1.21
			c-1.43-2.05-2.16-4.52-2.06-7.02c-0.07-2.95,0.92-5.82,2.79-8.1c2.1-2.37,5.19-3.62,8.35-3.39c1.47-0.01,2.93,0.28,4.29,0.85
			c1.34,0.57,2.58,1.34,3.69,2.29c-0.08,0.08-0.28,0.33-0.6,0.73c-0.32,0.4-0.53,0.65-0.61,0.73c-0.51,1.03-1.74,1.46-2.78,0.97
			c-0.58-0.3-1.19-0.54-1.81-0.73c-0.71-0.18-1.44-0.26-2.18-0.24c-1.61,0-3.13,0.71-4.17,1.94c-1.07,1.42-1.61,3.18-1.51,4.96
			c-0.09,1.75,0.33,3.5,1.21,5.02c1.14,1.41,2.92,2.12,4.72,1.88h8.58v4.84h-18.14c-0.9-0.06-1.8-0.22-2.66-0.49"/>
		<path id="Path_2876" class="st1" d="M797.09,318.36c1.59,0.01,3.12-0.62,4.23-1.75c1.17-1.07,1.83-2.59,1.81-4.17V234.8h7.86
			v77.63c0,1.52-0.31,3.02-0.91,4.42c-0.57,1.35-1.39,2.58-2.42,3.63c-1.03,1.02-2.24,1.84-3.57,2.42
			c-1.41,0.61-2.94,0.92-4.48,0.91h-14.99c-0.49,0-0.98-0.08-1.45-0.24c-0.49-0.16-0.73-0.44-0.73-0.84v-3.27
			c0-0.4,0.24-0.69,0.73-0.84c0.47-0.16,0.96-0.24,1.45-0.24L797.09,318.36z"/>
		<path id="Path_2877" class="st1" d="M54.38,578.98c-7.38,0.16-14.7-1.43-21.35-4.64c-5.98-3-11.2-7.32-15.25-12.65
			c-4.18-5.57-7.31-11.84-9.26-18.52c-2.14-7.22-3.21-14.71-3.16-22.23c0-3.94,0.34-7.86,1.02-11.74c0.65-3.79,1.59-7.53,2.82-11.18
			c1.13-3.36,2.49-6.65,4.07-9.83c1.37-2.8,3.04-5.45,4.97-7.91h2.03l5.42,5.42c0.87,0.69,1.4,1.72,1.47,2.82
			c0.06,1.19-0.13,2.39-0.56,3.5c-4.05,9.1-6.13,18.95-6.1,28.91c0,5.85,0.64,11.69,1.92,17.4c1.17,5.47,3.35,10.68,6.44,15.35
			c3.01,4.52,7.03,8.27,11.74,10.96c5.4,2.93,11.48,4.37,17.62,4.18h101.65c3.26,0.08,6.4-1.18,8.7-3.5
			c2.25-2.15,3.52-5.13,3.5-8.24c0.17-1.39,0.24-2.78,0.23-4.18v-11.4c-2.17,1.74-4.61,3.11-7.23,4.06
			c-2.18,0.74-4.47,1.12-6.78,1.13h-24.16c-7.72,0.13-15.4-1.25-22.59-4.06c-6.42-2.57-12.2-6.5-16.94-11.52
			c-4.78-5.16-8.4-11.28-10.61-17.96c-4.78-15.06-4.82-31.22-0.11-46.31c2.16-6.7,5.65-12.88,10.28-18.18
			c4.65-5.22,10.4-9.34,16.83-12.08c7.33-3.06,15.21-4.56,23.15-4.4c7.74-0.13,15.43,1.32,22.59,4.29
			c6.39,2.7,12.13,6.75,16.83,11.86c4.72,5.27,8.29,11.46,10.5,18.18c2.48,7.58,3.7,15.52,3.61,23.5v67.53
			c0.03,2.86-0.51,5.7-1.58,8.36c-1.04,2.54-2.58,4.84-4.52,6.78c-1.95,1.95-4.25,3.52-6.78,4.63c-2.64,1.14-5.48,1.72-8.36,1.69
			H54.38z M161.22,536.52c6.08-0.06,11-4.98,11.07-11.06V490c0.01-6.03-0.59-12.05-1.8-17.96c-1.06-5.44-3.17-10.62-6.21-15.25
			c-2.99-4.42-7.02-8.02-11.74-10.5c-5.71-2.82-12.04-4.18-18.41-3.96c-6.2-0.19-12.35,1.09-17.96,3.72
			c-4.74,2.35-8.81,5.84-11.86,10.16c-3.12,4.54-5.34,9.64-6.55,15.02c-1.39,6.07-2.08,12.29-2.03,18.52
			c-0.03,6.04,0.61,12.06,1.92,17.95c1.15,5.35,3.34,10.41,6.44,14.91c3.04,4.32,7.12,7.82,11.86,10.16
			c5.68,2.65,11.91,3.93,18.18,3.72L161.22,536.52z M115.81,403.72c-2.71,0.06-5.33-1-7.23-2.94c-1.9-1.83-2.97-4.36-2.93-7
			c-0.08-5.54,4.35-10.09,9.88-10.16c0.09,0,0.19,0,0.28,0c2.57,0,5.02,1.07,6.78,2.94c1.93,1.9,2.99,4.52,2.93,7.23
			c0.03,2.64-1.03,5.17-2.93,7C120.83,402.65,118.38,403.71,115.81,403.72 M149.47,403.72c-5.43,0.18-9.98-4.08-10.16-9.51
			c0-0.14-0.01-0.29,0-0.43c-0.07-2.69,0.95-5.3,2.82-7.23c1.92-1.97,4.59-3.04,7.34-2.94c2.57,0,5.02,1.07,6.78,2.94
			c1.93,1.9,3,4.52,2.94,7.23c0.03,2.64-1.03,5.17-2.94,7C154.49,402.65,152.03,403.72,149.47,403.72"/>
		<path id="Path_2878" class="st1" d="M327.21,546.69h-3.39c-4.11-0.04-8.16-1.01-11.85-2.82c-3.92-1.82-7.14-4.87-9.15-8.7
			c-5.12,7.68-11.07,11.52-17.84,11.52h-64.59c-1.89-0.02-3.78-0.17-5.65-0.45c-1.9-0.26-3.79-0.64-5.65-1.13
			c-0.01-0.68,0.07-1.37,0.23-2.03c0-0.64,0.04-1.28,0.11-1.92c0.07-0.56,0.11-1.13,0.12-1.7c0.15-1.06,0.9-1.94,1.92-2.26
			c1.19-0.46,2.45-0.69,3.72-0.68h65.27c6.09-0.06,11-4.98,11.07-11.07v-145h14.91v144.56c-0.09,3.1,1.14,6.1,3.39,8.24
			c2.16,2.14,5.09,3.32,8.13,3.28h9.26V546.69z M247.48,511.68H232.8V408.01h14.68V511.68z"/>
		<path id="Path_2879" class="st1" d="M364.03,536.52V380.46h14.68v77.24c3.19-3.78,6.83-7.16,10.84-10.05
			c4.33-3.16,8.99-5.84,13.89-8.02c5.24-2.32,10.68-4.14,16.26-5.42c5.89-1.36,11.91-2.04,17.96-2.03
			c8.37-0.17,16.69,1.28,24.5,4.29c6.68,2.64,12.67,6.77,17.5,12.08c4.75,5.34,8.32,11.61,10.5,18.41c2.4,7.52,3.58,15.37,3.5,23.26
			v34.56c-0.29,6.19,4.49,11.45,10.69,11.74c0.35,0.02,0.7,0.02,1.06,0h8.81v10.16h-5.87c-3.3-0.07-6.54-0.88-9.49-2.37
			c-3.44-1.69-6.33-4.31-8.35-7.57c-5.72,6.63-11.75,9.94-18.07,9.94H325.61c-0.88-0.02-1.76-0.17-2.6-0.45
			c-0.98-0.3-1.47-0.83-1.47-1.58v-6.1c0.18-0.79,0.8-1.4,1.58-1.58c0.8-0.28,1.64-0.44,2.48-0.46L364.03,536.52z M467.7,536.52
			c2.97,0.02,5.82-1.16,7.91-3.28c2.18-2,3.41-4.83,3.39-7.79v-35.24c0-5.97-0.72-11.93-2.15-17.73
			c-1.34-5.61-3.84-10.88-7.34-15.47c-3.68-4.69-8.45-8.41-13.89-10.84c-6.88-2.92-14.32-4.31-21.79-4.06
			c-6.22-0.06-12.42,0.78-18.41,2.48c-5.34,1.53-10.49,3.65-15.36,6.32c-4.36,2.4-8.48,5.2-12.31,8.36
			c-3.22,2.63-6.24,5.5-9.04,8.58v68.66H467.7z"/>
		<path id="Path_2880" class="st1" d="M512.41,546.68c-0.88-0.02-1.76-0.17-2.6-0.45c-0.98-0.3-1.47-0.83-1.47-1.58v-6.1
			c0.18-0.78,0.8-1.4,1.58-1.58c0.8-0.28,1.64-0.44,2.48-0.46h30.49c3.01,0.06,5.91-1.12,8.02-3.28c2.12-2.03,3.31-4.85,3.28-7.79
			v-91.48h14.68v91.48c0.1,5.63-2.1,11.05-6.1,15.02c-3.95,4.09-9.44,6.35-15.13,6.21H512.41z M561.42,403.72
			c-2.71,0.06-5.33-1-7.23-2.94c-1.9-1.83-2.97-4.36-2.94-7c-0.07-5.54,4.36-10.09,9.9-10.16c0.09,0,0.18,0,0.27,0
			c2.57,0,5.02,1.07,6.78,2.94c1.93,1.9,3,4.52,2.94,7.23c0.03,2.64-1.03,5.17-2.94,7C566.44,402.65,563.99,403.72,561.42,403.72"/>
		<path id="Path_2881" class="st1" d="M605.24,546.69c-3.89-0.04-7.76-0.57-11.52-1.58c0-0.3,0.03-1.05,0.11-2.26
			c0.08-1.21,0.19-2.33,0.34-3.39c0.1-1.14,0.92-2.1,2.04-2.37c1.24-0.38,2.54-0.57,3.84-0.56h65.04
			c6.09-0.06,11.01-4.98,11.07-11.07v-145h14.91v141.84c0,1.36-0.08,2.79-0.23,4.29c-0.56,11.3-9.92,20.16-21.23,20.1H605.24z
			 M632.12,511.45h-14.68V407.79h14.68V511.45z"/>
		<path id="Path_2882" class="st1" d="M759.27,546.69h-14.45c-2.84,0.01-5.64-0.57-8.24-1.69c-5.12-2.11-9.19-6.17-11.29-11.29
			c-1.12-2.6-1.7-5.41-1.69-8.24v-145h14.68v145c-0.02,2.96,1.21,5.79,3.39,7.79c2.09,2.11,4.94,3.29,7.91,3.28h9.71L759.27,546.69z
			"/>
		<path id="Path_2883" class="st1" d="M754.53,546.69c-0.88-0.02-1.76-0.17-2.6-0.45c-0.98-0.3-1.39-0.82-1.25-1.58v-6.1
			c0-0.75,0.45-1.28,1.36-1.58c0.87-0.3,1.79-0.45,2.71-0.45h30.26c3.01,0.06,5.91-1.12,8.02-3.28c2.12-2.03,3.31-4.85,3.28-7.79
			v-91.25h14.68v91.25c0.1,5.63-2.1,11.05-6.1,15.02c-3.95,4.1-9.44,6.35-15.13,6.21L754.53,546.69z M801.06,590.05
			c-2.71,0.06-5.33-1-7.23-2.93c-1.9-1.83-2.97-4.37-2.94-7.01c-0.07-5.54,4.36-10.09,9.9-10.16c0.09,0,0.18,0,0.27,0
			c2.64-0.03,5.18,1.03,7.01,2.94c1.93,1.9,2.99,4.52,2.93,7.22C810.95,585.58,806.53,590,801.06,590.05"/>
	</g>
</g>
</svg>
