<?xml version="1.0" encoding="utf-8"?>
<!-- Generator: Adobe Illustrator 27.3.1, SVG Export Plug-In . SVG Version: 6.00 Build 0)  -->
<svg version="1.1" id="Layer_1" xmlns="http://www.w3.org/2000/svg" xmlns:xlink="http://www.w3.org/1999/xlink" x="0px" y="0px"
	 viewBox="0 0 816.36 56" style="enable-background:new 0 0 816.36 56;" xml:space="preserve">
<style type="text/css">
	.st0{fill:#FFFFFF;}
	.st1{fill:#B2B1B2;}
</style>
<g>
	<g id="Group_4534" transform="translate(264 45)">
		<g id="Group_4529" transform="translate(0 0)">
			<path id="Path_1750" class="st0" d="M285.28,0.94l-11.68-8.64l-11.69,8.64l4.61-13.77l-11.83-8.44l14.54,0.12l4.37-13.86
				l4.37,13.86l14.54-0.12l-11.83,8.44L285.28,0.94z"/>
		</g>
		<g id="Group_4530" transform="translate(20.318 0)">
			<path id="Path_1756" class="st1" d="M300.71-35.02l4.37,13.86l14.54-0.12l-11.83,8.44l4.61,13.77l-11.69-8.64l-11.68,8.64
				l4.61-13.77l-11.83-8.44l14.54,0.12L300.71-35.02z"/>
		</g>
		<g id="Group_4531" transform="translate(40.639 0)">
			<path id="Path_1750-2" class="st0" d="M339.52,0.94l-11.68-8.64l-11.69,8.64l4.61-13.77l-11.83-8.44l14.54,0.12l4.37-13.86
				l4.37,13.86l14.54-0.12l-11.83,8.44L339.52,0.94z"/>
		</g>
		<g id="Group_4532" transform="translate(60.957 0)">
			<path id="Path_1756-2" class="st1" d="M354.95-35.02l4.37,13.86l14.54-0.12l-11.83,8.44l4.61,13.77l-11.69-8.64l-11.68,8.64
				l4.61-13.77l-11.83-8.44l14.54,0.12L354.95-35.02z"/>
		</g>
		<g id="Group_4533" transform="translate(81.279 0)">
			<path id="Path_1750-3" class="st0" d="M393.75,0.94l-11.68-8.64l-11.69,8.64l4.61-13.77l-11.83-8.44l14.54,0.12l4.37-13.86
				l4.37,13.86l14.54-0.12l-11.83,8.44L393.75,0.94z"/>
		</g>
	</g>
	<g id="Group_4535" transform="translate(15 45)">
		<g id="Group_4529-2" transform="translate(0 0)">
			<path id="Path_1750-4" class="st0" d="M85.7,0.94L74.02-7.69L62.33,0.94l4.61-13.77l-11.83-8.44l14.54,0.12l4.37-13.86
				l4.37,13.86l14.54-0.12l-11.83,8.44L85.7,0.94z"/>
		</g>
		<g id="Group_4530-2" transform="translate(20.318 0)">
			<path id="Path_1756-3" class="st1" d="M101.13-35.02l4.37,13.86l14.54-0.12l-11.83,8.44l4.61,13.77l-11.69-8.64L89.45,0.93
				l4.61-13.77l-11.83-8.44l14.54,0.12L101.13-35.02z"/>
		</g>
		<g id="Group_4531-2" transform="translate(40.639 0)">
			<path id="Path_1750-5" class="st0" d="M139.94,0.94l-11.68-8.64l-11.69,8.64l4.61-13.77l-11.83-8.44l14.54,0.12l4.37-13.86
				l4.37,13.86l14.54-0.12l-11.83,8.44L139.94,0.94z"/>
		</g>
		<g id="Group_4532-2" transform="translate(60.957 0)">
			<path id="Path_1756-4" class="st1" d="M155.37-35.02l4.37,13.86l14.54-0.12l-11.83,8.44l4.61,13.77l-11.69-8.64l-11.68,8.64
				l4.61-13.77l-11.83-8.44L151-21.16L155.37-35.02z"/>
		</g>
		<g id="Group_4533-2" transform="translate(81.279 0)">
			<path id="Path_1750-6" class="st0" d="M194.18,0.94l-11.68-8.64l-11.69,8.64l4.61-13.77l-11.83-8.44l14.54,0.12l4.37-13.86
				l4.37,13.86l14.54-0.12l-11.83,8.44L194.18,0.94z"/>
		</g>
	</g>
	<g>
		<path id="Path_2798" class="st0" d="M324.12,52.06c-2.59,0.09-5.08-1.07-6.68-3.11c-1.67-2.07-2.51-4.94-2.51-8.6
			c-0.07-3.68,0.57-7.33,1.87-10.77h3.79c-1.15,3.47-1.68,7.12-1.56,10.77c-0.13,2.12,0.42,4.22,1.56,6.01
			c1.01,1.41,2.66,2.21,4.39,2.13h2.23c5.11,0,7.67-2.42,7.67-7.27V22.49h3.88v9.97c-0.05,1.35,0.45,2.67,1.39,3.65
			c0.94,0.95,2.24,1.46,3.58,1.42h2.83V22.49h3.88v9.97c-0.05,1.35,0.45,2.67,1.39,3.65c0.95,0.95,2.26,1.47,3.6,1.42h2.83V18.95
			h3.88v13.96c-0.06,1.24,0.39,2.46,1.24,3.37c0.87,0.85,2.06,1.3,3.28,1.25h0.71v3.57h-0.13c-2.56,0-4.26-0.87-5.11-2.61v2.61
			h-6.58c-2.54,0-4.25-0.87-5.13-2.61v2.61h-6.56c-2.54,0-4.25-0.87-5.13-2.61v2.43c0,7.43-3.79,11.15-11.37,11.15L324.12,52.06z"/>
		<path id="Path_2799" class="st0" d="M388,33.15c-0.06,1.19,0.4,2.35,1.25,3.19c0.89,0.81,2.07,1.23,3.28,1.18h0.74v3.57h-0.13
			c-2.57,0-4.28-0.87-5.13-2.61v2.61h-21.49v-3.57h17.62v-8.41c0-4.42-2.8-6.62-8.41-6.62h-5.93v-3.73
			c1.62-3.31,3.86-6.28,6.61-8.73c2.75-2.61,5.96-4.68,9.47-6.12l1.45,3.48c-2.99,1.23-5.78,2.92-8.24,5.02
			c-2.26,1.78-4.13,4.01-5.5,6.53h2.15c3.89,0,6.92,0.81,9.06,2.43c2.18,1.68,3.38,4.32,3.22,7.07L388,33.15z"/>
		<path id="Path_2800" class="st0" d="M392.35,37.52h6.24V18.95h4.06v22.14h-10.3L392.35,37.52z M400.6,9.63
			c1.58,0,2.36,0.85,2.36,2.56c0,1.69-0.79,2.54-2.36,2.54c-1.58,0-2.36-0.85-2.36-2.54C398.24,10.48,399.03,9.63,400.6,9.63"/>
		<rect id="Rectangle_1488" x="410.41" y="6.39" class="st0" width="4.06" height="34.7"/>
		<path id="Path_2801" class="st0" d="M429.68,42.18c0.15,2.59-0.6,5.15-2.12,7.25c-1.48,1.78-3.71,2.76-6.02,2.63
			c-2.26,0.03-4.46-0.75-6.2-2.21l1.83-2.79c1.23,0.94,2.74,1.44,4.28,1.43c1.28,0.03,2.49-0.6,3.2-1.67
			c0.85-1.31,1.27-2.85,1.19-4.41V18.95h3.84v14.2c-0.06,1.19,0.4,2.35,1.25,3.19c0.89,0.81,2.07,1.23,3.28,1.18h0.71v3.57h-0.13
			c-2.56,0-4.26-0.87-5.11-2.61L429.68,42.18z"/>
		<path id="Path_2802" class="st0" d="M434.03,37.52h6.25V18.95h4.06v14.2c-0.06,1.19,0.39,2.35,1.24,3.19
			c0.9,0.81,2.08,1.24,3.29,1.18h1.65v3.57h-1.05c-2.54,0-4.25-0.87-5.13-2.61v2.61h-10.3L434.03,37.52z M438.45,42.81
			c1.59,0,2.39,0.85,2.39,2.56c0,1.69-0.8,2.54-2.39,2.54c-1.58,0-2.36-0.85-2.36-2.54C436.08,43.66,436.87,42.81,438.45,42.81
			 M445.45,42.81c1.58,0,2.36,0.85,2.36,2.56c0,1.69-0.79,2.54-2.36,2.54c-1.59,0-2.39-0.85-2.39-2.54
			C443.06,43.66,443.86,42.81,445.45,42.81"/>
		<path id="Path_2803" class="st0" d="M449.59,37.52h6.24V18.95h4.06v22.14h-10.3L449.59,37.52z M457.84,9.63
			c1.58,0,2.36,0.85,2.36,2.56c0,1.69-0.79,2.54-2.36,2.54s-2.36-0.85-2.36-2.54C455.48,10.48,456.27,9.63,457.84,9.63"/>
		<path id="Path_2804" class="st0" d="M485.05,37.52h3.99v3.57h-3.99v1.09c0.16,2.71-0.85,5.35-2.76,7.27
			c-2.16,1.85-4.95,2.79-7.78,2.61c-2.91,0.04-5.76-0.77-8.21-2.34l1.83-3.05c1.98,1.11,4.2,1.74,6.47,1.83
			c1.76,0.1,3.5-0.49,4.84-1.64c1.21-1.15,1.87-2.78,1.78-4.45v-1.32h-4.46c-2.77,0.17-5.49-0.8-7.53-2.69
			c-1.78-1.79-2.66-4.37-2.66-7.73c-0.16-3.23,1.09-6.36,3.43-8.58c2.51-2.18,5.76-3.3,9.08-3.14h5.98L485.05,37.52z M479.21,22.49
			c-2.32-0.15-4.6,0.63-6.34,2.16c-1.55,1.59-2.37,3.76-2.24,5.98c0,4.59,2.09,6.89,6.27,6.89h4.28V22.49L479.21,22.49z"/>
		<path id="Path_2805" class="st0" d="M487.66,13.99l1.32-1.92c0.96,0.68,2.08,1.07,3.26,1.14c0.77,0.01,1.54-0.09,2.27-0.31
			c-0.89-1.1-1.4-2.46-1.45-3.88c-0.04-1.04,0.37-2.05,1.14-2.75c0.82-0.71,1.88-1.08,2.97-1.04c1.06-0.05,2.09,0.32,2.87,1.04
			c0.7,0.67,1.08,1.61,1.06,2.58c-0.1,1.85-1.07,3.55-2.61,4.58c-1.75,1.39-3.92,2.13-6.15,2.08
			C490.64,15.51,489.01,14.98,487.66,13.99 M496.51,12.12c1.29-0.5,2.15-1.72,2.21-3.1c0.1-0.79-0.45-1.51-1.24-1.61
			c-0.14-0.02-0.27-0.02-0.41,0.01c-1.13,0-1.69,0.61-1.69,1.83C495.44,10.3,495.83,11.3,496.51,12.12"/>
		<path id="Path_2806" class="st0" d="M488.13,37.52h6.24V18.95h4.06v22.14h-10.3L488.13,37.52z M492.07,42.81
			c1.59,0,2.39,0.85,2.39,2.56c0,1.69-0.8,2.54-2.39,2.54c-1.58,0-2.36-0.85-2.36-2.54C489.71,43.66,490.5,42.81,492.07,42.81
			 M499.07,42.81c1.58,0,2.36,0.85,2.36,2.56c0,1.69-0.79,2.54-2.36,2.54c-1.59,0-2.39-0.85-2.39-2.54
			C496.69,43.66,497.48,42.81,499.07,42.81"/>
	</g>
</g>
</svg>
