<?xml version="1.0" encoding="utf-8"?>
<!-- Generator: Adobe Illustrator 27.3.1, SVG Export Plug-In . SVG Version: 6.00 Build 0)  -->
<svg version="1.1" id="Layer_1" xmlns="http://www.w3.org/2000/svg" xmlns:xlink="http://www.w3.org/1999/xlink" x="0px" y="0px"
	 viewBox="0 0 283.26 86.52" style="enable-background:new 0 0 283.26 86.52;" xml:space="preserve">
<style type="text/css">
	.st0{clip-path:url(#SVGID_00000123432430348256931570000008813287774306191251_);}
	.st1{fill:#FFFFFF;}
	.st2{fill:#B2B1B2;}
</style>
<g>
	<defs>
		<rect id="SVGID_1_" x="3.13" y="1.31" width="277" height="83.89"/>
	</defs>
	<clipPath id="SVGID_00000031923431754179816980000001698734906691526804_">
		<use xlink:href="#SVGID_1_"  style="overflow:visible;"/>
	</clipPath>
	<g id="Group_6174-2" style="clip-path:url(#SVGID_00000031923431754179816980000001698734906691526804_);">
		<path id="Path_2785" class="st1" d="M234.37,33.25c-0.45,0.17-0.94,0.35-0.94,1.39v11.03c0,7.86-6.61,9.74-10.96,9.74
			c-4.77,0-11.27-0.56-11.27-8.8V35.16c0.03-0.74-0.36-1.44-1.01-1.81l-1.84-0.73c0-0.71,0.04-1.42,0.14-2.12h12.07
			c0.09,0.76,0.12,1.53,0.07,2.3l-2.33,0.42c-0.53,0.02-0.93,0.46-0.91,0.99c0,0.04,0.01,0.08,0.01,0.12v11.34
			c0,5.43,3.72,6.26,6.47,6.26c2.54,0,5.22-1.18,5.22-7.1v-9.39c0.03-1.16-0.8-2.17-1.95-2.37l-1.5-0.45
			c-0.04-0.71-0.03-1.42,0.03-2.12h10.3c0.11,0.72,0.16,1.46,0.14,2.19L234.37,33.25z"/>
		<path id="Path_2786" class="st1" d="M264.54,55.93c-3.06,0.28-6.09,0-9.01-2.47c-2.05-1.7-3.86-4.84-5.32-8.14l-0.73,0.04h-2.75
			l0.1,5.5c0,0.7,0.14,1.04,0.73,1.22l2.16,0.73c0.02,0.77-0.03,1.54-0.14,2.3h-11.82c-0.08-0.72-0.12-1.44-0.1-2.16l1.67-0.38
			c0.86-0.37,1.4-1.23,1.36-2.16l0.1-4.8V34.95c0.02-0.59-0.31-1.13-0.84-1.39l-2.26-0.9c-0.04-0.72,0.02-1.45,0.17-2.16h13.64
			c4.91,0,9.39,1.91,9.39,7.06c-0.11,2.79-1.76,5.3-4.28,6.5c0.89,1.94,1.97,3.78,3.24,5.5c1.36,1.78,2.96,3.24,4.87,3.62
			L264.54,55.93z M254.31,38.15c0-3.17-2.19-4.59-6.09-4.59h-1.53v8.94l2.54-0.04c3.69-0.04,5.04-1.29,5.04-4.31L254.31,38.15z"/>
		<path id="Path_2787" class="st1" d="M236.55,12.14h-0.05c-17.19,0.01-31.11,13.96-31.1,31.14c0.01,17.19,13.96,31.11,31.14,31.1
			c17.19-0.01,31.11-13.96,31.1-31.14C267.64,26.07,253.72,12.15,236.55,12.14 M255.12,20.48c-2.05,0.56-4.13,1.01-6.24,1.34
			c-1.36-2.79-3.3-5.25-5.7-7.22C247.56,15.62,251.65,17.64,255.12,20.48 M237.38,13.9c3.66,0.4,7.11,3.36,9.73,8.19
			c-3.23,0.42-6.47,0.64-9.73,0.67V13.9z M229.88,14.6c-2.4,1.97-4.34,4.43-5.7,7.22c-2.1-0.33-4.18-0.78-6.24-1.34
			C221.42,17.63,225.51,15.62,229.88,14.6 M235.68,13.9v8.86c-3.25-0.03-6.5-0.25-9.73-0.67C228.58,17.25,232.02,14.29,235.68,13.9
			 M217.94,66.04c2.05-0.56,4.13-1.01,6.24-1.34c1.36,2.79,3.3,5.25,5.7,7.22C225.5,70.9,221.42,68.89,217.94,66.04 M235.68,72.63
			c-3.66-0.4-7.11-3.36-9.73-8.19c3.23-0.42,6.47-0.64,9.73-0.67V72.63z M243.18,71.92c2.4-1.97,4.34-4.43,5.7-7.22
			c2.1,0.33,4.18,0.77,6.24,1.34C251.64,68.89,247.56,70.9,243.18,71.92 M237.38,72.63v-8.86c3.25,0.03,6.5,0.25,9.73,0.67
			C244.49,69.27,241.04,72.23,237.38,72.63 M256.64,64.71c-2.29-0.69-4.62-1.22-6.98-1.61c0.73-1.61,1.34-3.28,1.84-4.97h-1.78
			c-0.49,1.61-1.09,3.18-1.8,4.7c-3.49-0.48-7.01-0.74-10.54-0.76v-3.93h-1.7v3.94c-3.52,0.03-7.04,0.28-10.53,0.76
			c-0.71-1.52-1.31-3.09-1.8-4.7h-1.78c0.5,1.7,1.11,3.36,1.84,4.97c-2.36,0.38-4.69,0.92-6.98,1.61
			c-11.85-11.08-12.47-29.66-1.39-41.51c0.45-0.48,0.91-0.94,1.39-1.39c2.29,0.68,4.62,1.22,6.98,1.6
			c-0.73,1.61-1.34,3.27-1.84,4.97h1.78c0.49-1.61,1.09-3.18,1.8-4.7c3.49,0.48,7.01,0.74,10.53,0.76v3.93h1.7v-3.93
			c3.52-0.03,7.04-0.29,10.54-0.77c0.71,1.52,1.31,3.09,1.8,4.7h1.78c-0.5-1.7-1.11-3.36-1.84-4.97c2.36-0.38,4.69-0.92,6.98-1.6
			c11.85,11.08,12.47,29.66,1.39,41.51C257.58,63.8,257.12,64.26,256.64,64.71"/>
		<path id="Path_2788" class="st1" d="M201.87,41.89l-2.8,2l1.09,3.26l-2.76-2.04l-2.76,2.04l1.09-3.26l-2.8-2l3.44,0.03l1.03-3.28
			l1.03,3.28L201.87,41.89z"/>
		<path id="Path_2789" class="st2" d="M209.44,65.92l-2.8,2l1.09,3.26l-2.76-2.04l-2.76,2.04l1.09-3.26l-2.8-2l3.44,0.03l1.03-3.28
			l1.03,3.28L209.44,65.92z"/>
		<path id="Path_2790" class="st1" d="M227.05,9.81l-2.76-2.04l-2.76,2.04l1.09-3.26l-2.8-2l3.44,0.03l1.04-3.27l1.03,3.28
			l3.44-0.03l-2.8,2L227.05,9.81z"/>
		<path id="Path_2791" class="st1" d="M265.33,23.85l1.09-3.26l-2.8-2l3.44,0.03l1.03-3.28l1.03,3.28l3.44-0.03l-2.8,2l1.09,3.26
			l-2.76-2.04L265.33,23.85z"/>
		<path id="Path_2792" class="st1" d="M263.81,64.59l3.44,0.03l1.03-3.28l1.03,3.28l3.44-0.03l-2.8,2l1.09,3.26l-2.76-2.04
			l-2.76,2.04l1.09-3.26L263.81,64.59z"/>
		<path id="Path_2793" class="st1" d="M224.6,75.74l1.03,3.28l3.44-0.03l-2.8,2l1.09,3.26l-2.76-2.04l-2.76,2.04l1.09-3.26l-2.8-2
			l3.44,0.03L224.6,75.74z"/>
		<path id="Path_2794" class="st2" d="M248.78,76.7l1.03,3.28l3.44-0.03l-2.8,2l1.09,3.26l-2.76-2.04l-2.76,2.04l1.09-3.26l-2.8-2
			l3.44,0.03L248.78,76.7z"/>
		<path id="Path_2795" class="st2" d="M275.66,39.38l1.03,3.28l3.44-0.03l-2.8,2l1.09,3.26l-2.76-2.04l-2.76,2.04l1.09-3.26l-2.8-2
			l3.44,0.03L275.66,39.38z"/>
		<path id="Path_2796" class="st2" d="M248.47,2.28l1.03,3.28l3.44-0.03l-2.8,2l1.09,3.26l-2.76-2.05l-2.77,2.04l1.09-3.26l-2.8-2
			l3.44,0.03L248.47,2.28z"/>
		<path id="Path_2797" class="st2" d="M204.78,16.68l1.03,3.28l3.44-0.03l-2.8,2l1.09,3.26l-2.76-2.04l-2.76,2.04l1.09-3.26l-2.8-2
			l3.44,0.03L204.78,16.68z"/>
		<path id="Path_2798" class="st1" d="M14.66,52.99c-2.3,0.08-4.49-0.95-5.91-2.75c-1.48-1.84-2.22-4.37-2.22-7.61
			c-0.06-3.26,0.5-6.49,1.66-9.54h3.36c-1.02,3.07-1.48,6.3-1.38,9.54c-0.11,1.88,0.37,3.74,1.38,5.32c0.9,1.24,2.36,1.95,3.89,1.89
			h1.98c4.53,0,6.79-2.15,6.79-6.44V26.8h3.43v8.83c-0.05,1.2,0.4,2.36,1.23,3.23c0.84,0.84,1.98,1.3,3.17,1.25h2.51V26.8h3.44v8.83
			c-0.05,1.2,0.4,2.36,1.23,3.23c0.84,0.84,2,1.3,3.19,1.25h2.51V23.66h3.44v12.36c-0.06,1.1,0.34,2.18,1.1,2.98
			c0.77,0.75,1.82,1.15,2.9,1.1h0.63v3.16h-0.12c-2.27,0-3.77-0.77-4.52-2.31v2.31h-5.82c-2.25,0-3.76-0.77-4.54-2.31v2.31h-5.81
			c-2.25,0-3.76-0.77-4.54-2.31v2.15c0,6.58-3.36,9.87-10.07,9.87L14.66,52.99z"/>
		<path id="Path_2799" class="st1" d="M71.23,36.24c-0.05,1.06,0.35,2.08,1.11,2.82c0.79,0.72,1.83,1.09,2.9,1.05h0.65v3.16h-0.12
			c-2.28,0-3.79-0.77-4.54-2.31v2.31H52.2v-3.16h15.6v-7.44c0-3.91-2.48-5.86-7.44-5.86H55.1v-3.3c1.43-2.93,3.42-5.56,5.85-7.73
			c2.44-2.31,5.28-4.14,8.38-5.42l1.28,3.08c-2.65,1.09-5.12,2.59-7.3,4.44c-2,1.58-3.65,3.55-4.87,5.78h1.9
			c3.45,0,6.12,0.72,8.03,2.15c1.93,1.49,3,3.83,2.85,6.26L71.23,36.24z"/>
		<path id="Path_2800" class="st1" d="M75.09,40.11h5.53V23.66h3.59v19.61h-9.12L75.09,40.11z M82.39,15.41
			c1.4,0,2.09,0.76,2.09,2.27c0,1.5-0.7,2.25-2.09,2.25c-1.4,0-2.09-0.75-2.09-2.25C80.3,16.17,81,15.41,82.39,15.41"/>
		<rect id="Rectangle_1488" x="91.08" y="12.55" class="st1" width="3.59" height="30.72"/>
		<path id="Path_2801" class="st1" d="M108.14,44.24c0.13,2.29-0.53,4.56-1.88,6.42c-1.31,1.58-3.28,2.44-5.33,2.33
			c-2,0.03-3.95-0.67-5.49-1.96l1.62-2.47c1.09,0.83,2.42,1.27,3.79,1.26c1.14,0.03,2.21-0.53,2.83-1.48
			c0.75-1.16,1.12-2.53,1.06-3.91V23.66h3.4v12.58c-0.05,1.06,0.35,2.08,1.11,2.82c0.79,0.72,1.83,1.09,2.9,1.05h0.63v3.16h-0.12
			c-2.27,0-3.77-0.77-4.52-2.31L108.14,44.24z"/>
		<path id="Path_2802" class="st1" d="M111.99,40.11h5.53V23.66h3.59v12.58c-0.05,1.05,0.35,2.08,1.1,2.82
			c0.79,0.72,1.84,1.1,2.91,1.05h1.46v3.16h-0.93c-2.25,0-3.77-0.77-4.54-2.31v2.31H112L111.99,40.11z M115.9,44.79
			c1.41,0,2.11,0.76,2.11,2.27c0,1.5-0.7,2.25-2.11,2.25c-1.4,0-2.09-0.75-2.09-2.25C113.81,45.55,114.5,44.79,115.9,44.79
			 M122.1,44.79c1.4,0,2.09,0.76,2.09,2.27c0,1.5-0.7,2.25-2.09,2.25c-1.41,0-2.11-0.75-2.11-2.25
			C119.99,45.55,120.69,44.79,122.1,44.79"/>
		<path id="Path_2803" class="st1" d="M125.77,40.11h5.53V23.66h3.59v19.61h-9.12L125.77,40.11z M133.08,15.41
			c1.4,0,2.09,0.76,2.09,2.27c0,1.5-0.7,2.25-2.09,2.25s-2.09-0.75-2.09-2.25C130.98,16.17,131.68,15.41,133.08,15.41"/>
		<path id="Path_2804" class="st1" d="M157.17,40.11h3.53v3.16h-3.53v0.97c0.14,2.4-0.75,4.74-2.45,6.44
			c-1.91,1.64-4.38,2.47-6.89,2.31c-2.57,0.04-5.1-0.68-7.27-2.07l1.62-2.71c1.75,0.99,3.72,1.54,5.73,1.62
			c1.56,0.08,3.1-0.44,4.29-1.45c1.08-1.02,1.65-2.46,1.58-3.94v-1.16h-3.95c-2.45,0.15-4.86-0.71-6.66-2.38
			c-1.57-1.59-2.36-3.87-2.36-6.84c-0.14-2.86,0.97-5.63,3.04-7.6c2.22-1.93,5.1-2.92,8.04-2.78h5.29L157.17,40.11z M151.99,26.8
			c-2.05-0.13-4.07,0.56-5.62,1.92c-1.37,1.41-2.09,3.33-1.98,5.29c0,4.07,1.85,6.1,5.55,6.1h3.79V26.8L151.99,26.8z"/>
		<path id="Path_2805" class="st1" d="M159.48,19.28l1.17-1.7c0.85,0.6,1.85,0.95,2.88,1.01c0.68,0.01,1.36-0.08,2.01-0.28
			c-0.79-0.98-1.24-2.18-1.28-3.44c-0.04-0.92,0.33-1.81,1.01-2.44c0.73-0.63,1.67-0.96,2.63-0.92c0.93-0.05,1.85,0.28,2.54,0.92
			c0.62,0.6,0.96,1.42,0.94,2.28c-0.09,1.64-0.94,3.14-2.31,4.06c-1.55,1.23-3.47,1.89-5.45,1.85
			C162.12,20.62,160.67,20.15,159.48,19.28 M167.31,17.62c1.14-0.45,1.91-1.52,1.96-2.74c0.09-0.7-0.4-1.34-1.1-1.43
			c-0.12-0.02-0.24-0.01-0.36,0c-1,0-1.5,0.54-1.5,1.62C166.36,16,166.72,16.9,167.31,17.62"/>
		<path id="Path_2806" class="st1" d="M159.89,40.11h5.53V23.66h3.59v19.61h-9.12L159.89,40.11z M163.38,44.79
			c1.41,0,2.11,0.76,2.11,2.27c0,1.5-0.7,2.25-2.11,2.25c-1.4,0-2.09-0.75-2.09-2.25C161.29,45.55,161.99,44.79,163.38,44.79
			 M169.58,44.79c1.4,0,2.09,0.76,2.09,2.27c0,1.5-0.7,2.25-2.09,2.25c-1.41,0-2.11-0.75-2.11-2.25
			C167.47,45.55,168.18,44.79,169.58,44.79"/>
		<rect id="Rectangle_1489" x="8.16" y="55.83" class="st2" width="163.77" height="1.04"/>
		<path id="Path_2807" class="st1" d="M3.77,73.04c-0.03-0.47,0.13-0.94,0.45-1.29c0.29-0.3,0.7-0.47,1.11-0.46h0.08
			c-0.69-1.42-0.54-3.11,0.4-4.38c0.54-0.64,1.34-0.99,2.18-0.96c0.79-0.03,1.55,0.27,2.11,0.82c0.85,0.99,1.05,2.38,0.52,3.57
			c-0.16,0.38-0.42,0.71-0.75,0.96h2.25v1H5.76C5.31,72.24,4.9,72.55,4.84,73c-0.01,0.08-0.01,0.15,0,0.23v0.68
			c0.07,0.74-0.12,1.49-0.55,2.1H3.13c0.52-0.66,0.75-1.49,0.64-2.32V73.04z M6.58,71.3h1.16c0.56,0.03,1.11-0.19,1.5-0.6
			c0.38-0.47,0.57-1.07,0.53-1.67c0.03-0.55-0.14-1.09-0.49-1.52C8.97,67.13,8.49,66.92,8,66.94c-0.52-0.01-1.02,0.24-1.34,0.65
			c-0.38,0.52-0.57,1.16-0.53,1.8C6.08,70.06,6.24,70.72,6.58,71.3"/>
		<path id="Path_2808" class="st1" d="M11.87,71.3h1.75v-8.74h1.14v9.74h-2.89V71.3z"/>
		<path id="Path_2809" class="st1" d="M18.08,71.3h1.76v1h-2.9v-9.74h1.14L18.08,71.3z"/>
		<path id="Path_2810" class="st1" d="M27.44,72.3h-1.56c-0.83-0.01-1.65-0.23-2.37-0.64c-0.72,0.42-1.55,0.64-2.38,0.64h-1.55v-1
			h1.53c0.52,0.01,1.04-0.07,1.53-0.26c-1.17-0.92-1.96-2.24-2.23-3.7c0.4-0.53,0.93-0.95,1.54-1.22c0.61-0.29,1.28-0.44,1.96-0.44
			c1-0.06,1.99,0.22,2.8,0.81c0,0.89-0.21,1.78-0.62,2.57c-0.38,0.79-0.96,1.47-1.69,1.97c0.45,0.17,0.93,0.26,1.42,0.27h1.61
			L27.44,72.3z M21.64,67.67c0.27,1.13,0.94,2.12,1.88,2.79c1.2-0.75,1.95-2.04,2.01-3.45c-0.48-0.27-1.04-0.39-1.59-0.34
			c-0.45,0.01-0.89,0.11-1.3,0.29C22.26,67.12,21.92,67.36,21.64,67.67"/>
		<path id="Path_2811" class="st1" d="M27.19,71.3h1.75v-8.74h1.14v9.74h-2.89V71.3z"/>
		<rect id="Rectangle_1490" x="32.26" y="62.56" class="st1" width="1.14" height="9.74"/>
		<path id="Path_2812" class="st1" d="M45.57,71.36c0.04,0.76-0.3,1.5-0.89,1.97c-0.73,0.51-1.61,0.76-2.49,0.71h-1.52
			c-0.65,0.04-1.29-0.17-1.78-0.6c-0.44-0.46-0.66-1.07-0.62-1.7c0-0.59,0.11-1.18,0.32-1.73h0.96c-0.12,0.54-0.18,1.09-0.19,1.65
			c-0.02,0.37,0.1,0.73,0.34,1.01c0.24,0.25,0.58,0.39,0.93,0.37h1.56c1.5,0,2.25-0.57,2.25-1.7v-1.65c0-2.41,1.11-3.61,3.34-3.61
			h1.55v5.21h1.6v1h-2.74v-5.21h-0.33c-1.52,0-2.28,0.88-2.28,2.65L45.57,71.36z M41.33,74.73c0.45,0,0.67,0.24,0.67,0.72
			s-0.22,0.72-0.67,0.71c-0.44,0-0.66-0.24-0.66-0.71S40.89,74.73,41.33,74.73 M43.29,74.73c0.45,0,0.67,0.24,0.67,0.72
			c0,0.48-0.22,0.72-0.67,0.71c-0.44,0-0.66-0.24-0.66-0.71S42.85,74.73,43.29,74.73"/>
		<path id="Path_2813" class="st1" d="M50.68,71.3h2.01c-0.46-0.54-0.69-1.23-0.66-1.93c-0.04-0.89,0.3-1.76,0.95-2.39
			c0.71-0.62,1.63-0.94,2.57-0.89h1.68v6.21h-6.53L50.68,71.3z M55.57,67.08c-0.65-0.04-1.28,0.18-1.77,0.6
			c-0.44,0.44-0.67,1.05-0.63,1.67c0,1.3,0.58,1.95,1.75,1.95h1.21v-4.22L55.57,67.08z M55.12,63.47c0.45,0,0.67,0.24,0.67,0.72
			c0,0.48-0.22,0.72-0.67,0.71c-0.44,0-0.66-0.24-0.66-0.71C54.45,63.71,54.68,63.47,55.12,63.47"/>
		<path id="Path_2814" class="st1" d="M69.53,71.3v-5.21h1.09v6.21h-5.65c-0.65,0.03-1.28-0.21-1.75-0.67
			c-0.45-0.49-0.69-1.15-0.65-1.82c0-0.66,0.11-1.31,0.32-1.93h1.03c-0.13,0.6-0.19,1.22-0.19,1.83c-0.02,0.4,0.1,0.8,0.33,1.13
			c0.2,0.29,0.53,0.45,0.88,0.44L69.53,71.3z M65.86,63.47c0.45,0,0.67,0.24,0.67,0.72c0,0.48-0.22,0.72-0.67,0.71
			c-0.44,0-0.66-0.24-0.66-0.71C65.19,63.71,65.41,63.47,65.86,63.47 M67.82,63.47c0.44,0,0.66,0.24,0.66,0.72
			c0,0.48-0.22,0.72-0.66,0.71c-0.45,0-0.67-0.24-0.67-0.71C67.15,63.71,67.37,63.47,67.82,63.47"/>
		<path id="Path_2815" class="st1" d="M73.94,71.3h1.76v1h-2.9v-9.74h1.14L73.94,71.3z"/>
		<path id="Path_2816" class="st1" d="M83.31,72.3h-1.56c-0.83-0.01-1.65-0.23-2.37-0.64c-0.72,0.42-1.55,0.64-2.38,0.64h-1.54v-1
			h1.53c0.52,0.01,1.04-0.07,1.53-0.26c-1.17-0.92-1.96-2.24-2.23-3.7c0.4-0.53,0.93-0.95,1.54-1.22c0.61-0.29,1.28-0.44,1.96-0.44
			c1-0.06,1.99,0.22,2.8,0.81c0,0.89-0.21,1.78-0.62,2.57c-0.38,0.79-0.96,1.47-1.69,1.97c0.45,0.17,0.93,0.26,1.42,0.27h1.61
			L83.31,72.3z M77.5,67.67c0.27,1.13,0.94,2.12,1.88,2.79c1.2-0.75,1.95-2.04,2.01-3.45c-0.48-0.27-1.04-0.39-1.59-0.34
			c-0.45,0.01-0.89,0.11-1.3,0.29C78.12,67.12,77.78,67.36,77.5,67.67"/>
		<path id="Path_2817" class="st1" d="M82.81,72.3v-1h1.9c-0.31-0.59-0.46-1.25-0.42-1.91c-0.04-0.9,0.26-1.78,0.83-2.47
			c0.54-0.64,1.34-0.99,2.18-0.96c0.79-0.03,1.55,0.27,2.11,0.82c0.57,0.62,0.86,1.44,0.81,2.27c0.05,0.9-0.31,1.78-0.97,2.39
			c-0.68,0.59-1.56,0.9-2.46,0.87L82.81,72.3z M85.87,71.3h0.91c1.2,0.06,2.22-0.86,2.28-2.05c0-0.07,0-0.14,0-0.21
			c0.03-0.55-0.14-1.09-0.49-1.52c-0.32-0.37-0.79-0.58-1.28-0.57c-0.53-0.01-1.02,0.24-1.34,0.66c-0.38,0.52-0.57,1.15-0.53,1.78
			C85.37,70.06,85.53,70.72,85.87,71.3"/>
		<path id="Path_2818" class="st1" d="M93.15,71.3h1.76v1h-2.9v-9.74h1.14L93.15,71.3z"/>
		<path id="Path_2819" class="st1" d="M100.21,71.3c-0.46-0.7-0.74-1.51-0.81-2.35c-0.06-0.56-0.24-1.09-0.55-1.56
			c-0.27-0.3-0.66-0.46-1.07-0.43c-0.65,0.02-1.29,0.2-1.86,0.51l-0.44-0.88c0.69-0.43,1.5-0.65,2.32-0.63
			c0.64-0.04,1.26,0.18,1.74,0.59c0.51,0.59,0.82,1.33,0.87,2.11c0.05,0.95,0.37,1.87,0.93,2.64h0.92v1h-7.61v-1L100.21,71.3z
			 M98.12,73.24c0.44,0,0.66,0.24,0.66,0.72s-0.22,0.72-0.66,0.71c-0.44,0-0.66-0.24-0.66-0.71S97.68,73.25,98.12,73.24"/>
		<path id="Path_2820" class="st1" d="M102.01,71.29h1.75v-8.73h1.14v7.51c-0.02,0.33,0.11,0.66,0.35,0.9
			c0.25,0.23,0.58,0.35,0.92,0.33h0.46v1h-0.29c-0.58,0.07-1.15-0.22-1.44-0.73v0.73h-2.89V71.29z"/>
		<path id="Path_2821" class="st1" d="M106.38,71.3h1.75v-8.74h1.14v9.74h-2.89L106.38,71.3z"/>
		<path id="Path_2822" class="st1" d="M116.91,72.3c-0.65,0.03-1.28-0.21-1.75-0.67c-0.45-0.49-0.69-1.15-0.65-1.82
			c0-0.66,0.11-1.31,0.32-1.93h1.03c-0.13,0.6-0.19,1.22-0.19,1.83c-0.02,0.4,0.1,0.8,0.33,1.13c0.2,0.29,0.53,0.45,0.88,0.44h4.17
			c-0.46-0.53-0.7-1.23-0.67-1.93c-0.04-0.89,0.3-1.76,0.95-2.39c0.7-0.62,1.63-0.94,2.57-0.89h1.68v5.21h1.48v1L116.91,72.3z
			 M123.92,67.08c-0.65-0.04-1.28,0.18-1.77,0.6c-0.44,0.44-0.67,1.05-0.64,1.67c0,1.3,0.59,1.95,1.76,1.95h1.2v-4.22L123.92,67.08z
			 M123.48,63.47c0.44,0,0.66,0.24,0.66,0.72c0,0.48-0.22,0.72-0.66,0.71c-0.44,0-0.66-0.24-0.66-0.71
			C122.81,63.71,123.03,63.47,123.48,63.47"/>
		<path id="Path_2823" class="st1" d="M126.79,71.3h1.75v-5.21h1.13v3.99c-0.02,0.33,0.11,0.66,0.35,0.9
			c0.25,0.23,0.58,0.35,0.92,0.33h0.46v1h-0.29c-0.58,0.07-1.15-0.22-1.44-0.73v0.73h-2.89L126.79,71.3z M128.02,72.78
			c0.45,0,0.67,0.24,0.67,0.72s-0.22,0.72-0.67,0.71c-0.44,0-0.66-0.24-0.66-0.71S127.58,72.78,128.02,72.78 M129.99,72.78
			c0.44,0,0.66,0.24,0.66,0.72s-0.22,0.72-0.66,0.71c-0.45,0-0.67-0.24-0.67-0.71S129.54,72.78,129.99,72.78"/>
		<path id="Path_2824" class="st1" d="M131.15,71.3h1.75v-5.21h1.14v3.99c-0.02,0.33,0.11,0.66,0.35,0.9
			c0.25,0.23,0.58,0.35,0.92,0.33h0.46v1h-0.29c-0.58,0.07-1.15-0.22-1.44-0.73v0.73h-2.89L131.15,71.3z M133.47,63.47
			c0.44,0,0.66,0.24,0.66,0.72c0,0.48-0.22,0.72-0.66,0.71c-0.44,0-0.66-0.24-0.66-0.71C132.8,63.71,133.03,63.47,133.47,63.47"/>
		<path id="Path_2825" class="st1" d="M138.24,72.3h-2.72v-1h1.63v-4.83h1.09v2.37c0.82-1.92,2-2.88,3.55-2.88
			c1.96,0,2.93,1.08,2.93,3.25v0.93c-0.01,0.32,0.11,0.62,0.35,0.84c0.25,0.22,0.59,0.34,0.92,0.32h0.21v1h-0.05
			c-0.58,0.07-1.15-0.22-1.43-0.73v0.73h-5.17c-0.59-0.04-1.11-0.43-1.31-0.99L138.24,72.3z M138.26,70.2
			c0.02,0.63,0.55,1.13,1.18,1.1c0.02,0,0.04,0,0.06,0h4.13v-2.03c0-1.53-0.69-2.3-2.08-2.3C140.24,66.96,139.15,68.04,138.26,70.2"
			/>
		<path id="Path_2826" class="st1" d="M145.94,71.3h1.75v-5.21h1.14v6.21h-2.89V71.3z M147.18,63.47c0.45,0,0.67,0.24,0.67,0.72
			c0,0.48-0.22,0.72-0.67,0.71c-0.44,0-0.66-0.24-0.66-0.71C146.51,63.71,146.73,63.47,147.18,63.47 M149.14,63.47
			c0.44,0,0.66,0.24,0.66,0.72c0,0.48-0.22,0.72-0.66,0.71c-0.45,0-0.67-0.24-0.67-0.71C148.47,63.71,148.69,63.47,149.14,63.47"/>
		<path id="Path_2827" class="st1" d="M156.42,72.6c0.04,0.73-0.17,1.44-0.59,2.03c-0.41,0.5-1.04,0.77-1.69,0.74
			c-0.64,0.01-1.25-0.21-1.74-0.62l0.51-0.78c0.34,0.26,0.77,0.4,1.2,0.4c0.36,0.01,0.7-0.17,0.9-0.47c0.24-0.37,0.36-0.8,0.33-1.24
			v-6.58h1.08v3.99c-0.02,0.33,0.11,0.66,0.35,0.9c0.25,0.23,0.58,0.35,0.92,0.33h0.2v1h-0.04c-0.58,0.07-1.15-0.22-1.43-0.73
			L156.42,72.6z"/>
		<path id="Path_2828" class="st1" d="M157.65,71.3h1.75v-5.21h1.14v3.99c-0.02,0.33,0.11,0.66,0.35,0.9
			c0.25,0.23,0.58,0.35,0.92,0.33h0.46v1h-0.29c-0.58,0.07-1.15-0.22-1.44-0.73v0.73h-2.89L157.65,71.3z M160.02,73.24
			c0.44,0,0.66,0.24,0.66,0.72c0,0.48-0.22,0.72-0.66,0.71c-0.44,0-0.66-0.24-0.66-0.71C159.36,73.48,159.58,73.25,160.02,73.24"/>
		<path id="Path_2829" class="st1" d="M162.01,72.3v-1h4.94v-2.36c0-1.24-0.79-1.86-2.36-1.86h-1.66v-1.04
			c0.45-0.93,1.08-1.76,1.85-2.45c0.77-0.73,1.67-1.31,2.66-1.72l0.41,0.98c-0.84,0.34-1.62,0.82-2.31,1.41
			c-0.63,0.5-1.16,1.12-1.54,1.83h0.6c0.9-0.05,1.79,0.18,2.54,0.68c0.61,0.47,0.95,1.21,0.9,1.98v3.55L162.01,72.3z"/>
		<path id="Path_2830" class="st1" d="M171.98,61.75c-0.14,0-0.53,0.04-1.16,0.12c-0.63,0.08-1.07,0.14-1.32,0.19v-0.59l0.61-0.09
			c-0.28-0.17-0.46-0.48-0.45-0.81c-0.02-0.32,0.11-0.63,0.35-0.85c0.27-0.21,0.61-0.32,0.95-0.3c0.29,0,0.58,0.06,0.84,0.19
			l-0.19,0.58c-0.2-0.1-0.42-0.16-0.64-0.16c-0.32-0.05-0.62,0.17-0.67,0.49c-0.01,0.06-0.01,0.11,0,0.17c0,0.26,0.15,0.5,0.39,0.6
			l0.23-0.04c0.39-0.06,0.74-0.1,1.05-0.13V61.75z M171.36,72.3h-1.14v-9.74h1.14V72.3z"/>
	</g>
</g>
</svg>
