<?xml version="1.0" encoding="utf-8"?>
<!-- Generator: Adobe Illustrator 27.3.1, SVG Export Plug-In . SVG Version: 6.00 Build 0)  -->
<svg version="1.1" id="Layer_1" xmlns="http://www.w3.org/2000/svg" xmlns:xlink="http://www.w3.org/1999/xlink" x="0px" y="0px"
	 viewBox="0 0 219.26 116.74" style="enable-background:new 0 0 219.26 116.74;" xml:space="preserve">
<style type="text/css">
	.st0{fill:#FFFFFF;}
</style>
<g id="Group_6167" transform="translate(-82.328 -495.717)">
	<path id="Path_2753" class="st0" d="M87.97,569.64v36.65h23.86v-5.62H94.68v-31.04H87.97z"/>
	<path id="Path_2754" class="st0" d="M139.12,596.96h-13.8l-3.59,9.34h-7.15l14.55-36.66h6.14l14.55,36.65h-7.1L139.12,596.96z
		 M132.16,578.47c-1.28,3.83-2.43,7.04-3.43,9.61l-1.25,3.26h9.47l-1.25-3.26c-0.99-2.6-2.14-5.8-3.43-9.61L132.16,578.47z"/>
	<path id="Path_2755" class="st0" d="M170.19,606.99c-1.74,0.02-3.48-0.17-5.18-0.56c-1.43-0.33-2.79-0.88-4.05-1.61
		c-1.14-0.68-2.15-1.55-2.98-2.58c-0.83-1.04-1.5-2.2-1.97-3.44c-0.42-1.1-0.71-2.24-0.86-3.4c-0.18-1.38-0.27-2.77-0.26-4.16
		v-21.59h6.71v20.99c-0.09,2.07,0.23,4.13,0.93,6.08c0.58,1.49,1.65,2.73,3.04,3.52c2.98,1.44,6.45,1.44,9.42,0
		c1.39-0.79,2.47-2.03,3.04-3.52c0.7-1.95,1.02-4.01,0.93-6.08v-20.99h6.71v21.59c0.01,1.39-0.08,2.78-0.26,4.16
		c-0.15,1.16-0.44,2.3-0.86,3.4c-0.47,1.24-1.14,2.41-1.99,3.44c-0.85,1.03-1.88,1.9-3.04,2.58c-1.29,0.74-2.68,1.28-4.12,1.61
		C173.69,606.82,171.94,607.01,170.19,606.99"/>
	<path id="Path_2756" class="st0" d="M213.39,586.69c2.63,3.74,4.77,7.07,6.41,9.97h0.16c-0.22-4.77-0.33-8.24-0.33-10.41v-16.6
		h6.71v36.65h-7.04l-11.94-16.87c-2.1-2.92-4.27-6.31-6.52-10.16h-0.17c0.22,4.49,0.33,7.97,0.33,10.44v16.6h-6.71v-36.66h7.04
		L213.39,586.69z"/>
	<path id="Path_2757" class="st0" d="M252.95,574.63c-1.73-0.02-3.44,0.29-5.05,0.9c-1.5,0.57-2.86,1.47-3.97,2.63
		c-1.15,1.22-2.03,2.67-2.59,4.26c-0.65,1.86-0.96,3.82-0.93,5.79c-0.03,1.93,0.25,3.85,0.85,5.68c0.5,1.53,1.33,2.93,2.44,4.1
		c1.09,1.11,2.41,1.96,3.88,2.48c1.67,0.58,3.43,0.86,5.19,0.84c1.42,0,2.84-0.11,4.25-0.33c1.38-0.2,2.73-0.52,4.05-0.96v5.78
		c-1.36,0.38-2.74,0.67-4.14,0.86c-1.52,0.21-3.06,0.32-4.6,0.31c-2.79,0.05-5.56-0.4-8.19-1.33c-2.22-0.8-4.23-2.08-5.9-3.75
		c-1.6-1.65-2.82-3.63-3.56-5.81c-0.82-2.4-1.22-4.93-1.19-7.47c-0.02-2.65,0.41-5.28,1.27-7.78c0.79-2.3,2.04-4.41,3.67-6.22
		c1.67-1.8,3.72-3.22,6-4.14c2.59-1.04,5.36-1.56,8.15-1.53c1.48-0.01,2.95,0.1,4.41,0.32c1.28,0.18,2.53,0.48,3.75,0.89v5.7
		c-1.33-0.43-2.7-0.75-4.08-0.96C255.43,574.72,254.19,574.63,252.95,574.63"/>
	<path id="Path_2758" class="st0" d="M274.62,584.74h16.99v-15.1h6.71v36.65h-6.71v-15.94h-16.99v15.94h-6.71v-36.66h6.71V584.74z"
		/>
</g>
<g id="Group_6166" transform="translate(-82.328 -496)">
	<path id="Path_2759" class="st0" d="M88.31,500.24v3.7h7.8v20.47h4.43v-20.47h7.79v-3.7H88.31z"/>
	<path id="Path_2760" class="st0" d="M127.39,500.24v9.95h-11.2v-9.95h-4.43v24.17h4.43V513.9h11.2v10.52h4.43v-24.17H127.39z"/>
	<path id="Path_2761" class="st0" d="M137.6,500.24v24.17h16.31v-3.7h-11.89v-6.82h9.65v-3.7h-9.65v-6.26h11.24v-3.7H137.6z"/>
	<path id="Path_2762" class="st0" d="M166.23,500.24v24.17h4.43V513.9h9.38v-3.7h-9.38v-6.26h10.97v-3.7H166.23z"/>
	<path id="Path_2763" class="st0" d="M195.52,524.87c-1.15,0.01-2.3-0.11-3.41-0.37c-0.94-0.22-1.84-0.58-2.67-1.07
		c-0.75-0.45-1.42-1.02-1.97-1.7c-0.55-0.68-0.99-1.45-1.3-2.27c-0.28-0.72-0.47-1.47-0.57-2.24c-0.12-0.91-0.18-1.83-0.17-2.75
		v-14.23h4.43v13.84c-0.06,1.36,0.15,2.73,0.61,4.01c0.38,0.98,1.09,1.8,2.01,2.32c1.96,0.95,4.25,0.95,6.21,0
		c0.91-0.52,1.62-1.34,2-2.32c0.46-1.28,0.67-2.65,0.61-4.01v-13.84h4.43v14.24c0.01,0.92-0.05,1.84-0.17,2.75
		c-0.1,0.77-0.29,1.52-0.57,2.24c-0.31,0.82-0.76,1.59-1.31,2.27c-0.56,0.68-1.24,1.26-2.01,1.7c-0.85,0.49-1.76,0.85-2.72,1.07
		C197.82,524.76,196.67,524.88,195.52,524.87"/>
	<path id="Path_2764" class="st0" d="M221.3,524.42h-4.43v-20.47h-7.8v-3.7h20.02v3.7h-7.79L221.3,524.42z"/>
	<path id="Path_2765" class="st0" d="M242.53,524.87c-1.15,0.01-2.3-0.11-3.41-0.37c-0.94-0.22-1.84-0.58-2.67-1.07
		c-0.75-0.45-1.42-1.02-1.97-1.7c-0.55-0.68-0.99-1.45-1.3-2.27c-0.28-0.72-0.47-1.47-0.57-2.24c-0.12-0.91-0.18-1.83-0.17-2.75
		v-14.23h4.43v13.84c-0.06,1.36,0.15,2.73,0.61,4.01c0.38,0.98,1.09,1.8,2.01,2.32c1.96,0.95,4.25,0.95,6.21,0
		c0.92-0.52,1.63-1.34,2.01-2.32c0.46-1.28,0.67-2.65,0.61-4.01v-13.84h4.43v14.24c0.01,0.92-0.05,1.84-0.17,2.75
		c-0.1,0.77-0.29,1.52-0.57,2.24c-0.31,0.82-0.76,1.59-1.31,2.27c-0.56,0.68-1.24,1.26-2.01,1.7c-0.85,0.49-1.76,0.85-2.72,1.07
		C244.83,524.76,243.68,524.88,242.53,524.87"/>
	<path id="Path_2766" class="st0" d="M276.31,507.51c0.05,1.55-0.45,3.07-1.4,4.29c-1.13,1.3-2.65,2.21-4.33,2.61v0.07l7.19,9.94
		h-5.31l-6.58-9.36h-3.04v9.36h-4.43v-24.17h7.35c1.14-0.01,2.27,0.06,3.4,0.21c0.92,0.11,1.82,0.32,2.69,0.62
		c1.31,0.46,2.46,1.3,3.29,2.41C275.96,504.67,276.37,506.08,276.31,507.51 M265.04,511.35c0.86,0.01,1.72-0.04,2.57-0.14
		c0.61-0.07,1.2-0.2,1.78-0.41c0.76-0.24,1.41-0.72,1.85-1.38c0.35-0.61,0.53-1.31,0.52-2.01c0.01-0.6-0.13-1.19-0.41-1.73
		c-0.32-0.54-0.8-0.96-1.39-1.18c-0.51-0.22-1.04-0.36-1.59-0.42c-0.78-0.1-1.58-0.14-2.37-0.14h-3.16v7.41H265.04z"/>
	<path id="Path_2767" class="st0" d="M286.09,520.71h11.89v3.7h-16.31v-24.17h15.66v3.7h-11.24v6.25h9.65v3.7h-9.65V520.71z"/>
</g>
<g id="Group_6165" transform="translate(-82.328 -499.812)">
	<path id="Path_2768" class="st0" d="M89.35,541.39h1.08v1.12h-1.08V541.39z M89.42,545.08h0.94v10.95h-0.94V545.08z"/>
	<path id="Path_2769" class="st0" d="M93.66,555.75v-0.97c0.92,0.48,1.94,0.72,2.98,0.69c0.79,0.04,1.57-0.19,2.21-0.65
		c0.55-0.44,0.85-1.12,0.81-1.82c0.03-0.51-0.17-1.02-0.54-1.37c-0.53-0.4-1.15-0.67-1.81-0.79c-0.65-0.15-1.28-0.34-1.9-0.59
		c-0.47-0.19-0.89-0.5-1.21-0.89c-0.33-0.45-0.5-0.99-0.47-1.55c-0.06-0.88,0.32-1.74,1.03-2.28c0.78-0.52,1.7-0.78,2.64-0.74
		c0.95-0.01,1.88,0.21,2.73,0.62v0.91c-0.42-0.21-0.86-0.39-1.32-0.52c-0.48-0.13-0.98-0.19-1.48-0.18
		c-0.71-0.05-1.42,0.14-2.01,0.55c-0.46,0.38-0.72,0.96-0.69,1.56c-0.02,0.39,0.09,0.78,0.33,1.09c0.24,0.28,0.54,0.48,0.88,0.6
		c0.56,0.19,1.13,0.36,1.7,0.49c0.84,0.16,1.63,0.53,2.3,1.07c0.51,0.51,0.77,1.21,0.72,1.93c0.04,0.94-0.35,1.85-1.06,2.47
		c-0.81,0.65-1.84,0.98-2.88,0.92C95.62,556.37,94.59,556.18,93.66,555.75"/>
	<path id="Path_2770" class="st0" d="M106.94,545.08h1.01c2.21,5.97,3.44,9.28,3.7,9.94h0.09l3.83-9.94h1.01l-6.62,16.4h-1
		l2.19-5.36L106.94,545.08z"/>
	<path id="Path_2771" class="st0" d="M118.42,550.57c-0.08-1.52,0.4-3.01,1.34-4.2c0.88-1.05,2.2-1.63,3.57-1.58
		c1.37-0.06,2.68,0.52,3.56,1.57c0.93,1.2,1.4,2.69,1.32,4.21c0.07,1.5-0.41,2.98-1.35,4.15c-0.87,1.05-2.17,1.63-3.53,1.59
		c-1.37,0.05-2.69-0.52-3.57-1.56C118.82,553.57,118.35,552.08,118.42,550.57 M127.22,550.58c0.07-1.28-0.3-2.55-1.05-3.59
		c-0.68-0.87-1.73-1.37-2.84-1.33c-1.11-0.04-2.18,0.45-2.86,1.32c-0.76,1.04-1.13,2.31-1.06,3.6c-0.07,1.27,0.3,2.53,1.05,3.56
		c0.69,0.87,1.76,1.36,2.88,1.31c1.1,0.04,2.16-0.44,2.85-1.31C126.93,553.11,127.3,551.85,127.22,550.58"/>
	<path id="Path_2772" class="st0" d="M131.34,551.83v-6.75h0.93v6.98c-0.09,0.95,0.21,1.89,0.84,2.6c0.63,0.55,1.45,0.84,2.28,0.79
		c0.6,0.02,1.19-0.11,1.73-0.39c0.45-0.24,0.81-0.61,1.04-1.07c0.26-0.63,0.38-1.3,0.35-1.98v-6.94h0.94v6.77
		c0.02,0.7-0.06,1.39-0.23,2.06c-0.16,0.5-0.43,0.95-0.8,1.32c-0.36,0.37-0.81,0.66-1.3,0.83c-0.54,0.18-1.11,0.27-1.68,0.26
		c-0.61,0.01-1.22-0.09-1.79-0.3c-0.49-0.18-0.94-0.46-1.31-0.83c-0.35-0.35-0.61-0.78-0.76-1.25
		C131.39,553.25,131.3,552.54,131.34,551.83"/>
	<path id="Path_2773" class="st0" d="M144.14,545.08l0.16,1.95h0.02c0.47-0.68,1.1-1.22,1.83-1.59c0.75-0.41,1.59-0.63,2.44-0.63
		h0.3v0.93h-0.3c-0.87,0-1.73,0.25-2.48,0.7c-0.76,0.43-1.38,1.07-1.8,1.84v7.76h-0.94v-10.95H144.14z"/>
	<path id="Path_2774" class="st0" d="M150.37,555.75v-0.97c0.92,0.48,1.94,0.72,2.98,0.69c0.79,0.04,1.57-0.19,2.21-0.65
		c0.55-0.44,0.85-1.12,0.81-1.82c0.03-0.51-0.17-1.02-0.54-1.37c-0.53-0.4-1.15-0.67-1.81-0.79c-0.65-0.15-1.28-0.34-1.9-0.59
		c-0.47-0.19-0.89-0.5-1.21-0.89c-0.33-0.45-0.5-0.99-0.47-1.55c-0.06-0.88,0.32-1.74,1.03-2.28c0.78-0.52,1.7-0.78,2.64-0.74
		c0.95-0.01,1.88,0.21,2.73,0.62v0.91c-0.42-0.21-0.86-0.39-1.32-0.52c-0.48-0.13-0.98-0.19-1.48-0.18
		c-0.71-0.05-1.42,0.14-2.01,0.55c-0.46,0.38-0.72,0.96-0.69,1.56c-0.02,0.39,0.09,0.78,0.32,1.1c0.24,0.28,0.54,0.48,0.88,0.6
		c0.56,0.19,1.13,0.36,1.7,0.49c0.84,0.16,1.63,0.53,2.3,1.07c0.51,0.51,0.77,1.21,0.72,1.93c0.04,0.94-0.35,1.85-1.06,2.47
		c-0.81,0.65-1.84,0.98-2.88,0.92C152.32,556.38,151.3,556.19,150.37,555.75"/>
	<rect id="Rectangle_1486" x="165.18" y="539.06" class="st0" width="0.94" height="16.97"/>
	<path id="Path_2775" class="st0" d="M169.48,550.43c-0.02-1.03,0.18-2.05,0.6-2.99c0.35-0.8,0.92-1.48,1.64-1.96
		c0.7-0.46,1.51-0.7,2.34-0.69c1.16-0.05,2.28,0.41,3.07,1.26c0.86,1.13,1.27,2.55,1.15,3.97v0.41h-7.81
		c-0.12,1.36,0.29,2.72,1.14,3.8c0.84,0.84,2.01,1.29,3.2,1.21c1.06,0.02,2.12-0.19,3.09-0.62v0.88c-0.96,0.46-2.03,0.67-3.09,0.61
		c-1.47,0.09-2.91-0.47-3.94-1.54C169.88,553.56,169.39,552,169.48,550.43 M174.07,545.63c-0.94-0.01-1.84,0.39-2.45,1.11
		c-0.69,0.8-1.08,1.8-1.12,2.85h6.83c0.05-1.05-0.25-2.09-0.86-2.95C175.88,545.94,174.99,545.57,174.07,545.63"/>
	<path id="Path_2776" class="st0" d="M182.22,553.41v-7.44h-2.17v-0.89h2.17v-2.93h0.94v2.93h3.35v0.89h-3.35v7.18
		c-0.06,0.64,0.11,1.27,0.49,1.79c0.42,0.38,0.98,0.57,1.55,0.52c0.5,0.02,1.01-0.05,1.49-0.2v0.82c-0.54,0.17-1.1,0.26-1.66,0.25
		c-0.76,0.04-1.5-0.22-2.06-0.73C182.43,555,182.16,554.21,182.22,553.41"/>
	<path id="Path_2777" class="st0" d="M193.97,551.83v-6.75h0.94v6.98c-0.09,0.95,0.21,1.89,0.84,2.6c0.63,0.55,1.45,0.84,2.28,0.79
		c0.6,0.02,1.19-0.11,1.73-0.39c0.45-0.24,0.81-0.61,1.04-1.07c0.26-0.63,0.38-1.3,0.35-1.98v-6.94h0.94v6.77
		c0.02,0.7-0.06,1.39-0.23,2.06c-0.16,0.5-0.43,0.95-0.8,1.32c-0.36,0.37-0.81,0.66-1.3,0.83c-0.54,0.18-1.11,0.27-1.68,0.26
		c-0.61,0.01-1.22-0.09-1.79-0.3c-0.49-0.18-0.94-0.46-1.31-0.83c-0.35-0.35-0.61-0.78-0.76-1.25
		C194.02,553.25,193.94,552.54,193.97,551.83"/>
	<path id="Path_2778" class="st0" d="M205.15,555.75v-0.97c0.92,0.48,1.94,0.72,2.98,0.69c0.79,0.04,1.57-0.19,2.21-0.65
		c0.55-0.44,0.85-1.12,0.81-1.82c0.03-0.51-0.17-1.02-0.54-1.37c-0.53-0.4-1.15-0.67-1.8-0.79c-0.65-0.15-1.28-0.34-1.9-0.59
		c-0.47-0.19-0.89-0.5-1.21-0.89c-0.33-0.45-0.5-0.99-0.47-1.55c-0.06-0.89,0.33-1.74,1.04-2.28c0.78-0.52,1.7-0.78,2.64-0.74
		c0.95-0.01,1.88,0.21,2.73,0.62v0.91c-0.42-0.21-0.86-0.39-1.32-0.52c-0.48-0.13-0.98-0.19-1.48-0.18
		c-0.71-0.05-1.42,0.14-2.01,0.55c-0.46,0.38-0.72,0.96-0.69,1.56c-0.02,0.39,0.09,0.78,0.32,1.1c0.24,0.28,0.54,0.48,0.88,0.6
		c0.56,0.19,1.13,0.36,1.7,0.49c0.84,0.16,1.63,0.53,2.3,1.07c0.51,0.51,0.77,1.21,0.72,1.93c0.04,0.94-0.35,1.85-1.06,2.47
		c-0.81,0.65-1.84,0.98-2.88,0.92C207.11,556.38,206.09,556.19,205.15,555.75"/>
	<path id="Path_2779" class="st0" d="M220.9,539.06v6.55l-0.05,1.25h0.05c0.8-1.26,2.18-2.04,3.67-2.06c1-0.09,1.99,0.31,2.66,1.06
		c0.61,0.86,0.91,1.9,0.84,2.95v7.22h-0.93v-7.3c0.05-0.8-0.18-1.6-0.64-2.26c-0.49-0.57-1.23-0.88-1.99-0.81
		c-1.52,0.07-2.9,0.94-3.62,2.28v8.09h-0.93v-16.97H220.9z"/>
	<path id="Path_2780" class="st0" d="M231.32,550.43c-0.02-1.03,0.18-2.05,0.6-2.99c0.35-0.8,0.92-1.48,1.64-1.96
		c0.7-0.46,1.51-0.7,2.34-0.69c1.16-0.05,2.28,0.41,3.07,1.26c0.86,1.13,1.27,2.55,1.15,3.97v0.41h-7.82
		c-0.12,1.36,0.29,2.72,1.14,3.8c0.84,0.84,2.01,1.29,3.2,1.21c1.06,0.02,2.12-0.19,3.09-0.62v0.88c-0.96,0.46-2.03,0.67-3.09,0.61
		c-1.47,0.09-2.91-0.47-3.94-1.54C231.72,553.56,231.22,552,231.32,550.43 M235.91,545.63c-0.94-0.01-1.84,0.39-2.45,1.11
		c-0.69,0.8-1.08,1.8-1.12,2.85h6.83c0.05-1.05-0.25-2.09-0.86-2.95C237.71,545.94,236.82,545.57,235.91,545.63"/>
	<rect id="Rectangle_1487" x="243.75" y="539.06" class="st0" width="0.94" height="16.97"/>
	<path id="Path_2781" class="st0" d="M249.5,545.08l0.29,1.28h0.02c0.41-0.48,0.93-0.87,1.52-1.12c0.58-0.28,1.22-0.43,1.87-0.44
		c1.34-0.08,2.64,0.47,3.51,1.48c0.88,1.21,1.31,2.69,1.21,4.18c0.07,1.26-0.21,2.51-0.8,3.63c-0.42,0.77-1.07,1.39-1.86,1.77
		c-0.65,0.3-1.35,0.45-2.07,0.46c-1.28,0.06-2.52-0.43-3.41-1.35h-0.02l0.02,2.13v4.37h-0.94v-16.39H249.5z M256.94,550.48
		c0.08-1.26-0.27-2.52-0.98-3.56c-0.66-0.84-1.69-1.32-2.75-1.27c-1.37,0.01-2.64,0.7-3.41,1.83v6.53c0.46,0.46,1,0.83,1.59,1.1
		c0.57,0.23,1.18,0.35,1.8,0.34c0.94-0.01,1.85-0.36,2.57-0.98C256.55,553.82,256.95,552.49,256.94,550.48"/>
	<path id="Path_2782" class="st0" d="M264.43,545.08h1.01c2.21,5.97,3.44,9.28,3.7,9.94h0.09l3.83-9.94h1.01l-6.62,16.4h-1.01
		l2.19-5.36L264.43,545.08z"/>
	<path id="Path_2783" class="st0" d="M275.91,550.57c-0.08-1.52,0.4-3.01,1.34-4.2c0.88-1.05,2.2-1.63,3.57-1.58
		c1.37-0.06,2.68,0.52,3.56,1.57c0.93,1.2,1.4,2.69,1.32,4.21c0.07,1.5-0.41,2.98-1.35,4.15c-0.87,1.05-2.17,1.63-3.53,1.59
		c-1.37,0.05-2.69-0.52-3.57-1.56C276.31,553.57,275.84,552.08,275.91,550.57 M284.71,550.58c0.07-1.28-0.3-2.55-1.05-3.59
		c-0.68-0.87-1.73-1.37-2.84-1.33c-1.11-0.04-2.18,0.45-2.87,1.32c-0.76,1.04-1.13,2.31-1.06,3.6c-0.07,1.27,0.3,2.53,1.05,3.56
		c0.69,0.87,1.76,1.36,2.88,1.31c1.1,0.05,2.16-0.44,2.85-1.31C284.42,553.11,284.79,551.85,284.71,550.58"/>
	<path id="Path_2784" class="st0" d="M288.83,551.83v-6.75h0.94v6.98c-0.09,0.95,0.21,1.89,0.84,2.6c0.63,0.55,1.45,0.84,2.28,0.79
		c0.6,0.02,1.19-0.11,1.73-0.39c0.45-0.24,0.81-0.61,1.04-1.07c0.26-0.63,0.38-1.3,0.35-1.98v-6.94h0.94v6.77
		c0.02,0.7-0.06,1.39-0.23,2.06c-0.16,0.5-0.43,0.95-0.8,1.32c-0.36,0.37-0.81,0.66-1.3,0.83c-0.54,0.18-1.11,0.27-1.67,0.26
		c-0.61,0.01-1.22-0.09-1.79-0.3c-0.49-0.18-0.94-0.46-1.31-0.83c-0.35-0.35-0.61-0.78-0.76-1.25
		C288.88,553.25,288.8,552.54,288.83,551.83"/>
</g>
</svg>
