<?xml version="1.0" encoding="utf-8"?>
<!-- Generator: Adobe Illustrator 27.3.1, SVG Export Plug-In . SVG Version: 6.00 Build 0)  -->
<svg version="1.1" id="Layer_1" xmlns="http://www.w3.org/2000/svg" xmlns:xlink="http://www.w3.org/1999/xlink" x="0px" y="0px"
	 viewBox="0 0 816.36 595.28" style="enable-background:new 0 0 816.36 595.28;" xml:space="preserve">
<style type="text/css">
	.st0{clip-path:url(#SVGID_00000050627758999419390210000017851124346143941258_);}
	.st1{fill:#FFFFFF;}
</style>
<g>
	<defs>
		<rect id="SVGID_1_" x="6.85" y="15.23" width="802.67" height="564.81"/>
	</defs>
	<clipPath id="SVGID_00000147901277088718256390000016894277054850479287_">
		<use xlink:href="#SVGID_1_"  style="overflow:visible;"/>
	</clipPath>
	<g id="Group_6183" style="clip-path:url(#SVGID_00000147901277088718256390000016894277054850479287_);">
		<path id="Path_2884" class="st1" d="M121.91,38.43c0.01,1.74-0.09,3.48-0.28,5.2c-0.11,1.18-0.36,2.35-0.73,3.48
			c-0.2,0.7-0.6,1.34-1.15,1.82c-0.46,0.35-1.03,0.53-1.61,0.52c-1.58-0.27-3.08-0.91-4.37-1.87c-2.57-1.53-5.25-2.89-8.01-4.06
			c-3.87-1.64-7.85-3-11.91-4.06c-5.25-1.33-10.65-1.96-16.07-1.87c-6.06-0.09-12.08,1.06-17.69,3.38
			c-5.15,2.17-9.76,5.43-13.53,9.57c-3.85,4.33-6.78,9.39-8.61,14.89c-2.08,6.18-3.1,12.67-3.02,19.19
			c-0.13,6.9,0.91,13.78,3.06,20.34c1.81,5.46,4.73,10.47,8.59,14.73c3.68,3.96,8.22,7.02,13.27,8.95
			c5.47,2.07,11.27,3.09,17.11,3.02c3.05,0,6.09-0.35,9.05-1.04c2.9-0.66,5.7-1.71,8.33-3.12V96.28H68.83
			c-1.25,0-2.22-0.78-2.91-2.34c-0.85-2.56-1.2-5.26-1.04-7.95c-0.02-1.63,0.07-3.27,0.26-4.89c0.11-1.09,0.37-2.16,0.77-3.18
			c0.26-0.68,0.69-1.29,1.25-1.77c0.47-0.38,1.06-0.58,1.66-0.57h45.51c1.02-0.02,2.03,0.18,2.97,0.57c0.88,0.39,1.67,0.98,2.3,1.72
			c0.69,0.81,1.2,1.75,1.51,2.76c0.37,1.2,0.54,2.44,0.52,3.7v53.57c0.04,1.88-0.33,3.74-1.09,5.46c-0.96,1.76-2.56,3.08-4.47,3.69
			c-2.25,0.9-5.05,1.84-8.38,2.81c-3.33,0.97-6.78,1.8-10.35,2.49c-3.57,0.7-7.18,1.22-10.82,1.56c-3.64,0.34-7.3,0.52-10.98,0.52
			c-9.82,0.16-19.6-1.41-28.88-4.62c-16.43-5.62-29.37-18.47-35.11-34.85c-3.25-9.2-4.84-18.91-4.68-28.67
			c-0.16-10.12,1.53-20.18,4.97-29.7c3.08-8.38,7.9-16,14.16-22.37c6.26-6.24,13.81-11.05,22.11-14.1
			c9.25-3.36,19.04-5.02,28.88-4.89c5.33-0.04,10.65,0.36,15.92,1.19c4.24,0.67,8.43,1.64,12.54,2.91c3.08,0.94,6.06,2.17,8.9,3.7
			c1.8,0.92,3.46,2.08,4.94,3.44c1.04,1.16,1.74,2.58,2.03,4.11c0.49,2.59,0.7,5.22,0.62,7.86"/>
		<path id="Path_2885" class="st1" d="M237.81,141.43c0.02,1.68-0.07,3.37-0.26,5.04c-0.11,1.12-0.37,2.22-0.77,3.28
			c-0.26,0.71-0.71,1.34-1.3,1.82c-0.49,0.37-1.1,0.58-1.71,0.57h-67.64c-2.11,0.06-4.17-0.66-5.77-2.03
			c-1.72-1.75-2.57-4.17-2.34-6.61V26.15c-0.23-2.44,0.63-4.86,2.34-6.6c1.61-1.37,3.67-2.09,5.77-2.02h67.21
			c0.6-0.01,1.18,0.17,1.66,0.52c0.58,0.48,1.01,1.11,1.25,1.82c0.39,1.07,0.65,2.19,0.77,3.33c0.19,1.71,0.28,3.43,0.26,5.15
			c0.02,1.65-0.07,3.3-0.26,4.94c-0.11,1.12-0.37,2.22-0.77,3.28c-0.26,0.7-0.69,1.33-1.25,1.82c-0.47,0.38-1.06,0.58-1.66,0.57
			h-48.07v32.88h40.68c0.62,0,1.22,0.2,1.71,0.57c0.58,0.47,1.03,1.08,1.3,1.78c0.4,1.03,0.66,2.12,0.77,3.22
			c0.19,1.64,0.28,3.29,0.26,4.94c0.02,1.67-0.07,3.34-0.26,5c-0.11,1.09-0.37,2.15-0.77,3.17c-0.26,0.69-0.71,1.28-1.3,1.72
			c-0.51,0.34-1.1,0.52-1.71,0.52h-40.68v37.98h48.47c0.62,0,1.22,0.2,1.71,0.57c0.59,0.48,1.04,1.11,1.3,1.82
			c0.4,1.06,0.65,2.16,0.77,3.28c0.19,1.67,0.28,3.36,0.26,5.04"/>
		<path id="Path_2886" class="st1" d="M344.25,140.7c0.02,1.75-0.07,3.51-0.26,5.25c-0.12,1.21-0.38,2.39-0.77,3.54
			c-0.25,0.78-0.69,1.48-1.3,2.03c-0.52,0.41-1.16,0.64-1.82,0.62h-61.71c-2.11,0.06-4.17-0.66-5.77-2.03
			c-1.71-1.75-2.57-4.17-2.34-6.61V21.27c0-0.69,0.24-1.35,0.68-1.87c0.61-0.65,1.38-1.12,2.23-1.35c1.37-0.42,2.78-0.7,4.21-0.83
			c4.41-0.41,8.86-0.41,13.27,0c1.41,0.14,2.81,0.42,4.16,0.83c0.86,0.24,1.63,0.7,2.23,1.35c0.44,0.53,0.68,1.19,0.67,1.87v108.28
			h42.35c0.65-0.01,1.29,0.19,1.82,0.57c0.6,0.49,1.05,1.14,1.3,1.87c0.4,1.11,0.65,2.27,0.77,3.44c0.19,1.74,0.28,3.49,0.26,5.25"
			/>
		<path id="Path_2887" class="st1" d="M448.49,141.43c0.02,1.68-0.07,3.37-0.26,5.04c-0.11,1.12-0.37,2.22-0.77,3.28
			c-0.26,0.71-0.71,1.34-1.3,1.82c-0.49,0.37-1.1,0.58-1.71,0.57h-67.64c-2.11,0.06-4.17-0.66-5.77-2.03
			c-1.72-1.75-2.57-4.17-2.34-6.61V26.15c-0.23-2.44,0.63-4.86,2.34-6.6c1.61-1.37,3.67-2.09,5.77-2.02h67.21
			c0.6-0.01,1.18,0.17,1.66,0.52c0.58,0.48,1.01,1.11,1.25,1.82c0.39,1.07,0.65,2.19,0.77,3.33c0.19,1.71,0.28,3.43,0.26,5.15
			c0.02,1.65-0.07,3.3-0.26,4.94c-0.11,1.12-0.37,2.22-0.77,3.28c-0.26,0.7-0.69,1.33-1.25,1.82c-0.47,0.38-1.06,0.58-1.66,0.57
			h-48.07v32.88h40.68c0.62,0,1.22,0.2,1.71,0.57c0.58,0.47,1.03,1.08,1.3,1.78c0.4,1.03,0.66,2.12,0.77,3.22
			c0.19,1.64,0.28,3.29,0.26,4.94c0.02,1.67-0.07,3.34-0.26,5c-0.11,1.09-0.37,2.15-0.77,3.17c-0.26,0.69-0.71,1.28-1.3,1.72
			c-0.51,0.34-1.1,0.52-1.71,0.52h-40.68v37.98h48.48c0.62,0,1.22,0.2,1.71,0.57c0.59,0.48,1.04,1.11,1.3,1.82
			c0.4,1.06,0.65,2.16,0.77,3.28c0.19,1.67,0.28,3.36,0.26,5.04"/>
		<path id="Path_2888" class="st1" d="M570.95,131.75c0,1.74-0.05,3.21-0.15,4.42c-0.08,1.05-0.24,2.09-0.47,3.12
			c-0.17,0.78-0.45,1.53-0.83,2.23c-0.46,0.78-1.02,1.49-1.66,2.14c-1.34,1.2-2.83,2.23-4.42,3.06c-2.56,1.42-5.24,2.62-8.01,3.59
			c-3.53,1.24-7.15,2.2-10.82,2.86c-4.34,0.79-8.75,1.17-13.16,1.15c-8.51,0.12-16.98-1.32-24.97-4.27
			c-7.22-2.71-13.71-7.07-18.93-12.75c-5.47-6.11-9.55-13.33-11.96-21.17c-2.94-9.57-4.34-19.54-4.16-29.55
			c-0.17-10.35,1.39-20.65,4.59-30.48c2.69-8.25,7.05-15.87,12.8-22.37c5.44-6.01,12.18-10.7,19.7-13.72
			c8.06-3.2,16.67-4.79,25.34-4.68c3.63-0.01,7.25,0.3,10.82,0.94c3.26,0.57,6.48,1.39,9.62,2.44c2.75,0.92,5.42,2.09,7.96,3.49
			c1.78,0.91,3.44,2.05,4.94,3.38c0.74,0.69,1.38,1.48,1.91,2.34c0.39,0.75,0.68,1.56,0.83,2.4c0.23,1.14,0.38,2.29,0.47,3.44
			c0.1,1.32,0.15,2.94,0.16,4.89c0,2.08-0.07,3.85-0.21,5.31c-0.09,1.21-0.33,2.39-0.73,3.54c-0.25,0.75-0.68,1.43-1.25,1.97
			c-0.46,0.41-1.05,0.63-1.66,0.63c-1.47-0.19-2.86-0.82-3.96-1.82c-1.98-1.47-4.05-2.82-6.19-4.06c-2.87-1.65-5.89-3.02-9.03-4.07
			c-4.05-1.3-8.28-1.91-12.53-1.82c-9.93-0.25-19.32,4.49-25.02,12.63c-3.13,4.45-5.4,9.44-6.71,14.72
			c-1.6,6.36-2.37,12.9-2.3,19.46c-0.12,6.93,0.7,13.84,2.45,20.55c1.33,5.19,3.71,10.06,6.97,14.31c2.89,3.65,6.65,6.53,10.92,8.38
			c4.56,1.9,9.47,2.83,14.41,2.75c4.26,0.09,8.51-0.49,12.59-1.72c3.15-0.98,6.19-2.25,9.1-3.8c2.53-1.39,4.61-2.63,6.24-3.75
			c1.09-0.89,2.4-1.47,3.8-1.66c0.58-0.03,1.16,0.12,1.66,0.42c0.52,0.43,0.88,1.01,1.04,1.66c0.33,1.14,0.54,2.3,0.62,3.49
			c0.14,1.49,0.21,3.49,0.21,5.98"/>
		<path id="Path_2889" class="st1" d="M678.74,141.43c0.02,1.68-0.07,3.37-0.26,5.04c-0.11,1.12-0.37,2.22-0.77,3.28
			c-0.26,0.71-0.71,1.34-1.3,1.82c-0.49,0.37-1.1,0.58-1.71,0.57h-67.64c-2.11,0.06-4.17-0.66-5.77-2.03
			c-1.72-1.75-2.57-4.17-2.34-6.61V26.15c-0.23-2.44,0.63-4.86,2.34-6.6c1.61-1.37,3.67-2.09,5.77-2.02h67.21
			c0.6-0.01,1.18,0.17,1.66,0.52c0.58,0.48,1.01,1.11,1.25,1.82c0.39,1.07,0.65,2.19,0.77,3.33c0.19,1.71,0.28,3.43,0.26,5.15
			c0.02,1.65-0.07,3.3-0.26,4.94c-0.11,1.12-0.37,2.22-0.77,3.28c-0.26,0.7-0.69,1.33-1.25,1.82c-0.47,0.38-1.06,0.58-1.66,0.57
			h-48.07v32.88h40.68c0.62,0,1.22,0.2,1.71,0.57c0.58,0.47,1.03,1.08,1.3,1.78c0.4,1.03,0.66,2.12,0.77,3.22
			c0.19,1.64,0.28,3.29,0.26,4.94c0.02,1.67-0.07,3.34-0.26,5c-0.11,1.09-0.37,2.15-0.77,3.17c-0.26,0.69-0.71,1.28-1.3,1.72
			c-0.51,0.34-1.1,0.52-1.71,0.52h-40.68v37.98h48.48c0.62,0,1.22,0.2,1.71,0.57c0.59,0.48,1.04,1.11,1.3,1.82
			c0.4,1.06,0.65,2.16,0.77,3.28c0.19,1.67,0.28,3.36,0.26,5.04"/>
		<path id="Path_2890" class="st1" d="M809.51,148.09c0.01,0.72-0.19,1.42-0.57,2.03c-0.55,0.71-1.32,1.22-2.18,1.45
			c-1.44,0.46-2.92,0.75-4.42,0.89c-2.35,0.23-4.72,0.33-7.08,0.31c-3.25,0.08-6.5-0.1-9.73-0.52c-1.52-0.18-2.98-0.72-4.25-1.57
			c-0.85-0.68-1.54-1.53-2.03-2.5l-40.7-63.87v63.88c0.02,0.71-0.2,1.4-0.62,1.97c-0.58,0.67-1.34,1.15-2.18,1.4
			c-1.35,0.45-2.75,0.75-4.16,0.89c-4.41,0.41-8.86,0.41-13.27,0c-1.43-0.14-2.84-0.43-4.21-0.89c-0.86-0.26-1.63-0.74-2.24-1.4
			c-0.45-0.56-0.69-1.26-0.68-1.97V21.35c-0.01-0.72,0.23-1.42,0.68-1.98c0.6-0.65,1.38-1.12,2.24-1.35
			c1.37-0.42,2.78-0.69,4.21-0.83c4.41-0.42,8.86-0.42,13.27,0c1.41,0.15,2.81,0.43,4.16,0.85c0.85,0.22,1.61,0.69,2.18,1.35
			c0.42,0.57,0.64,1.27,0.62,1.98V78.7l39.43-57.23c0.44-0.85,1.04-1.61,1.76-2.24c0.8-0.64,1.72-1.12,2.71-1.4
			c1.39-0.4,2.82-0.64,4.26-0.73c1.73-0.14,3.95-0.21,6.66-0.21c2.29-0.02,4.59,0.08,6.87,0.31c1.47,0.14,2.91,0.44,4.32,0.89
			c0.86,0.24,1.64,0.73,2.23,1.4c0.41,0.54,0.63,1.2,0.63,1.87c-0.02,1.27-0.34,2.52-0.93,3.64c-0.63,1.25-1.81,3.23-3.54,5.93
			l-36.93,48.38l40.26,60.86c1.04,1.83,1.96,3.72,2.75,5.67C809.31,146.57,809.47,147.33,809.51,148.09"/>
		<path id="Path_2891" class="st1" d="M72.02,379.45c0.04,2.95-0.41,5.89-1.32,8.69c-0.82,2.49-2.06,4.81-3.65,6.89
			c-1.56,2.01-3.44,3.74-5.56,5.15c-2.22,1.47-4.62,2.66-7.13,3.55c-2.7,0.95-5.48,1.64-8.31,2.05c-3.26,0.46-6.55,0.68-9.84,0.66
			H12.27c-1.41,0.04-2.79-0.44-3.86-1.36c-1.15-1.17-1.72-2.79-1.56-4.42v-78.46c-0.15-1.63,0.42-3.25,1.56-4.42
			c1.07-0.91,2.45-1.4,3.86-1.36h22.61c4.71-0.08,9.41,0.38,14.02,1.39c3.46,0.77,6.75,2.2,9.67,4.21c2.58,1.83,4.65,4.28,6.02,7.13
			c1.46,3.18,2.17,6.66,2.09,10.15c0.01,2.08-0.27,4.15-0.83,6.16c-0.53,1.87-1.35,3.64-2.43,5.25c-1.08,1.59-2.41,3-3.93,4.17
			c-1.61,1.24-3.41,2.23-5.32,2.92c2.47,0.43,4.85,1.25,7.06,2.43c2.14,1.14,4.05,2.66,5.64,4.49c1.64,1.9,2.92,4.08,3.79,6.43
			C71.59,373.83,72.07,376.63,72.02,379.45 M48.37,341.54c0.03-1.66-0.26-3.31-0.83-4.87c-0.52-1.39-1.38-2.62-2.5-3.58
			c-1.24-1.02-2.67-1.76-4.21-2.2c-2.21-0.57-4.5-0.83-6.78-0.77H24.8v23.37h10.22c2.15,0.08,4.3-0.24,6.33-0.94
			c1.48-0.56,2.82-1.44,3.93-2.57c1.04-1.09,1.84-2.4,2.33-3.83C48.12,344.68,48.38,343.11,48.37,341.54 M53.03,380.07
			c0.03-1.92-0.32-3.82-1.04-5.59c-0.67-1.61-1.72-3.03-3.06-4.14c-1.52-1.2-3.28-2.08-5.15-2.58c-2.66-0.67-5.4-0.97-8.14-0.9H24.8
			v25.6h13.22c2.17,0.05,4.34-0.22,6.43-0.8c1.65-0.49,3.18-1.29,4.52-2.36c1.28-1.05,2.3-2.38,2.99-3.9
			C52.7,383.73,53.07,381.91,53.03,380.07"/>
		<path id="Path_2892" class="st1" d="M164.61,399.62c0.45,1.29,0.8,2.62,1.03,3.98c0.19,0.78-0.01,1.6-0.55,2.19
			c-0.78,0.59-1.73,0.9-2.71,0.91c-1.3,0.11-3.09,0.17-5.36,0.17c-2.36,0-4.21-0.03-5.53-0.1c-1.02-0.03-2.04-0.17-3.03-0.42
			c-0.57-0.13-1.08-0.43-1.46-0.87c-0.31-0.44-0.55-0.94-0.69-1.46l-6.04-18.09h-33.81l-5.7,17.6c-0.16,0.58-0.4,1.13-0.73,1.63
			c-0.37,0.49-0.88,0.85-1.46,1.04c-0.92,0.3-1.88,0.47-2.85,0.52c-1.23,0.09-2.84,0.14-4.84,0.14c-1.67,0.02-3.34-0.05-5.01-0.21
			c-0.93-0.02-1.82-0.38-2.5-1.01c-0.49-0.64-0.67-1.47-0.49-2.26c0.23-1.33,0.58-2.63,1.04-3.9l27.77-79.85
			c0.23-0.68,0.55-1.33,0.98-1.91c0.46-0.55,1.08-0.94,1.77-1.11c1.1-0.3,2.23-0.46,3.37-0.49c1.44-0.07,3.34-0.1,5.7-0.11
			c2.73,0,4.91,0.04,6.54,0.11c1.28,0.02,2.55,0.18,3.79,0.49c0.75,0.17,1.43,0.57,1.94,1.15c0.45,0.63,0.8,1.34,1.01,2.09
			L164.61,399.62z M123.29,333.62h-0.07l-12.73,38.26h25.53L123.29,333.62z"/>
		<path id="Path_2893" class="st1" d="M211.55,407.21l1.74,3.83c0.73,1.53,1.35,3.11,1.84,4.73c0.38,1.26,0.58,2.58,0.59,3.9
			c0.05,1.9-0.35,3.78-1.18,5.49c-0.75,1.49-1.85,2.78-3.2,3.75c-1.43,1.02-3.03,1.76-4.73,2.19c-1.91,0.5-3.87,0.74-5.84,0.73
			c-1.9,0.01-3.79-0.13-5.67-0.42c-1.45-0.22-2.89-0.52-4.31-0.9c-0.83-0.22-1.65-0.5-2.44-0.84c-0.43-0.18-0.8-0.5-1.04-0.9
			c-0.23-0.45-0.39-0.93-0.45-1.43c-0.11-0.79-0.16-1.59-0.14-2.4c-0.09-1.31,0.09-2.62,0.52-3.86c0.35-0.72,1.11-1.15,1.91-1.08
			h8.07c1.08,0.08,2.15-0.23,3.03-0.86c0.68-0.61,1.05-1.49,1.01-2.4c-0.02-0.64-0.13-1.27-0.34-1.88
			c-0.24-0.69-0.51-1.41-0.83-2.15l-2.23-4.94c-1.86-0.13-3.71-0.4-5.53-0.8c-1.89-0.42-3.75-0.97-5.56-1.63
			c-1.68-0.59-3.31-1.32-4.87-2.19c-1.04-0.56-2.01-1.25-2.89-2.05c-0.67-0.73-1.11-1.63-1.29-2.61c-0.3-1.62-0.43-3.26-0.38-4.91
			c0-1.44,0.05-2.65,0.14-3.62c0.06-0.8,0.21-1.6,0.45-2.36c0.14-0.5,0.44-0.95,0.84-1.29c0.35-0.26,0.78-0.39,1.22-0.38
			c1,0.14,1.95,0.53,2.75,1.15c1.47,0.93,2.99,1.77,4.55,2.54c2.14,1.04,4.36,1.89,6.65,2.54c2.91,0.81,5.92,1.2,8.93,1.15
			c2.02,0.03,4.04-0.24,5.98-0.8c1.62-0.46,3.15-1.23,4.48-2.26c1.22-0.96,2.19-2.2,2.82-3.62c0.66-1.51,0.99-3.15,0.97-4.8
			c0.05-1.89-0.54-3.74-1.67-5.25c-1.21-1.55-2.68-2.86-4.35-3.9c-1.95-1.22-3.98-2.29-6.09-3.2c-2.27-0.99-4.61-2.05-7.03-3.16
			c-2.42-1.12-4.76-2.38-7.03-3.79c-2.26-1.4-4.3-3.11-6.09-5.08c-1.84-2.06-3.31-4.43-4.35-6.99c-1.18-3.08-1.75-6.37-1.67-9.67
			c-0.08-3.92,0.74-7.82,2.4-11.37c1.52-3.16,3.73-5.95,6.47-8.14c2.85-2.23,6.11-3.87,9.6-4.83c3.81-1.09,7.75-1.63,11.72-1.6
			c2.14,0,4.28,0.17,6.4,0.49c2.02,0.3,4.02,0.74,5.98,1.32c1.69,0.5,3.35,1.12,4.94,1.88c1.03,0.44,1.99,1.02,2.85,1.74
			c0.37,0.35,0.69,0.74,0.94,1.18c0.19,0.41,0.33,0.84,0.42,1.29c0.13,0.67,0.21,1.34,0.24,2.02c0.05,0.81,0.07,1.82,0.07,3.02
			c0,1.35-0.03,2.48-0.1,3.41c-0.04,0.77-0.16,1.54-0.35,2.3c-0.1,0.5-0.34,0.96-0.69,1.32c-0.34,0.29-0.78,0.44-1.22,0.41
			c-0.87-0.13-1.71-0.47-2.43-0.97c-1.11-0.65-2.48-1.35-4.1-2.12c-1.82-0.84-3.71-1.54-5.64-2.09c-2.29-0.65-4.65-0.96-7.03-0.94
			c-1.77-0.03-3.53,0.21-5.22,0.73c-1.36,0.42-2.63,1.1-3.72,2.02c-0.98,0.84-1.74,1.9-2.23,3.1c-0.49,1.22-0.74,2.52-0.73,3.83
			c-0.04,1.86,0.53,3.68,1.64,5.18c1.2,1.56,2.69,2.88,4.38,3.9c1.99,1.22,4.07,2.29,6.23,3.2c2.32,1,4.68,2.06,7.09,3.17
			c2.44,1.13,4.81,2.39,7.1,3.79c2.29,1.39,4.37,3.1,6.19,5.08c1.86,2.04,3.34,4.4,4.38,6.96c1.17,3,1.74,6.21,1.67,9.43
			c0.07,4.38-0.87,8.73-2.75,12.69c-1.87,3.82-4.66,7.11-8.14,9.57C221.12,404.52,216.45,406.4,211.55,407.21"/>
		<path id="Path_2894" class="st1" d="M305.11,398.79c0.01,1.17-0.05,2.35-0.17,3.51c-0.08,0.81-0.26,1.6-0.52,2.36
			c-0.16,0.52-0.46,0.99-0.87,1.36c-0.35,0.28-0.78,0.42-1.22,0.42h-41.25c-1.41,0.04-2.79-0.44-3.86-1.35
			c-1.15-1.17-1.72-2.79-1.56-4.42v-81.73c0-0.46,0.16-0.9,0.45-1.25c0.4-0.44,0.92-0.75,1.5-0.91c0.92-0.27,1.86-0.46,2.82-0.55
			c2.95-0.28,5.92-0.28,8.87,0c0.94,0.1,1.87,0.28,2.78,0.55c0.57,0.16,1.09,0.47,1.5,0.91c0.29,0.35,0.45,0.79,0.45,1.25v72.42
			h28.31c0.44-0.01,0.86,0.13,1.22,0.38c0.4,0.33,0.7,0.76,0.87,1.26c0.27,0.74,0.45,1.51,0.52,2.3c0.13,1.17,0.18,2.34,0.17,3.51"
			/>
		<path id="Path_2895" class="st1" d="M395.19,399.62c0.46,1.29,0.81,2.62,1.04,3.97c0.19,0.78-0.01,1.6-0.55,2.19
			c-0.78,0.59-1.73,0.9-2.71,0.91c-1.3,0.11-3.09,0.17-5.36,0.17c-2.36,0-4.21-0.03-5.53-0.1c-1.02-0.03-2.04-0.17-3.03-0.42
			c-0.57-0.13-1.08-0.43-1.46-0.87c-0.31-0.44-0.55-0.94-0.69-1.46l-6.05-18.09h-33.81l-5.7,17.6c-0.15,0.58-0.4,1.13-0.73,1.63
			c-0.37,0.49-0.88,0.85-1.46,1.04c-0.92,0.3-1.88,0.47-2.85,0.52c-1.23,0.09-2.84,0.14-4.84,0.14c-1.67,0.02-3.34-0.05-5.01-0.21
			c-0.93-0.02-1.82-0.38-2.5-1.01c-0.49-0.64-0.67-1.47-0.49-2.26c0.23-1.33,0.58-2.63,1.04-3.9l27.75-79.85
			c0.23-0.68,0.55-1.33,0.98-1.91c0.46-0.55,1.08-0.94,1.77-1.11c1.1-0.3,2.23-0.46,3.37-0.49c1.44-0.07,3.34-0.1,5.7-0.11
			c2.73,0,4.91,0.04,6.54,0.11c1.28,0.02,2.55,0.18,3.79,0.49c0.75,0.17,1.43,0.57,1.94,1.15c0.45,0.63,0.8,1.34,1.01,2.09
			L395.19,399.62z M353.87,333.62h-0.07l-12.73,38.26h25.52L353.87,333.62z"/>
		<path id="Path_2896" class="st1" d="M518.23,403.94c0.01,0.45-0.13,0.89-0.38,1.26c-0.36,0.44-0.84,0.75-1.39,0.9
			c-0.87,0.27-1.77,0.46-2.68,0.55c-1.41,0.15-2.83,0.22-4.24,0.2c-1.39,0.01-2.79-0.05-4.17-0.2c-0.9-0.09-1.78-0.28-2.64-0.55
			c-0.54-0.16-1.02-0.48-1.39-0.9c-0.27-0.36-0.42-0.8-0.42-1.26V330.7h-0.14l-26.08,73.17c-0.16,0.57-0.48,1.09-0.9,1.5
			c-0.49,0.44-1.07,0.76-1.7,0.95c-0.9,0.26-1.82,0.41-2.75,0.45c-1.11,0.07-2.46,0.1-4.04,0.1c-1.35,0.01-2.69-0.05-4.04-0.17
			c-0.93-0.08-1.86-0.26-2.75-0.55c-0.62-0.2-1.2-0.52-1.7-0.93c-0.4-0.35-0.69-0.81-0.83-1.33L430.8,330.7h-0.14v73.24
			c0,0.45-0.13,0.89-0.38,1.26c-0.37,0.44-0.87,0.76-1.43,0.9c-0.87,0.27-1.77,0.45-2.68,0.55c-2.79,0.27-5.6,0.27-8.38,0
			c-0.91-0.1-1.81-0.28-2.68-0.55c-0.55-0.15-1.03-0.47-1.39-0.9c-0.25-0.37-0.39-0.81-0.38-1.26v-80.19
			c-0.14-1.99,0.54-3.95,1.88-5.43c1.34-1.29,3.15-1.97,5-1.88h11.96c1.84-0.03,3.69,0.15,5.49,0.52c1.43,0.31,2.78,0.9,3.96,1.74
			c1.15,0.85,2.1,1.94,2.79,3.19c0.83,1.56,1.48,3.2,1.95,4.91l19.48,53.63h0.28l20.17-53.49c0.51-1.7,1.17-3.36,1.98-4.94
			c0.63-1.23,1.48-2.34,2.51-3.27c0.97-0.85,2.12-1.45,3.37-1.78c1.48-0.37,3-0.54,4.52-0.52H511c1.1-0.02,2.19,0.14,3.23,0.49
			c0.85,0.29,1.61,0.77,2.23,1.42c0.6,0.66,1.05,1.45,1.32,2.3c0.32,1,0.47,2.05,0.45,3.1L518.23,403.94z"/>
		<path id="Path_2897" class="st1" d="M617.14,399.62c0.46,1.29,0.81,2.62,1.04,3.97c0.19,0.78-0.01,1.6-0.55,2.19
			c-0.78,0.59-1.73,0.9-2.71,0.91c-1.3,0.11-3.09,0.17-5.36,0.17c-2.36,0-4.21-0.03-5.53-0.1c-1.02-0.03-2.04-0.17-3.03-0.42
			c-0.57-0.13-1.08-0.43-1.46-0.87c-0.31-0.44-0.55-0.94-0.69-1.46l-6.05-18.09h-33.81l-5.7,17.6c-0.15,0.58-0.4,1.13-0.73,1.63
			c-0.37,0.49-0.88,0.85-1.46,1.04c-0.92,0.3-1.88,0.47-2.85,0.52c-1.23,0.09-2.84,0.14-4.84,0.14c-1.67,0.02-3.34-0.05-5.01-0.21
			c-0.93-0.02-1.82-0.38-2.5-1.01c-0.49-0.64-0.67-1.47-0.49-2.26c0.23-1.33,0.58-2.63,1.04-3.9l27.75-79.85
			c0.23-0.68,0.55-1.33,0.98-1.91c0.46-0.55,1.08-0.94,1.77-1.11c1.1-0.3,2.23-0.46,3.37-0.49c1.44-0.07,3.34-0.1,5.7-0.11
			c2.73,0,4.91,0.04,6.54,0.11c1.28,0.02,2.55,0.18,3.79,0.49c0.75,0.17,1.43,0.57,1.94,1.15c0.45,0.63,0.8,1.34,1.01,2.09
			L617.14,399.62z M575.81,333.62h-0.07l-12.73,38.26h25.53L575.81,333.62z"/>
		<path id="Path_2898" class="st1" d="M709.51,400.04c0.02,0.98-0.17,1.95-0.55,2.85c-0.34,0.8-0.85,1.51-1.5,2.09
			c-0.64,0.56-1.4,0.98-2.23,1.22c-0.85,0.25-1.73,0.38-2.61,0.38h-7.79c-1.42,0.03-2.83-0.14-4.21-0.49
			c-1.21-0.34-2.33-0.94-3.27-1.77c-1.13-1.01-2.1-2.18-2.88-3.48c-0.93-1.46-1.97-3.35-3.13-5.67l-22.4-42.09
			c-1.3-2.5-2.62-5.2-3.96-8.1c-1.34-2.9-2.55-5.72-3.62-8.45h-0.14c0.18,3.34,0.32,6.67,0.42,9.98c0.09,3.31,0.14,6.73,0.14,10.26
			v47.09c0.01,0.45-0.13,0.88-0.38,1.25c-0.34,0.43-0.8,0.76-1.32,0.94c-0.82,0.3-1.67,0.5-2.54,0.59c-1.36,0.15-2.73,0.22-4.1,0.21
			c-1.35,0.02-2.7-0.05-4.04-0.21c-0.86-0.09-1.7-0.29-2.5-0.59c-0.5-0.18-0.94-0.5-1.26-0.94c-0.23-0.37-0.35-0.81-0.35-1.25
			v-80.89c-0.14-1.84,0.57-3.64,1.91-4.91c1.31-1.1,2.98-1.68,4.69-1.63h9.81c1.5-0.03,2.99,0.12,4.45,0.45
			c1.17,0.28,2.26,0.79,3.23,1.5c1.05,0.8,1.96,1.78,2.68,2.89c0.96,1.46,1.82,2.98,2.58,4.56l17.53,32.91
			c1.02,2,2.03,3.96,3.03,5.88c1,1.92,1.96,3.85,2.89,5.78c0.93,1.91,1.83,3.83,2.71,5.67c0.88,1.84,1.74,3.71,2.58,5.56h0.07
			c-0.14-3.24-0.24-6.63-0.31-10.15c-0.07-3.53-0.11-6.89-0.1-10.08v-42.23c0-0.45,0.14-0.89,0.42-1.25
			c0.37-0.44,0.85-0.78,1.39-0.98c0.83-0.32,1.69-0.52,2.58-0.59c1.36-0.13,2.73-0.19,4.1-0.18c1.32-0.01,2.65,0.05,3.97,0.18
			c0.85,0.06,1.68,0.26,2.47,0.59c0.49,0.2,0.91,0.54,1.22,0.98c0.23,0.37,0.35,0.81,0.35,1.25L709.51,400.04z"/>
		<path id="Path_2899" class="st1" d="M808.43,399.62c0.46,1.29,0.81,2.62,1.04,3.97c0.19,0.78-0.01,1.6-0.55,2.19
			c-0.78,0.59-1.73,0.9-2.71,0.91c-1.3,0.11-3.09,0.17-5.36,0.17c-2.36,0-4.21-0.03-5.53-0.1c-1.02-0.03-2.04-0.17-3.03-0.42
			c-0.57-0.13-1.08-0.43-1.46-0.87c-0.31-0.44-0.55-0.94-0.69-1.46l-6.05-18.09h-33.79l-5.7,17.6c-0.16,0.58-0.4,1.13-0.73,1.63
			c-0.37,0.49-0.88,0.85-1.46,1.04c-0.92,0.3-1.88,0.47-2.85,0.52c-1.23,0.09-2.84,0.14-4.84,0.14c-1.67,0.02-3.34-0.05-5.01-0.21
			c-0.93-0.02-1.82-0.38-2.5-1.01c-0.49-0.64-0.67-1.47-0.49-2.26c0.23-1.33,0.58-2.63,1.04-3.9l27.76-79.85
			c0.22-0.68,0.55-1.33,0.97-1.91c0.46-0.55,1.08-0.94,1.78-1.11c1.1-0.3,2.23-0.46,3.37-0.49c1.44-0.07,3.34-0.1,5.7-0.11
			c2.73,0,4.91,0.04,6.54,0.11c1.28,0.02,2.55,0.18,3.79,0.49c0.75,0.17,1.43,0.57,1.94,1.15c0.45,0.63,0.8,1.34,1.01,2.09
			L808.43,399.62z M767.13,333.62h-0.07l-12.73,38.26h25.53L767.13,333.62z"/>
		<path id="Path_2901" class="st1" d="M51.7,245.48c0.05,2.8-0.53,5.57-1.68,8.12c-1.1,2.35-2.74,4.41-4.78,6
			c-2.2,1.7-4.72,2.95-7.4,3.7c-3.07,0.87-6.25,1.29-9.44,1.26c-2.02,0.01-4.04-0.16-6.04-0.5c-1.75-0.29-3.47-0.7-5.15-1.25
			c-1.33-0.43-2.61-0.96-3.86-1.58c-0.82-0.4-1.59-0.9-2.3-1.48c-0.52-0.5-0.89-1.14-1.06-1.85c-0.25-1.06-0.36-2.15-0.33-3.24
			c-0.01-0.71,0.03-1.41,0.13-2.11c0.06-0.47,0.17-0.94,0.33-1.39c0.18-0.6,0.74-1.01,1.36-0.99c0.78,0.11,1.52,0.42,2.15,0.89
			c0.94,0.59,2.11,1.24,3.5,1.95c1.58,0.78,3.23,1.43,4.92,1.95c2.12,0.62,4.32,0.92,6.54,0.89c1.69,0.02,3.37-0.18,5.01-0.59
			c1.39-0.35,2.71-0.94,3.9-1.75c1.08-0.75,1.96-1.76,2.54-2.94c0.62-1.31,0.93-2.76,0.89-4.21c0.05-1.51-0.41-2.99-1.29-4.21
			c-0.94-1.21-2.09-2.24-3.4-3.03c-1.51-0.93-3.1-1.71-4.75-2.34c-1.76-0.68-3.58-1.4-5.44-2.15c-1.87-0.75-3.7-1.6-5.48-2.54
			c-1.75-0.92-3.36-2.08-4.79-3.44c-1.43-1.4-2.58-3.05-3.39-4.88c-0.91-2.15-1.35-4.47-1.29-6.8c-0.01-2.3,0.45-4.58,1.35-6.7
			c0.92-2.15,2.31-4.07,4.06-5.61c1.99-1.71,4.28-3.02,6.76-3.86c3.05-1.02,6.25-1.52,9.47-1.45c1.59,0,3.18,0.13,4.75,0.38
			c1.45,0.24,2.88,0.57,4.29,0.99c1.12,0.34,2.22,0.77,3.27,1.29c0.71,0.35,1.4,0.76,2.04,1.22c0.36,0.25,0.68,0.56,0.92,0.93
			c0.16,0.28,0.27,0.58,0.33,0.89c0.07,0.33,0.13,0.74,0.2,1.22c0.07,0.59,0.1,1.19,0.1,1.78c0,0.65-0.03,1.3-0.1,1.95
			c-0.05,0.46-0.16,0.92-0.33,1.35c-0.11,0.3-0.31,0.57-0.56,0.77c-0.21,0.15-0.46,0.23-0.72,0.23c-0.62-0.09-1.22-0.34-1.71-0.72
			c-0.93-0.58-1.9-1.1-2.9-1.55c-1.37-0.61-2.77-1.12-4.21-1.53c-1.79-0.51-3.65-0.76-5.51-0.73c-1.65-0.03-3.3,0.18-4.89,0.63
			c-1.27,0.34-2.45,0.95-3.46,1.78c-0.88,0.74-1.58,1.68-2.05,2.74c-0.47,1.09-0.7,2.26-0.69,3.44c-0.05,1.55,0.41,3.07,1.32,4.32
			c0.95,1.22,2.12,2.26,3.44,3.06c1.53,0.94,3.14,1.73,4.82,2.37c1.81,0.7,3.64,1.43,5.51,2.18s3.72,1.58,5.54,2.51
			c1.77,0.89,3.4,2.02,4.85,3.37c1.43,1.35,2.58,2.96,3.4,4.75c0.91,2.08,1.35,4.33,1.29,6.6"/>
		<path id="Path_2902" class="st1" d="M117.96,229.38c0.14,1.35-0.34,2.7-1.29,3.66c-0.82,0.71-1.87,1.09-2.95,1.09H74.6
			c-0.04,3,0.3,5.99,0.99,8.91c0.59,2.48,1.72,4.8,3.31,6.8c1.61,1.94,3.69,3.44,6.03,4.36c2.9,1.09,5.99,1.61,9.09,1.53
			c2.54,0.03,5.07-0.21,7.56-0.7c1.95-0.38,3.86-0.89,5.74-1.53c1.61-0.57,2.94-1.09,3.98-1.55c0.74-0.38,1.54-0.61,2.36-0.69
			c0.61-0.02,1.17,0.35,1.39,0.92c0.16,0.41,0.26,0.85,0.3,1.29c0.07,0.67,0.11,1.34,0.1,2.01c0,0.5-0.02,0.99-0.07,1.49
			c-0.04,0.38-0.09,0.75-0.16,1.12c-0.06,0.31-0.17,0.61-0.33,0.89c-0.17,0.28-0.37,0.54-0.6,0.77c-0.66,0.48-1.38,0.88-2.14,1.19
			c-1.5,0.66-3.04,1.2-4.62,1.62c-2.16,0.58-4.36,1.04-6.57,1.39c-2.63,0.43-5.29,0.64-7.95,0.63c-4.37,0.08-8.72-0.61-12.84-2.05
			c-3.52-1.27-6.7-3.35-9.27-6.07c-2.63-2.9-4.57-6.35-5.67-10.11c-1.35-4.58-2-9.35-1.91-14.12c-0.07-4.67,0.6-9.32,1.98-13.77
			c1.17-3.81,3.12-7.34,5.71-10.37c2.48-2.82,5.55-5.04,9.01-6.5c3.74-1.57,7.76-2.35,11.82-2.3c4.09-0.11,8.15,0.66,11.91,2.25
			c3.12,1.38,5.88,3.44,8.08,6.04c2.16,2.62,3.75,5.66,4.66,8.93c1.01,3.55,1.51,7.23,1.48,10.92L117.96,229.38z M107.01,226.15
			c0.4-4.8-0.96-9.59-3.83-13.46c-3-3.39-7.4-5.2-11.92-4.88c-2.46-0.05-4.89,0.47-7.11,1.53c-1.97,0.96-3.72,2.33-5.12,4.03
			c-1.41,1.74-2.49,3.72-3.19,5.84c-0.75,2.25-1.18,4.59-1.26,6.96L107.01,226.15z"/>
		<path id="Path_2903" class="st1" d="M185.68,261.64c0.01,0.32-0.08,0.63-0.26,0.89c-0.23,0.28-0.52,0.5-0.86,0.63
			c-0.53,0.2-1.08,0.33-1.65,0.38c-0.88,0.09-1.76,0.14-2.64,0.13c-0.9,0.01-1.81-0.03-2.71-0.12c-0.56-0.05-1.12-0.18-1.65-0.38
			c-0.34-0.13-0.63-0.35-0.86-0.63c-0.18-0.26-0.28-0.57-0.27-0.89v-34.78c0.07-2.75-0.2-5.5-0.79-8.18
			c-0.45-1.91-1.23-3.72-2.3-5.36c-0.98-1.48-2.34-2.66-3.93-3.44c-1.74-0.82-3.65-1.23-5.57-1.19c-2.96,0.08-5.83,1.1-8.18,2.9
			c-3.24,2.44-6.13,5.31-8.59,8.54v41.5c0.01,0.32-0.08,0.63-0.27,0.89c-0.22,0.28-0.52,0.5-0.86,0.63
			c-0.53,0.2-1.08,0.33-1.65,0.38c-0.9,0.1-1.8,0.14-2.71,0.13c-0.88,0.01-1.77-0.04-2.64-0.13c-0.57-0.05-1.14-0.18-1.68-0.38
			c-0.34-0.12-0.64-0.34-0.86-0.63c-0.16-0.27-0.24-0.58-0.23-0.89v-59.39c-0.01-0.31,0.06-0.62,0.2-0.89
			c0.19-0.29,0.47-0.52,0.79-0.66c0.48-0.22,1-0.35,1.53-0.38c0.81-0.07,1.63-0.11,2.44-0.1c0.97,0,1.77,0.03,2.41,0.1
			c0.51,0.03,1.02,0.16,1.48,0.38c0.31,0.16,0.57,0.38,0.77,0.66c0.16,0.27,0.24,0.58,0.23,0.89v7.85c2.82-3.31,6.2-6.09,10-8.21
			c3.09-1.68,6.55-2.57,10.06-2.61c3.44-0.11,6.87,0.58,10,2.02c2.59,1.24,4.84,3.09,6.57,5.38c1.72,2.36,2.95,5.04,3.6,7.88
			c0.78,3.56,1.15,7.21,1.09,10.86L185.68,261.64z"/>
		<path id="Path_2904" class="st1" d="M217.68,182.19c0.22,1.86-0.3,3.74-1.45,5.22c-1.56,1.1-3.46,1.59-5.36,1.39
			c-1.86,0.2-3.72-0.28-5.25-1.35c-1.12-1.45-1.63-3.29-1.42-5.11c-0.21-1.86,0.31-3.73,1.45-5.22c1.56-1.1,3.46-1.59,5.36-1.39
			c1.85-0.2,3.72,0.28,5.25,1.35C217.39,178.54,217.9,180.37,217.68,182.19 M216.43,261.64c0.01,0.32-0.08,0.63-0.26,0.89
			c-0.23,0.28-0.52,0.5-0.86,0.63c-0.53,0.2-1.08,0.33-1.65,0.38c-0.9,0.1-1.8,0.14-2.71,0.13c-0.88,0.01-1.76-0.04-2.64-0.13
			c-0.58-0.05-1.14-0.18-1.68-0.38c-0.34-0.12-0.64-0.34-0.86-0.63c-0.16-0.27-0.24-0.58-0.23-0.89v-59.39c0-0.3,0.08-0.6,0.23-0.86
			c0.21-0.31,0.51-0.54,0.86-0.66c0.54-0.2,1.11-0.33,1.68-0.38c0.88-0.1,1.76-0.14,2.64-0.13c0.9-0.01,1.81,0.04,2.71,0.13
			c0.56,0.05,1.12,0.18,1.65,0.38c0.34,0.13,0.64,0.36,0.86,0.66c0.17,0.25,0.27,0.55,0.26,0.86V261.64z"/>
		<path id="Path_2905" class="st1" d="M287.71,261.64c0.01,0.32-0.08,0.63-0.26,0.89c-0.23,0.28-0.52,0.5-0.86,0.63
			c-0.53,0.2-1.08,0.33-1.65,0.38c-0.88,0.09-1.76,0.14-2.64,0.13c-0.9,0.01-1.81-0.03-2.71-0.13c-0.56-0.05-1.12-0.18-1.65-0.38
			c-0.34-0.13-0.63-0.35-0.86-0.63c-0.18-0.26-0.28-0.57-0.27-0.89v-34.78c0.07-2.75-0.2-5.5-0.79-8.18
			c-0.45-1.91-1.23-3.72-2.3-5.36c-0.98-1.48-2.34-2.66-3.93-3.44c-1.74-0.82-3.65-1.23-5.57-1.19c-2.96,0.08-5.83,1.1-8.18,2.9
			c-3.23,2.43-6.12,5.3-8.58,8.51v41.54c0.01,0.32-0.08,0.63-0.27,0.89c-0.22,0.28-0.52,0.5-0.86,0.63
			c-0.53,0.2-1.08,0.33-1.65,0.38c-0.9,0.1-1.8,0.14-2.71,0.13c-0.88,0.01-1.77-0.04-2.64-0.13c-0.57-0.05-1.14-0.18-1.68-0.38
			c-0.34-0.12-0.64-0.34-0.86-0.63c-0.16-0.27-0.24-0.58-0.23-0.89v-59.39c-0.01-0.31,0.06-0.62,0.2-0.89
			c0.19-0.29,0.47-0.52,0.79-0.66c0.48-0.22,1-0.35,1.53-0.38c0.81-0.07,1.63-0.11,2.44-0.1c0.97,0,1.77,0.03,2.41,0.1
			c0.51,0.03,1.02,0.16,1.48,0.38c0.31,0.16,0.57,0.38,0.77,0.66c0.16,0.27,0.24,0.58,0.23,0.89v7.85c2.81-3.31,6.18-6.09,9.96-8.21
			c3.09-1.68,6.55-2.57,10.06-2.61c3.44-0.11,6.87,0.58,10,2.02c2.59,1.24,4.84,3.09,6.57,5.38c1.72,2.36,2.95,5.04,3.6,7.88
			c0.78,3.56,1.15,7.21,1.09,10.86L287.71,261.64z"/>
		<path id="Path_2906" class="st1" d="M40.31,563.78c-1.15,2.92-2.77,5.65-4.78,8.06c-1.7,1.99-3.74,3.67-6.01,4.97
			c-2.19,1.23-4.57,2.09-7.04,2.53c-2.59,0.46-5.22,0.69-7.86,0.68v-2.87c-0.03-0.91,0.21-1.81,0.68-2.6
			c0.44-0.72,1.21-1.18,2.05-1.23c3.61-0.24,7.08-1.47,10.04-3.55c2.58-2.02,4.63-4.65,5.95-7.65l3.83-8.75L8.6,488.06h7.38
			c0.65-0.05,1.3,0.12,1.84,0.48c0.51,0.47,0.9,1.06,1.15,1.71l22.28,54.26l22.14-54.13c0.2-0.79,0.69-1.47,1.37-1.91
			c0.6-0.28,1.25-0.42,1.91-0.41h6.29L40.31,563.78z"/>
		<path id="Path_2907" class="st1" d="M78.71,539.72c0.03-2.65,0.86-5.22,2.39-7.38c1.98-2.7,4.58-4.88,7.59-6.36
			c4.32-2.17,8.92-3.71,13.67-4.59c6.76-1.31,13.62-2.04,20.5-2.19v-7.65c0.04-2.61-0.4-5.2-1.3-7.65
			c-0.79-2.16-2.03-4.14-3.62-5.81c-1.57-1.6-3.45-2.86-5.54-3.69c-2.19-0.87-4.54-1.26-6.89-1.15c-2.9,0.03-5.77,0.59-8.48,1.64
			c-2.63,1.1-5.1,2.52-7.38,4.24c-0.83,0.76-1.89,1.24-3.01,1.37c-0.97-0.09-1.84-0.65-2.33-1.5l-1.64-2.46
			c2.96-3.09,6.48-5.57,10.39-7.31c4.33-1.78,8.99-2.64,13.67-2.53c3.46-0.05,6.89,0.57,10.11,1.84
			c5.91,2.33,10.54,7.08,12.71,13.05c1.21,3.28,1.82,6.76,1.78,10.25v43.87h-3.7c-1,0.07-1.9-0.6-2.12-1.57
			c-0.32-1.04-0.7-2.57-1.15-4.59c-0.27-0.82-0.48-1.67-0.61-2.53c-0.23-1.23-0.43-2.17-0.62-2.8c-3.03,4.06-6.9,7.42-11.34,9.84
			c-4.67,2.43-9.94,3.42-15.17,2.87c-2.34-0.16-4.66-0.62-6.89-1.36c-2.08-0.69-4.01-1.79-5.67-3.21c-1.67-1.45-3-3.24-3.9-5.26
			c-1-2.33-1.49-4.85-1.43-7.38 M87.2,539.17c-0.26,3.1,0.78,6.17,2.87,8.48c2.08,1.9,4.72,3.1,7.52,3.42
			c2.56,0.37,5.16,0.2,7.65-0.48c2.44-0.67,4.78-1.66,6.97-2.93c2.16-1.26,4.15-2.77,5.94-4.51c1.66-1.6,3.23-3.29,4.72-5.05v-13.81
			c-9.1-0.02-18.14,1.41-26.78,4.24C90.16,530.88,87.2,534.44,87.2,539.17"/>
		<path id="Path_2908" class="st1" d="M148.69,555.85v-67.79h3.96c1.3-0.05,2.43,0.9,2.6,2.19c0.18,0.82,0.38,1.87,0.54,3.15
			c0.16,1.27,0.34,2.53,0.48,3.76c0.13,1.23,0.25,2.3,0.34,3.21c0.09,0.92,0.14,1.41,0.14,1.5c0.59-2.19,1.61-4.23,3-6.01
			c1.32-1.69,2.92-3.14,4.72-4.3c3.54-2.24,7.63-3.45,11.82-3.49c1.95-0.05,3.9,0.14,5.81,0.55c1.41,0.36,2.48,0.64,3.21,0.82
			c-0.1,0.47-0.23,0.92-0.41,1.37c-0.17,0.7-0.4,1.39-0.68,2.05c-0.36,1.91-1.18,2.87-2.46,2.87c-0.97,0.07-1.94-0.02-2.87-0.27
			c-1.77-0.27-3.58-0.22-5.33,0.14c-2.02,0.31-3.96,0.98-5.74,1.98c-1.93,1.06-3.66,2.45-5.12,4.1c-1.53,1.73-2.78,3.69-3.69,5.81
			c-0.97,2.24-1.46,4.67-1.43,7.11v41.27H148.69z"/>
		<path id="Path_2909" class="st1" d="M245.04,553.66c-0.18-0.82-0.34-1.69-0.48-2.6c-0.14-0.91-0.27-1.75-0.41-2.53
			s-0.25-1.43-0.34-1.99c-0.09-0.55-0.14-0.86-0.14-0.95c-2.8,4.01-6.69,7.14-11.21,9.02c-3.79,1.49-7.82,2.28-11.89,2.32
			c-8.03,0.37-15.75-3.17-20.7-9.5c-5.36-7.63-7.99-16.86-7.45-26.17c-0.06-4.75,0.66-9.48,2.12-14c1.26-3.96,3.25-7.65,5.87-10.87
			c2.41-2.94,5.41-5.33,8.8-7.04c3.39-1.69,7.14-2.56,10.93-2.53c2.42-0.01,4.83,0.41,7.11,1.22c2.21,0.79,4.33,1.85,6.29,3.15
			c1.9,1.27,3.64,2.76,5.19,4.44c1.5,1.62,2.82,3.38,3.96,5.27v-45.79h8.88v100.73h-4.22C246.18,555.85,245.41,555.12,245.04,553.66
			 M242.72,508.01c-1.23-1.88-2.58-3.68-4.03-5.4c-1.46-1.73-3.08-3.31-4.85-4.71c-1.71-1.36-3.6-2.48-5.61-3.35
			c-2.03-0.87-4.21-1.31-6.42-1.3c-5.82-0.15-11.32,2.65-14.62,7.45c-4.01,6.28-5.92,13.67-5.46,21.11
			c0.18,10.12,2.05,17.47,5.6,22.07c3.81,4.71,9.67,7.28,15.71,6.89c3.66-0.05,7.26-1.02,10.46-2.8c3.64-1.99,6.79-4.77,9.23-8.13
			L242.72,508.01z"/>
		<rect id="Rectangle_1495" x="272.24" y="488.06" class="st1" width="9.02" height="67.79"/>
		<path id="Path_2910" class="st1" d="M301.49,555.72v-67.66h4.1c1.26-0.01,2.33,0.93,2.46,2.19c0.18,0.82,0.34,1.69,0.48,2.59
			c0.14,0.91,0.27,1.76,0.41,2.53c0.14,0.78,0.25,1.43,0.34,1.98c0.09,0.55,0.14,0.87,0.14,0.96c1-1.36,2.12-2.73,3.35-4.1
			c1.3-1.43,2.8-2.67,4.44-3.69c1.83-1.15,3.81-2.05,5.88-2.68c2.44-0.72,4.97-1.07,7.52-1.03c2.87-0.07,5.71,0.56,8.27,1.84
			c2.23,1.16,4.21,2.76,5.8,4.71c1.53,1.88,2.73,4.01,3.55,6.29c0.77,2.06,1.24,4.22,1.37,6.42c0.46-2.48,1.29-4.87,2.46-7.11
			c1.19-2.28,2.74-4.36,4.59-6.15c1.97-1.89,4.29-3.37,6.83-4.37c2.94-1.14,6.07-1.7,9.23-1.64c6.14-0.36,12.12,2.07,16.27,6.63
			c4.12,5.31,6.16,11.95,5.74,18.66v43.62h-9.17V512.1c0.01-2.48-0.21-4.95-0.68-7.38c-0.39-2.13-1.23-4.16-2.46-5.95
			c-1.22-1.71-2.84-3.09-4.71-4.03c-2.28-1.07-4.79-1.59-7.31-1.5c-2.54-0.02-5.04,0.64-7.24,1.91c-2.17,1.26-4.09,2.91-5.67,4.86
			c-1.59,1.95-2.83,4.14-3.69,6.5c-0.84,2.23-1.28,4.59-1.3,6.97v42.23h-8.88V512.1c0.38-5.05-1.05-10.07-4.03-14.16
			c-2.98-3.27-7.28-5-11.69-4.71c-3.31,0.04-6.54,1.03-9.29,2.87c-3.37,2.3-6.18,5.35-8.2,8.9v50.71L301.49,555.72z"/>
		<path id="Path_2911" class="st1" d="M471.11,556.94c-4.92,0.11-9.81-0.89-14.28-2.93c-3.91-1.84-7.34-4.56-10.04-7.93
			c-2.71-3.45-4.7-7.4-5.88-11.62c-1.3-4.56-1.94-9.27-1.91-14.01c-0.04-4.51,0.68-8.99,2.12-13.25c1.31-3.93,3.4-7.56,6.15-10.66
			c2.75-3.05,6.13-5.48,9.91-7.11c4.19-1.78,8.71-2.67,13.26-2.59c3.83-0.04,7.63,0.73,11.14,2.26c3.36,1.46,6.36,3.63,8.8,6.36
			c2.55,2.88,4.52,6.22,5.81,9.84c1.46,4.12,2.18,8.47,2.12,12.84c0.1,0.92-0.14,1.85-0.68,2.6c-0.65,0.52-1.49,0.77-2.32,0.68
			H447.6c0.36,10.11,2.78,17.51,7.24,22.19c4.52,4.71,10.83,7.28,17.36,7.04c3.66,0.13,7.31-0.5,10.71-1.84
			c2.78-1.23,5.07-2.34,6.89-3.35c0.51-0.43,1.06-0.81,1.64-1.15c0.45-0.29,0.97-0.45,1.5-0.48c0.66,0.06,1.26,0.41,1.64,0.96
			l2.05,2.73c-3.35,3.24-7.39,5.67-11.82,7.11c-4.42,1.52-9.06,2.3-13.74,2.32 M490.62,515.53c0.23-5.97-1.71-11.81-5.47-16.45
			c-3.76-4.14-9.18-6.37-14.76-6.08c-12.94,0-20.45,7.52-22.55,22.55L490.62,515.53z"/>
		<path id="Path_2912" class="st1" d="M560.89,553.66c-0.18-0.82-0.34-1.69-0.48-2.6c-0.14-0.91-0.27-1.75-0.41-2.53
			c-0.14-0.77-0.25-1.43-0.34-1.99c-0.09-0.55-0.14-0.86-0.14-0.95c-2.8,4.01-6.69,7.14-11.21,9.02c-3.79,1.49-7.82,2.28-11.89,2.32
			c-8.03,0.37-15.73-3.17-20.68-9.5c-5.36-7.63-7.99-16.86-7.45-26.17c-0.05-4.75,0.66-9.48,2.12-14c1.26-3.96,3.25-7.65,5.88-10.87
			c2.41-2.94,5.41-5.33,8.8-7.04c3.39-1.69,7.14-2.56,10.93-2.53c2.42-0.01,4.83,0.41,7.11,1.22c2.21,0.79,4.33,1.85,6.29,3.15
			c1.9,1.27,3.64,2.76,5.19,4.44c1.5,1.62,2.82,3.38,3.96,5.27v-45.79h8.88v100.73h-4.23C562.04,555.85,561.26,555.12,560.89,553.66
			 M558.58,508.01c-1.23-1.88-2.58-3.68-4.03-5.4c-1.46-1.73-3.08-3.31-4.85-4.71c-1.71-1.36-3.6-2.48-5.61-3.35
			c-2.03-0.87-4.21-1.31-6.42-1.3c-5.82-0.15-11.32,2.65-14.62,7.45c-4.01,6.28-5.93,13.67-5.47,21.11
			c0.18,10.12,2.05,17.47,5.61,22.07c3.81,4.71,9.67,7.28,15.71,6.89c3.66-0.05,7.26-1.02,10.46-2.8c3.64-1.99,6.79-4.77,9.23-8.13
			L558.58,508.01z"/>
		<path id="Path_2913" class="st1" d="M614.2,556.94c-4.92,0.11-9.81-0.89-14.28-2.93c-3.91-1.84-7.34-4.56-10.04-7.93
			c-2.71-3.45-4.7-7.4-5.88-11.62c-1.3-4.56-1.94-9.27-1.91-14.01c-0.04-4.51,0.68-8.99,2.12-13.25c1.31-3.93,3.4-7.56,6.15-10.66
			c2.75-3.05,6.13-5.48,9.91-7.11c4.19-1.78,8.71-2.67,13.26-2.59c3.83-0.04,7.63,0.73,11.14,2.26c3.36,1.46,6.36,3.63,8.8,6.36
			c2.55,2.88,4.52,6.22,5.81,9.84c1.46,4.12,2.18,8.47,2.12,12.84c0.1,0.92-0.14,1.85-0.68,2.6c-0.65,0.52-1.49,0.77-2.32,0.68
			h-47.69c0.36,10.11,2.78,17.51,7.24,22.19c4.52,4.71,10.83,7.28,17.36,7.04c3.66,0.13,7.31-0.5,10.71-1.84
			c2.78-1.23,5.07-2.34,6.89-3.35c0.51-0.43,1.06-0.81,1.64-1.15c0.45-0.29,0.97-0.45,1.5-0.48c0.66,0.06,1.26,0.41,1.64,0.96
			l2.05,2.73c-3.35,3.24-7.39,5.67-11.82,7.11c-4.42,1.52-9.06,2.3-13.74,2.32 M633.72,515.53c0.23-5.97-1.71-11.81-5.47-16.45
			c-3.76-4.14-9.18-6.37-14.76-6.08c-12.94,0-20.45,7.52-22.55,22.55L633.72,515.53z"/>
		<rect id="Rectangle_1496" x="656.03" y="455.26" class="st1" width="8.88" height="100.59"/>
		<path id="Path_2914" class="st1" d="M691.01,470.29c-1.83,0.04-3.58-0.74-4.78-2.12c-1.25-1.35-1.94-3.13-1.91-4.97
			c-0.02-1.85,0.7-3.64,1.98-4.97c1.19-1.35,2.91-2.13,4.71-2.12c1.97-0.02,3.86,0.75,5.26,2.12c1.43,1.26,2.25,3.07,2.25,4.97
			c0.06,1.96-0.77,3.84-2.25,5.12c-1.44,1.3-3.32,2.01-5.26,1.98 M695.66,555.86h-8.89v-67.81h8.88L695.66,555.86z"/>
		<path id="Path_2915" class="st1" d="M716.3,555.72v-67.66h4.1c1.26-0.01,2.33,0.93,2.46,2.19c0.18,0.82,0.34,1.69,0.48,2.59
			c0.14,0.91,0.27,1.76,0.41,2.53c0.14,0.78,0.25,1.43,0.34,1.98c0.09,0.55,0.14,0.87,0.14,0.96c1-1.36,2.12-2.73,3.35-4.1
			c1.3-1.43,2.8-2.67,4.44-3.69c1.83-1.15,3.81-2.05,5.88-2.68c2.44-0.72,4.97-1.07,7.52-1.03c2.87-0.07,5.71,0.56,8.27,1.84
			c2.24,1.16,4.21,2.77,5.81,4.71c1.53,1.88,2.73,4.01,3.55,6.29c0.78,2.06,1.24,4.22,1.37,6.42c0.46-2.48,1.29-4.87,2.46-7.11
			c1.19-2.28,2.74-4.36,4.59-6.15c1.97-1.89,4.29-3.37,6.83-4.37c2.94-1.14,6.07-1.7,9.23-1.64c6.14-0.36,12.12,2.07,16.27,6.63
			c4.12,5.31,6.16,11.95,5.74,18.66v43.62h-9.16V512.1c0.01-2.48-0.21-4.95-0.68-7.38c-0.39-2.13-1.23-4.16-2.46-5.95
			c-1.22-1.71-2.84-3.09-4.71-4.03c-2.28-1.07-4.79-1.59-7.31-1.5c-2.54-0.02-5.04,0.64-7.24,1.91c-2.17,1.26-4.09,2.91-5.67,4.86
			c-1.59,1.95-2.83,4.14-3.69,6.5c-0.84,2.23-1.28,4.59-1.3,6.97v42.23h-8.88V512.1c0.38-5.05-1.05-10.07-4.03-14.16
			c-2.98-3.27-7.28-5-11.69-4.71c-3.31,0.04-6.54,1.03-9.29,2.87c-3.38,2.3-6.19,5.35-8.21,8.9v50.71L716.3,555.72z"/>
	</g>
</g>
</svg>
