<?xml version="1.0" encoding="utf-8"?>
<!-- Generator: Adobe Illustrator 27.3.1, SVG Export Plug-In . SVG Version: 6.00 Build 0)  -->
<svg version="1.1" id="Layer_1" xmlns="http://www.w3.org/2000/svg" xmlns:xlink="http://www.w3.org/1999/xlink" x="0px" y="0px"
	 viewBox="0 0 816.36 56" style="enable-background:new 0 0 816.36 56;" xml:space="preserve">
<style type="text/css">
	.st0{fill:#FFFFFF;}
	.st1{fill:#B2B1B2;}
	.st2{enable-background:new    ;}
</style>
<g id="Group_4534" transform="translate(264 45)">
	<g id="Group_4529" transform="translate(0 0)">
		<path id="Path_1750" class="st0" d="M351.65,0.94l-11.68-8.64l-11.69,8.64l4.61-13.77l-11.83-8.44l14.54,0.12l4.37-13.86
			l4.37,13.86l14.54-0.12l-11.83,8.44L351.65,0.94z"/>
	</g>
	<g id="Group_4530" transform="translate(20.318 0)">
		<path id="Path_1756" class="st1" d="M367.08-35.02l4.37,13.86l14.54-0.12l-11.83,8.44l4.61,13.77l-11.69-8.64l-11.68,8.64
			L360-12.84l-11.83-8.44l14.54,0.12L367.08-35.02z"/>
	</g>
	<g id="Group_4531" transform="translate(40.639 0)">
		<path id="Path_1750-2" class="st0" d="M405.89,0.94L394.2-7.69l-11.69,8.64l4.61-13.77l-11.83-8.44l14.54,0.12l4.37-13.86
			l4.37,13.86l14.54-0.12l-11.83,8.44L405.89,0.94z"/>
	</g>
	<g id="Group_4532" transform="translate(60.957 0)">
		<path id="Path_1756-2" class="st1" d="M421.32-35.02l4.37,13.86l14.54-0.12l-11.83,8.44L433,0.93l-11.69-8.64l-11.68,8.64
			l4.61-13.77l-11.83-8.44l14.54,0.12L421.32-35.02z"/>
	</g>
	<g id="Group_4533" transform="translate(81.279 0)">
		<path id="Path_1750-3" class="st0" d="M460.12,0.94l-11.68-8.64l-11.69,8.64l4.61-13.77l-11.83-8.44l14.54,0.12l4.37-13.86
			l4.37,13.86l14.54-0.12l-11.83,8.44L460.12,0.94z"/>
	</g>
</g>
<g id="Group_4535" transform="translate(15 45)">
	<g id="Group_4529-2" transform="translate(0 0)">
		<path id="Path_1750-4" class="st0" d="M19.33,0.94L7.65-7.69L-4.04,0.94l4.61-13.77l-11.83-8.44l14.54,0.12l4.37-13.86l4.37,13.86
			l14.54-0.12l-11.83,8.44L19.33,0.94z"/>
	</g>
	<g id="Group_4530-2" transform="translate(20.318 0)">
		<path id="Path_1756-3" class="st1" d="M34.76-35.02l4.37,13.86l14.54-0.12l-11.83,8.44l4.61,13.77L34.76-7.71L23.08,0.93
			l4.61-13.77l-11.83-8.44l14.54,0.12L34.76-35.02z"/>
	</g>
	<g id="Group_4531-2" transform="translate(40.639 0)">
		<path id="Path_1750-5" class="st0" d="M73.57,0.94L61.88-7.69L50.2,0.94l4.61-13.77l-11.83-8.44l14.54,0.12l4.37-13.86l4.37,13.86
			l14.54-0.12l-11.83,8.44L73.57,0.94z"/>
	</g>
	<g id="Group_4532-2" transform="translate(60.957 0)">
		<path id="Path_1756-4" class="st1" d="M89-35.02l4.37,13.86l14.54-0.12l-11.83,8.44l4.61,13.77L89-7.71L77.31,0.93l4.61-13.77
			l-11.83-8.44l14.54,0.12L89-35.02z"/>
	</g>
	<g id="Group_4533-2" transform="translate(81.279 0)">
		<path id="Path_1750-6" class="st0" d="M127.81,0.94l-11.68-8.64l-11.69,8.64l4.61-13.77l-11.83-8.44l14.54,0.12l4.37-13.86
			l4.37,13.86l14.54-0.12l-11.83,8.44L127.81,0.94z"/>
	</g>
</g>
<g class="st2">
	<path class="st0" d="M276.28,11.16h12.17v2.98l-1.35,0.51c-1.09,0.41-1.96,0.94-2.61,1.59c-0.66,0.66-1.61,1.99-2.87,3.99
		l-7.17,11.45v6.38c0,1.33,0.16,2.21,0.47,2.65c0.31,0.44,0.98,0.76,2,0.94l2.3,0.46l-0.05,2.99h-16.05v-2.99l2.09-0.46
		c1.11-0.2,1.82-0.52,2.13-0.94c0.31-0.42,0.47-1.31,0.47-2.65v-6.02l-7.63-13.06c-0.82-1.38-1.55-2.41-2.21-3.09
		c-0.66-0.68-1.36-1.13-2.13-1.35l-1.4-0.41l0.05-2.98h14.31v2.98l-1.2,0.36c-0.56,0.17-0.94,0.36-1.15,0.57
		c-0.2,0.21-0.25,0.56-0.14,1.06c0.11,0.49,0.42,1.2,0.93,2.12l5.43,9.47l5.13-8.67c0.61-0.99,1-1.76,1.15-2.31
		c0.15-0.55,0.12-0.99-0.1-1.3c-0.22-0.31-0.66-0.59-1.33-0.83l-1.3-0.46L276.28,11.16z"/>
	<path class="st0" d="M328.46,11.16l0.08,2.98l-1.94,0.56c-1.11,0.32-1.81,0.79-2.12,1.39c-0.31,0.6-0.46,1.83-0.46,3.69V31.6
		c0,4.69-1.25,8.21-3.75,10.54c-2.5,2.33-5.95,3.5-10.36,3.5c-4.83,0-8.46-1.13-10.88-3.39c-2.42-2.26-3.63-5.79-3.63-10.59v-13.5
		c0-1.31-0.14-2.18-0.43-2.63c-0.29-0.44-0.91-0.78-1.86-1.02l-1.56-0.36v-2.98h14.41l0.05,2.98l-1.84,0.31
		c-0.85,0.14-1.43,0.45-1.73,0.94c-0.31,0.49-0.46,1.41-0.46,2.76v13.06c0,1.87,0.23,3.5,0.67,4.87c0.45,1.38,1.09,2.47,1.93,3.27
		c0.83,0.8,1.78,1.39,2.84,1.76c1.06,0.38,2.26,0.56,3.58,0.56c2.94,0,5.15-0.8,6.63-2.41c1.48-1.61,2.22-4.27,2.22-8V19.78
		c0-1.84-0.2-3.06-0.61-3.66c-0.41-0.6-1.33-1.09-2.76-1.47l-1.86-0.51v-2.98H328.46z"/>
	<path class="st0" d="M367.13,11.16l0.05,2.98l-1.89,0.56c-1.09,0.32-1.77,0.77-2.04,1.35c-0.27,0.58-0.41,1.82-0.41,3.72v25.64
		h-3.44l-19.95-24.7V36.5c0,1.94,0.2,3.25,0.59,3.93c0.39,0.68,1.28,1.13,2.65,1.35l1.96,0.36l-0.05,2.99h-13.57v-2.99l1.71-0.56
		c1.1-0.36,1.82-0.87,2.14-1.53c0.32-0.66,0.48-1.85,0.48-3.55V16.34c-0.71-0.53-1.51-0.94-2.38-1.24c-0.88-0.3-2.14-0.62-3.79-0.96
		v-2.98h10.82l18.7,22.73V19.78c0-1.9-0.18-3.15-0.55-3.72c-0.37-0.58-1.3-1.06-2.79-1.45l-1.81-0.46v-2.98H367.13z"/>
	<path class="st0" d="M380.71,38.08c0,1.33,0.14,2.24,0.43,2.73c0.29,0.49,0.84,0.82,1.66,0.97l1.84,0.36l-0.05,2.99h-14.41v-2.99
		l1.66-0.41c0.93-0.2,1.54-0.53,1.82-0.98c0.28-0.45,0.42-1.34,0.42-2.67V18.2c0-1.33-0.14-2.22-0.42-2.67
		c-0.28-0.45-0.89-0.79-1.82-1.03l-1.66-0.36v-2.98h14.41l0.05,2.98l-1.84,0.36c-0.82,0.15-1.37,0.48-1.66,0.97
		c-0.29,0.49-0.43,1.4-0.43,2.73V38.08z"/>
	<path class="st0" d="M420.04,40.63l1.1,2.09c-0.49,0.85-1.26,1.55-2.31,2.09c-1.05,0.54-2.12,0.82-3.23,0.82
		c-1.04,0-1.97-0.22-2.81-0.65c-0.83-0.43-1.59-1.03-2.26-1.77c-0.67-0.75-1.53-1.87-2.56-3.37l-6.28-9.18h-2.55v7.42
		c0,1.33,0.14,2.24,0.43,2.73c0.29,0.49,0.84,0.82,1.66,0.97l1.81,0.36L403,45.12h-14.36v-2.99l1.61-0.41
		c0.93-0.2,1.55-0.53,1.84-0.98c0.29-0.45,0.43-1.34,0.43-2.67V18.2c0-1.33-0.14-2.22-0.42-2.69c-0.28-0.47-0.85-0.8-1.72-1.01
		l-1.63-0.36v-2.98h14.21c4.2,0,7.51,0.83,9.92,2.49c2.41,1.66,3.62,3.96,3.62,6.9c0,2.11-0.69,3.95-2.07,5.52
		c-1.38,1.57-3.33,2.75-5.84,3.53l5.64,7.99c1.02,1.41,1.79,2.33,2.31,2.76c0.52,0.42,1.09,0.64,1.72,0.64
		C418.99,40.99,419.59,40.87,420.04,40.63z M399.15,27.41h2.91c2.5,0,4.31-0.54,5.43-1.63c1.12-1.09,1.68-2.67,1.68-4.75
		c0-2.3-0.58-3.98-1.73-5.07c-1.16-1.08-2.93-1.62-5.33-1.62h-2.96V27.41z"/>
	<path class="st0" d="M455.51,41.68l1.79,0.46v2.99h-14.75l-0.05-2.99l1.99-0.36c0.92-0.14,1.44-0.48,1.57-1.03
		c0.13-0.55-0.1-1.71-0.68-3.46l-1.2-3.34h-11.97l-0.59,1.51c-0.29,0.76-0.5,1.36-0.64,1.78c-0.14,0.43-0.26,0.88-0.38,1.37
		c-0.12,0.48-0.16,0.86-0.13,1.12c0.03,0.26,0.12,0.53,0.26,0.8c0.14,0.27,0.35,0.49,0.63,0.65c0.28,0.16,0.65,0.31,1.11,0.45
		l1.73,0.51v2.99h-13.11v-2.99l1.2-0.46c1.24-0.48,2.2-1.13,2.88-1.97c0.68-0.83,1.46-2.32,2.32-4.46l9.9-24.88h5.26l9.41,25.97
		c0.14,0.37,0.31,0.88,0.51,1.53s0.35,1.08,0.43,1.3c0.08,0.22,0.22,0.52,0.4,0.91c0.18,0.38,0.35,0.65,0.51,0.79
		c0.16,0.14,0.38,0.29,0.65,0.45C454.83,41.47,455.15,41.59,455.51,41.68z M433.57,30.27h9.36l-4.62-12.96L433.57,30.27z"/>
	<path class="st0" d="M495.1,11.16l0.05,2.98l-1.89,0.56c-1.09,0.32-1.77,0.77-2.04,1.35c-0.27,0.58-0.41,1.82-0.41,3.72v25.64
		h-3.44l-19.95-24.7V36.5c0,1.94,0.2,3.25,0.59,3.93c0.39,0.68,1.28,1.13,2.65,1.35l1.96,0.36l-0.05,2.99H459v-2.99l1.71-0.56
		c1.1-0.36,1.82-0.87,2.14-1.53c0.32-0.66,0.48-1.85,0.48-3.55V16.34c-0.71-0.53-1.51-0.94-2.38-1.24c-0.88-0.3-2.14-0.62-3.79-0.96
		v-2.98h10.82l18.7,22.73V19.78c0-1.9-0.18-3.15-0.55-3.72c-0.37-0.58-1.3-1.06-2.79-1.45l-1.81-0.46v-2.98H495.1z"/>
	<path class="st0" d="M508.62,38.08c0,1.34,0.15,2.26,0.45,2.74c0.3,0.49,0.9,0.8,1.8,0.96l1.99,0.36l-0.05,2.99h-14.62v-2.99
		l1.56-0.41c0.93-0.2,1.54-0.53,1.82-0.98c0.28-0.45,0.42-1.34,0.42-2.67V18.2c0-1.33-0.14-2.22-0.42-2.67
		c-0.28-0.45-0.89-0.79-1.82-1.03l-1.56-0.36v-2.98h14.31l0.05,2.98l-1.84,0.36c-0.82,0.15-1.37,0.48-1.66,0.97
		c-0.29,0.49-0.43,1.4-0.43,2.73V38.08z M531.35,40.68l1.1,2.04c-0.53,0.82-1.25,1.51-2.16,2.07c-0.91,0.56-2,0.84-3.28,0.84
		c-1.38,0-2.66-0.44-3.84-1.31c-1.18-0.88-2.61-2.35-4.3-4.43L510,28.97v-1.89l8.14-7.88c1-1,1.69-1.82,2.05-2.45
		c0.37-0.63,0.47-1.11,0.31-1.44c-0.16-0.33-0.57-0.6-1.21-0.8l-1.2-0.36v-2.98H530l0.05,2.98c-1.53,0.49-2.78,1.08-3.76,1.76
		c-0.98,0.68-2.27,1.85-3.86,3.5l-6.58,6.58l9.67,11.56c1.16,1.36,2.03,2.28,2.61,2.74c0.59,0.47,1.16,0.7,1.72,0.7
		C530.34,40.99,530.84,40.88,531.35,40.68z"/>
	<path class="st0" d="M549.57,45.63c-2.81,0-5.57-0.64-8.29-1.91l-0.38,1.25h-3.29l-1.02-10.08l3.21-0.18
		c1.24,2.53,2.63,4.38,4.16,5.54c1.53,1.16,3.5,1.73,5.89,1.73c1.77,0,3.13-0.43,4.1-1.29c0.96-0.86,1.44-2.12,1.44-3.79
		c0-0.9-0.21-1.7-0.64-2.38c-0.43-0.69-1-1.25-1.72-1.7c-0.72-0.44-1.56-0.85-2.5-1.21c-0.94-0.37-1.94-0.71-2.97-1.05
		c-1.04-0.33-2.07-0.68-3.1-1.05c-1.03-0.37-2.02-0.82-2.96-1.35c-0.94-0.53-1.78-1.16-2.5-1.86c-0.72-0.71-1.3-1.6-1.72-2.68
		c-0.42-1.08-0.64-2.31-0.64-3.69c0-1.28,0.2-2.44,0.6-3.5c0.4-1.06,0.94-1.93,1.62-2.64c0.68-0.71,1.48-1.3,2.39-1.79
		c0.91-0.49,1.86-0.84,2.84-1.06c0.99-0.22,2.01-0.33,3.09-0.33c1.41,0,2.87,0.2,4.39,0.59c1.51,0.39,2.86,0.91,4.03,1.56l0.64-1.45
		h3.01l0.53,9.77l-2.98,0.1c-1.21-2.21-2.56-3.91-4.04-5.1c-1.49-1.19-3.3-1.79-5.42-1.79c-1.39,0-2.56,0.37-3.49,1.11
		c-0.94,0.74-1.4,1.8-1.4,3.18c0,0.83,0.22,1.57,0.66,2.19c0.44,0.63,1.04,1.14,1.8,1.54c0.76,0.4,1.62,0.77,2.59,1.1
		c0.97,0.33,1.99,0.66,3.07,0.97c1.08,0.32,2.16,0.65,3.24,1.01c1.08,0.36,2.1,0.81,3.07,1.37c0.97,0.55,1.83,1.19,2.59,1.9
		c0.76,0.71,1.35,1.63,1.8,2.74c0.44,1.11,0.66,2.38,0.66,3.79c0,1.7-0.32,3.22-0.97,4.57c-0.65,1.34-1.53,2.44-2.66,3.28
		c-1.13,0.84-2.44,1.48-3.92,1.93S551.28,45.63,549.57,45.63z"/>
</g>
</svg>
