<?xml version="1.0" encoding="utf-8"?>
<!-- Generator: Adobe Illustrator 27.3.1, SVG Export Plug-In . SVG Version: 6.00 Build 0)  -->
<svg version="1.1" id="Layer_1" xmlns="http://www.w3.org/2000/svg" xmlns:xlink="http://www.w3.org/1999/xlink" x="0px" y="0px"
	 viewBox="0 0 283.26 80" style="enable-background:new 0 0 283.26 80;" xml:space="preserve">
<style type="text/css">
	.st0{fill:#B2B1B2;}
	.st1{clip-path:url(#SVGID_00000172441617021227886800000005379577622772368790_);}
	.st2{fill:#FFFFFF;}
	.st3{enable-background:new    ;}
	.st4{font-family:'NCTLarkspur-NCTLarkspurSemBd';}
	.st5{font-size:7px;}
</style>
<g id="Group_6187" transform="translate(0 0)">
	<rect id="Rectangle_1498" x="94.83" y="60.84" class="st0" width="184.7" height="0.9"/>
	<g id="Group_6186" transform="translate(0 0)">
		<g>
			<defs>
				<rect id="SVGID_1_" x="3.13" y="3.72" width="277" height="72.57"/>
			</defs>
			<clipPath id="SVGID_00000065775809571889705730000002927556349261340546_">
				<use xlink:href="#SVGID_1_"  style="overflow:visible;"/>
			</clipPath>
			<g id="Group_6185" style="clip-path:url(#SVGID_00000065775809571889705730000002927556349261340546_);">
				<path id="Path_2916" class="st2" d="M38.98,31.34c-0.39,0.15-0.81,0.3-0.81,1.2v9.54c0,6.8-5.72,8.43-9.48,8.43
					c-4.12,0-9.75-0.48-9.75-7.61v-9.9c0.02-0.64-0.31-1.25-0.87-1.57l-1.6-0.63c0-0.61,0.04-1.23,0.12-1.84h10.45
					c0.08,0.66,0.1,1.32,0.06,1.99l-2.02,0.36c-0.45,0.02-0.81,0.4-0.79,0.85c0,0.04,0.01,0.08,0.01,0.11v9.81
					c0,4.69,3.22,5.42,5.6,5.42c2.2,0,4.51-1.02,4.51-6.14v-8.12c0.02-1.01-0.69-1.88-1.69-2.05l-1.29-0.39
					c-0.03-0.61-0.02-1.23,0.03-1.84h8.91c0.1,0.63,0.14,1.26,0.12,1.9L38.98,31.34z"/>
				<path id="Path_2917" class="st2" d="M65.07,50.96c-2.79,0.44-5.63-0.34-7.79-2.14c-1.78-1.47-3.34-4.18-4.6-7.04l-0.63,0.03
					h-2.38l0.09,4.75c0,0.6,0.12,0.9,0.63,1.05l1.87,0.63c0.02,0.66-0.02,1.33-0.12,1.99H41.9c-0.07-0.62-0.1-1.24-0.09-1.87
					l1.44-0.33c0.69-0.15,1.14-1.05,1.17-1.87l0.09-4.15v-9.2c0.02-0.51-0.27-0.98-0.72-1.2l-1.96-0.78
					c-0.03-0.63,0.02-1.25,0.15-1.87h11.8c4.24,0,8.12,1.65,8.12,6.11c-0.1,2.42-1.52,4.58-3.7,5.63c0.77,1.68,1.71,3.27,2.8,4.75
					c0.98,1.51,2.48,2.62,4.21,3.13L65.07,50.96z M56.22,35.58c0-2.74-1.9-3.97-5.27-3.97h-1.32v7.73l2.2-0.03
					c3.19-0.03,4.36-1.11,4.36-3.73L56.22,35.58z"/>
				<path id="Path_2918" class="st2" d="M40.86,13.08h-0.04c-14.87,0.01-26.91,12.07-26.9,26.94C13.94,54.89,26,66.93,40.86,66.92
					c14.87-0.01,26.91-12.07,26.9-26.94C67.75,25.13,55.71,13.09,40.86,13.08 M56.92,20.3c-1.77,0.49-3.57,0.87-5.39,1.16
					c-1.18-2.41-2.86-4.54-4.93-6.24C50.39,16.09,53.92,17.83,56.92,20.3 M41.58,14.6c3.17,0.34,6.15,2.9,8.42,7.08
					c-2.79,0.36-5.6,0.56-8.42,0.58V14.6z M35.09,15.21c-2.07,1.7-3.76,3.83-4.93,6.24c-1.82-0.28-3.62-0.67-5.39-1.16
					C27.77,17.83,31.3,16.09,35.09,15.21 M40.11,14.6v7.66c-2.81-0.02-5.62-0.22-8.42-0.58C33.96,17.5,36.94,14.94,40.11,14.6
					 M24.76,59.7c1.77-0.49,3.58-0.87,5.39-1.16c1.18,2.41,2.86,4.54,4.93,6.24C31.3,63.9,27.77,62.16,24.76,59.7 M40.11,65.4
					c-3.17-0.35-6.15-2.9-8.42-7.08c2.79-0.36,5.6-0.56,8.42-0.58V65.4z M46.6,64.79c2.08-1.7,3.76-3.83,4.94-6.24
					c1.82,0.28,3.62,0.67,5.39,1.15C53.92,62.17,50.38,63.91,46.6,64.79 M41.58,65.4v-7.66c2.81,0.02,5.62,0.22,8.42,0.58
					C47.73,62.5,44.75,65.06,41.58,65.4 M58.24,58.56c-1.98-0.6-4-1.06-6.04-1.39c0.63-1.4,1.16-2.83,1.59-4.3h-1.54
					c-0.43,1.39-0.95,2.75-1.56,4.07c-3.02-0.42-6.06-0.64-9.11-0.66v-3.41h-1.47v3.41c-3.05,0.02-6.09,0.24-9.11,0.66
					c-0.61-1.32-1.13-2.68-1.56-4.07H27.9c0.43,1.47,0.96,2.9,1.59,4.3c-2.04,0.33-4.06,0.8-6.04,1.39
					c-10.25-9.58-10.79-25.66-1.2-35.91c0.39-0.41,0.79-0.82,1.2-1.2c1.98,0.59,4,1.06,6.04,1.39c-0.63,1.4-1.16,2.83-1.59,4.3h1.54
					c0.43-1.39,0.95-2.75,1.56-4.07c3.02,0.42,6.06,0.64,9.11,0.66v3.4h1.47v-3.4c3.05-0.03,6.09-0.25,9.11-0.67
					c0.61,1.32,1.13,2.68,1.56,4.07h1.54c-0.43-1.47-0.96-2.9-1.59-4.3c2.04-0.33,4.06-0.8,6.04-1.39
					c10.25,9.58,10.79,25.65,1.21,35.9C59.06,57.76,58.65,58.17,58.24,58.56"/>
				<path id="Path_2919" class="st2" d="M10.86,38.81l-2.42,1.73l0.94,2.82L7,41.59l-2.39,1.77l0.94-2.82l-2.42-1.73l2.97,0.03L7,36
					l0.89,2.83L10.86,38.81z"/>
				<path id="Path_2920" class="st0" d="M17.41,59.6l-2.42,1.73l0.94,2.82l-2.39-1.77l-2.39,1.77l0.94-2.82L9.68,59.6l2.97,0.03
					l0.89-2.83l0.89,2.83L17.41,59.6z"/>
				<path id="Path_2921" class="st2" d="M32.64,11.07L30.25,9.3l-2.39,1.77l0.94-2.82l-2.42-1.73l2.97,0.03l0.89-2.84l0.89,2.84
					l2.97-0.03L31.7,8.25L32.64,11.07z"/>
				<path id="Path_2922" class="st2" d="M65.75,23.2l0.94-2.82l-2.42-1.73l2.97,0.03l0.89-2.83l0.89,2.83l2.97-0.03l-2.42,1.73
					l0.94,2.82l-2.39-1.77L65.75,23.2z"/>
				<path id="Path_2923" class="st2" d="M64.44,58.45l2.97,0.03l0.89-2.83l0.89,2.83l2.97-0.03l-2.42,1.73l0.94,2.82l-2.39-1.77
					l-2.39,1.77l0.94-2.82L64.44,58.45z"/>
				<path id="Path_2924" class="st2" d="M30.52,68.1l0.89,2.83l2.97-0.03l-2.42,1.73l0.94,2.82l-2.39-1.77l-2.39,1.77l0.94-2.82
					l-2.42-1.73l2.97,0.03L30.52,68.1z"/>
				<path id="Path_2925" class="st0" d="M51.44,68.93l0.89,2.83l2.97-0.03l-2.42,1.73l0.94,2.82l-2.39-1.77l-2.39,1.77l0.94-2.82
					l-2.42-1.73l2.97,0.03L51.44,68.93z"/>
				<path id="Path_2926" class="st0" d="M74.69,36.64l0.89,2.83l2.97-0.03l-2.42,1.73L77.08,44l-2.39-1.77L72.3,44l0.94-2.82
					l-2.42-1.73l2.97,0.03L74.69,36.64z"/>
				<path id="Path_2927" class="st0" d="M51.17,4.55l0.89,2.83l2.97-0.03l-2.42,1.73l0.94,2.82l-2.39-1.77l-2.39,1.77l0.94-2.82
					L47.3,7.36l2.98,0.03L51.17,4.55z"/>
				<path id="Path_2928" class="st0" d="M13.38,17l0.89,2.83l2.97-0.03l-2.42,1.73l0.94,2.82l-2.39-1.77l-2.39,1.77l0.94-2.82
					l-2.42-1.73l2.97,0.03L13.38,17z"/>
				<g class="st3">
					<path class="st0" d="M96.65,65.71c0.74,0,1.32,0.2,1.75,0.6c0.43,0.4,0.64,0.93,0.64,1.61c0,0.7-0.21,1.27-0.64,1.7
						c-0.43,0.43-1.01,0.64-1.75,0.64h-1.93v-0.4l0.21-0.05c0.12-0.03,0.21-0.07,0.24-0.13c0.04-0.06,0.06-0.18,0.06-0.36v-2.66
						c0-0.18-0.02-0.3-0.06-0.36c-0.04-0.06-0.11-0.11-0.23-0.13l-0.21-0.05v-0.4H96.65z M96.75,69.82c0.41,0,0.72-0.16,0.94-0.48
						c0.21-0.32,0.32-0.78,0.32-1.39c0-0.61-0.12-1.06-0.37-1.36c-0.24-0.3-0.62-0.45-1.11-0.45h-0.42v3.59
						C96.27,69.79,96.49,69.82,96.75,69.82z"/>
					<path class="st0" d="M104.49,65.71l0.01,0.4l-0.26,0.08c-0.15,0.04-0.24,0.11-0.28,0.19s-0.06,0.25-0.06,0.49v1.58
						c0,0.63-0.17,1.1-0.5,1.41c-0.33,0.31-0.8,0.47-1.39,0.47c-0.65,0-1.13-0.15-1.46-0.46c-0.32-0.3-0.49-0.78-0.49-1.42v-1.81
						c0-0.17-0.02-0.29-0.06-0.35c-0.04-0.06-0.12-0.1-0.25-0.14l-0.21-0.05v-0.4h1.93l0.01,0.4l-0.25,0.04
						c-0.11,0.02-0.19,0.06-0.23,0.13c-0.04,0.07-0.06,0.19-0.06,0.37v1.75c0,0.25,0.03,0.47,0.09,0.65s0.15,0.33,0.26,0.44
						c0.11,0.11,0.24,0.19,0.38,0.24c0.14,0.05,0.3,0.08,0.48,0.08c0.39,0,0.69-0.11,0.89-0.32c0.2-0.22,0.3-0.57,0.3-1.07v-1.54
						c0-0.25-0.03-0.41-0.08-0.49s-0.18-0.15-0.37-0.2l-0.25-0.07v-0.4H104.49z"/>
					<path class="st0" d="M109.67,65.71l0.01,0.4l-0.25,0.08c-0.15,0.04-0.24,0.1-0.27,0.18c-0.04,0.08-0.05,0.24-0.05,0.5v3.44
						h-0.46L105.96,67v2.11c0,0.26,0.03,0.44,0.08,0.53c0.05,0.09,0.17,0.15,0.36,0.18l0.26,0.05l-0.01,0.4h-1.82v-0.4l0.23-0.07
						c0.15-0.05,0.24-0.12,0.29-0.21c0.04-0.09,0.07-0.25,0.07-0.48v-2.7c-0.1-0.07-0.2-0.13-0.32-0.17
						c-0.12-0.04-0.29-0.08-0.51-0.13v-0.4h1.45l2.5,3.04v-1.89c0-0.25-0.02-0.42-0.07-0.5c-0.05-0.08-0.17-0.14-0.37-0.2
						l-0.24-0.06v-0.4H109.67z"/>
				</g>
				<text transform="matrix(1 0 0 1 109.8176 70.2625)" class="st0 st4 st5">Y</text>
				<g class="st3">
					<path class="st0" d="M118.93,69.8l0.24,0.06v0.4h-1.98l-0.01-0.4l0.27-0.05c0.12-0.02,0.19-0.06,0.21-0.14
						c0.02-0.07-0.01-0.23-0.09-0.46l-0.16-0.45h-1.6l-0.08,0.2c-0.04,0.1-0.07,0.18-0.09,0.24c-0.02,0.06-0.04,0.12-0.05,0.18
						c-0.02,0.06-0.02,0.12-0.02,0.15c0,0.04,0.02,0.07,0.03,0.11c0.02,0.04,0.05,0.07,0.08,0.09c0.04,0.02,0.09,0.04,0.15,0.06
						l0.23,0.07v0.4h-1.76v-0.4l0.16-0.06c0.17-0.06,0.29-0.15,0.39-0.26c0.09-0.11,0.2-0.31,0.31-0.6l1.33-3.33h0.7l1.26,3.48
						c0.02,0.05,0.04,0.12,0.07,0.21s0.05,0.14,0.06,0.17c0.01,0.03,0.03,0.07,0.05,0.12c0.02,0.05,0.05,0.09,0.07,0.11
						s0.05,0.04,0.09,0.06C118.84,69.77,118.88,69.79,118.93,69.8z M115.99,68.27h1.25l-0.62-1.74L115.99,68.27z"/>
					<path class="st0" d="M124.23,65.71l0.01,0.4l-0.25,0.08c-0.15,0.04-0.24,0.1-0.27,0.18c-0.04,0.08-0.05,0.24-0.05,0.5v3.44
						h-0.46L120.52,67v2.11c0,0.26,0.03,0.44,0.08,0.53c0.05,0.09,0.17,0.15,0.36,0.18l0.26,0.05l-0.01,0.4h-1.82v-0.4l0.23-0.07
						c0.15-0.05,0.24-0.12,0.29-0.21c0.04-0.09,0.06-0.25,0.06-0.48v-2.7c-0.1-0.07-0.2-0.13-0.32-0.17s-0.29-0.08-0.51-0.13v-0.4
						h1.45l2.51,3.04v-1.89c0-0.25-0.02-0.42-0.07-0.5c-0.05-0.08-0.17-0.14-0.37-0.2l-0.24-0.06v-0.4H124.23z"/>
					<path class="st0" d="M126.05,69.32c0,0.18,0.02,0.3,0.06,0.37c0.04,0.07,0.11,0.11,0.22,0.13l0.25,0.05l-0.01,0.4h-1.93v-0.4
						l0.22-0.05c0.12-0.03,0.21-0.07,0.24-0.13c0.04-0.06,0.06-0.18,0.06-0.36v-2.66c0-0.18-0.02-0.3-0.06-0.36
						c-0.04-0.06-0.12-0.11-0.24-0.14l-0.22-0.05v-0.4h1.93l0.01,0.4l-0.25,0.05c-0.11,0.02-0.18,0.06-0.22,0.13
						c-0.04,0.07-0.06,0.19-0.06,0.37V69.32z"/>
					<path class="st0" d="M131.93,65.71l0.01,0.4l-0.25,0.08c-0.15,0.04-0.24,0.1-0.27,0.18c-0.04,0.08-0.05,0.24-0.05,0.5v3.44
						h-0.46L128.22,67v2.11c0,0.26,0.03,0.44,0.08,0.53c0.05,0.09,0.17,0.15,0.36,0.18l0.26,0.05l-0.01,0.4h-1.82v-0.4l0.23-0.07
						c0.15-0.05,0.24-0.12,0.29-0.21c0.04-0.09,0.06-0.25,0.06-0.48v-2.7c-0.1-0.07-0.2-0.13-0.32-0.17s-0.29-0.08-0.51-0.13v-0.4
						h1.45l2.51,3.04v-1.89c0-0.25-0.02-0.42-0.07-0.5c-0.05-0.08-0.17-0.14-0.37-0.2l-0.24-0.06v-0.4H131.93z"/>
					<path class="st0" d="M137.61,68.89h0.44l-0.13,1.37h-3.81v-0.4l0.21-0.05c0.12-0.03,0.21-0.07,0.24-0.13
						c0.04-0.06,0.06-0.18,0.06-0.36v-2.66c0-0.18-0.02-0.3-0.06-0.36c-0.04-0.06-0.11-0.11-0.23-0.13l-0.21-0.05v-0.4h3.58
						l0.19,1.11l-0.45,0.08c-0.04-0.08-0.07-0.13-0.08-0.16c-0.01-0.03-0.04-0.07-0.07-0.13c-0.03-0.06-0.06-0.1-0.07-0.12
						s-0.04-0.05-0.07-0.1c-0.03-0.04-0.05-0.07-0.07-0.08c-0.02-0.01-0.04-0.04-0.08-0.06c-0.03-0.03-0.06-0.04-0.09-0.05
						c-0.03-0.01-0.06-0.02-0.1-0.03c-0.04-0.01-0.08-0.02-0.12-0.02c-0.04,0-0.08,0-0.13,0h-1.06v1.52h0.61
						c0.16,0,0.28-0.01,0.35-0.04c0.08-0.03,0.13-0.07,0.16-0.12s0.06-0.13,0.08-0.25l0.44-0.02v1.34l-0.44,0.05
						c0-0.01-0.01-0.02-0.01-0.04c-0.05-0.16-0.09-0.27-0.13-0.31c-0.07-0.07-0.2-0.11-0.4-0.12h-0.05h-0.61v1.66h1.19
						c0.25,0,0.43-0.05,0.52-0.15c0.09-0.1,0.2-0.31,0.33-0.62C137.58,68.98,137.6,68.93,137.61,68.89z"/>
					<path class="st0" d="M143.48,65.71l0.01,0.4l-0.25,0.08c-0.15,0.04-0.24,0.1-0.27,0.18c-0.04,0.08-0.05,0.24-0.05,0.5v3.44
						h-0.46L139.77,67v2.11c0,0.26,0.03,0.44,0.08,0.53c0.05,0.09,0.17,0.15,0.36,0.18l0.26,0.05l-0.01,0.4h-1.82v-0.4l0.23-0.07
						c0.15-0.05,0.24-0.12,0.29-0.21c0.04-0.09,0.07-0.25,0.07-0.48v-2.7c-0.1-0.07-0.2-0.13-0.32-0.17
						c-0.12-0.04-0.29-0.08-0.51-0.13v-0.4h1.45l2.5,3.04v-1.89c0-0.25-0.02-0.42-0.07-0.5c-0.05-0.08-0.17-0.14-0.37-0.2
						l-0.24-0.06v-0.4H143.48z"/>
					<path class="st0" d="M148.4,67.84c0.4,0.06,0.71,0.19,0.92,0.38c0.21,0.19,0.32,0.44,0.32,0.75c0,0.41-0.17,0.72-0.52,0.95
						c-0.34,0.23-0.82,0.34-1.43,0.34h-2.04v-0.4l0.21-0.05c0.13-0.03,0.21-0.07,0.25-0.13c0.04-0.06,0.06-0.18,0.06-0.36v-2.66
						c0-0.18-0.02-0.3-0.06-0.36c-0.04-0.06-0.11-0.11-0.23-0.13l-0.21-0.05v-0.4h1.97c0.56,0,0.99,0.09,1.31,0.29
						c0.31,0.19,0.47,0.46,0.47,0.83c0,0.25-0.09,0.46-0.26,0.64C148.98,67.63,148.73,67.76,148.4,67.84z M147.51,66.14h-0.44v1.5
						c0.14,0.02,0.31,0.03,0.49,0.03c0.58,0,0.87-0.25,0.87-0.76c0-0.26-0.08-0.46-0.23-0.58S147.82,66.14,147.51,66.14z
						 M147.76,69.83c0.28,0,0.49-0.08,0.63-0.23c0.14-0.15,0.21-0.38,0.21-0.67c0-0.55-0.32-0.82-0.96-0.82
						c-0.17,0-0.36,0.02-0.57,0.04v1.57C147.23,69.79,147.46,69.83,147.76,69.83z"/>
					<path class="st0" d="M155.1,65.71l0.01,0.4l-0.26,0.08c-0.15,0.04-0.24,0.11-0.28,0.19s-0.06,0.25-0.06,0.49v1.58
						c0,0.63-0.17,1.1-0.5,1.41c-0.33,0.31-0.8,0.47-1.39,0.47c-0.65,0-1.13-0.15-1.46-0.46c-0.32-0.3-0.49-0.78-0.49-1.42v-1.81
						c0-0.17-0.02-0.29-0.06-0.35c-0.04-0.06-0.12-0.1-0.25-0.14l-0.21-0.05v-0.4h1.93l0.01,0.4l-0.25,0.04
						c-0.11,0.02-0.19,0.06-0.23,0.13c-0.04,0.07-0.06,0.19-0.06,0.37v1.75c0,0.25,0.03,0.47,0.09,0.65
						c0.06,0.18,0.15,0.33,0.26,0.44c0.11,0.11,0.24,0.19,0.38,0.24c0.14,0.05,0.3,0.08,0.48,0.08c0.39,0,0.69-0.11,0.89-0.32
						c0.2-0.22,0.3-0.57,0.3-1.07v-1.54c0-0.25-0.03-0.41-0.08-0.49s-0.18-0.15-0.37-0.2l-0.25-0.07v-0.4H155.1z"/>
					<path class="st0" d="M158.26,65.71h1.63v0.4l-0.18,0.07c-0.15,0.05-0.26,0.13-0.35,0.21s-0.22,0.27-0.38,0.54l-0.96,1.53v0.85
						c0,0.18,0.02,0.3,0.06,0.36c0.04,0.06,0.13,0.1,0.27,0.13l0.31,0.06l-0.01,0.4h-2.15v-0.4l0.28-0.06
						c0.15-0.03,0.24-0.07,0.29-0.13s0.06-0.18,0.06-0.36v-0.81l-1.02-1.75c-0.11-0.18-0.21-0.32-0.3-0.41
						c-0.09-0.09-0.18-0.15-0.29-0.18l-0.19-0.05l0.01-0.4h1.92v0.4l-0.16,0.05c-0.08,0.02-0.13,0.05-0.15,0.08
						s-0.03,0.08-0.02,0.14s0.06,0.16,0.12,0.28l0.73,1.27l0.69-1.16c0.08-0.13,0.13-0.24,0.15-0.31s0.02-0.13-0.01-0.17
						c-0.03-0.04-0.09-0.08-0.18-0.11l-0.17-0.06L158.26,65.71z"/>
					<path class="st0" d="M165.25,65.71l0.01,0.4L165,66.19c-0.15,0.04-0.24,0.11-0.28,0.19s-0.06,0.25-0.06,0.49v1.58
						c0,0.63-0.17,1.1-0.5,1.41c-0.33,0.31-0.8,0.47-1.39,0.47c-0.65,0-1.13-0.15-1.46-0.46c-0.32-0.3-0.49-0.78-0.49-1.42v-1.81
						c0-0.17-0.02-0.29-0.06-0.35c-0.04-0.06-0.12-0.1-0.25-0.14l-0.21-0.05v-0.4h1.93l0.01,0.4l-0.25,0.04
						c-0.11,0.02-0.19,0.06-0.23,0.13c-0.04,0.07-0.06,0.19-0.06,0.37v1.75c0,0.25,0.03,0.47,0.09,0.65s0.15,0.33,0.26,0.44
						c0.11,0.11,0.24,0.19,0.38,0.24c0.14,0.05,0.3,0.08,0.48,0.08c0.39,0,0.69-0.11,0.89-0.32c0.2-0.22,0.3-0.57,0.3-1.07v-1.54
						c0-0.25-0.03-0.41-0.08-0.49s-0.18-0.15-0.37-0.2l-0.25-0.07v-0.4H165.25z"/>
					<path class="st0" d="M166.99,69.32c0,0.18,0.02,0.3,0.06,0.37c0.04,0.07,0.12,0.11,0.24,0.13l0.27,0.05l-0.01,0.4h-1.96v-0.4
						l0.21-0.05c0.13-0.03,0.21-0.07,0.25-0.13c0.04-0.06,0.06-0.18,0.06-0.36v-2.66c0-0.18-0.02-0.3-0.06-0.36
						c-0.04-0.06-0.12-0.11-0.25-0.14l-0.21-0.05v-0.4h1.92l0.01,0.4l-0.25,0.05c-0.11,0.02-0.18,0.06-0.22,0.13
						c-0.04,0.07-0.06,0.19-0.06,0.37V69.32z M170.03,69.67l0.15,0.27c-0.07,0.11-0.17,0.2-0.29,0.28
						c-0.12,0.08-0.27,0.11-0.44,0.11c-0.18,0-0.36-0.06-0.51-0.18s-0.35-0.32-0.58-0.59l-1.19-1.46v-0.25l1.09-1.06
						c0.13-0.13,0.23-0.24,0.28-0.33c0.05-0.08,0.06-0.15,0.04-0.19c-0.02-0.04-0.08-0.08-0.16-0.11l-0.16-0.05v-0.4h1.6l0.01,0.4
						c-0.21,0.07-0.37,0.14-0.5,0.24c-0.13,0.09-0.3,0.25-0.52,0.47l-0.88,0.88l1.29,1.55c0.16,0.18,0.27,0.31,0.35,0.37
						c0.08,0.06,0.16,0.09,0.23,0.09C169.9,69.71,169.97,69.7,170.03,69.67z"/>
					<path class="st0" d="M177.14,65.71l0.01,0.4l-0.26,0.08c-0.15,0.04-0.24,0.11-0.28,0.19s-0.06,0.25-0.06,0.49v1.58
						c0,0.63-0.17,1.1-0.5,1.41c-0.33,0.31-0.8,0.47-1.39,0.47c-0.65,0-1.13-0.15-1.46-0.46c-0.32-0.3-0.49-0.78-0.49-1.42v-1.81
						c0-0.17-0.02-0.29-0.06-0.35c-0.04-0.06-0.12-0.1-0.25-0.14l-0.21-0.05v-0.4h1.93l0.01,0.4l-0.25,0.04
						c-0.11,0.02-0.19,0.06-0.23,0.13c-0.04,0.07-0.06,0.19-0.06,0.37v1.75c0,0.25,0.03,0.47,0.09,0.65
						c0.06,0.18,0.15,0.33,0.26,0.44c0.11,0.11,0.24,0.19,0.38,0.24c0.14,0.05,0.3,0.08,0.48,0.08c0.39,0,0.69-0.11,0.89-0.32
						c0.2-0.22,0.3-0.57,0.3-1.07v-1.54c0-0.25-0.03-0.41-0.08-0.49s-0.18-0.15-0.37-0.2l-0.25-0.07v-0.4H177.14z"/>
					<path class="st0" d="M182.33,65.71l0.01,0.4l-0.25,0.08c-0.15,0.04-0.24,0.1-0.27,0.18c-0.04,0.08-0.05,0.24-0.05,0.5v3.44
						h-0.46L178.62,67v2.11c0,0.26,0.03,0.44,0.08,0.53c0.05,0.09,0.17,0.15,0.36,0.18l0.26,0.05l-0.01,0.4h-1.82v-0.4l0.23-0.07
						c0.15-0.05,0.24-0.12,0.29-0.21c0.04-0.09,0.06-0.25,0.06-0.48v-2.7c-0.1-0.07-0.2-0.13-0.32-0.17s-0.29-0.08-0.51-0.13v-0.4
						h1.45l2.51,3.04v-1.89c0-0.25-0.02-0.42-0.07-0.5c-0.05-0.08-0.17-0.14-0.37-0.2l-0.24-0.06v-0.4H182.33z"/>
					<path class="st0" d="M184.14,69.32c0,0.18,0.02,0.3,0.06,0.37c0.04,0.07,0.11,0.11,0.22,0.13l0.25,0.05l-0.01,0.4h-1.93v-0.4
						l0.22-0.05c0.12-0.03,0.21-0.07,0.24-0.13c0.04-0.06,0.06-0.18,0.06-0.36v-2.66c0-0.18-0.02-0.3-0.06-0.36
						c-0.04-0.06-0.12-0.11-0.24-0.14l-0.22-0.05v-0.4h1.93l0.01,0.4l-0.25,0.05c-0.11,0.02-0.18,0.06-0.22,0.13
						c-0.04,0.07-0.06,0.19-0.06,0.37V69.32z"/>
					<path class="st0" d="M188.13,65.71h1.67v0.4l-0.18,0.05c-0.13,0.03-0.23,0.1-0.32,0.21c-0.08,0.11-0.17,0.27-0.26,0.5
						l-1.37,3.44h-0.65l-1.2-3.39c-0.01-0.04-0.03-0.09-0.06-0.17s-0.04-0.12-0.05-0.15c-0.01-0.02-0.02-0.06-0.05-0.11
						c-0.02-0.05-0.04-0.08-0.05-0.1c-0.01-0.02-0.03-0.04-0.05-0.07c-0.02-0.03-0.04-0.05-0.06-0.06s-0.04-0.03-0.07-0.04
						s-0.06-0.03-0.09-0.04l-0.21-0.06v-0.4h1.97l0.01,0.4l-0.28,0.05c-0.12,0.02-0.19,0.07-0.2,0.16
						c-0.01,0.08,0.03,0.24,0.11,0.49l0.85,2.51l0.88-2.35c0.1-0.24,0.15-0.43,0.13-0.55c-0.01-0.12-0.09-0.21-0.24-0.24l-0.22-0.05
						V65.71z"/>
					<path class="st0" d="M193.6,68.89h0.44l-0.13,1.37h-3.81v-0.4l0.21-0.05c0.13-0.03,0.21-0.07,0.25-0.13
						c0.04-0.06,0.06-0.18,0.06-0.36v-2.66c0-0.18-0.02-0.3-0.06-0.36c-0.04-0.06-0.11-0.11-0.23-0.13l-0.21-0.05v-0.4h3.58
						l0.2,1.11l-0.46,0.08c-0.04-0.08-0.07-0.13-0.08-0.16c-0.01-0.03-0.04-0.07-0.07-0.13c-0.03-0.06-0.05-0.1-0.07-0.12
						c-0.02-0.02-0.04-0.05-0.07-0.1c-0.03-0.04-0.05-0.07-0.07-0.08s-0.04-0.04-0.08-0.06c-0.03-0.03-0.06-0.04-0.09-0.05
						s-0.06-0.02-0.1-0.03c-0.04-0.01-0.08-0.02-0.12-0.02c-0.04,0-0.08,0-0.14,0h-1.06v1.52h0.61c0.16,0,0.28-0.01,0.35-0.04
						c0.08-0.03,0.13-0.07,0.16-0.12c0.03-0.05,0.05-0.13,0.08-0.25l0.44-0.02v1.34l-0.44,0.05c0-0.01-0.01-0.02-0.01-0.04
						c-0.04-0.16-0.09-0.27-0.13-0.31c-0.07-0.07-0.2-0.11-0.4-0.12h-0.05h-0.61v1.66h1.19c0.25,0,0.43-0.05,0.52-0.15
						c0.09-0.1,0.2-0.31,0.33-0.62C193.57,68.98,193.59,68.93,193.6,68.89z"/>
					<path class="st0" d="M198.86,69.66l0.15,0.28c-0.07,0.11-0.17,0.21-0.31,0.28c-0.14,0.07-0.28,0.11-0.43,0.11
						c-0.14,0-0.26-0.03-0.38-0.09c-0.11-0.06-0.21-0.14-0.3-0.24c-0.09-0.1-0.2-0.25-0.34-0.45l-0.84-1.23h-0.34v0.99
						c0,0.18,0.02,0.3,0.06,0.37c0.04,0.07,0.11,0.11,0.22,0.13l0.24,0.05l-0.01,0.4h-1.92v-0.4l0.22-0.05
						c0.12-0.03,0.21-0.07,0.25-0.13c0.04-0.06,0.06-0.18,0.06-0.36v-2.66c0-0.18-0.02-0.3-0.06-0.36
						c-0.04-0.06-0.11-0.11-0.23-0.13l-0.22-0.05v-0.4h1.9c0.56,0,1.01,0.11,1.33,0.33c0.32,0.22,0.49,0.53,0.49,0.92
						c0,0.28-0.09,0.53-0.28,0.74s-0.45,0.37-0.78,0.47l0.76,1.07c0.14,0.19,0.24,0.31,0.31,0.37c0.07,0.06,0.15,0.08,0.23,0.08
						C198.72,69.71,198.8,69.69,198.86,69.66z M196.06,67.89h0.39c0.33,0,0.58-0.07,0.73-0.22s0.23-0.36,0.23-0.64
						c0-0.31-0.08-0.53-0.23-0.68c-0.16-0.14-0.39-0.22-0.71-0.22h-0.4V67.89z"/>
					<path class="st0" d="M201.17,70.33c-0.38,0-0.75-0.09-1.11-0.26l-0.05,0.17h-0.44l-0.14-1.35l0.43-0.02
						c0.17,0.34,0.35,0.59,0.56,0.74c0.21,0.15,0.47,0.23,0.79,0.23c0.24,0,0.42-0.06,0.55-0.17c0.13-0.12,0.19-0.28,0.19-0.51
						c0-0.12-0.03-0.23-0.08-0.32c-0.06-0.09-0.13-0.17-0.23-0.23c-0.1-0.06-0.21-0.11-0.33-0.16c-0.13-0.05-0.26-0.1-0.4-0.14
						c-0.14-0.04-0.28-0.09-0.42-0.14c-0.14-0.05-0.27-0.11-0.4-0.18c-0.13-0.07-0.24-0.15-0.33-0.25c-0.1-0.09-0.17-0.21-0.23-0.36
						c-0.06-0.14-0.08-0.31-0.08-0.49c0-0.17,0.03-0.33,0.08-0.47s0.13-0.26,0.22-0.35c0.09-0.09,0.2-0.17,0.32-0.24
						c0.12-0.07,0.25-0.11,0.38-0.14c0.13-0.03,0.27-0.04,0.41-0.04c0.19,0,0.39,0.03,0.59,0.08c0.2,0.05,0.38,0.12,0.54,0.21
						l0.09-0.2h0.4l0.07,1.31l-0.4,0.01c-0.16-0.3-0.34-0.52-0.54-0.68s-0.44-0.24-0.73-0.24c-0.19,0-0.34,0.05-0.47,0.15
						c-0.13,0.1-0.19,0.24-0.19,0.43c0,0.11,0.03,0.21,0.09,0.29c0.06,0.08,0.14,0.15,0.24,0.21s0.22,0.1,0.35,0.15
						c0.13,0.04,0.27,0.09,0.41,0.13s0.29,0.09,0.43,0.13c0.14,0.05,0.28,0.11,0.41,0.18s0.25,0.16,0.35,0.25
						c0.1,0.1,0.18,0.22,0.24,0.37c0.06,0.15,0.09,0.32,0.09,0.51c0,0.23-0.04,0.43-0.13,0.61c-0.09,0.18-0.21,0.33-0.36,0.44
						c-0.15,0.11-0.33,0.2-0.53,0.26S201.4,70.33,201.17,70.33z"/>
					<path class="st0" d="M204.78,69.32c0,0.18,0.02,0.3,0.06,0.37c0.04,0.07,0.11,0.11,0.22,0.13l0.25,0.05l-0.01,0.4h-1.93v-0.4
						l0.22-0.05c0.13-0.03,0.21-0.07,0.25-0.13c0.04-0.06,0.06-0.18,0.06-0.36v-2.66c0-0.18-0.02-0.3-0.06-0.36
						c-0.04-0.06-0.12-0.11-0.25-0.14l-0.22-0.05v-0.4h1.93l0.01,0.4l-0.25,0.05c-0.11,0.02-0.18,0.06-0.22,0.13
						c-0.04,0.07-0.06,0.19-0.06,0.37V69.32z"/>
					<path class="st0" d="M209.81,65.71l0.12,1.38l-0.43,0.07c-0.04-0.12-0.07-0.21-0.09-0.28c-0.02-0.07-0.05-0.14-0.08-0.22
						c-0.03-0.08-0.06-0.14-0.08-0.18c-0.02-0.04-0.05-0.08-0.09-0.13c-0.04-0.05-0.07-0.08-0.1-0.1c-0.03-0.02-0.07-0.04-0.12-0.06
						s-0.1-0.04-0.15-0.04s-0.12-0.01-0.19-0.01h-0.3v3.18c0,0.18,0.02,0.3,0.06,0.36s0.13,0.1,0.26,0.12l0.31,0.06l-0.01,0.4h-2.15
						v-0.4l0.28-0.06c0.15-0.03,0.24-0.07,0.29-0.12c0.04-0.06,0.06-0.18,0.06-0.36v-3.18h-0.32c-0.06,0-0.12,0-0.17,0.01
						c-0.05,0.01-0.1,0.01-0.14,0.03c-0.04,0.01-0.08,0.03-0.11,0.05s-0.07,0.05-0.09,0.07s-0.06,0.06-0.08,0.11
						s-0.05,0.09-0.07,0.13c-0.02,0.04-0.04,0.1-0.07,0.17c-0.03,0.08-0.05,0.14-0.08,0.2c-0.02,0.06-0.05,0.14-0.08,0.25
						l-0.43-0.07l0.12-1.38H209.81z"/>
					<path class="st0" d="M213.9,68.89h0.44l-0.13,1.37h-3.81v-0.4l0.21-0.05c0.12-0.03,0.21-0.07,0.24-0.13
						c0.04-0.06,0.06-0.18,0.06-0.36v-2.66c0-0.18-0.02-0.3-0.06-0.36c-0.04-0.06-0.11-0.11-0.23-0.13l-0.21-0.05v-0.4h3.58
						l0.19,1.11l-0.45,0.08c-0.04-0.08-0.07-0.13-0.08-0.16c-0.01-0.03-0.04-0.07-0.07-0.13c-0.03-0.06-0.06-0.1-0.07-0.12
						s-0.04-0.05-0.07-0.1c-0.03-0.04-0.05-0.07-0.07-0.08c-0.02-0.01-0.04-0.04-0.08-0.06c-0.03-0.03-0.06-0.04-0.09-0.05
						c-0.03-0.01-0.06-0.02-0.1-0.03c-0.04-0.01-0.08-0.02-0.12-0.02c-0.04,0-0.08,0-0.13,0h-1.06v1.52h0.61
						c0.16,0,0.28-0.01,0.35-0.04c0.08-0.03,0.13-0.07,0.16-0.12s0.06-0.13,0.08-0.25l0.44-0.02v1.34L213,68.63
						c0-0.01-0.01-0.02-0.01-0.04c-0.05-0.16-0.09-0.27-0.13-0.31c-0.07-0.07-0.2-0.11-0.4-0.12h-0.05h-0.61v1.66h1.19
						c0.25,0,0.43-0.05,0.52-0.15c0.09-0.1,0.2-0.31,0.33-0.62C213.86,68.98,213.88,68.93,213.9,68.89z"/>
					<path class="st0" d="M218.66,70.33c-0.38,0-0.75-0.09-1.11-0.26l-0.05,0.17h-0.44l-0.14-1.35l0.43-0.02
						c0.17,0.34,0.35,0.59,0.56,0.74c0.21,0.15,0.47,0.23,0.79,0.23c0.24,0,0.42-0.06,0.55-0.17c0.13-0.12,0.19-0.28,0.19-0.51
						c0-0.12-0.03-0.23-0.08-0.32c-0.06-0.09-0.13-0.17-0.23-0.23c-0.1-0.06-0.21-0.11-0.33-0.16c-0.13-0.05-0.26-0.1-0.4-0.14
						c-0.14-0.04-0.28-0.09-0.42-0.14c-0.14-0.05-0.27-0.11-0.4-0.18c-0.13-0.07-0.24-0.15-0.33-0.25c-0.1-0.09-0.17-0.21-0.23-0.36
						c-0.06-0.14-0.08-0.31-0.08-0.49c0-0.17,0.03-0.33,0.08-0.47s0.13-0.26,0.22-0.35c0.09-0.09,0.2-0.17,0.32-0.24
						c0.12-0.07,0.25-0.11,0.38-0.14c0.13-0.03,0.27-0.04,0.41-0.04c0.19,0,0.39,0.03,0.59,0.08c0.2,0.05,0.38,0.12,0.54,0.21
						l0.09-0.2h0.4l0.07,1.31l-0.4,0.01c-0.16-0.3-0.34-0.52-0.54-0.68s-0.44-0.24-0.73-0.24c-0.19,0-0.34,0.05-0.47,0.15
						c-0.13,0.1-0.19,0.24-0.19,0.43c0,0.11,0.03,0.21,0.09,0.29c0.06,0.08,0.14,0.15,0.24,0.21s0.22,0.1,0.35,0.15
						c0.13,0.04,0.27,0.09,0.41,0.13s0.29,0.09,0.43,0.13c0.14,0.05,0.28,0.11,0.41,0.18s0.25,0.16,0.35,0.25
						c0.1,0.1,0.18,0.22,0.24,0.37c0.06,0.15,0.09,0.32,0.09,0.51c0,0.23-0.04,0.43-0.13,0.61c-0.09,0.18-0.21,0.33-0.36,0.44
						c-0.15,0.11-0.33,0.2-0.53,0.26S218.89,70.33,218.66,70.33z"/>
					<path class="st0" d="M222.28,69.32c0,0.18,0.02,0.3,0.06,0.37c0.04,0.07,0.11,0.11,0.22,0.13l0.25,0.05l-0.01,0.4h-1.93v-0.4
						l0.22-0.05c0.13-0.03,0.21-0.07,0.25-0.13c0.04-0.06,0.06-0.18,0.06-0.36v-2.66c0-0.18-0.02-0.3-0.06-0.36
						c-0.04-0.06-0.12-0.11-0.25-0.14l-0.22-0.05v-0.4h1.93l0.01,0.4l-0.25,0.05c-0.11,0.02-0.18,0.06-0.22,0.13
						c-0.04,0.07-0.06,0.19-0.06,0.37V69.32z"/>
					<path class="st0" d="M227.55,69.66l0.15,0.28c-0.07,0.11-0.17,0.21-0.31,0.28c-0.14,0.07-0.28,0.11-0.43,0.11
						c-0.14,0-0.26-0.03-0.38-0.09c-0.11-0.06-0.21-0.14-0.3-0.24c-0.09-0.1-0.21-0.25-0.34-0.45l-0.84-1.23h-0.34v0.99
						c0,0.18,0.02,0.3,0.06,0.37c0.04,0.07,0.11,0.11,0.22,0.13l0.24,0.05l-0.01,0.4h-1.92v-0.4l0.21-0.05
						c0.13-0.03,0.21-0.07,0.25-0.13c0.04-0.06,0.06-0.18,0.06-0.36v-2.66c0-0.18-0.02-0.3-0.06-0.36
						c-0.04-0.06-0.11-0.11-0.23-0.13l-0.22-0.05v-0.4h1.9c0.56,0,1.01,0.11,1.33,0.33c0.32,0.22,0.49,0.53,0.49,0.92
						c0,0.28-0.09,0.53-0.28,0.74s-0.45,0.37-0.78,0.47l0.75,1.07c0.14,0.19,0.24,0.31,0.31,0.37c0.07,0.06,0.15,0.08,0.23,0.08
						C227.41,69.71,227.49,69.69,227.55,69.66z M224.75,67.89h0.39c0.33,0,0.58-0.07,0.73-0.22s0.23-0.36,0.23-0.64
						c0-0.31-0.08-0.53-0.23-0.68c-0.15-0.14-0.39-0.22-0.71-0.22h-0.4V67.89z"/>
					<path class="st0" d="M232.3,69.8l0.24,0.06v0.4h-1.98l-0.01-0.4l0.27-0.05c0.12-0.02,0.19-0.06,0.21-0.14
						c0.02-0.07-0.01-0.23-0.09-0.46l-0.16-0.45h-1.6l-0.08,0.2c-0.04,0.1-0.07,0.18-0.08,0.24c-0.02,0.06-0.04,0.12-0.05,0.18
						c-0.02,0.06-0.02,0.12-0.02,0.15c0,0.04,0.02,0.07,0.03,0.11c0.02,0.04,0.05,0.07,0.08,0.09c0.04,0.02,0.09,0.04,0.15,0.06
						l0.23,0.07v0.4h-1.76v-0.4l0.16-0.06c0.17-0.06,0.29-0.15,0.39-0.26c0.09-0.11,0.19-0.31,0.31-0.6l1.33-3.33h0.7l1.26,3.48
						c0.02,0.05,0.04,0.12,0.07,0.21s0.05,0.14,0.06,0.17c0.01,0.03,0.03,0.07,0.05,0.12c0.02,0.05,0.05,0.09,0.07,0.11
						c0.02,0.02,0.05,0.04,0.09,0.06C232.21,69.77,232.25,69.79,232.3,69.8z M229.36,68.27h1.25L230,66.54L229.36,68.27z"/>
					<path class="st0" d="M234.19,69.82h0.96c0.14,0,0.25-0.01,0.34-0.04c0.08-0.03,0.16-0.09,0.23-0.19
						c0.06-0.1,0.11-0.19,0.14-0.27c0.03-0.08,0.08-0.23,0.14-0.46c0.02-0.06,0.04-0.11,0.04-0.15h0.45l-0.11,1.55h-3.58v-0.4
						l0.21-0.05c0.13-0.03,0.21-0.07,0.25-0.13c0.04-0.06,0.06-0.18,0.06-0.36v-2.66c0-0.18-0.02-0.3-0.06-0.36
						c-0.04-0.06-0.11-0.11-0.23-0.13l-0.21-0.05v-0.4h1.92l0.01,0.4l-0.24,0.04c-0.12,0.03-0.2,0.07-0.24,0.14
						s-0.06,0.19-0.06,0.37V69.82z"/>
					<path class="st0" d="M241.4,69.8l0.24,0.06v0.4h-1.98l-0.01-0.4l0.27-0.05c0.12-0.02,0.19-0.06,0.21-0.14
						c0.02-0.07-0.01-0.23-0.09-0.46l-0.16-0.45h-1.6l-0.08,0.2c-0.04,0.1-0.07,0.18-0.09,0.24c-0.02,0.06-0.04,0.12-0.05,0.18
						c-0.02,0.06-0.02,0.12-0.02,0.15c0,0.04,0.02,0.07,0.03,0.11c0.02,0.04,0.05,0.07,0.08,0.09c0.04,0.02,0.09,0.04,0.15,0.06
						l0.23,0.07v0.4h-1.76v-0.4l0.16-0.06c0.17-0.06,0.29-0.15,0.39-0.26c0.09-0.11,0.2-0.31,0.31-0.6l1.33-3.33h0.7l1.26,3.48
						c0.02,0.05,0.04,0.12,0.07,0.21s0.05,0.14,0.06,0.17c0.01,0.03,0.03,0.07,0.05,0.12c0.02,0.05,0.05,0.09,0.07,0.11
						s0.05,0.04,0.09,0.06C241.31,69.77,241.35,69.79,241.4,69.8z M238.46,68.27h1.25l-0.62-1.74L238.46,68.27z"/>
					<path class="st0" d="M247.43,69.82l0.24,0.05l-0.01,0.4h-1.92v-0.4l0.23-0.05c0.09-0.02,0.15-0.05,0.19-0.07
						c0.04-0.03,0.07-0.07,0.08-0.13c0.02-0.06,0.02-0.15,0.02-0.28l-0.07-2.86l-1.25,3.65h-0.48l-1.32-3.62l-0.11,2.64
						c-0.01,0.25,0,0.41,0.05,0.5c0.04,0.08,0.15,0.15,0.33,0.19l0.2,0.05l-0.01,0.4h-1.75v-0.4l0.24-0.07
						c0.14-0.05,0.24-0.12,0.28-0.2c0.04-0.09,0.07-0.24,0.08-0.46l0.11-2.29c0.01-0.24,0-0.4-0.04-0.48s-0.14-0.14-0.29-0.18
						l-0.27-0.06l0.01-0.4h1.74l1.17,3.13l1.05-3.13h1.6l0.01,0.4l-0.24,0.05c-0.12,0.02-0.2,0.06-0.24,0.13
						c-0.04,0.06-0.06,0.18-0.05,0.36l0.08,2.68c0.01,0.18,0.03,0.3,0.07,0.36C247.24,69.75,247.32,69.79,247.43,69.82z"/>
				</g>
				<text transform="matrix(1 0 0 1 247.8956 70.2625)" class="st0 st4 st5">A</text>
				<text transform="matrix(1 0 0 1 252.7306 70.2625)" class="st0 st4 st5">SI</text>
				<path id="Path_2929" class="st0" d="M104.24,63.91c0.32,0,0.58,0.27,0.58,0.6c0,0,0,0,0,0c0,0.33-0.27,0.59-0.6,0.59
					c-0.33,0-0.59-0.27-0.59-0.6c0-0.33,0.27-0.59,0.59-0.59H104.24z"/>
				<path id="Path_2930" class="st0" d="M101.82,63.91c0.32,0.01,0.58,0.27,0.58,0.6c0,0,0,0,0,0c0,0.33-0.27,0.59-0.6,0.59
					c-0.33,0-0.59-0.27-0.59-0.6c0-0.33,0.27-0.59,0.59-0.59H101.82z"/>
				<path id="Path_2931" class="st0" d="M161.21,63.91c0.32,0,0.58,0.27,0.58,0.6c0,0,0,0,0,0c0,0.33-0.27,0.59-0.6,0.59
					c-0.33,0-0.59-0.27-0.59-0.6c0-0.33,0.27-0.59,0.59-0.59H161.21z"/>
				<path id="Path_2932" class="st0" d="M158.76,63.91c0.32,0,0.58,0.27,0.58,0.6c0,0,0,0,0,0c0,0.33-0.27,0.59-0.6,0.59
					c-0.33,0-0.59-0.27-0.59-0.6c0-0.33,0.27-0.59,0.59-0.59H158.76z"/>
				<path id="Path_2933" class="st0" d="M172.48,63.91c0.32,0,0.58,0.27,0.58,0.6c0,0,0,0,0,0c0,0.33-0.27,0.59-0.6,0.59
					c-0.33,0-0.59-0.27-0.59-0.6c0-0.33,0.27-0.59,0.59-0.59H172.48z"/>
				<path id="Path_2934" class="st0" d="M170.03,63.91c0.32,0,0.58,0.27,0.58,0.6c0,0,0,0,0,0c0,0.33-0.27,0.59-0.6,0.59
					c-0.33,0-0.59-0.27-0.59-0.6c0-0.33,0.27-0.59,0.59-0.59H170.03z"/>
				<path id="Path_2935" class="st0" d="M186.17,63.91c0.32,0,0.58,0.27,0.58,0.6c0,0,0,0,0,0c0,0.33-0.27,0.59-0.6,0.59
					c-0.33,0-0.59-0.27-0.59-0.6c0-0.33,0.27-0.59,0.59-0.59H186.17z"/>
				<path id="Path_2936" class="st0" d="M183.72,63.91c0.32,0,0.58,0.27,0.58,0.6c0,0,0,0,0,0c0,0.33-0.27,0.59-0.6,0.59
					c-0.33,0-0.59-0.27-0.59-0.6c0-0.33,0.27-0.59,0.59-0.59H183.72z"/>
				<g class="st3">
					<path class="st2" d="M107.39,34.86h7.22v1.77l-0.8,0.3c-0.65,0.24-1.16,0.56-1.55,0.95s-0.96,1.18-1.7,2.37l-4.25,6.8v3.78
						c0,0.79,0.09,1.31,0.28,1.57c0.19,0.26,0.58,0.45,1.19,0.56l1.36,0.27l-0.03,1.77h-9.52v-1.77l1.24-0.27
						c0.66-0.12,1.08-0.31,1.26-0.56s0.28-0.78,0.28-1.57v-3.57l-4.53-7.75c-0.48-0.82-0.92-1.43-1.31-1.83
						c-0.39-0.4-0.81-0.67-1.26-0.8l-0.83-0.24l0.03-1.77h8.49v1.77l-0.71,0.21c-0.33,0.1-0.56,0.21-0.68,0.34s-0.15,0.33-0.08,0.63
						s0.25,0.71,0.55,1.26l3.22,5.62l3.04-5.15c0.36-0.58,0.59-1.04,0.68-1.37c0.09-0.33,0.07-0.58-0.06-0.77s-0.39-0.35-0.79-0.49
						l-0.77-0.27L107.39,34.86z"/>
					<path class="st2" d="M138.35,34.86l0.05,1.77l-1.15,0.33c-0.66,0.19-1.08,0.47-1.26,0.83s-0.27,1.09-0.27,2.19v7.01
						c0,2.79-0.74,4.87-2.22,6.25c-1.48,1.38-3.53,2.07-6.15,2.07c-2.87,0-5.02-0.67-6.46-2.01c-1.44-1.34-2.16-3.44-2.16-6.28
						v-8.01c0-0.78-0.09-1.3-0.26-1.56c-0.17-0.26-0.54-0.46-1.11-0.61l-0.92-0.21v-1.77h8.55l0.03,1.77l-1.09,0.18
						c-0.5,0.08-0.85,0.27-1.03,0.56c-0.18,0.29-0.27,0.84-0.27,1.63v7.75c0,1.11,0.13,2.07,0.4,2.89s0.65,1.46,1.14,1.94
						s1.06,0.82,1.69,1.04c0.63,0.22,1.34,0.33,2.13,0.33c1.75,0,3.06-0.48,3.94-1.43c0.88-0.95,1.32-2.54,1.32-4.75v-6.81
						c0-1.09-0.12-1.81-0.36-2.17c-0.24-0.36-0.79-0.65-1.63-0.87l-1.11-0.3v-1.77H138.35z"/>
					<path class="st2" d="M161.29,34.86l0.03,1.77l-1.12,0.33c-0.65,0.19-1.05,0.46-1.21,0.8c-0.16,0.34-0.24,1.08-0.24,2.21v15.21
						h-2.04l-11.84-14.65v9.35c0,1.15,0.12,1.93,0.35,2.33s0.76,0.67,1.57,0.8l1.17,0.21l-0.03,1.77h-8.05v-1.77l1.01-0.33
						c0.66-0.21,1.08-0.52,1.27-0.91c0.19-0.39,0.29-1.1,0.29-2.1V37.94c-0.42-0.31-0.9-0.56-1.42-0.73
						c-0.52-0.18-1.27-0.37-2.25-0.57v-1.77h6.42l11.09,13.49v-8.37c0-1.13-0.11-1.87-0.33-2.21c-0.22-0.34-0.77-0.63-1.66-0.86
						l-1.08-0.27v-1.77H161.29z"/>
					<path class="st2" d="M169.35,50.83c0,0.79,0.09,1.33,0.26,1.62c0.17,0.29,0.5,0.48,0.98,0.58l1.09,0.21l-0.03,1.77h-8.55v-1.77
						l0.98-0.24c0.55-0.12,0.92-0.31,1.08-0.58c0.17-0.27,0.25-0.79,0.25-1.58V39.04c0-0.79-0.08-1.31-0.25-1.58
						c-0.17-0.27-0.53-0.47-1.08-0.61l-0.98-0.21v-1.77h8.55l0.03,1.77l-1.09,0.21c-0.48,0.09-0.81,0.28-0.98,0.58
						c-0.17,0.29-0.26,0.83-0.26,1.62V50.83z"/>
					<path class="st2" d="M192.69,52.35l0.65,1.24c-0.29,0.5-0.75,0.92-1.37,1.24c-0.62,0.32-1.26,0.48-1.92,0.48
						c-0.62,0-1.17-0.13-1.67-0.39c-0.49-0.26-0.94-0.61-1.34-1.05c-0.4-0.44-0.91-1.11-1.52-2l-3.72-5.45h-1.51v4.4
						c0,0.79,0.08,1.33,0.26,1.62c0.17,0.29,0.5,0.48,0.98,0.58l1.07,0.21l-0.03,1.77h-8.52v-1.77l0.95-0.24
						c0.55-0.12,0.92-0.31,1.09-0.58s0.26-0.79,0.26-1.58V39.04c0-0.79-0.08-1.32-0.25-1.6c-0.17-0.28-0.51-0.48-1.02-0.6
						l-0.97-0.21v-1.77h8.43c2.49,0,4.46,0.49,5.89,1.48c1.43,0.98,2.15,2.35,2.15,4.09c0,1.25-0.41,2.34-1.23,3.28
						c-0.82,0.93-1.97,1.63-3.47,2.1l3.34,4.74c0.61,0.84,1.06,1.38,1.37,1.63c0.31,0.25,0.65,0.38,1.02,0.38
						C192.06,52.56,192.41,52.49,192.69,52.35z M180.29,44.5h1.73c1.48,0,2.56-0.32,3.22-0.97s1-1.58,1-2.82
						c0-1.36-0.34-2.36-1.03-3c-0.69-0.64-1.74-0.96-3.16-0.96h-1.76V44.5z"/>
					<path class="st2" d="M213.73,52.97l1.06,0.27v1.77h-8.75l-0.03-1.77l1.18-0.21c0.54-0.08,0.86-0.29,0.93-0.61
						c0.08-0.33-0.06-1.01-0.4-2.05l-0.71-1.98h-7.1l-0.35,0.89c-0.17,0.45-0.3,0.81-0.38,1.06c-0.08,0.25-0.16,0.52-0.23,0.81
						c-0.07,0.29-0.1,0.51-0.08,0.67c0.02,0.16,0.07,0.32,0.15,0.48c0.08,0.16,0.2,0.29,0.37,0.39c0.17,0.1,0.39,0.18,0.66,0.26
						l1.03,0.3v1.77h-7.78v-1.77l0.71-0.27c0.74-0.28,1.31-0.67,1.71-1.17c0.4-0.49,0.86-1.38,1.38-2.65l5.87-14.76h3.12l5.59,15.41
						c0.08,0.22,0.18,0.52,0.3,0.91s0.21,0.64,0.26,0.77c0.05,0.13,0.13,0.31,0.23,0.54c0.11,0.23,0.21,0.38,0.3,0.47
						c0.1,0.09,0.22,0.17,0.39,0.26C213.33,52.85,213.51,52.92,213.73,52.97z M200.71,46.2h5.56l-2.74-7.69L200.71,46.2z"/>
					<path class="st2" d="M237.22,34.86l0.03,1.77l-1.12,0.33c-0.65,0.19-1.05,0.46-1.21,0.8c-0.16,0.34-0.24,1.08-0.24,2.21v15.21
						h-2.04L220.8,40.54v9.35c0,1.15,0.12,1.93,0.35,2.33s0.76,0.67,1.57,0.8l1.17,0.21l-0.03,1.77h-8.05v-1.77l1.01-0.33
						c0.66-0.21,1.08-0.52,1.27-0.91c0.19-0.39,0.29-1.1,0.29-2.1V37.94c-0.42-0.31-0.9-0.56-1.42-0.73
						c-0.52-0.18-1.27-0.37-2.25-0.57v-1.77h6.42l11.09,13.49v-8.37c0-1.13-0.11-1.87-0.33-2.21c-0.22-0.34-0.77-0.63-1.66-0.86
						l-1.08-0.27v-1.77H237.22z"/>
					<path class="st2" d="M245.24,50.83c0,0.8,0.09,1.34,0.27,1.63c0.18,0.29,0.53,0.48,1.07,0.57l1.18,0.21l-0.03,1.77h-8.67v-1.77
						l0.92-0.24c0.55-0.12,0.92-0.31,1.08-0.58c0.17-0.27,0.25-0.79,0.25-1.58V39.04c0-0.79-0.08-1.31-0.25-1.58
						c-0.17-0.27-0.53-0.47-1.08-0.61l-0.92-0.21v-1.77h8.49l0.03,1.77l-1.09,0.21c-0.48,0.09-0.81,0.28-0.98,0.58
						c-0.17,0.29-0.26,0.83-0.26,1.62V50.83z M258.73,52.38l0.65,1.21c-0.31,0.48-0.74,0.89-1.28,1.23c-0.54,0.33-1.19,0.5-1.95,0.5
						c-0.82,0-1.58-0.26-2.28-0.78s-1.55-1.4-2.55-2.63l-5.27-6.48v-1.12l4.83-4.68c0.59-0.6,1-1.08,1.22-1.45
						c0.22-0.37,0.28-0.66,0.18-0.86c-0.1-0.2-0.34-0.36-0.72-0.48l-0.71-0.21v-1.77h7.07l0.03,1.77c-0.91,0.29-1.65,0.64-2.23,1.04
						c-0.58,0.4-1.34,1.1-2.29,2.07l-3.91,3.91l5.74,6.86c0.69,0.81,1.2,1.35,1.55,1.63c0.35,0.28,0.69,0.42,1.02,0.42
						C258.13,52.56,258.43,52.5,258.73,52.38z"/>
					<path class="st2" d="M269.54,55.31c-1.67,0-3.31-0.38-4.92-1.13l-0.23,0.74h-1.95l-0.61-5.98l1.91-0.11
						c0.74,1.5,1.56,2.6,2.47,3.29c0.91,0.69,2.07,1.03,3.5,1.03c1.05,0,1.86-0.25,2.43-0.76s0.86-1.26,0.86-2.25
						c0-0.54-0.13-1.01-0.38-1.42c-0.25-0.41-0.59-0.74-1.02-1.01s-0.92-0.5-1.48-0.72c-0.56-0.22-1.15-0.42-1.76-0.62
						c-0.62-0.2-1.23-0.4-1.84-0.62s-1.2-0.48-1.76-0.8c-0.56-0.32-1.05-0.69-1.48-1.1s-0.77-0.95-1.02-1.59
						c-0.25-0.64-0.38-1.37-0.38-2.19c0-0.76,0.12-1.45,0.36-2.07c0.24-0.63,0.56-1.15,0.96-1.57c0.4-0.42,0.88-0.77,1.42-1.06
						c0.54-0.29,1.1-0.5,1.69-0.63c0.58-0.13,1.2-0.2,1.83-0.2c0.84,0,1.71,0.12,2.6,0.35c0.9,0.23,1.7,0.54,2.39,0.92l0.38-0.86
						h1.79l0.32,5.8l-1.77,0.06c-0.72-1.31-1.52-2.32-2.4-3.03c-0.88-0.71-1.96-1.06-3.22-1.06c-0.83,0-1.52,0.22-2.07,0.66
						c-0.55,0.44-0.83,1.07-0.83,1.88c0,0.49,0.13,0.93,0.39,1.3c0.26,0.37,0.62,0.68,1.07,0.92c0.45,0.24,0.96,0.45,1.54,0.65
						c0.58,0.2,1.18,0.39,1.82,0.58c0.64,0.19,1.28,0.39,1.92,0.6c0.64,0.21,1.25,0.48,1.82,0.81c0.58,0.33,1.09,0.7,1.54,1.13
						s0.8,0.97,1.07,1.63c0.26,0.66,0.39,1.41,0.39,2.25c0,1.01-0.19,1.91-0.58,2.71c-0.38,0.8-0.91,1.45-1.58,1.95
						c-0.67,0.5-1.45,0.88-2.32,1.14S270.55,55.31,269.54,55.31z"/>
				</g>
				<path id="Path_2937" class="st2" d="M132.6,28.96c1.19,0.02,2.14,1,2.12,2.19c0,0.01,0,0.01,0,0.02
					c-0.02,1.2-1.01,2.17-2.21,2.15c-1.2-0.02-2.17-1.01-2.15-2.21c0.02-1.19,0.99-2.15,2.18-2.15H132.6z"/>
				<path id="Path_2938" class="st2" d="M123.62,28.96c1.19,0.02,2.14,1,2.12,2.19c0,0.01,0,0.01,0,0.02
					c-0.02,1.2-1.01,2.17-2.21,2.15c-1.2-0.02-2.17-1.01-2.15-2.21c0.02-1.19,0.99-2.15,2.18-2.15H123.62z"/>
			</g>
		</g>
	</g>
</g>
</svg>
