<?xml version="1.0" encoding="utf-8"?>
<!-- Generator: Adobe Illustrator 27.3.1, SVG Export Plug-In . SVG Version: 6.00 Build 0)  -->
<svg version="1.1" id="Layer_1" xmlns="http://www.w3.org/2000/svg" xmlns:xlink="http://www.w3.org/1999/xlink" x="0px" y="0px"
	 viewBox="0 0 816.36 230.36" style="enable-background:new 0 0 816.36 230.36;" xml:space="preserve">
<style type="text/css">
	.st0{fill:#FFFFFF;}
	.st1{fill:#B2B1B2;}
</style>
<g id="Group_4728" transform="translate(-852.241 -1249.509)">
	<g id="Group_4434" transform="translate(944.143 1278.247)">
		<g id="Group_4432">
			<path id="Path_1705" class="st0" d="M249.49,72.99c-1.19,0.46-2.48,0.92-2.48,3.67v29.1c0,20.75-17.44,25.71-28.92,25.71
				c-12.58,0-29.75-1.47-29.75-23.23v-30.2c0.07-1.96-0.95-3.81-2.66-4.78l-4.86-1.93c-0.01-1.87,0.11-3.74,0.37-5.6h31.86
				c0.24,2.01,0.3,4.04,0.18,6.06l-6.15,1.1c-1.39,0.05-2.47,1.21-2.42,2.6c0,0.11,0.02,0.23,0.03,0.34v29.93
				c0,14.32,9.82,16.52,17.08,16.52c6.69,0,13.77-3.12,13.77-18.73V78.77c0.07-3.07-2.12-5.72-5.14-6.24l-3.95-1.19
				c-0.11-1.87-0.08-3.74,0.09-5.6h27.17c0.3,1.91,0.42,3.85,0.37,5.78L249.49,72.99z"/>
			<path id="Path_1706" class="st0" d="M327.7,72.9c-2.26,1.32-3.68,3.72-3.76,6.33v50.49l-12.02,3.67l-35.25-47.74h-0.64l0.37,7.34
				v12.58l0.27,13.86c0,2.21,0.18,2.94,2.2,3.49l7.8,2.2c0.02,1.85-0.13,3.69-0.46,5.51h-27.63c-0.3-1.79-0.42-3.61-0.37-5.42
				l4.41-1.19c2.85-0.74,4.31-5.23,4.41-8.17l0.18-10.28V78.13c-0.01-1.92-1.02-3.69-2.66-4.68l-5.6-2.85
				c-0.07-1.62-0.01-3.25,0.18-4.86h21.3l34.24,45.17h0.64l-0.55-9.64V79.32c-0.07-2.4-1.35-4.61-3.4-5.88l-5.78-2.85
				c-0.05-1.63,0.07-3.26,0.37-4.86h25.89c0.21,1.55,0.33,3.11,0.37,4.68L327.7,72.9z"/>
			<path id="Path_1707" class="st0" d="M367.72,130.63h-30.66c-0.36-1.84-0.45-3.73-0.27-5.6l3.31-0.92
				c2.4-0.63,4.16-2.67,4.41-5.14l0.27-14.14V78.12c0-3.03-2.94-4.59-4.68-5.32l-3.31-1.47c-0.18-1.87-0.09-3.76,0.27-5.6h31.03
				c0.2,2.08,0.11,4.18-0.27,6.24l-4.04,1.01c-2.13,0.67-3.5,2.73-3.31,4.96v26.9l0.19,15.52c0.09,1.74,0.46,2.2,2.11,2.75l5.6,1.29
				C368.46,126.49,368.24,128.59,367.72,130.63z"/>
			<path id="Path_1708" class="st0" d="M443.82,132.85c-8.5,1.36-17.16-1.02-23.78-6.52c-5.42-4.5-10.18-12.76-14.05-21.48
				l-1.93,0.09h-7.25l0.28,14.5c0,1.84,0.37,2.76,1.93,3.2l5.69,1.93c0.06,2.03-0.07,4.05-0.37,6.06h-31.21
				c-0.23-1.89-0.33-3.79-0.29-5.69l4.41-1.01c2.26-0.97,3.69-3.23,3.58-5.69l0.27-12.67V77.48c0.05-1.55-0.81-2.99-2.2-3.67
				l-5.97-2.39c-0.11-1.91,0.05-3.82,0.46-5.69h35.99c12.94,0,24.78,5.05,24.78,18.64c-0.3,7.37-4.64,13.97-11.29,17.15
				c2.34,5.11,5.2,9.97,8.54,14.51c3,4.62,7.56,8.01,12.85,9.55L443.82,132.85z M416.83,85.94c0-8.36-5.79-12.12-16.07-12.12h-4.04
				v23.59l6.7-0.09c9.73-0.09,13.31-3.4,13.31-11.38L416.83,85.94z"/>
			<path id="Path_1709" class="st0" d="M511.03,130.65h-29.01c-0.68-1.91-0.96-3.94-0.83-5.97l4.87-1.74
				c1.82-0.43,3.08-2.08,3.03-3.95c-0.03-1.17-0.28-2.32-0.73-3.4l-3.12-9.55h-20.47l-3.3,8.72c-0.4,1.12-0.62,2.3-0.65,3.49
				c-0.16,2.14,1.29,4.07,3.4,4.5l6.61,1.93c0.09,2-0.1,4.01-0.55,5.97H445.2c-0.4-1.81-0.55-3.66-0.46-5.51
				c1.89-1.5,3.4-3.41,4.41-5.6l22.58-52.24l14.41-3.03l21.39,55.44c1.03,2.07,2.43,3.94,4.13,5.51
				C511.75,127.06,511.53,128.89,511.03,130.65z M478.25,84.74l-2.21-7.89h-0.55l-2.57,7.62l-5.23,13.95h15.06L478.25,84.74z"/>
			<path id="Path_1710" class="st0" d="M586.3,72.9c-2.26,1.32-3.68,3.72-3.76,6.33v50.49l-12.03,3.67l-35.25-47.74h-0.64l0.37,7.34
				v12.58l0.29,13.86c0,2.21,0.18,2.94,2.2,3.49l7.8,2.2c0.02,1.85-0.13,3.69-0.46,5.51H517.2c-0.3-1.79-0.42-3.6-0.37-5.42
				l4.41-1.19c2.85-0.74,4.31-5.23,4.41-8.17l0.18-10.28V78.13c-0.01-1.92-1.02-3.69-2.66-4.68l-5.6-2.85
				c-0.07-1.62-0.01-3.25,0.18-4.86h21.3l34.24,45.17h0.64l-0.55-9.64V79.32c-0.07-2.4-1.35-4.61-3.4-5.88l-5.79-2.85
				c-0.05-1.63,0.07-3.26,0.37-4.86h25.89c0.21,1.55,0.33,3.11,0.37,4.68L586.3,72.9z"/>
			<path id="Path_1711" class="st0" d="M662.03,131.75c-4.04,0-16.43-0.74-23.41-8.63l-19.55-22.13v3.86l0.18,15.52
				c0.09,1.74,0.37,2.38,2.11,2.75l5.6,1.29c0.1,2.1-0.12,4.2-0.64,6.24h-30.66c-0.28-1.85-0.37-3.73-0.28-5.6l3.31-0.92
				c2.4-0.63,4.15-2.68,4.4-5.14l0.28-14.14V78.13c0-3.03-2.94-4.59-4.68-5.32l-3.31-1.47c-0.1-1.87,0.02-3.75,0.37-5.6h30.94
				c0.2,2.08,0.11,4.18-0.28,6.24l-4.04,1.01c-2.14,0.65-3.52,2.73-3.31,4.96v19.09l18.18-17.35c0.85-0.74,1.35-1.81,1.38-2.94
				c0.12-1.52-0.58-2.99-1.83-3.86l-2.57-1.38c-0.12-1.94,0.04-3.89,0.46-5.78h25.98v4.5l-28.28,24.6l13.31,13.59
				c5.43,5.9,11.43,11.25,17.9,15.98L662.03,131.75z"/>
			<path id="Path_1712" class="st0" d="M690.56,131.65c-8.26,0.18-16.44-1.72-23.78-5.51l1.74-16.61h6.61
				c0.73,8.99,8.26,13.77,16.8,13.77c3.58,0,10.76-1.38,10.76-6.15c0-3.67-5.42-6.06-11.94-8.99c-9.45-4.22-21.12-9.45-21.12-21.48
				c0-11.84,12.85-21.57,24.15-21.57c7.63-0.05,15.17,1.55,22.12,4.68v14.23h-5.97c-1.84-7.34-8.9-10.19-15.88-10.19
				c-4.96,0-9.83,1.56-9.83,7.34c0,3.95,6.88,6.52,14.5,9.82c9.55,4.13,20.2,9.27,20.2,19.74
				C718.94,125.69,703.33,131.65,690.56,131.65z"/>
		</g>
		<g id="Group_4433" transform="translate(0 32.621)">
			<path id="Path_1713" class="st1" d="M180.82,126.78H184l3.99,12.41l4.11-12.45h2.49l4.11,12.45l3.99-12.41h3.08l-5.83,16.86
				h-2.54l-4.11-12.03l-4.11,12.03h-2.54L180.82,126.78z"/>
			<path id="Path_1714" class="st1" d="M207.13,135.19v-0.05c0-4.83,3.91-8.75,8.75-8.75c4.82,0,8.73,3.89,8.75,8.71v0.05
				c0.01,4.83-3.89,8.76-8.73,8.77C211.07,143.93,207.15,140.02,207.13,135.19L207.13,135.19z M221.55,135.19v-0.05
				c0.12-3.16-2.34-5.83-5.51-5.95c-0.06,0-0.12,0-0.18,0c-3.12,0-5.65,2.54-5.65,5.66c0,0.08,0,0.16,0.01,0.24v0.05
				c-0.12,3.16,2.35,5.83,5.51,5.94c0.06,0,0.12,0,0.18,0c3.12,0,5.65-2.54,5.65-5.66C221.56,135.35,221.55,135.27,221.55,135.19z"
				/>
			<path id="Path_1715" class="st1" d="M228.19,126.78h7.46c1.77-0.1,3.5,0.5,4.83,1.67c0.92,0.97,1.42,2.27,1.39,3.61v0.05
				c0.07,2.43-1.61,4.57-3.99,5.07l4.52,6.33h-3.47l-4.11-5.83h-3.68v5.83h-2.94V126.78z M235.43,135.07c2.1,0,3.44-1.1,3.44-2.8
				v-0.05c0-1.79-1.29-2.77-3.47-2.77h-4.28v5.62H235.43z"/>
			<path id="Path_1716" class="st1" d="M245.47,126.78h2.94v14.05h8.8v2.68h-11.74V126.78z"/>
			<path id="Path_1717" class="st1" d="M260.26,126.78h6.24c4.6-0.3,8.57,3.17,8.87,7.77c0.01,0.18,0.02,0.36,0.02,0.55v0.05
				c0,4.63-3.75,8.38-8.37,8.38c-0.17,0-0.35-0.01-0.52-0.02h-6.24V126.78z M266.5,140.83c3.01,0.2,5.6-2.07,5.81-5.08
				c0.01-0.19,0.02-0.38,0.01-0.57v-0.05c0.11-3.03-2.25-5.58-5.28-5.7c-0.18-0.01-0.36,0-0.53,0.01h-3.3v11.38L266.5,140.83z"/>
			<path id="Path_1718" class="st1" d="M277.73,132.3c1.45-0.26,2.15-1,2.03-2.24h-1.22v-3.27h3.18v2.79
				c0.27,1.91-1.06,3.67-2.97,3.94c-0.24,0.03-0.47,0.04-0.71,0.03L277.73,132.3z"/>
			<path id="Path_1719" class="st1" d="M284.26,141.06l1.77-2.1c1.42,1.38,3.31,2.15,5.29,2.17c1.81,0,2.96-0.84,2.96-2.1v-0.05
				c0-1.19-0.67-1.84-3.78-2.56c-3.56-0.87-5.57-1.91-5.57-4.99v-0.05c0.13-2.82,2.52-5.01,5.34-4.89c0.12,0.01,0.25,0.02,0.37,0.03
				c2.21-0.04,4.36,0.7,6.07,2.1l-1.58,2.22c-1.28-1.06-2.88-1.66-4.54-1.72c-1.72,0-2.72,0.87-2.72,1.98v0.05
				c0,1.29,0.76,1.87,3.97,2.62c3.54,0.87,5.38,2.13,5.38,4.9v0.05c0,3.13-2.46,5-5.98,5C288.66,143.74,286.17,142.79,284.26,141.06
				z"/>
			<path id="Path_1720" class="st1" d="M307.84,126.78h2.94v14.05h8.8v2.68h-11.74L307.84,126.78z"/>
			<path id="Path_1721" class="st1" d="M328.57,126.66h2.72l7.36,16.86h-3.11l-1.7-4.04h-7.91l-1.72,4.04h-3.01L328.57,126.66z
				 M332.78,136.86l-2.89-6.69l-2.87,6.69H332.78z"/>
			<path id="Path_1722" class="st1" d="M341.51,126.78h7.46c1.77-0.1,3.5,0.5,4.83,1.67c0.92,0.97,1.42,2.27,1.38,3.61v0.05
				c0.07,2.43-1.61,4.57-3.99,5.07l4.52,6.33h-3.44l-4.11-5.83h-3.68v5.83h-2.96V126.78z M348.75,135.07c2.1,0,3.44-1.1,3.44-2.8
				v-0.05c0-1.79-1.29-2.77-3.47-2.77h-4.28v5.62H348.75z"/>
			<path id="Path_1723" class="st1" d="M358.06,135.19v-0.05c-0.07-4.71,3.69-8.58,8.4-8.65c0.08,0,0.16,0,0.23,0
				c2.36-0.11,4.67,0.7,6.43,2.27l-1.87,2.22c-1.26-1.2-2.95-1.84-4.69-1.79c-3.12,0.13-5.55,2.76-5.43,5.89c0,0.01,0,0.01,0,0.02
				v0.05c-0.21,3.08,2.11,5.75,5.19,5.96c0.17,0.01,0.34,0.02,0.5,0.01c1.45,0.02,2.86-0.43,4.04-1.27v-3.12h-4.29v-2.56h7.12v7.03
				c-1.94,1.68-4.41,2.61-6.98,2.62c-4.58,0.21-8.46-3.34-8.67-7.92C358.05,135.66,358.05,135.43,358.06,135.19z"/>
			<path id="Path_1724" class="st1" d="M377.54,126.78h12.41v2.62h-9.47v4.36h8.39v2.62h-8.39v4.49h9.59v2.62h-12.53L377.54,126.78z
				"/>
			<path id="Path_1725" class="st1" d="M392.42,141.06l1.77-2.1c1.42,1.38,3.31,2.15,5.29,2.17c1.82,0,2.96-0.84,2.96-2.1v-0.05
				c0-1.19-0.67-1.84-3.78-2.56c-3.56-0.87-5.57-1.91-5.57-4.99v-0.05c0.13-2.82,2.52-5.01,5.34-4.89c0.12,0.01,0.25,0.02,0.37,0.03
				c2.21-0.04,4.36,0.7,6.07,2.1l-1.58,2.22c-1.29-1.06-2.88-1.66-4.54-1.72c-1.72,0-2.72,0.87-2.72,1.98v0.05
				c0,1.29,0.76,1.87,3.97,2.62c3.54,0.87,5.38,2.13,5.38,4.9v0.05c0,3.13-2.46,5-5.97,5C396.83,143.74,394.34,142.79,392.42,141.06
				z"/>
			<path id="Path_1726" class="st1" d="M412.6,129.5h-5.31v-2.72h13.58v2.72h-5.31v14.01h-2.97L412.6,129.5z"/>
			<path id="Path_1727" class="st1" d="M430.88,136.41v-9.63h2.94v9.51c0,3.11,1.6,4.78,4.23,4.78c2.63,0,4.21-1.58,4.21-4.65v-9.63
				h2.94v9.49c0.47,3.66-2.13,7.01-5.79,7.48c-0.47,0.06-0.94,0.07-1.41,0.03c-3.63,0.32-6.83-2.36-7.15-5.99
				C430.82,137.33,430.82,136.87,430.88,136.41z"/>
			<path id="Path_1728" class="st1" d="M449.24,126.78h2.73l8.96,11.57v-11.57h2.91v16.73h-2.46l-9.23-11.92v11.92h-2.9V126.78z"/>
			<path id="Path_1729" class="st1" d="M468.28,126.78h2.94v16.73h-2.94V126.78z"/>
			<path id="Path_1730" class="st1" d="M474.26,126.78h3.25l5.05,12.86l5.02-12.86h3.18l-6.96,16.86h-2.58L474.26,126.78z"/>
			<path id="Path_1731" class="st1" d="M493.62,126.78h12.41v2.62h-9.47v4.36h8.39v2.62h-8.39v4.49h9.59v2.62h-12.53L493.62,126.78z
				"/>
			<path id="Path_1732" class="st1" d="M509.63,126.78h7.46c1.77-0.1,3.5,0.5,4.83,1.67c0.92,0.97,1.42,2.27,1.39,3.61v0.05
				c0.07,2.44-1.61,4.57-3.99,5.07l4.52,6.33h-3.47l-4.11-5.83h-3.68v5.83h-2.94V126.78z M516.87,135.07c2.1,0,3.45-1.1,3.45-2.8
				v-0.05c0-1.79-1.29-2.77-3.47-2.77h-4.28v5.62H516.87z"/>
			<path id="Path_1733" class="st1" d="M525.78,141.06l1.77-2.1c1.42,1.38,3.31,2.15,5.28,2.17c1.82,0,2.97-0.84,2.97-2.1v-0.05
				c0-1.19-0.67-1.84-3.78-2.56c-3.56-0.87-5.57-1.91-5.57-4.99v-0.05c0.13-2.82,2.52-5.01,5.34-4.89c0.12,0.01,0.25,0.02,0.37,0.03
				c2.21-0.04,4.36,0.7,6.07,2.1l-1.58,2.22c-1.28-1.06-2.88-1.66-4.54-1.72c-1.72,0-2.72,0.87-2.72,1.98v0.05
				c0,1.29,0.77,1.87,3.97,2.62c3.54,0.87,5.38,2.13,5.38,4.9v0.05c0,3.13-2.46,5-5.98,5C530.18,143.74,527.69,142.79,525.78,141.06
				z"/>
			<path id="Path_1734" class="st1" d="M542.37,126.78h2.94v16.73h-2.94V126.78z"/>
			<path id="Path_1735" class="st1" d="M553.89,129.5h-5.31v-2.72h13.58v2.72h-5.31v14.01h-2.96L553.89,129.5z"/>
			<path id="Path_1736" class="st1" d="M570.2,136.91l-6.65-10.13h3.47l4.69,7.41l4.73-7.41h3.37l-6.64,10.06v6.67h-2.97
				L570.2,136.91z"/>
			<path id="Path_1737" class="st1" d="M589.55,126.78h7.46c1.77-0.1,3.5,0.5,4.83,1.67c0.92,0.97,1.42,2.27,1.39,3.61v0.05
				c0.07,2.43-1.61,4.57-3.99,5.07l4.52,6.33h-3.47l-4.11-5.83h-3.68v5.83h-2.94L589.55,126.78z M596.79,135.07
				c2.1,0,3.44-1.1,3.44-2.8v-0.05c0-1.79-1.29-2.77-3.47-2.77h-4.28v5.62H596.79z"/>
			<path id="Path_1738" class="st1" d="M612.75,126.66h2.72l7.36,16.86h-3.11l-1.7-4.04h-7.91l-1.72,4.04h-3.01L612.75,126.66z
				 M616.96,136.86l-2.89-6.69l-2.87,6.69H616.96z"/>
			<path id="Path_1739" class="st1" d="M625.71,126.78h2.73l8.97,11.57v-11.57h2.89v16.73h-2.46l-9.23-11.92v11.92h-2.89
				L625.71,126.78z"/>
			<path id="Path_1740" class="st1" d="M644.59,126.78h2.94v8.41l7.96-8.41h3.61l-6.95,7.2l7.27,9.54h-3.56l-5.71-7.53l-2.62,2.68
				v4.85h-2.94L644.59,126.78z"/>
			<path id="Path_1741" class="st1" d="M662.09,126.78h2.94v16.73h-2.94V126.78z"/>
			<path id="Path_1742" class="st1" d="M669.49,126.78h2.72l8.97,11.57v-11.57h2.89v16.73h-2.46l-9.23-11.92v11.92h-2.89V126.78z"/>
			<path id="Path_1743" class="st1" d="M687.63,135.19v-0.05c-0.07-4.71,3.69-8.58,8.4-8.65c0.08,0,0.15,0,0.23,0
				c2.36-0.11,4.67,0.7,6.43,2.27l-1.86,2.22c-1.26-1.2-2.95-1.84-4.69-1.79c-3.12,0.13-5.55,2.76-5.43,5.88c0,0.01,0,0.01,0,0.02
				v0.05c-0.21,3.08,2.11,5.75,5.19,5.96c0.17,0.01,0.34,0.02,0.5,0.01c1.45,0.02,2.86-0.43,4.04-1.27v-3.12h-4.28v-2.56h7.12v7.03
				c-1.94,1.68-4.41,2.61-6.98,2.62c-4.58,0.21-8.47-3.33-8.68-7.91C687.62,135.67,687.62,135.43,687.63,135.19z"/>
			<path id="Path_1744" class="st1" d="M705.98,141.06l1.77-2.1c1.42,1.37,3.31,2.15,5.28,2.17c1.82,0,2.97-0.84,2.97-2.1v-0.05
				c0-1.19-0.67-1.84-3.78-2.56c-3.56-0.87-5.57-1.91-5.57-4.99v-0.05c0.13-2.82,2.52-5.01,5.34-4.89c0.12,0.01,0.25,0.02,0.37,0.03
				c2.21-0.04,4.36,0.7,6.07,2.1l-1.58,2.22c-1.29-1.06-2.88-1.66-4.54-1.72c-1.72,0-2.72,0.87-2.72,1.98v0.05
				c0,1.29,0.76,1.87,3.97,2.62c3.54,0.87,5.38,2.13,5.38,4.9v0.05c0,3.13-2.46,5-5.98,5C710.39,143.74,707.9,142.79,705.98,141.06z
				"/>
		</g>
		<rect id="Rectangle_1294" x="180.82" y="147.16" class="st1" width="538.12" height="2.63"/>
	</g>
	<g id="Group_4447" transform="translate(852.241 1249.509)">
		<g id="Group_4436" transform="translate(10.818 9.386)">
			<g id="Group_4435" transform="translate(2.548 15.916)">
				<path id="Path_1745" class="st0" d="M96.62,64.65c-1.14,0.44-2.37,0.87-2.37,3.51v27.79c0,19.82-16.66,24.55-27.62,24.55
					c-12.01,0-28.41-1.4-28.41-22.18V69.47c0.07-1.88-0.91-3.63-2.54-4.56l-4.65-1.84c-0.01-1.79,0.11-3.57,0.35-5.35h30.43
					c0.23,1.92,0.29,3.86,0.18,5.79l-5.88,1.05c-1.32,0.05-2.36,1.16-2.31,2.48c0,0.11,0.02,0.22,0.03,0.32v28.58
					c0,13.66,9.38,15.78,16.31,15.78c6.4,0,13.15-2.98,13.15-17.89V70.17c0.07-2.93-2.02-5.47-4.91-5.96l-3.78-1.14
					c-0.1-1.78-0.07-3.57,0.09-5.35h25.95c0.29,1.83,0.4,3.68,0.35,5.52L96.62,64.65z"/>
				<path id="Path_1746" class="st0" d="M172.63,121.82c-8.11,1.3-16.39-0.97-22.71-6.22c-5.17-4.3-9.73-12.19-13.41-20.52
					l-1.84,0.09h-6.93l0.26,13.85c0,1.74,0.35,2.62,1.84,3.07l5.44,1.84c0.05,1.94-0.06,3.87-0.35,5.79h-29.8
					c-0.21-1.8-0.3-3.62-0.26-5.44l4.21-0.97c2.16-0.93,3.52-3.09,3.42-5.44l0.26-12.1V68.95c0.05-1.48-0.78-2.85-2.1-3.51
					l-5.7-2.28c-0.1-1.82,0.05-3.65,0.44-5.44h34.37c12.36,0,23.67,4.82,23.67,17.8c-0.28,7.04-4.43,13.35-10.78,16.39
					c2.23,4.88,4.96,9.53,8.14,13.85c2.87,4.41,7.23,7.65,12.28,9.12L172.63,121.82z M146.85,77.01c0-7.98-5.52-11.57-15.34-11.57
					h-3.86v22.53l6.4-0.09c9.3-0.09,12.71-3.24,12.71-10.87L146.85,77.01z"/>
			</g>
			<path id="Path_1747" class="st0" d="M104.66,27.36h-0.11c-43.31,0.03-78.4,35.17-78.37,78.49c0.03,43.32,35.17,78.4,78.49,78.37
				c43.31-0.03,78.4-35.17,78.37-78.49C183,62.47,147.93,27.4,104.66,27.36z M151.46,48.38c-5.17,1.42-10.42,2.55-15.71,3.37
				c-3.43-7.03-8.33-13.23-14.37-18.19c11.03,2.57,21.32,7.64,30.08,14.82H151.46z M106.75,31.78c9.23,1,17.91,8.46,24.51,20.64
				c-8.13,1.06-16.32,1.62-24.51,1.69V31.78z M87.86,33.57c-6.04,4.96-10.95,11.17-14.37,18.2c-5.3-0.83-10.55-1.96-15.72-3.38
				c8.76-7.18,19.04-12.25,30.07-14.82L87.86,33.57z M102.48,31.78V54.1c-8.2-0.07-16.39-0.63-24.52-1.69
				c6.59-12.17,15.27-19.63,24.5-20.63L102.48,31.78z M57.77,163.2c5.17-1.42,10.42-2.55,15.72-3.37
				c3.43,7.02,8.33,13.23,14.37,18.19c-11.04-2.57-21.34-7.63-30.11-14.82H57.77z M102.48,179.8c-9.22-1.01-17.91-8.46-24.52-20.64
				c8.13-1.06,16.32-1.62,24.52-1.69V179.8z M121.38,178.02c6.04-4.96,10.94-11.16,14.37-18.19c5.3,0.83,10.54,1.95,15.71,3.37
				c-8.76,7.18-19.06,12.25-30.1,14.82H121.38z M106.76,179.8v-22.32c8.2,0.07,16.38,0.63,24.51,1.69
				c-6.63,12.17-15.3,19.62-24.53,20.63H106.76z M155.29,159.86c-5.77-1.73-11.65-3.09-17.59-4.05c1.83-4.07,3.37-8.25,4.63-12.53
				h-4.48c-1.24,4.05-2.75,8.01-4.54,11.85c-8.8-1.21-17.67-1.86-26.55-1.93v-9.92h-4.3v9.92c-8.88,0.07-17.75,0.71-26.55,1.93
				c-1.78-3.84-3.3-7.8-4.54-11.85h-4.48c1.26,4.28,2.8,8.46,4.63,12.53c-5.95,0.96-11.82,2.32-17.59,4.05
				C24.07,131.95,22.49,85.11,50.4,55.25c1.13-1.21,2.31-2.39,3.52-3.52c5.77,1.73,11.65,3.08,17.59,4.04
				c-1.83,4.07-3.37,8.25-4.63,12.53h4.48c1.24-4.05,2.76-8.01,4.54-11.85c8.8,1.22,17.67,1.86,26.55,1.93v9.92h4.29v-9.92
				c8.88-0.07,17.75-0.72,26.55-1.94c1.78,3.84,3.3,7.8,4.54,11.85h4.48c-1.25-4.28-2.8-8.46-4.63-12.53
				c5.95-0.96,11.82-2.31,17.59-4.04c29.86,27.92,31.43,74.76,3.51,104.61c-1.13,1.21-2.3,2.38-3.51,3.51L155.29,159.86z"/>
		</g>
		<g id="Group_4437" transform="translate(0 32.358)">
			<path id="Path_1748" class="st0" d="M28.07,79.36l-7.05,5.03l2.75,8.21l-6.98-5.15L9.82,92.6l2.75-8.21l-7.05-5.03l8.66,0.08
				l2.62-8.26l2.62,8.26L28.07,79.36z"/>
		</g>
		<g id="Group_4438" transform="translate(6.562 53.192)">
			<path id="Path_1749" class="st1" d="M40.59,119.1l-7.05,5.03l2.75,8.21l-6.98-5.15l-6.96,5.15l2.75-8.21l-7.05-5.03l8.66,0.07
				l2.62-8.26l2.62,8.26L40.59,119.1z"/>
		</g>
		<g id="Group_4439" transform="translate(23.302)">
			<path id="Path_1750" class="st0" d="M68.21,30.89l-6.98-5.15l-6.98,5.15l2.75-8.21l-7.05-5.03l8.66,0.07l2.62-8.26l2.62,8.26
				l8.66-0.07l-7.05,5.03L68.21,30.89z"/>
		</g>
		<g id="Group_4440" transform="translate(61.276 12.162)">
			<path id="Path_1751" class="st0" d="M126.71,54.09l2.75-8.21l-7.05-5.03l8.66,0.07l2.62-8.26l2.62,8.26l8.66-0.07l-7.05,5.03
				l2.75,8.21l-6.96-5.15L126.71,54.09z"/>
		</g>
		<g id="Group_4441" transform="translate(61.444 52.037)">
			<path id="Path_1752" class="st0" d="M122.73,116.89l8.66,0.07l2.62-8.26l2.62,8.26l8.66-0.07l-7.05,5.03l2.75,8.21l-6.98-5.15
				l-6.98,5.15l2.75-8.21L122.73,116.89z"/>
		</g>
		<g id="Group_4442" transform="translate(23.573 64.518)">
			<path id="Path_1753" class="st0" d="M61.77,132.51l2.62,8.26l8.66-0.07l-7.05,5.03l2.75,8.21l-6.98-5.15l-6.98,5.15l2.75-8.21
				l-7.05-5.03l8.66,0.07L61.77,132.51z"/>
		</g>
		<g id="Group_4443" transform="translate(44.537 65.354)">
			<path id="Path_1754" class="st1" d="M101.75,134.11l2.62,8.26l8.66-0.08l-7.05,5.03l2.75,8.21l-6.97-5.15l-6.98,5.15l2.75-8.21
				l-7.05-5.03l8.66,0.08L101.75,134.11z"/>
		</g>
		<g id="Group_4444" transform="translate(67.838 32.996)">
			<path id="Path_1755" class="st1" d="M146.19,72.39l2.62,8.26l8.66-0.08l-7.05,5.03l2.75,8.21l-6.98-5.15l-6.96,5.15l2.75-8.21
				l-7.05-5.03l8.66,0.08L146.19,72.39z"/>
		</g>
		<g id="Group_4445" transform="translate(44.265 0.836)">
			<path id="Path_1756" class="st1" d="M101.23,11.06l2.62,8.26l8.66-0.07l-7.05,5.03l2.75,8.21l-6.96-5.15l-6.98,5.15l2.75-8.21
				l-7.05-5.03l8.66,0.07L101.23,11.06z"/>
		</g>
		<g id="Group_4446" transform="translate(6.394 13.317)">
			<path id="Path_1757" class="st1" d="M29,34.86l2.62,8.26l8.66-0.08l-7.05,5.03l2.75,8.21L29,51.14l-6.96,5.15l2.75-8.21
				l-7.05-5.03l8.66,0.08L29,34.86z"/>
		</g>
	</g>
</g>
</svg>
