<?xml version="1.0" encoding="utf-8"?>
<!-- Generator: Adobe Illustrator 27.3.1, SVG Export Plug-In . SVG Version: 6.00 Build 0)  -->
<svg version="1.1" id="Layer_1" xmlns="http://www.w3.org/2000/svg" xmlns:xlink="http://www.w3.org/1999/xlink" x="0px" y="0px"
	 viewBox="0 0 816.36 56" style="enable-background:new 0 0 816.36 56;" xml:space="preserve">
<style type="text/css">
	.st0{fill:#FFFFFF;}
	.st1{fill:#B2B1B2;}
</style>
<g id="Group_4536" transform="translate(-15 -44)">
	<g id="Group_4432" transform="translate(120 44)">
		<path id="Path_1705" class="st0" d="M184.32,12.78c-0.7,0.27-1.46,0.54-1.46,2.16v17.14c0,12.22-10.27,15.14-17.04,15.14
			c-7.41,0-17.52-0.86-17.52-13.68V15.76c0.04-1.15-0.57-2.23-1.57-2.8l-2.87-1.13c-0.01-1.1,0.07-2.21,0.21-3.3h18.77
			c0.14,1.18,0.18,2.38,0.11,3.57l-3.62,0.65c-0.82,0.03-1.45,0.72-1.42,1.54c0,0.06,0.01,0.13,0.02,0.19V32.1
			c0,8.44,5.79,9.73,10.06,9.73c3.95,0,8.11-1.84,8.11-11.03V16.2c0.04-1.81-1.25-3.37-3.03-3.68l-2.33-0.7
			c-0.06-1.1-0.04-2.2,0.06-3.3h16.01c0.18,1.13,0.25,2.27,0.21,3.41L184.32,12.78z"/>
		<path id="Path_1706" class="st0" d="M230.39,12.72c-1.33,0.78-2.17,2.19-2.22,3.74V46.2l-7.08,2.16l-20.78-28.12h-0.38l0.22,4.33
			v7.41l0.16,8.17c0,1.3,0.11,1.73,1.3,2.05l4.6,1.3c0.01,1.09-0.08,2.17-0.27,3.24h-16.28c-0.18-1.05-0.25-2.12-0.22-3.19l2.6-0.7
			c1.68-0.43,2.54-3.08,2.6-4.81l0.11-6.06V15.82c-0.01-1.13-0.6-2.17-1.57-2.76l-3.3-1.68c-0.04-0.96-0.01-1.91,0.11-2.86h12.55
			l20.17,26.61h0.38l-0.32-5.68V16.53c-0.04-1.42-0.79-2.72-2-3.46l-3.41-1.68c-0.03-0.96,0.04-1.92,0.22-2.86h15.25
			c0.12,0.91,0.19,1.84,0.22,2.76L230.39,12.72z"/>
		<path id="Path_1707" class="st0" d="M253.97,46.74H235.9c-0.21-1.09-0.27-2.2-0.16-3.3l1.95-0.54c1.41-0.37,2.45-1.58,2.6-3.04
			l0.16-8.33V15.8c0-1.78-1.73-2.7-2.76-3.14l-1.95-0.87c-0.11-1.1-0.05-2.21,0.16-3.3h18.28c0.12,1.23,0.06,2.46-0.16,3.68
			l-2.38,0.6c-1.25,0.4-2.06,1.61-1.95,2.92v15.84l0.11,9.14c0.05,1.03,0.27,1.3,1.24,1.62l3.3,0.76
			C254.4,44.3,254.27,45.54,253.97,46.74z"/>
		<path id="Path_1708" class="st0" d="M298.8,48.04c-5,0.8-10.11-0.6-14.01-3.84c-3.62-3.58-6.44-7.9-8.27-12.65l-1.14,0.05h-4.27
			l0.16,8.54c0,1.08,0.22,1.63,1.14,1.89l3.35,1.14c0.03,1.19-0.04,2.39-0.22,3.57h-18.39c-0.13-1.11-0.19-2.23-0.16-3.35l2.6-0.6
			c1.33-0.57,2.17-1.91,2.1-3.35l0.16-7.47V15.43c0.03-0.91-0.48-1.76-1.3-2.16l-3.51-1.4c-0.06-1.12,0.03-2.25,0.27-3.35h21.2
			c7.62,0,14.6,2.97,14.6,10.97c-0.17,4.34-2.73,8.23-6.65,10.11c1.38,3.01,3.07,5.88,5.03,8.54c1.77,2.72,4.46,4.72,7.57,5.62
			L298.8,48.04z M282.9,20.41c0-4.92-3.41-7.14-9.46-7.14h-2.38v13.9l3.95-0.05c5.73-0.05,7.84-2,7.84-6.7L282.9,20.41z"/>
		<path id="Path_1709" class="st0" d="M338.38,46.74h-17.09c-0.4-1.13-0.56-2.32-0.49-3.52l2.87-1.03c1.07-0.26,1.81-1.23,1.78-2.33
			c-0.02-0.69-0.17-1.37-0.43-2l-1.84-5.62h-12.06l-1.95,5.14c-0.24,0.66-0.37,1.35-0.38,2.05c-0.1,1.26,0.76,2.4,2,2.65l3.89,1.14
			c0.05,1.18-0.06,2.36-0.32,3.52H299.6c-0.24-1.06-0.33-2.16-0.27-3.25c1.11-0.88,2-2.01,2.6-3.3l13.31-30.77l8.49-1.78
			l12.61,32.66c0.61,1.22,1.43,2.32,2.43,3.25C338.81,44.62,338.68,45.7,338.38,46.74z M319.07,19.7l-1.29-4.66h-0.32l-1.52,4.49
			l-3.08,8.22h8.87L319.07,19.7z"/>
		<path id="Path_1710" class="st0" d="M382.71,12.72c-1.33,0.78-2.17,2.19-2.22,3.74V46.2l-7.09,2.16l-20.77-28.12h-0.38l0.22,4.33
			v7.41l0.16,8.17c0,1.3,0.11,1.73,1.3,2.05l4.6,1.3c0.01,1.09-0.08,2.17-0.27,3.24h-16.28c-0.18-1.05-0.25-2.12-0.22-3.19l2.6-0.7
			c1.68-0.43,2.54-3.08,2.6-4.81l0.11-6.06V15.82c-0.01-1.13-0.6-2.17-1.57-2.76l-3.3-1.68c-0.04-0.96-0.01-1.91,0.11-2.86h12.55
			l20.17,26.61h0.38l-0.32-5.68V16.53c-0.04-1.42-0.79-2.72-2-3.46l-3.41-1.68c-0.03-0.96,0.04-1.92,0.22-2.86h15.25
			c0.12,0.91,0.19,1.84,0.22,2.76L382.71,12.72z"/>
		<path id="Path_1711" class="st0" d="M427.33,47.39c-2.38,0-9.68-0.43-13.79-5.08l-11.52-13.03v2.27l0.11,9.14
			c0.05,1.03,0.22,1.4,1.24,1.62l3.3,0.76c0.06,1.24-0.07,2.48-0.38,3.68h-18.06c-0.16-1.09-0.22-2.2-0.16-3.3l1.95-0.54
			c1.41-0.37,2.45-1.58,2.6-3.04l0.16-8.33V15.8c0-1.78-1.73-2.7-2.76-3.14l-1.95-0.87c-0.06-1.1,0.01-2.21,0.22-3.3h18.22
			c0.12,1.23,0.06,2.46-0.16,3.68l-2.38,0.6c-1.26,0.39-2.08,1.61-1.95,2.92v11.25l10.71-10.22c0.5-0.44,0.8-1.06,0.81-1.73
			c0.07-0.9-0.34-1.76-1.08-2.27l-1.52-0.81c-0.07-1.14,0.02-2.29,0.27-3.41h15.3v2.65l-16.66,14.49l7.84,8
			c3.2,3.47,6.73,6.63,10.55,9.41L427.33,47.39z"/>
		<path id="Path_1712" class="st0" d="M444.14,47.34c-4.87,0.1-9.68-1.01-14.01-3.25l1.03-9.79h3.89c0.43,5.3,4.87,8.11,9.9,8.11
			c2.1,0,6.33-0.81,6.33-3.62c0-2.16-3.19-3.57-7.03-5.3c-5.57-2.49-12.44-5.57-12.44-12.65c0-6.98,7.57-12.71,14.22-12.71
			c4.49-0.03,8.94,0.91,13.03,2.76v8.38h-3.52c-1.08-4.33-5.25-6-9.35-6c-2.92,0-5.79,0.92-5.79,4.33c0,2.33,4.06,3.84,8.54,5.79
			c5.63,2.43,11.91,5.46,11.91,11.63C460.85,43.82,451.66,47.34,444.14,47.34z"/>
	</g>
	<g id="Group_4534" transform="translate(264 45)">
		<g id="Group_4529" transform="translate(0 0)">
			<path id="Path_1750" class="st0" d="M366.65,44.94l-11.68-8.64l-11.69,8.64l4.61-13.77l-11.83-8.44l14.54,0.12l4.37-13.86
				l4.37,13.86l14.54-0.12l-11.83,8.44L366.65,44.94z"/>
		</g>
		<g id="Group_4530" transform="translate(20.318 0)">
			<path id="Path_1756" class="st1" d="M382.08,8.98l4.37,13.86l14.54-0.12l-11.83,8.44l4.61,13.77l-11.69-8.64l-11.68,8.64
				L375,31.16l-11.83-8.44l14.54,0.12L382.08,8.98z"/>
		</g>
		<g id="Group_4531" transform="translate(40.639 0)">
			<path id="Path_1750-2" class="st0" d="M420.89,44.94l-11.68-8.64l-11.69,8.64l4.61-13.77l-11.83-8.44l14.54,0.12l4.37-13.86
				l4.37,13.86l14.54-0.12l-11.83,8.44L420.89,44.94z"/>
		</g>
		<g id="Group_4532" transform="translate(60.957 0)">
			<path id="Path_1756-2" class="st1" d="M436.32,8.98l4.37,13.86l14.54-0.12l-11.83,8.44L448,44.93l-11.69-8.64l-11.68,8.64
				l4.61-13.77l-11.83-8.44l14.54,0.12L436.32,8.98z"/>
		</g>
		<g id="Group_4533" transform="translate(81.279 0)">
			<path id="Path_1750-3" class="st0" d="M475.12,44.94l-11.68-8.64l-11.69,8.64l4.61-13.77l-11.83-8.44l14.54,0.12l4.37-13.86
				l4.37,13.86l14.54-0.12l-11.83,8.44L475.12,44.94z"/>
		</g>
	</g>
	<g id="Group_4535" transform="translate(15 45)">
		<g id="Group_4529-2" transform="translate(0 0)">
			<path id="Path_1750-4" class="st0" d="M34.33,44.94l-11.68-8.64l-11.69,8.64l4.61-13.77L3.74,22.73l14.54,0.12l4.37-13.86
				l4.37,13.86l14.54-0.12l-11.83,8.44L34.33,44.94z"/>
		</g>
		<g id="Group_4530-2" transform="translate(20.318 0)">
			<path id="Path_1756-3" class="st1" d="M49.76,8.98l4.37,13.86l14.54-0.12l-11.83,8.44l4.61,13.77l-11.69-8.64l-11.68,8.64
				l4.61-13.77l-11.83-8.44l14.54,0.12L49.76,8.98z"/>
		</g>
		<g id="Group_4531-2" transform="translate(40.639 0)">
			<path id="Path_1750-5" class="st0" d="M88.57,44.94l-11.68-8.64L65.2,44.94l4.61-13.77l-11.83-8.44l14.54,0.12l4.37-13.86
				l4.37,13.86l14.54-0.12l-11.83,8.44L88.57,44.94z"/>
		</g>
		<g id="Group_4532-2" transform="translate(60.957 0)">
			<path id="Path_1756-4" class="st1" d="M104,8.98l4.37,13.86l14.54-0.12l-11.83,8.44l4.61,13.77L104,36.29l-11.68,8.64l4.61-13.77
				l-11.83-8.44l14.54,0.12L104,8.98z"/>
		</g>
		<g id="Group_4533-2" transform="translate(81.279 0)">
			<path id="Path_1750-6" class="st0" d="M142.81,44.94l-11.68-8.64l-11.69,8.64l4.61-13.77l-11.83-8.44l14.54,0.12l4.37-13.86
				l4.37,13.86l14.54-0.12l-11.83,8.44L142.81,44.94z"/>
		</g>
	</g>
</g>
</svg>
